%TF.GenerationSoftware,KiCad,Pcbnew,9.0.6*%
%TF.CreationDate,2026-07-04T20:59:39+02:00*%
%TF.ProjectId,IOT_AIR_FILTER_PROJ,494f545f-4149-4525-9f46-494c5445525f,rev?*%
%TF.SameCoordinates,Original*%
%TF.FileFunction,Soldermask,Bot*%
%TF.FilePolarity,Negative*%
%FSLAX46Y46*%
G04 Gerber Fmt 4.6, Leading zero omitted, Abs format (unit mm)*
G04 Created by KiCad (PCBNEW 9.0.6) date 2026-07-04 20:59:39*
%MOMM*%
%LPD*%
G01*
G04 APERTURE LIST*
G04 Aperture macros list*
%AMRoundRect*
0 Rectangle with rounded corners*
0 $1 Rounding radius*
0 $2 $3 $4 $5 $6 $7 $8 $9 X,Y pos of 4 corners*
0 Add a 4 corners polygon primitive as box body*
4,1,4,$2,$3,$4,$5,$6,$7,$8,$9,$2,$3,0*
0 Add four circle primitives for the rounded corners*
1,1,$1+$1,$2,$3*
1,1,$1+$1,$4,$5*
1,1,$1+$1,$6,$7*
1,1,$1+$1,$8,$9*
0 Add four rect primitives between the rounded corners*
20,1,$1+$1,$2,$3,$4,$5,0*
20,1,$1+$1,$4,$5,$6,$7,0*
20,1,$1+$1,$6,$7,$8,$9,0*
20,1,$1+$1,$8,$9,$2,$3,0*%
G04 Aperture macros list end*
%ADD10C,5.000000*%
%ADD11C,1.100000*%
%ADD12R,1.730000X2.030000*%
%ADD13O,1.730000X2.030000*%
%ADD14RoundRect,0.250000X0.450000X-0.262500X0.450000X0.262500X-0.450000X0.262500X-0.450000X-0.262500X0*%
%ADD15RoundRect,0.250000X-0.325000X-0.450000X0.325000X-0.450000X0.325000X0.450000X-0.325000X0.450000X0*%
%ADD16RoundRect,0.135000X0.135000X0.185000X-0.135000X0.185000X-0.135000X-0.185000X0.135000X-0.185000X0*%
%ADD17RoundRect,0.250000X-0.475000X0.250000X-0.475000X-0.250000X0.475000X-0.250000X0.475000X0.250000X0*%
%ADD18RoundRect,0.135000X0.185000X-0.135000X0.185000X0.135000X-0.185000X0.135000X-0.185000X-0.135000X0*%
%ADD19RoundRect,0.250000X0.475000X-0.250000X0.475000X0.250000X-0.475000X0.250000X-0.475000X-0.250000X0*%
%ADD20R,1.600000X0.300000*%
%ADD21RoundRect,0.250000X0.262500X0.450000X-0.262500X0.450000X-0.262500X-0.450000X0.262500X-0.450000X0*%
%ADD22RoundRect,0.150000X0.700000X-0.150000X0.700000X0.150000X-0.700000X0.150000X-0.700000X-0.150000X0*%
%ADD23RoundRect,0.250000X1.100000X-0.250000X1.100000X0.250000X-1.100000X0.250000X-1.100000X-0.250000X0*%
%ADD24R,1.700000X1.700000*%
%ADD25C,1.700000*%
%ADD26R,1.498600X0.533400*%
%ADD27RoundRect,0.250000X-0.250000X-0.475000X0.250000X-0.475000X0.250000X0.475000X-0.250000X0.475000X0*%
%ADD28R,0.558800X1.765300*%
%ADD29RoundRect,0.150000X-0.150000X0.875000X-0.150000X-0.875000X0.150000X-0.875000X0.150000X0.875000X0*%
G04 APERTURE END LIST*
D10*
%TO.C,H1*%
X103500000Y-103500000D03*
%TD*%
%TO.C,H4*%
X103500000Y-126500000D03*
%TD*%
%TO.C,H2*%
X161500000Y-103500000D03*
%TD*%
%TO.C,H3*%
X161500000Y-126500000D03*
%TD*%
D11*
%TO.C,J6*%
X153540000Y-123640000D03*
D12*
X148460000Y-125800000D03*
D13*
X151000000Y-125800000D03*
X153540000Y-125800000D03*
X156080000Y-125800000D03*
%TD*%
D11*
%TO.C,J8*%
X131260000Y-123640000D03*
D12*
X126180000Y-125800000D03*
D13*
X128720000Y-125800000D03*
X131260000Y-125800000D03*
X133800000Y-125800000D03*
%TD*%
D11*
%TO.C,J9*%
X120150000Y-123640000D03*
D12*
X115070000Y-125800000D03*
D13*
X117610000Y-125800000D03*
X120150000Y-125800000D03*
X122690000Y-125800000D03*
%TD*%
D11*
%TO.C,J7*%
X142400000Y-123640000D03*
D12*
X137320000Y-125800000D03*
D13*
X139860000Y-125800000D03*
X142400000Y-125800000D03*
X144940000Y-125800000D03*
%TD*%
D14*
%TO.C,R11*%
X147200000Y-109412500D03*
X147200000Y-107587500D03*
%TD*%
D15*
%TO.C,D7*%
X139975000Y-128400000D03*
X142025000Y-128400000D03*
%TD*%
D16*
%TO.C,R5*%
X147810000Y-112000000D03*
X146790000Y-112000000D03*
%TD*%
D17*
%TO.C,C17*%
X150400000Y-114650000D03*
X150400000Y-116550000D03*
%TD*%
D18*
%TO.C,R24*%
X157700000Y-121160000D03*
X157700000Y-120140000D03*
%TD*%
D19*
%TO.C,C16*%
X124800000Y-109750000D03*
X124800000Y-107850000D03*
%TD*%
D18*
%TO.C,R27*%
X153890000Y-121160000D03*
X153890000Y-120140000D03*
%TD*%
D20*
%TO.C,U2*%
X111100000Y-109575000D03*
X111100000Y-108925000D03*
X111100000Y-108275000D03*
X111100000Y-107625000D03*
X114500000Y-107625000D03*
X114500000Y-108275000D03*
X114500000Y-108925000D03*
X114500000Y-109575000D03*
%TD*%
D14*
%TO.C,R9*%
X149600000Y-110425000D03*
X149600000Y-108600000D03*
%TD*%
D21*
%TO.C,R10*%
X125125000Y-114750000D03*
X123300000Y-114750000D03*
%TD*%
D15*
%TO.C,D10*%
X124975000Y-128400000D03*
X127025000Y-128400000D03*
%TD*%
D18*
%TO.C,R20*%
X162780000Y-121160000D03*
X162780000Y-120140000D03*
%TD*%
D22*
%TO.C,J10*%
X105050000Y-114500000D03*
X105050000Y-113250000D03*
X105050000Y-112000000D03*
X105050000Y-110750000D03*
X105050000Y-109500000D03*
D23*
X101850000Y-116350000D03*
X101850000Y-107650000D03*
%TD*%
D14*
%TO.C,R12*%
X123000000Y-120425000D03*
X123000000Y-118600000D03*
%TD*%
D15*
%TO.C,D9*%
X129975000Y-128400000D03*
X132025000Y-128400000D03*
%TD*%
%TO.C,D12*%
X114975000Y-128400000D03*
X117025000Y-128400000D03*
%TD*%
D24*
%TO.C,J3*%
X108390000Y-104790000D03*
D25*
X108390000Y-102250000D03*
X110930000Y-104790000D03*
X110930000Y-102250000D03*
X113470000Y-104790000D03*
X113470000Y-102250000D03*
X116010000Y-104790000D03*
X116010000Y-102250000D03*
X118550000Y-104790000D03*
X118550000Y-102250000D03*
X121090000Y-104790000D03*
X121090000Y-102250000D03*
X123630000Y-104790000D03*
X123630000Y-102250000D03*
X126170000Y-104790000D03*
X126170000Y-102250000D03*
X128710000Y-104790000D03*
X128710000Y-102250000D03*
X131250000Y-104790000D03*
X131250000Y-102250000D03*
X133790000Y-104790000D03*
X133790000Y-102250000D03*
X136330000Y-104790000D03*
X136330000Y-102250000D03*
X138870000Y-104790000D03*
X138870000Y-102250000D03*
X141410000Y-104790000D03*
X141410000Y-102250000D03*
X143950000Y-104790000D03*
X143950000Y-102250000D03*
X146490000Y-104790000D03*
X146490000Y-102250000D03*
X149030000Y-104790000D03*
X149030000Y-102250000D03*
X151570000Y-104790000D03*
X151570000Y-102250000D03*
X154110000Y-104790000D03*
X154110000Y-102250000D03*
X156650000Y-104790000D03*
X156650000Y-102250000D03*
%TD*%
D18*
%TO.C,R25*%
X156430000Y-121160000D03*
X156430000Y-120140000D03*
%TD*%
D19*
%TO.C,C15*%
X116900000Y-110000000D03*
X116900000Y-108100000D03*
%TD*%
D18*
%TO.C,R23*%
X158970000Y-121160000D03*
X158970000Y-120140000D03*
%TD*%
D26*
%TO.C,U4*%
X115194900Y-121545000D03*
X115194900Y-120275000D03*
X115194900Y-119005000D03*
X115194900Y-117735000D03*
X115194900Y-116465000D03*
X115194900Y-115195000D03*
X115194900Y-113925000D03*
X115194900Y-112655000D03*
X120605100Y-112655000D03*
X120605100Y-113925000D03*
X120605100Y-115195000D03*
X120605100Y-116465000D03*
X120605100Y-117735000D03*
X120605100Y-119005000D03*
X120605100Y-120275000D03*
X120605100Y-121545000D03*
%TD*%
D18*
%TO.C,R21*%
X161510000Y-121160000D03*
X161510000Y-120140000D03*
%TD*%
D27*
%TO.C,C4*%
X146450000Y-115800000D03*
X148350000Y-115800000D03*
%TD*%
D28*
%TO.C,U3*%
X128045000Y-110770850D03*
X129315000Y-110770850D03*
X130585000Y-110770850D03*
X131855000Y-110770850D03*
X133125000Y-110770850D03*
X134395000Y-110770850D03*
X135665000Y-110770850D03*
X136935000Y-110770850D03*
X138205000Y-110770850D03*
X139475000Y-110770850D03*
X140745000Y-110770850D03*
X142015000Y-110770850D03*
X143285000Y-110770850D03*
X144555000Y-110770850D03*
X144555000Y-120029150D03*
X143285000Y-120029150D03*
X142015000Y-120029150D03*
X140745000Y-120029150D03*
X139475000Y-120029150D03*
X138205000Y-120029150D03*
X136935000Y-120029150D03*
X135665000Y-120029150D03*
X134395000Y-120029150D03*
X133125000Y-120029150D03*
X131855000Y-120029150D03*
X130585000Y-120029150D03*
X129315000Y-120029150D03*
X128045000Y-120029150D03*
%TD*%
D15*
%TO.C,D8*%
X134975000Y-128400000D03*
X137025000Y-128400000D03*
%TD*%
D21*
%TO.C,R14*%
X125125000Y-116750000D03*
X123300000Y-116750000D03*
%TD*%
D27*
%TO.C,C3*%
X146450000Y-118000000D03*
X148350000Y-118000000D03*
%TD*%
D15*
%TO.C,D11*%
X119975000Y-128400000D03*
X122025000Y-128400000D03*
%TD*%
D29*
%TO.C,U9*%
X152620000Y-108750000D03*
X153890000Y-108750000D03*
X155160000Y-108750000D03*
X156430000Y-108750000D03*
X157700000Y-108750000D03*
X158970000Y-108750000D03*
X160240000Y-108750000D03*
X161510000Y-108750000D03*
X162780000Y-108750000D03*
X162780000Y-118050000D03*
X161510000Y-118050000D03*
X160240000Y-118050000D03*
X158970000Y-118050000D03*
X157700000Y-118050000D03*
X156430000Y-118050000D03*
X155160000Y-118050000D03*
X153890000Y-118050000D03*
X152620000Y-118050000D03*
%TD*%
D19*
%TO.C,C14*%
X108900000Y-109350000D03*
X108900000Y-107450000D03*
%TD*%
D15*
%TO.C,D5*%
X149975000Y-128400000D03*
X152025000Y-128400000D03*
%TD*%
D14*
%TO.C,R19*%
X122200000Y-109712500D03*
X122200000Y-107887500D03*
%TD*%
D27*
%TO.C,C2*%
X146450000Y-113600000D03*
X148350000Y-113600000D03*
%TD*%
D19*
%TO.C,C9*%
X113100000Y-116750000D03*
X113100000Y-114850000D03*
%TD*%
D24*
%TO.C,J2*%
X110500000Y-121900000D03*
D25*
X110500000Y-119360000D03*
%TD*%
D18*
%TO.C,R22*%
X160240000Y-121160000D03*
X160240000Y-120140000D03*
%TD*%
%TO.C,R26*%
X155160000Y-121160000D03*
X155160000Y-120140000D03*
%TD*%
D14*
%TO.C,R13*%
X125400000Y-120425000D03*
X125400000Y-118600000D03*
%TD*%
D15*
%TO.C,D6*%
X144975000Y-128400000D03*
X147025000Y-128400000D03*
%TD*%
M02*
