%TF.GenerationSoftware,KiCad,Pcbnew,9.0.6*%
%TF.CreationDate,2026-07-04T20:59:39+02:00*%
%TF.ProjectId,IOT_AIR_FILTER_PROJ,494f545f-4149-4525-9f46-494c5445525f,rev?*%
%TF.SameCoordinates,Original*%
%TF.FileFunction,Copper,L2,Inr*%
%TF.FilePolarity,Positive*%
%FSLAX46Y46*%
G04 Gerber Fmt 4.6, Leading zero omitted, Abs format (unit mm)*
G04 Created by KiCad (PCBNEW 9.0.6) date 2026-07-04 20:59:39*
%MOMM*%
%LPD*%
G01*
G04 APERTURE LIST*
%TA.AperFunction,ComponentPad*%
%ADD10C,5.000000*%
%TD*%
%TA.AperFunction,ComponentPad*%
%ADD11R,1.730000X2.030000*%
%TD*%
%TA.AperFunction,ComponentPad*%
%ADD12O,1.730000X2.030000*%
%TD*%
%TA.AperFunction,ComponentPad*%
%ADD13R,1.700000X1.700000*%
%TD*%
%TA.AperFunction,ComponentPad*%
%ADD14C,1.700000*%
%TD*%
%TA.AperFunction,ViaPad*%
%ADD15C,0.700000*%
%TD*%
%TA.AperFunction,Conductor*%
%ADD16C,0.300000*%
%TD*%
%TA.AperFunction,Conductor*%
%ADD17C,1.000000*%
%TD*%
G04 APERTURE END LIST*
D10*
%TO.N,GND*%
%TO.C,H1*%
X103500000Y-103500000D03*
%TD*%
%TO.N,GND*%
%TO.C,H4*%
X103500000Y-126500000D03*
%TD*%
%TO.N,GND*%
%TO.C,H2*%
X161500000Y-103500000D03*
%TD*%
%TO.N,GND*%
%TO.C,H3*%
X161500000Y-126500000D03*
%TD*%
D11*
%TO.N,GND*%
%TO.C,J6*%
X148460000Y-125800000D03*
D12*
%TO.N,Net-(J6-Pin_2)*%
X151000000Y-125800000D03*
%TO.N,TACH_F_1*%
X153540000Y-125800000D03*
%TO.N,PWM11*%
X156080000Y-125800000D03*
%TD*%
D11*
%TO.N,GND*%
%TO.C,J8*%
X126180000Y-125800000D03*
D12*
%TO.N,Net-(J8-Pin_2)*%
X128720000Y-125800000D03*
%TO.N,TACH_F_3*%
X131260000Y-125800000D03*
%TO.N,PWM21*%
X133800000Y-125800000D03*
%TD*%
D11*
%TO.N,GND*%
%TO.C,J9*%
X115070000Y-125800000D03*
D12*
%TO.N,Net-(J9-Pin_2)*%
X117610000Y-125800000D03*
%TO.N,TACH_F_4*%
X120150000Y-125800000D03*
%TO.N,PWM22*%
X122690000Y-125800000D03*
%TD*%
D11*
%TO.N,GND*%
%TO.C,J7*%
X137320000Y-125800000D03*
D12*
%TO.N,Net-(J7-Pin_2)*%
X139860000Y-125800000D03*
%TO.N,TACH_F_2*%
X142400000Y-125800000D03*
%TO.N,PWM12*%
X144940000Y-125800000D03*
%TD*%
D13*
%TO.N,+3.3V*%
%TO.C,J3*%
X108390000Y-104790000D03*
D14*
%TO.N,+5VD*%
X108390000Y-102250000D03*
%TO.N,unconnected-(J3-Pin_3-Pad3)*%
X110930000Y-104790000D03*
%TO.N,+5VD*%
X110930000Y-102250000D03*
%TO.N,unconnected-(J3-Pin_5-Pad5)*%
X113470000Y-104790000D03*
%TO.N,GND*%
X113470000Y-102250000D03*
%TO.N,unconnected-(J3-Pin_7-Pad7)*%
X116010000Y-104790000D03*
%TO.N,UART_RX*%
X116010000Y-102250000D03*
%TO.N,GND*%
X118550000Y-104790000D03*
%TO.N,UART_TX*%
X118550000Y-102250000D03*
%TO.N,unconnected-(J3-Pin_11-Pad11)*%
X121090000Y-104790000D03*
%TO.N,unconnected-(J3-Pin_12-Pad12)*%
X121090000Y-102250000D03*
%TO.N,unconnected-(J3-Pin_13-Pad13)*%
X123630000Y-104790000D03*
%TO.N,GND*%
X123630000Y-102250000D03*
%TO.N,unconnected-(J3-Pin_15-Pad15)*%
X126170000Y-104790000D03*
%TO.N,unconnected-(J3-Pin_16-Pad16)*%
X126170000Y-102250000D03*
%TO.N,unconnected-(J3-Pin_17-Pad17)*%
X128710000Y-104790000D03*
%TO.N,unconnected-(J3-Pin_18-Pad18)*%
X128710000Y-102250000D03*
%TO.N,unconnected-(J3-Pin_19-Pad19)*%
X131250000Y-104790000D03*
%TO.N,GND*%
X131250000Y-102250000D03*
%TO.N,unconnected-(J3-Pin_21-Pad21)*%
X133790000Y-104790000D03*
%TO.N,unconnected-(J3-Pin_22-Pad22)*%
X133790000Y-102250000D03*
%TO.N,unconnected-(J3-Pin_23-Pad23)*%
X136330000Y-104790000D03*
%TO.N,unconnected-(J3-Pin_24-Pad24)*%
X136330000Y-102250000D03*
%TO.N,GND*%
X138870000Y-104790000D03*
%TO.N,unconnected-(J3-Pin_26-Pad26)*%
X138870000Y-102250000D03*
%TO.N,unconnected-(J3-Pin_27-Pad27)*%
X141410000Y-104790000D03*
%TO.N,unconnected-(J3-Pin_28-Pad28)*%
X141410000Y-102250000D03*
%TO.N,unconnected-(J3-Pin_29-Pad29)*%
X143950000Y-104790000D03*
%TO.N,GND*%
X143950000Y-102250000D03*
%TO.N,unconnected-(J3-Pin_31-Pad31)*%
X146490000Y-104790000D03*
%TO.N,unconnected-(J3-Pin_32-Pad32)*%
X146490000Y-102250000D03*
%TO.N,unconnected-(J3-Pin_33-Pad33)*%
X149030000Y-104790000D03*
%TO.N,GND*%
X149030000Y-102250000D03*
%TO.N,unconnected-(J3-Pin_35-Pad35)*%
X151570000Y-104790000D03*
%TO.N,unconnected-(J3-Pin_36-Pad36)*%
X151570000Y-102250000D03*
%TO.N,unconnected-(J3-Pin_37-Pad37)*%
X154110000Y-104790000D03*
%TO.N,unconnected-(J3-Pin_38-Pad38)*%
X154110000Y-102250000D03*
%TO.N,unconnected-(J3-Pin_39-Pad39)*%
X156650000Y-104790000D03*
%TO.N,unconnected-(J3-Pin_40-Pad40)*%
X156650000Y-102250000D03*
%TD*%
D13*
%TO.N,GND*%
%TO.C,J2*%
X110500000Y-121900000D03*
D14*
%TO.N,+12V*%
X110500000Y-119360000D03*
%TD*%
D15*
%TO.N,GND*%
X112050000Y-111900000D03*
X113150000Y-111900000D03*
X106800000Y-111350000D03*
X113000000Y-126500000D03*
X130600000Y-115800000D03*
X143600000Y-124100000D03*
X148300000Y-123800000D03*
X146750000Y-106500000D03*
X143100000Y-115200000D03*
X112000000Y-128500000D03*
X141000000Y-117600000D03*
X111000000Y-126500000D03*
X141300000Y-115200000D03*
X145700000Y-110000000D03*
X118600000Y-127349000D03*
X149250000Y-106500000D03*
X132600000Y-123600000D03*
X147300000Y-123800000D03*
X138600000Y-106600000D03*
X137400000Y-106600000D03*
X131400000Y-116200000D03*
X145800000Y-123800000D03*
X114200000Y-123600000D03*
X132000000Y-116800000D03*
X145700000Y-109200000D03*
X142200000Y-106800000D03*
X134800000Y-107200000D03*
X134400000Y-109000000D03*
X123800000Y-123400000D03*
X113000000Y-128500000D03*
X112000000Y-127500000D03*
X139500000Y-115200000D03*
X116000000Y-123600000D03*
X112000000Y-126500000D03*
X140400000Y-115200000D03*
X122800000Y-123600000D03*
X106100000Y-106800000D03*
X118900000Y-106800000D03*
X145500000Y-106500000D03*
X119200000Y-117400000D03*
X148600000Y-120200000D03*
X148000000Y-106500000D03*
X137320000Y-123920000D03*
X143000000Y-107200000D03*
X146200000Y-111000000D03*
X112900000Y-108400000D03*
X135200000Y-118400000D03*
X130800000Y-117000000D03*
X150500000Y-106500000D03*
X121000000Y-127349000D03*
X147400000Y-120000000D03*
X111000000Y-128500000D03*
X142200000Y-115200000D03*
X111000000Y-127500000D03*
X106100000Y-105800000D03*
X136000000Y-107200000D03*
X119900000Y-106800000D03*
X145200000Y-118000000D03*
X133800000Y-108400000D03*
X110000000Y-126500000D03*
X113000000Y-127500000D03*
X110000000Y-128500000D03*
X110000000Y-127500000D03*
X151200000Y-117800000D03*
%TO.N,+5V*%
X150900000Y-113100000D03*
X110200000Y-114600000D03*
X144900000Y-113600000D03*
X110600000Y-112400000D03*
X111200000Y-114600000D03*
X126400000Y-117400000D03*
X109200000Y-114600000D03*
X146200000Y-119600000D03*
X121800000Y-122800000D03*
X137594078Y-115000000D03*
X157700000Y-112600000D03*
X120600000Y-110800000D03*
X136200000Y-117450000D03*
X143200000Y-113600000D03*
X144000000Y-113600000D03*
%TO.N,/CLKIN{slash}OSC1*%
X139700000Y-112400000D03*
%TO.N,SWDIO*%
X108800000Y-116201000D03*
X126200000Y-116000000D03*
%TO.N,SWCLK*%
X129500000Y-116600000D03*
X106000000Y-108200000D03*
%TO.N,RST*%
X128045000Y-108500000D03*
X106900000Y-114300000D03*
%TO.N,/CLKOUT{slash}OSC2*%
X140900000Y-106700000D03*
%TO.N,/RX*%
X114850000Y-111550000D03*
X131450000Y-108850000D03*
%TO.N,/TX*%
X117350000Y-111900000D03*
X131900000Y-107600000D03*
%TO.N,/I_FAN_1*%
X144900000Y-115100000D03*
%TO.N,/I_FAN_2*%
X142400000Y-117600000D03*
%TO.N,/I_FAN_3*%
X133975000Y-117625000D03*
%TO.N,/I_FAN_4*%
X123900000Y-122200000D03*
%TO.N,TACH_F_1*%
X122100000Y-117000000D03*
%TO.N,TACH_F_2*%
X124200000Y-119463500D03*
%TO.N,TACH_F_3*%
X118400000Y-116800000D03*
%TO.N,TACH_F_4*%
X117400000Y-116700000D03*
%TO.N,Net-(D5-A)*%
X154400000Y-128700000D03*
X162800000Y-122400000D03*
%TO.N,Net-(D6-A)*%
X148300207Y-128700000D03*
X161400000Y-122800000D03*
%TO.N,Net-(D7-A)*%
X160200000Y-122200000D03*
X143400000Y-128700000D03*
%TO.N,Net-(D8-A)*%
X158996505Y-122396505D03*
X138500000Y-128700000D03*
%TO.N,Net-(D9-A)*%
X133500000Y-128700000D03*
X157800000Y-122600000D03*
%TO.N,Net-(D10-A)*%
X128250000Y-128700000D03*
X156800000Y-123200000D03*
%TO.N,Net-(D11-A)*%
X123500000Y-128700000D03*
X155700000Y-122500000D03*
%TO.N,Net-(D12-A)*%
X118250000Y-128700000D03*
X146400000Y-121000000D03*
%TO.N,SCL*%
X151200000Y-108500000D03*
%TO.N,SDA*%
X151200000Y-107500000D03*
%TO.N,Net-(D2-A)*%
X148700000Y-112000000D03*
%TO.N,/PWR_MEAS_12V*%
X135600000Y-114800000D03*
%TD*%
D16*
%TO.N,GND*%
X137320000Y-125800000D02*
X137320000Y-127430000D01*
X137320000Y-123920000D02*
X137320000Y-125800000D01*
X137320000Y-127430000D02*
X136750000Y-128000000D01*
X126180000Y-125800000D02*
X126180000Y-127320000D01*
X137319975Y-123919975D02*
X137320000Y-123920000D01*
X126180000Y-127320000D02*
X126000000Y-127500000D01*
X137269975Y-123919975D02*
X137319975Y-123919975D01*
D17*
%TO.N,+5V*%
X121100000Y-113300000D02*
X112500000Y-113300000D01*
X154700000Y-112600000D02*
X157700000Y-112600000D01*
X138700000Y-113700000D02*
X150100000Y-113700000D01*
D16*
X126400000Y-117400000D02*
X121800000Y-112800000D01*
D17*
X150900000Y-113100000D02*
X151800000Y-113100000D01*
X151800000Y-113100000D02*
X152600000Y-113100000D01*
X136600000Y-111600000D02*
X138700000Y-113700000D01*
X122100000Y-112300000D02*
X122800000Y-111600000D01*
D16*
X138350000Y-119600000D02*
X146200000Y-119600000D01*
D17*
X150100000Y-113700000D02*
X150700000Y-113100000D01*
D16*
X136200000Y-117450000D02*
X138350000Y-119600000D01*
D17*
X112500000Y-113300000D02*
X111200000Y-114600000D01*
X111200000Y-114600000D02*
X110200000Y-114600000D01*
X122800000Y-111600000D02*
X136600000Y-111600000D01*
X110200000Y-114600000D02*
X109200000Y-114600000D01*
X154200000Y-113100000D02*
X154700000Y-112600000D01*
X152600000Y-113100000D02*
X154200000Y-113100000D01*
D16*
X120600000Y-110800000D02*
X122100000Y-112300000D01*
D17*
X121600000Y-112800000D02*
X121100000Y-113300000D01*
X150700000Y-113100000D02*
X150900000Y-113100000D01*
X121600000Y-112800000D02*
X122100000Y-112300000D01*
D16*
X121800000Y-112800000D02*
X121600000Y-112800000D01*
%TO.N,Net-(D5-A)*%
X160200000Y-123600000D02*
X161600000Y-123600000D01*
X158600000Y-125200000D02*
X158600000Y-127800000D01*
X160200000Y-123600000D02*
X158600000Y-125200000D01*
X158600000Y-127800000D02*
X157800000Y-128600000D01*
X157800000Y-128600000D02*
X154400000Y-128600000D01*
X161600000Y-123600000D02*
X162800000Y-122400000D01*
%TO.N,Net-(D6-A)*%
X161101000Y-123099000D02*
X159992480Y-123099000D01*
X153300000Y-128700000D02*
X148300207Y-128700000D01*
X157201000Y-127999000D02*
X154001000Y-127999000D01*
X159992480Y-123099000D02*
X158099000Y-124992480D01*
X158099000Y-127101000D02*
X157201000Y-127999000D01*
X154001000Y-127999000D02*
X153300000Y-128700000D01*
X158099000Y-124992480D02*
X158099000Y-127101000D01*
X161400000Y-122800000D02*
X161101000Y-123099000D01*
%TO.N,Net-(D7-A)*%
X156902000Y-127498000D02*
X153102000Y-127498000D01*
X144300000Y-127800000D02*
X143400000Y-128700000D01*
X157598000Y-124784960D02*
X157598000Y-126802000D01*
X157598000Y-126802000D02*
X156902000Y-127498000D01*
X159982960Y-122400000D02*
X157598000Y-124784960D01*
X153102000Y-127498000D02*
X152800000Y-127800000D01*
X152800000Y-127800000D02*
X144300000Y-127800000D01*
X160200000Y-122200000D02*
X160000000Y-122400000D01*
X160000000Y-122400000D02*
X159982960Y-122400000D01*
%TO.N,Net-(D10-A)*%
X128250000Y-128700000D02*
X128250000Y-128500000D01*
X140900000Y-122300000D02*
X140000000Y-123200000D01*
X135700000Y-124500000D02*
X135700000Y-126900001D01*
X156500000Y-123500000D02*
X155100000Y-123500000D01*
X135700000Y-126900001D02*
X134601000Y-127999000D01*
X137999000Y-123199000D02*
X137001000Y-123199000D01*
X132001000Y-127999000D02*
X131300000Y-128700000D01*
X137001000Y-123199000D02*
X135700000Y-124500000D01*
X155100000Y-123500000D02*
X153900000Y-122300000D01*
X140000000Y-123200000D02*
X138000000Y-123200000D01*
X131300000Y-128700000D02*
X128250000Y-128700000D01*
X153900000Y-122300000D02*
X140900000Y-122300000D01*
X134601000Y-127999000D02*
X132001000Y-127999000D01*
X156800000Y-123200000D02*
X156500000Y-123500000D01*
X138000000Y-123200000D02*
X137999000Y-123199000D01*
%TO.N,Net-(D11-A)*%
X155600000Y-122600000D02*
X154908520Y-122600000D01*
X126300000Y-128700000D02*
X123500000Y-128700000D01*
X154107520Y-121799000D02*
X144299000Y-121799000D01*
X143600000Y-121100000D02*
X138391480Y-121100000D01*
X135199000Y-124292480D02*
X135199000Y-126692480D01*
X134393480Y-127498000D02*
X127502000Y-127498000D01*
X135199000Y-126692480D02*
X134393480Y-127498000D01*
X144299000Y-121799000D02*
X143600000Y-121100000D01*
X138391480Y-121100000D02*
X135199000Y-124292480D01*
X127502000Y-127498000D02*
X126300000Y-128700000D01*
X154908520Y-122600000D02*
X154107520Y-121799000D01*
X155700000Y-122500000D02*
X155600000Y-122600000D01*
%TO.N,Net-(D12-A)*%
X137682960Y-121100000D02*
X137000000Y-121100000D01*
X135600000Y-122500000D02*
X129000000Y-122500000D01*
X124400000Y-126900000D02*
X123500000Y-127800000D01*
X120700000Y-128700000D02*
X118250000Y-128700000D01*
X129000000Y-122500000D02*
X127600000Y-123900000D01*
X124400000Y-124700000D02*
X124400000Y-126900000D01*
X137000000Y-121100000D02*
X135600000Y-122500000D01*
X127600000Y-123900000D02*
X125200000Y-123900000D01*
X121600000Y-127800000D02*
X120700000Y-128700000D01*
X146400000Y-121000000D02*
X144208520Y-121000000D01*
X144208520Y-121000000D02*
X143807520Y-120599000D01*
X138183959Y-120599000D02*
X137682960Y-121100000D01*
X143807520Y-120599000D02*
X138183959Y-120599000D01*
X125200000Y-123900000D02*
X124400000Y-124700000D01*
X123500000Y-127800000D02*
X121600000Y-127800000D01*
%TD*%
%TA.AperFunction,Conductor*%
%TO.N,GND*%
G36*
X117351444Y-102903999D02*
G01*
X117390486Y-102949056D01*
X117394951Y-102957820D01*
X117519890Y-103129786D01*
X117670213Y-103280109D01*
X117842179Y-103405048D01*
X117842181Y-103405049D01*
X117842184Y-103405051D01*
X117851493Y-103409794D01*
X117902290Y-103457766D01*
X117919087Y-103525587D01*
X117896552Y-103591722D01*
X117851505Y-103630760D01*
X117842446Y-103635376D01*
X117842440Y-103635380D01*
X117788282Y-103674727D01*
X117788282Y-103674728D01*
X118420591Y-104307037D01*
X118357007Y-104324075D01*
X118242993Y-104389901D01*
X118149901Y-104482993D01*
X118084075Y-104597007D01*
X118067037Y-104660591D01*
X117434728Y-104028282D01*
X117434727Y-104028282D01*
X117395380Y-104082440D01*
X117395376Y-104082446D01*
X117390760Y-104091505D01*
X117342781Y-104142297D01*
X117274959Y-104159087D01*
X117208826Y-104136543D01*
X117169794Y-104091493D01*
X117165051Y-104082184D01*
X117165049Y-104082181D01*
X117165048Y-104082179D01*
X117040109Y-103910213D01*
X116889786Y-103759890D01*
X116717820Y-103634951D01*
X116709600Y-103630763D01*
X116709054Y-103630485D01*
X116658259Y-103582512D01*
X116641463Y-103514692D01*
X116663999Y-103448556D01*
X116709054Y-103409515D01*
X116717816Y-103405051D01*
X116807554Y-103339853D01*
X116889786Y-103280109D01*
X116889788Y-103280106D01*
X116889792Y-103280104D01*
X117040104Y-103129792D01*
X117040106Y-103129788D01*
X117040109Y-103129786D01*
X117165048Y-102957820D01*
X117165047Y-102957820D01*
X117165051Y-102957816D01*
X117169514Y-102949054D01*
X117217488Y-102898259D01*
X117285308Y-102881463D01*
X117351444Y-102903999D01*
G37*
%TD.AperFunction*%
%TA.AperFunction,Conductor*%
G36*
X137671444Y-102903999D02*
G01*
X137710486Y-102949056D01*
X137714951Y-102957820D01*
X137839890Y-103129786D01*
X137990213Y-103280109D01*
X138162179Y-103405048D01*
X138162181Y-103405049D01*
X138162184Y-103405051D01*
X138171493Y-103409794D01*
X138222290Y-103457766D01*
X138239087Y-103525587D01*
X138216552Y-103591722D01*
X138171505Y-103630760D01*
X138162446Y-103635376D01*
X138162440Y-103635380D01*
X138108282Y-103674727D01*
X138108282Y-103674728D01*
X138740591Y-104307037D01*
X138677007Y-104324075D01*
X138562993Y-104389901D01*
X138469901Y-104482993D01*
X138404075Y-104597007D01*
X138387037Y-104660591D01*
X137754728Y-104028282D01*
X137754727Y-104028282D01*
X137715380Y-104082440D01*
X137715376Y-104082446D01*
X137710760Y-104091505D01*
X137662781Y-104142297D01*
X137594959Y-104159087D01*
X137528826Y-104136543D01*
X137489794Y-104091493D01*
X137485051Y-104082184D01*
X137485049Y-104082181D01*
X137485048Y-104082179D01*
X137360109Y-103910213D01*
X137209786Y-103759890D01*
X137037820Y-103634951D01*
X137029600Y-103630763D01*
X137029054Y-103630485D01*
X136978259Y-103582512D01*
X136961463Y-103514692D01*
X136983999Y-103448556D01*
X137029054Y-103409515D01*
X137037816Y-103405051D01*
X137127554Y-103339853D01*
X137209786Y-103280109D01*
X137209788Y-103280106D01*
X137209792Y-103280104D01*
X137360104Y-103129792D01*
X137360106Y-103129788D01*
X137360109Y-103129786D01*
X137485048Y-102957820D01*
X137485047Y-102957820D01*
X137485051Y-102957816D01*
X137489514Y-102949054D01*
X137537488Y-102898259D01*
X137605308Y-102881463D01*
X137671444Y-102903999D01*
G37*
%TD.AperFunction*%
%TA.AperFunction,Conductor*%
G36*
X119891444Y-102903999D02*
G01*
X119930486Y-102949056D01*
X119934951Y-102957820D01*
X120059890Y-103129786D01*
X120210213Y-103280109D01*
X120382182Y-103405050D01*
X120390946Y-103409516D01*
X120441742Y-103457491D01*
X120458536Y-103525312D01*
X120435998Y-103591447D01*
X120390946Y-103630484D01*
X120382182Y-103634949D01*
X120210213Y-103759890D01*
X120059890Y-103910213D01*
X119934949Y-104082182D01*
X119930202Y-104091499D01*
X119882227Y-104142293D01*
X119814405Y-104159087D01*
X119748271Y-104136548D01*
X119709234Y-104091495D01*
X119704626Y-104082452D01*
X119665270Y-104028282D01*
X119665269Y-104028282D01*
X119032962Y-104660590D01*
X119015925Y-104597007D01*
X118950099Y-104482993D01*
X118857007Y-104389901D01*
X118742993Y-104324075D01*
X118679409Y-104307037D01*
X119311716Y-103674728D01*
X119257547Y-103635373D01*
X119257547Y-103635372D01*
X119248500Y-103630763D01*
X119197706Y-103582788D01*
X119180912Y-103514966D01*
X119203451Y-103448832D01*
X119248508Y-103409793D01*
X119257816Y-103405051D01*
X119347554Y-103339853D01*
X119429786Y-103280109D01*
X119429788Y-103280106D01*
X119429792Y-103280104D01*
X119580104Y-103129792D01*
X119580106Y-103129788D01*
X119580109Y-103129786D01*
X119705048Y-102957820D01*
X119705047Y-102957820D01*
X119705051Y-102957816D01*
X119709514Y-102949054D01*
X119757488Y-102898259D01*
X119825308Y-102881463D01*
X119891444Y-102903999D01*
G37*
%TD.AperFunction*%
%TA.AperFunction,Conductor*%
G36*
X140211444Y-102903999D02*
G01*
X140250486Y-102949056D01*
X140254951Y-102957820D01*
X140379890Y-103129786D01*
X140530213Y-103280109D01*
X140702182Y-103405050D01*
X140710946Y-103409516D01*
X140761742Y-103457491D01*
X140778536Y-103525312D01*
X140755998Y-103591447D01*
X140710946Y-103630484D01*
X140702182Y-103634949D01*
X140530213Y-103759890D01*
X140379890Y-103910213D01*
X140254949Y-104082182D01*
X140250202Y-104091499D01*
X140202227Y-104142293D01*
X140134405Y-104159087D01*
X140068271Y-104136548D01*
X140029234Y-104091495D01*
X140024626Y-104082452D01*
X139985270Y-104028282D01*
X139985269Y-104028282D01*
X139352962Y-104660590D01*
X139335925Y-104597007D01*
X139270099Y-104482993D01*
X139177007Y-104389901D01*
X139062993Y-104324075D01*
X138999409Y-104307037D01*
X139631716Y-103674728D01*
X139577547Y-103635373D01*
X139577547Y-103635372D01*
X139568500Y-103630763D01*
X139517706Y-103582788D01*
X139500912Y-103514966D01*
X139523451Y-103448832D01*
X139568508Y-103409793D01*
X139577816Y-103405051D01*
X139667554Y-103339853D01*
X139749786Y-103280109D01*
X139749788Y-103280106D01*
X139749792Y-103280104D01*
X139900104Y-103129792D01*
X139900106Y-103129788D01*
X139900109Y-103129786D01*
X140025048Y-102957820D01*
X140025047Y-102957820D01*
X140025051Y-102957816D01*
X140029514Y-102949054D01*
X140077488Y-102898259D01*
X140145308Y-102881463D01*
X140211444Y-102903999D01*
G37*
%TD.AperFunction*%
%TA.AperFunction,Conductor*%
G36*
X113004075Y-102442993D02*
G01*
X113069901Y-102557007D01*
X113162993Y-102650099D01*
X113277007Y-102715925D01*
X113340590Y-102732962D01*
X112708282Y-103365269D01*
X112708282Y-103365270D01*
X112762452Y-103404626D01*
X112762451Y-103404626D01*
X112771495Y-103409234D01*
X112822292Y-103457208D01*
X112839087Y-103525029D01*
X112816550Y-103591164D01*
X112771499Y-103630202D01*
X112762182Y-103634949D01*
X112590213Y-103759890D01*
X112439890Y-103910213D01*
X112314949Y-104082182D01*
X112310484Y-104090946D01*
X112262509Y-104141742D01*
X112194688Y-104158536D01*
X112128553Y-104135998D01*
X112089516Y-104090946D01*
X112085050Y-104082182D01*
X111960109Y-103910213D01*
X111809786Y-103759890D01*
X111637820Y-103634951D01*
X111629600Y-103630763D01*
X111629054Y-103630485D01*
X111578259Y-103582512D01*
X111561463Y-103514692D01*
X111583999Y-103448556D01*
X111629054Y-103409515D01*
X111637816Y-103405051D01*
X111727554Y-103339853D01*
X111809786Y-103280109D01*
X111809788Y-103280106D01*
X111809792Y-103280104D01*
X111960104Y-103129792D01*
X111960106Y-103129788D01*
X111960109Y-103129786D01*
X112045890Y-103011717D01*
X112085051Y-102957816D01*
X112089793Y-102948508D01*
X112137763Y-102897711D01*
X112205583Y-102880911D01*
X112271719Y-102903445D01*
X112310763Y-102948500D01*
X112315373Y-102957547D01*
X112354728Y-103011716D01*
X112987037Y-102379408D01*
X113004075Y-102442993D01*
G37*
%TD.AperFunction*%
%TA.AperFunction,Conductor*%
G36*
X114585270Y-103011717D02*
G01*
X114585270Y-103011716D01*
X114624622Y-102957555D01*
X114629232Y-102948507D01*
X114677205Y-102897709D01*
X114745025Y-102880912D01*
X114811161Y-102903447D01*
X114850204Y-102948504D01*
X114854949Y-102957817D01*
X114979890Y-103129786D01*
X115130213Y-103280109D01*
X115302182Y-103405050D01*
X115310946Y-103409516D01*
X115361742Y-103457491D01*
X115378536Y-103525312D01*
X115355998Y-103591447D01*
X115310946Y-103630484D01*
X115302182Y-103634949D01*
X115130213Y-103759890D01*
X114979890Y-103910213D01*
X114854949Y-104082182D01*
X114850484Y-104090946D01*
X114802509Y-104141742D01*
X114734688Y-104158536D01*
X114668553Y-104135998D01*
X114629516Y-104090946D01*
X114625050Y-104082182D01*
X114500109Y-103910213D01*
X114349786Y-103759890D01*
X114177817Y-103634949D01*
X114168504Y-103630204D01*
X114117707Y-103582230D01*
X114100912Y-103514409D01*
X114123449Y-103448274D01*
X114168507Y-103409232D01*
X114177555Y-103404622D01*
X114231716Y-103365270D01*
X114231717Y-103365270D01*
X113599408Y-102732962D01*
X113662993Y-102715925D01*
X113777007Y-102650099D01*
X113870099Y-102557007D01*
X113935925Y-102442993D01*
X113952962Y-102379409D01*
X114585270Y-103011717D01*
G37*
%TD.AperFunction*%
%TA.AperFunction,Conductor*%
G36*
X123164075Y-102442993D02*
G01*
X123229901Y-102557007D01*
X123322993Y-102650099D01*
X123437007Y-102715925D01*
X123500590Y-102732962D01*
X122868282Y-103365269D01*
X122868282Y-103365270D01*
X122922452Y-103404626D01*
X122922451Y-103404626D01*
X122931495Y-103409234D01*
X122982292Y-103457208D01*
X122999087Y-103525029D01*
X122976550Y-103591164D01*
X122931499Y-103630202D01*
X122922182Y-103634949D01*
X122750213Y-103759890D01*
X122599890Y-103910213D01*
X122474949Y-104082182D01*
X122470484Y-104090946D01*
X122422509Y-104141742D01*
X122354688Y-104158536D01*
X122288553Y-104135998D01*
X122249516Y-104090946D01*
X122245050Y-104082182D01*
X122120109Y-103910213D01*
X121969786Y-103759890D01*
X121797820Y-103634951D01*
X121789600Y-103630763D01*
X121789054Y-103630485D01*
X121738259Y-103582512D01*
X121721463Y-103514692D01*
X121743999Y-103448556D01*
X121789054Y-103409515D01*
X121797816Y-103405051D01*
X121887554Y-103339853D01*
X121969786Y-103280109D01*
X121969788Y-103280106D01*
X121969792Y-103280104D01*
X122120104Y-103129792D01*
X122120106Y-103129788D01*
X122120109Y-103129786D01*
X122205890Y-103011717D01*
X122245051Y-102957816D01*
X122249793Y-102948508D01*
X122297763Y-102897711D01*
X122365583Y-102880911D01*
X122431719Y-102903445D01*
X122470763Y-102948500D01*
X122475373Y-102957547D01*
X122514728Y-103011716D01*
X123147037Y-102379408D01*
X123164075Y-102442993D01*
G37*
%TD.AperFunction*%
%TA.AperFunction,Conductor*%
G36*
X124745270Y-103011717D02*
G01*
X124745270Y-103011716D01*
X124784622Y-102957555D01*
X124789232Y-102948507D01*
X124837205Y-102897709D01*
X124905025Y-102880912D01*
X124971161Y-102903447D01*
X125010204Y-102948504D01*
X125014949Y-102957817D01*
X125139890Y-103129786D01*
X125290213Y-103280109D01*
X125462182Y-103405050D01*
X125470946Y-103409516D01*
X125521742Y-103457491D01*
X125538536Y-103525312D01*
X125515998Y-103591447D01*
X125470946Y-103630484D01*
X125462182Y-103634949D01*
X125290213Y-103759890D01*
X125139890Y-103910213D01*
X125014949Y-104082182D01*
X125010484Y-104090946D01*
X124962509Y-104141742D01*
X124894688Y-104158536D01*
X124828553Y-104135998D01*
X124789516Y-104090946D01*
X124785050Y-104082182D01*
X124660109Y-103910213D01*
X124509786Y-103759890D01*
X124337817Y-103634949D01*
X124328504Y-103630204D01*
X124277707Y-103582230D01*
X124260912Y-103514409D01*
X124283449Y-103448274D01*
X124328507Y-103409232D01*
X124337555Y-103404622D01*
X124391716Y-103365270D01*
X124391717Y-103365270D01*
X123759408Y-102732962D01*
X123822993Y-102715925D01*
X123937007Y-102650099D01*
X124030099Y-102557007D01*
X124095925Y-102442993D01*
X124112962Y-102379408D01*
X124745270Y-103011717D01*
G37*
%TD.AperFunction*%
%TA.AperFunction,Conductor*%
G36*
X130784075Y-102442993D02*
G01*
X130849901Y-102557007D01*
X130942993Y-102650099D01*
X131057007Y-102715925D01*
X131120590Y-102732962D01*
X130488282Y-103365269D01*
X130488282Y-103365270D01*
X130542452Y-103404626D01*
X130542451Y-103404626D01*
X130551495Y-103409234D01*
X130602292Y-103457208D01*
X130619087Y-103525029D01*
X130596550Y-103591164D01*
X130551499Y-103630202D01*
X130542182Y-103634949D01*
X130370213Y-103759890D01*
X130219890Y-103910213D01*
X130094949Y-104082182D01*
X130090484Y-104090946D01*
X130042509Y-104141742D01*
X129974688Y-104158536D01*
X129908553Y-104135998D01*
X129869516Y-104090946D01*
X129865050Y-104082182D01*
X129740109Y-103910213D01*
X129589786Y-103759890D01*
X129417820Y-103634951D01*
X129409600Y-103630763D01*
X129409054Y-103630485D01*
X129358259Y-103582512D01*
X129341463Y-103514692D01*
X129363999Y-103448556D01*
X129409054Y-103409515D01*
X129417816Y-103405051D01*
X129507554Y-103339853D01*
X129589786Y-103280109D01*
X129589788Y-103280106D01*
X129589792Y-103280104D01*
X129740104Y-103129792D01*
X129740106Y-103129788D01*
X129740109Y-103129786D01*
X129825890Y-103011717D01*
X129865051Y-102957816D01*
X129869793Y-102948508D01*
X129917763Y-102897711D01*
X129985583Y-102880911D01*
X130051719Y-102903445D01*
X130090763Y-102948500D01*
X130095373Y-102957547D01*
X130134728Y-103011716D01*
X130767037Y-102379408D01*
X130784075Y-102442993D01*
G37*
%TD.AperFunction*%
%TA.AperFunction,Conductor*%
G36*
X132365270Y-103011717D02*
G01*
X132365270Y-103011716D01*
X132404622Y-102957555D01*
X132409232Y-102948507D01*
X132457205Y-102897709D01*
X132525025Y-102880912D01*
X132591161Y-102903447D01*
X132630204Y-102948504D01*
X132634949Y-102957817D01*
X132759890Y-103129786D01*
X132910213Y-103280109D01*
X133082182Y-103405050D01*
X133090946Y-103409516D01*
X133141742Y-103457491D01*
X133158536Y-103525312D01*
X133135998Y-103591447D01*
X133090946Y-103630484D01*
X133082182Y-103634949D01*
X132910213Y-103759890D01*
X132759890Y-103910213D01*
X132634949Y-104082182D01*
X132630484Y-104090946D01*
X132582509Y-104141742D01*
X132514688Y-104158536D01*
X132448553Y-104135998D01*
X132409516Y-104090946D01*
X132405050Y-104082182D01*
X132280109Y-103910213D01*
X132129786Y-103759890D01*
X131957817Y-103634949D01*
X131948504Y-103630204D01*
X131897707Y-103582230D01*
X131880912Y-103514409D01*
X131903449Y-103448274D01*
X131948507Y-103409232D01*
X131957555Y-103404622D01*
X132011716Y-103365270D01*
X132011717Y-103365270D01*
X131379408Y-102732962D01*
X131442993Y-102715925D01*
X131557007Y-102650099D01*
X131650099Y-102557007D01*
X131715925Y-102442993D01*
X131732962Y-102379408D01*
X132365270Y-103011717D01*
G37*
%TD.AperFunction*%
%TA.AperFunction,Conductor*%
G36*
X143484075Y-102442993D02*
G01*
X143549901Y-102557007D01*
X143642993Y-102650099D01*
X143757007Y-102715925D01*
X143820590Y-102732962D01*
X143188282Y-103365269D01*
X143188282Y-103365270D01*
X143242452Y-103404626D01*
X143242451Y-103404626D01*
X143251495Y-103409234D01*
X143302292Y-103457208D01*
X143319087Y-103525029D01*
X143296550Y-103591164D01*
X143251499Y-103630202D01*
X143242182Y-103634949D01*
X143070213Y-103759890D01*
X142919890Y-103910213D01*
X142794949Y-104082182D01*
X142790484Y-104090946D01*
X142742509Y-104141742D01*
X142674688Y-104158536D01*
X142608553Y-104135998D01*
X142569516Y-104090946D01*
X142565050Y-104082182D01*
X142440109Y-103910213D01*
X142289786Y-103759890D01*
X142117820Y-103634951D01*
X142109600Y-103630763D01*
X142109054Y-103630485D01*
X142058259Y-103582512D01*
X142041463Y-103514692D01*
X142063999Y-103448556D01*
X142109054Y-103409515D01*
X142117816Y-103405051D01*
X142207554Y-103339853D01*
X142289786Y-103280109D01*
X142289788Y-103280106D01*
X142289792Y-103280104D01*
X142440104Y-103129792D01*
X142440106Y-103129788D01*
X142440109Y-103129786D01*
X142525890Y-103011717D01*
X142565051Y-102957816D01*
X142569793Y-102948508D01*
X142617763Y-102897711D01*
X142685583Y-102880911D01*
X142751719Y-102903445D01*
X142790763Y-102948500D01*
X142795373Y-102957547D01*
X142834728Y-103011716D01*
X143467037Y-102379408D01*
X143484075Y-102442993D01*
G37*
%TD.AperFunction*%
%TA.AperFunction,Conductor*%
G36*
X145065270Y-103011717D02*
G01*
X145065270Y-103011716D01*
X145104622Y-102957555D01*
X145109232Y-102948507D01*
X145157205Y-102897709D01*
X145225025Y-102880912D01*
X145291161Y-102903447D01*
X145330204Y-102948504D01*
X145334949Y-102957817D01*
X145459890Y-103129786D01*
X145610213Y-103280109D01*
X145782182Y-103405050D01*
X145790946Y-103409516D01*
X145841742Y-103457491D01*
X145858536Y-103525312D01*
X145835998Y-103591447D01*
X145790946Y-103630484D01*
X145782182Y-103634949D01*
X145610213Y-103759890D01*
X145459890Y-103910213D01*
X145334949Y-104082182D01*
X145330484Y-104090946D01*
X145282509Y-104141742D01*
X145214688Y-104158536D01*
X145148553Y-104135998D01*
X145109516Y-104090946D01*
X145105050Y-104082182D01*
X144980109Y-103910213D01*
X144829786Y-103759890D01*
X144657817Y-103634949D01*
X144648504Y-103630204D01*
X144597707Y-103582230D01*
X144580912Y-103514409D01*
X144603449Y-103448274D01*
X144648507Y-103409232D01*
X144657555Y-103404622D01*
X144711716Y-103365270D01*
X144711717Y-103365270D01*
X144079408Y-102732962D01*
X144142993Y-102715925D01*
X144257007Y-102650099D01*
X144350099Y-102557007D01*
X144415925Y-102442993D01*
X144432962Y-102379408D01*
X145065270Y-103011717D01*
G37*
%TD.AperFunction*%
%TA.AperFunction,Conductor*%
G36*
X148564075Y-102442993D02*
G01*
X148629901Y-102557007D01*
X148722993Y-102650099D01*
X148837007Y-102715925D01*
X148900590Y-102732962D01*
X148268282Y-103365269D01*
X148268282Y-103365270D01*
X148322452Y-103404626D01*
X148322451Y-103404626D01*
X148331495Y-103409234D01*
X148382292Y-103457208D01*
X148399087Y-103525029D01*
X148376550Y-103591164D01*
X148331499Y-103630202D01*
X148322182Y-103634949D01*
X148150213Y-103759890D01*
X147999890Y-103910213D01*
X147874949Y-104082182D01*
X147870484Y-104090946D01*
X147822509Y-104141742D01*
X147754688Y-104158536D01*
X147688553Y-104135998D01*
X147649516Y-104090946D01*
X147645050Y-104082182D01*
X147520109Y-103910213D01*
X147369786Y-103759890D01*
X147197820Y-103634951D01*
X147189600Y-103630763D01*
X147189054Y-103630485D01*
X147138259Y-103582512D01*
X147121463Y-103514692D01*
X147143999Y-103448556D01*
X147189054Y-103409515D01*
X147197816Y-103405051D01*
X147287554Y-103339853D01*
X147369786Y-103280109D01*
X147369788Y-103280106D01*
X147369792Y-103280104D01*
X147520104Y-103129792D01*
X147520106Y-103129788D01*
X147520109Y-103129786D01*
X147605890Y-103011717D01*
X147645051Y-102957816D01*
X147649793Y-102948508D01*
X147697763Y-102897711D01*
X147765583Y-102880911D01*
X147831719Y-102903445D01*
X147870763Y-102948500D01*
X147875373Y-102957547D01*
X147914728Y-103011716D01*
X148547037Y-102379408D01*
X148564075Y-102442993D01*
G37*
%TD.AperFunction*%
%TA.AperFunction,Conductor*%
G36*
X150145270Y-103011717D02*
G01*
X150145270Y-103011716D01*
X150184622Y-102957555D01*
X150189232Y-102948507D01*
X150237205Y-102897709D01*
X150305025Y-102880912D01*
X150371161Y-102903447D01*
X150410204Y-102948504D01*
X150414949Y-102957817D01*
X150539890Y-103129786D01*
X150690213Y-103280109D01*
X150862182Y-103405050D01*
X150870946Y-103409516D01*
X150921742Y-103457491D01*
X150938536Y-103525312D01*
X150915998Y-103591447D01*
X150870946Y-103630484D01*
X150862182Y-103634949D01*
X150690213Y-103759890D01*
X150539890Y-103910213D01*
X150414949Y-104082182D01*
X150410484Y-104090946D01*
X150362509Y-104141742D01*
X150294688Y-104158536D01*
X150228553Y-104135998D01*
X150189516Y-104090946D01*
X150185050Y-104082182D01*
X150060109Y-103910213D01*
X149909786Y-103759890D01*
X149737817Y-103634949D01*
X149728504Y-103630204D01*
X149677707Y-103582230D01*
X149660912Y-103514409D01*
X149683449Y-103448274D01*
X149728507Y-103409232D01*
X149737555Y-103404622D01*
X149791716Y-103365270D01*
X149791717Y-103365270D01*
X149159408Y-102732962D01*
X149222993Y-102715925D01*
X149337007Y-102650099D01*
X149430099Y-102557007D01*
X149495925Y-102442993D01*
X149512962Y-102379409D01*
X150145270Y-103011717D01*
G37*
%TD.AperFunction*%
%TA.AperFunction,Conductor*%
G36*
X161503244Y-100500670D02*
G01*
X161807046Y-100516592D01*
X161819953Y-100517949D01*
X161951089Y-100538718D01*
X162117209Y-100565028D01*
X162129896Y-100567724D01*
X162420625Y-100645625D01*
X162432965Y-100649635D01*
X162713938Y-100757490D01*
X162725790Y-100762767D01*
X162993968Y-100899411D01*
X163005199Y-100905896D01*
X163147711Y-100998444D01*
X163257608Y-101069812D01*
X163268109Y-101077441D01*
X163502010Y-101266850D01*
X163511655Y-101275535D01*
X163724464Y-101488344D01*
X163733149Y-101497989D01*
X163922558Y-101731890D01*
X163930187Y-101742391D01*
X164094101Y-101994796D01*
X164100591Y-102006036D01*
X164237231Y-102274206D01*
X164242510Y-102286064D01*
X164350363Y-102567033D01*
X164354374Y-102579376D01*
X164432273Y-102870097D01*
X164434971Y-102882794D01*
X164482050Y-103180046D01*
X164483407Y-103192953D01*
X164499330Y-103496756D01*
X164499500Y-103503246D01*
X164499500Y-126496753D01*
X164499330Y-126503243D01*
X164483407Y-126807046D01*
X164482050Y-126819953D01*
X164434971Y-127117205D01*
X164432273Y-127129902D01*
X164354374Y-127420623D01*
X164350363Y-127432966D01*
X164242510Y-127713935D01*
X164237231Y-127725793D01*
X164100591Y-127993963D01*
X164094101Y-128005203D01*
X163930187Y-128257608D01*
X163922558Y-128268109D01*
X163733149Y-128502010D01*
X163724464Y-128511655D01*
X163511655Y-128724464D01*
X163502010Y-128733149D01*
X163268109Y-128922558D01*
X163257608Y-128930187D01*
X163005203Y-129094101D01*
X162993963Y-129100591D01*
X162725793Y-129237231D01*
X162713935Y-129242510D01*
X162432966Y-129350363D01*
X162420623Y-129354374D01*
X162129902Y-129432273D01*
X162117205Y-129434971D01*
X161819953Y-129482050D01*
X161807046Y-129483407D01*
X161507923Y-129499084D01*
X161506030Y-129499184D01*
X161503244Y-129499330D01*
X161496754Y-129499500D01*
X155102650Y-129499500D01*
X155081404Y-129493261D01*
X155059316Y-129491682D01*
X155048532Y-129483609D01*
X155035611Y-129479815D01*
X155021111Y-129463081D01*
X155003383Y-129449810D01*
X154998675Y-129437189D01*
X154989856Y-129427011D01*
X154986704Y-129405093D01*
X154978966Y-129384346D01*
X154981828Y-129371185D01*
X154979912Y-129357853D01*
X154989111Y-129337709D01*
X154993818Y-129316073D01*
X155007086Y-129298347D01*
X155008937Y-129294297D01*
X155014969Y-129287819D01*
X155015969Y-129286819D01*
X155077292Y-129253334D01*
X155103650Y-129250500D01*
X157864071Y-129250500D01*
X157948615Y-129233682D01*
X157989744Y-129225501D01*
X158108127Y-129176465D01*
X158214669Y-129105277D01*
X159105277Y-128214669D01*
X159176465Y-128108127D01*
X159225501Y-127989744D01*
X159250500Y-127864069D01*
X159250500Y-125520808D01*
X159270185Y-125453769D01*
X159286819Y-125433127D01*
X160433127Y-124286819D01*
X160494450Y-124253334D01*
X160520808Y-124250500D01*
X161664071Y-124250500D01*
X161748615Y-124233682D01*
X161789744Y-124225501D01*
X161908127Y-124176465D01*
X162014669Y-124105277D01*
X162839293Y-123280652D01*
X162900614Y-123247169D01*
X162902781Y-123246718D01*
X162921360Y-123243022D01*
X163048082Y-123217816D01*
X163202863Y-123153703D01*
X163342162Y-123060626D01*
X163460626Y-122942162D01*
X163553703Y-122802863D01*
X163617816Y-122648082D01*
X163650500Y-122483767D01*
X163650500Y-122316233D01*
X163617816Y-122151918D01*
X163553703Y-121997137D01*
X163483551Y-121892147D01*
X163460626Y-121857837D01*
X163342162Y-121739373D01*
X163202860Y-121646295D01*
X163048082Y-121582184D01*
X163048074Y-121582182D01*
X162883771Y-121549500D01*
X162883767Y-121549500D01*
X162716233Y-121549500D01*
X162716228Y-121549500D01*
X162551925Y-121582182D01*
X162551917Y-121582184D01*
X162397139Y-121646295D01*
X162257837Y-121739373D01*
X162139373Y-121857837D01*
X162046295Y-121997139D01*
X162046295Y-121997140D01*
X162035398Y-122023447D01*
X161991556Y-122077849D01*
X161925262Y-122099913D01*
X161857563Y-122082633D01*
X161851948Y-122079094D01*
X161802865Y-122046298D01*
X161802861Y-122046296D01*
X161648082Y-121982184D01*
X161648074Y-121982182D01*
X161483771Y-121949500D01*
X161483767Y-121949500D01*
X161316233Y-121949500D01*
X161316228Y-121949500D01*
X161151919Y-121982183D01*
X161151462Y-121982322D01*
X161151210Y-121982324D01*
X161145943Y-121983372D01*
X161145744Y-121982372D01*
X161081595Y-121982941D01*
X161022485Y-121945689D01*
X161000913Y-121911112D01*
X160989837Y-121884373D01*
X160975255Y-121849167D01*
X160953704Y-121797138D01*
X160860626Y-121657837D01*
X160742162Y-121539373D01*
X160602860Y-121446295D01*
X160448082Y-121382184D01*
X160448074Y-121382182D01*
X160283771Y-121349500D01*
X160283767Y-121349500D01*
X160116233Y-121349500D01*
X160116228Y-121349500D01*
X159951925Y-121382182D01*
X159951917Y-121382184D01*
X159797139Y-121446295D01*
X159657837Y-121539373D01*
X159657834Y-121539376D01*
X159564267Y-121632944D01*
X159502944Y-121666429D01*
X159433252Y-121661445D01*
X159407697Y-121648366D01*
X159399377Y-121642807D01*
X159399364Y-121642800D01*
X159244587Y-121578689D01*
X159244579Y-121578687D01*
X159080276Y-121546005D01*
X159080272Y-121546005D01*
X158912738Y-121546005D01*
X158912733Y-121546005D01*
X158748430Y-121578687D01*
X158748422Y-121578689D01*
X158593644Y-121642800D01*
X158454343Y-121735878D01*
X158359381Y-121830840D01*
X158298057Y-121864324D01*
X158228366Y-121859340D01*
X158208287Y-121849065D01*
X158208233Y-121849167D01*
X158202864Y-121846297D01*
X158048082Y-121782184D01*
X158048074Y-121782182D01*
X157883771Y-121749500D01*
X157883767Y-121749500D01*
X157716233Y-121749500D01*
X157716228Y-121749500D01*
X157551925Y-121782182D01*
X157551917Y-121782184D01*
X157397139Y-121846295D01*
X157257837Y-121939373D01*
X157139373Y-122057837D01*
X157046295Y-122197139D01*
X157046295Y-122197140D01*
X157014480Y-122273945D01*
X156970638Y-122328347D01*
X156904344Y-122350411D01*
X156887777Y-122349894D01*
X156883773Y-122349500D01*
X156883767Y-122349500D01*
X156716233Y-122349500D01*
X156665654Y-122359560D01*
X156596063Y-122353331D01*
X156540886Y-122310467D01*
X156519848Y-122262134D01*
X156517816Y-122251918D01*
X156461613Y-122116233D01*
X156453704Y-122097139D01*
X156444011Y-122082633D01*
X156419731Y-122046295D01*
X156360626Y-121957837D01*
X156242162Y-121839373D01*
X156102860Y-121746295D01*
X155948082Y-121682184D01*
X155948074Y-121682182D01*
X155783771Y-121649500D01*
X155783767Y-121649500D01*
X155616233Y-121649500D01*
X155616228Y-121649500D01*
X155451925Y-121682182D01*
X155451917Y-121682184D01*
X155297140Y-121746295D01*
X155188500Y-121818885D01*
X155121822Y-121839762D01*
X155054442Y-121821277D01*
X155031929Y-121803463D01*
X154522194Y-121293727D01*
X154522193Y-121293726D01*
X154522189Y-121293723D01*
X154415647Y-121222535D01*
X154297264Y-121173499D01*
X154297258Y-121173497D01*
X154171591Y-121148500D01*
X154171589Y-121148500D01*
X147374500Y-121148500D01*
X147307461Y-121128815D01*
X147261706Y-121076011D01*
X147250500Y-121024500D01*
X147250500Y-120916232D01*
X147250499Y-120916228D01*
X147228954Y-120807913D01*
X147217816Y-120751918D01*
X147153703Y-120597137D01*
X147122537Y-120550494D01*
X147060626Y-120457837D01*
X146942162Y-120339373D01*
X146897794Y-120309728D01*
X146852989Y-120256116D01*
X146844282Y-120186791D01*
X146863581Y-120137738D01*
X146953703Y-120002863D01*
X147017816Y-119848082D01*
X147050500Y-119683767D01*
X147050500Y-119516233D01*
X147017816Y-119351918D01*
X146953703Y-119197137D01*
X146862498Y-119060639D01*
X146860626Y-119057837D01*
X146742162Y-118939373D01*
X146602860Y-118846295D01*
X146448082Y-118782184D01*
X146448074Y-118782182D01*
X146283771Y-118749500D01*
X146283767Y-118749500D01*
X146116233Y-118749500D01*
X146116228Y-118749500D01*
X145951925Y-118782182D01*
X145951917Y-118782184D01*
X145797139Y-118846295D01*
X145673959Y-118928602D01*
X145607281Y-118949480D01*
X145605068Y-118949500D01*
X138670807Y-118949500D01*
X138603768Y-118929815D01*
X138583126Y-118913181D01*
X137267768Y-117597822D01*
X137186174Y-117516228D01*
X141549500Y-117516228D01*
X141549500Y-117683771D01*
X141582182Y-117848074D01*
X141582184Y-117848082D01*
X141646295Y-118002860D01*
X141739373Y-118142162D01*
X141857837Y-118260626D01*
X141911853Y-118296718D01*
X141997137Y-118353703D01*
X142151918Y-118417816D01*
X142277598Y-118442815D01*
X142316228Y-118450499D01*
X142316232Y-118450500D01*
X142316233Y-118450500D01*
X142483768Y-118450500D01*
X142483769Y-118450499D01*
X142648082Y-118417816D01*
X142802863Y-118353703D01*
X142942162Y-118260626D01*
X143060626Y-118142162D01*
X143153703Y-118002863D01*
X143217816Y-117848082D01*
X143250500Y-117683767D01*
X143250500Y-117516233D01*
X143217816Y-117351918D01*
X143155686Y-117201925D01*
X143153704Y-117197139D01*
X143123488Y-117151918D01*
X143077952Y-117083768D01*
X143060626Y-117057837D01*
X142942162Y-116939373D01*
X142802860Y-116846295D01*
X142648082Y-116782184D01*
X142648074Y-116782182D01*
X142483771Y-116749500D01*
X142483767Y-116749500D01*
X142316233Y-116749500D01*
X142316228Y-116749500D01*
X142151925Y-116782182D01*
X142151917Y-116782184D01*
X141997139Y-116846295D01*
X141857837Y-116939373D01*
X141739373Y-117057837D01*
X141646295Y-117197139D01*
X141582184Y-117351917D01*
X141582182Y-117351925D01*
X141549500Y-117516228D01*
X137186174Y-117516228D01*
X137080654Y-117410708D01*
X137047169Y-117349385D01*
X137046718Y-117347218D01*
X137029494Y-117260626D01*
X137017816Y-117201918D01*
X136955510Y-117051499D01*
X136953704Y-117047139D01*
X136860626Y-116907837D01*
X136742162Y-116789373D01*
X136602860Y-116696295D01*
X136448082Y-116632184D01*
X136448074Y-116632182D01*
X136283771Y-116599500D01*
X136283767Y-116599500D01*
X136116233Y-116599500D01*
X136116228Y-116599500D01*
X135951925Y-116632182D01*
X135951917Y-116632184D01*
X135797139Y-116696295D01*
X135657837Y-116789373D01*
X135539373Y-116907837D01*
X135446295Y-117047139D01*
X135382184Y-117201917D01*
X135382182Y-117201925D01*
X135349500Y-117366228D01*
X135349500Y-117533771D01*
X135382182Y-117698074D01*
X135382184Y-117698082D01*
X135446295Y-117852860D01*
X135539373Y-117992162D01*
X135657837Y-118110626D01*
X135742450Y-118167162D01*
X135797137Y-118203703D01*
X135951918Y-118267816D01*
X136036011Y-118284543D01*
X136097218Y-118296718D01*
X136159129Y-118329102D01*
X136160708Y-118330654D01*
X137758852Y-119928797D01*
X137792337Y-119990120D01*
X137787353Y-120059812D01*
X137758853Y-120104159D01*
X137676222Y-120186791D01*
X137449831Y-120413182D01*
X137388511Y-120446666D01*
X137362152Y-120449500D01*
X136935929Y-120449500D01*
X136810261Y-120474497D01*
X136810255Y-120474499D01*
X136691874Y-120523534D01*
X136585326Y-120594726D01*
X136585325Y-120594727D01*
X135366873Y-121813181D01*
X135305550Y-121846666D01*
X135279192Y-121849500D01*
X128935929Y-121849500D01*
X128810261Y-121874497D01*
X128810255Y-121874499D01*
X128691874Y-121923534D01*
X128585326Y-121994726D01*
X128585325Y-121994727D01*
X127366873Y-123213181D01*
X127305550Y-123246666D01*
X127279192Y-123249500D01*
X125135929Y-123249500D01*
X125010261Y-123274497D01*
X125010255Y-123274499D01*
X124891874Y-123323534D01*
X124785326Y-123394726D01*
X123894727Y-124285325D01*
X123894721Y-124285332D01*
X123828436Y-124384536D01*
X123828433Y-124384542D01*
X123823535Y-124391873D01*
X123823533Y-124391876D01*
X123774499Y-124510255D01*
X123774496Y-124510265D01*
X123770606Y-124529820D01*
X123738219Y-124591730D01*
X123677502Y-124626301D01*
X123607733Y-124622559D01*
X123576105Y-124605942D01*
X123405681Y-124482122D01*
X123405680Y-124482121D01*
X123405678Y-124482120D01*
X123344323Y-124450858D01*
X123214170Y-124384541D01*
X123214167Y-124384540D01*
X123009757Y-124318124D01*
X122845747Y-124292147D01*
X122797467Y-124284500D01*
X122582533Y-124284500D01*
X122534253Y-124292147D01*
X122370243Y-124318124D01*
X122370240Y-124318124D01*
X122165832Y-124384540D01*
X122165829Y-124384541D01*
X121974321Y-124482120D01*
X121898607Y-124537130D01*
X121800437Y-124608455D01*
X121800435Y-124608457D01*
X121800434Y-124608457D01*
X121648457Y-124760434D01*
X121648457Y-124760435D01*
X121648455Y-124760437D01*
X121614816Y-124806737D01*
X121520318Y-124936802D01*
X121464988Y-124979467D01*
X121395374Y-124985446D01*
X121333579Y-124952840D01*
X121319682Y-124936802D01*
X121306836Y-124919121D01*
X121191545Y-124760437D01*
X121039563Y-124608455D01*
X120865678Y-124482120D01*
X120739471Y-124417814D01*
X120688676Y-124369840D01*
X120671881Y-124302019D01*
X120694418Y-124235885D01*
X120708080Y-124219654D01*
X120774896Y-124152839D01*
X120862939Y-124021074D01*
X120923584Y-123874664D01*
X120954500Y-123719236D01*
X120954500Y-123560764D01*
X120934064Y-123458023D01*
X120940291Y-123388432D01*
X120983154Y-123333254D01*
X121049044Y-123310010D01*
X121117041Y-123326078D01*
X121143362Y-123346151D01*
X121257837Y-123460626D01*
X121350494Y-123522537D01*
X121397137Y-123553703D01*
X121397138Y-123553703D01*
X121397139Y-123553704D01*
X121432201Y-123568227D01*
X121551918Y-123617816D01*
X121716228Y-123650499D01*
X121716232Y-123650500D01*
X121716233Y-123650500D01*
X121883768Y-123650500D01*
X121883769Y-123650499D01*
X122048082Y-123617816D01*
X122202863Y-123553703D01*
X122342162Y-123460626D01*
X122460626Y-123342162D01*
X122553703Y-123202863D01*
X122617816Y-123048082D01*
X122650500Y-122883767D01*
X122650500Y-122716233D01*
X122617816Y-122551918D01*
X122553703Y-122397137D01*
X122507739Y-122328347D01*
X122460626Y-122257837D01*
X122342162Y-122139373D01*
X122307523Y-122116228D01*
X123049500Y-122116228D01*
X123049500Y-122283771D01*
X123082182Y-122448074D01*
X123082184Y-122448082D01*
X123146295Y-122602860D01*
X123239373Y-122742162D01*
X123357837Y-122860626D01*
X123450494Y-122922537D01*
X123497137Y-122953703D01*
X123651918Y-123017816D01*
X123771967Y-123041695D01*
X123816228Y-123050499D01*
X123816232Y-123050500D01*
X123816233Y-123050500D01*
X123983768Y-123050500D01*
X123983769Y-123050499D01*
X124148082Y-123017816D01*
X124302863Y-122953703D01*
X124442162Y-122860626D01*
X124560626Y-122742162D01*
X124653703Y-122602863D01*
X124717816Y-122448082D01*
X124750500Y-122283767D01*
X124750500Y-122116233D01*
X124717816Y-121951918D01*
X124653703Y-121797137D01*
X124576894Y-121682184D01*
X124560626Y-121657837D01*
X124442162Y-121539373D01*
X124302860Y-121446295D01*
X124148082Y-121382184D01*
X124148074Y-121382182D01*
X123983771Y-121349500D01*
X123983767Y-121349500D01*
X123816233Y-121349500D01*
X123816228Y-121349500D01*
X123651925Y-121382182D01*
X123651917Y-121382184D01*
X123497139Y-121446295D01*
X123357837Y-121539373D01*
X123239373Y-121657837D01*
X123146295Y-121797139D01*
X123082184Y-121951917D01*
X123082182Y-121951925D01*
X123049500Y-122116228D01*
X122307523Y-122116228D01*
X122202860Y-122046295D01*
X122048082Y-121982184D01*
X122048074Y-121982182D01*
X121883771Y-121949500D01*
X121883767Y-121949500D01*
X121716233Y-121949500D01*
X121716228Y-121949500D01*
X121551925Y-121982182D01*
X121551917Y-121982184D01*
X121397139Y-122046295D01*
X121257837Y-122139373D01*
X121139373Y-122257837D01*
X121046295Y-122397139D01*
X120982184Y-122551917D01*
X120982182Y-122551925D01*
X120949500Y-122716228D01*
X120949500Y-122883771D01*
X120973541Y-123004635D01*
X120967314Y-123074227D01*
X120924450Y-123129404D01*
X120858560Y-123152648D01*
X120790564Y-123136580D01*
X120764243Y-123116507D01*
X120662842Y-123015106D01*
X120662838Y-123015103D01*
X120531080Y-122927064D01*
X120531071Y-122927059D01*
X120384664Y-122866416D01*
X120384656Y-122866414D01*
X120229240Y-122835500D01*
X120229236Y-122835500D01*
X120070764Y-122835500D01*
X120070759Y-122835500D01*
X119915343Y-122866414D01*
X119915335Y-122866416D01*
X119768928Y-122927059D01*
X119768919Y-122927064D01*
X119637161Y-123015103D01*
X119637157Y-123015106D01*
X119525106Y-123127157D01*
X119525103Y-123127161D01*
X119437064Y-123258919D01*
X119437059Y-123258928D01*
X119376416Y-123405335D01*
X119376414Y-123405343D01*
X119345500Y-123560759D01*
X119345500Y-123719240D01*
X119376414Y-123874656D01*
X119376416Y-123874664D01*
X119437059Y-124021071D01*
X119437064Y-124021080D01*
X119525103Y-124152838D01*
X119525106Y-124152842D01*
X119591913Y-124219649D01*
X119625398Y-124280972D01*
X119620414Y-124350664D01*
X119578542Y-124406597D01*
X119560527Y-124417815D01*
X119434321Y-124482120D01*
X119358607Y-124537130D01*
X119260437Y-124608455D01*
X119260435Y-124608457D01*
X119260434Y-124608457D01*
X119108457Y-124760434D01*
X119108457Y-124760435D01*
X119108455Y-124760437D01*
X119074816Y-124806737D01*
X118980318Y-124936802D01*
X118924988Y-124979467D01*
X118855374Y-124985446D01*
X118793579Y-124952840D01*
X118779682Y-124936802D01*
X118766836Y-124919121D01*
X118651545Y-124760437D01*
X118499563Y-124608455D01*
X118325678Y-124482120D01*
X118315302Y-124476833D01*
X118134170Y-124384541D01*
X118134167Y-124384540D01*
X117929757Y-124318124D01*
X117765747Y-124292147D01*
X117717467Y-124284500D01*
X117502533Y-124284500D01*
X117454253Y-124292147D01*
X117290243Y-124318124D01*
X117290240Y-124318124D01*
X117085832Y-124384540D01*
X117085829Y-124384541D01*
X116894321Y-124482120D01*
X116720438Y-124608454D01*
X116625522Y-124703370D01*
X116564198Y-124736854D01*
X116494507Y-124731870D01*
X116438574Y-124689998D01*
X116421659Y-124659021D01*
X116378354Y-124542913D01*
X116378350Y-124542906D01*
X116292190Y-124427812D01*
X116292187Y-124427809D01*
X116177093Y-124341649D01*
X116177086Y-124341645D01*
X116042379Y-124291403D01*
X116042372Y-124291401D01*
X115982844Y-124285000D01*
X115320000Y-124285000D01*
X115320000Y-125355439D01*
X115266853Y-125324755D01*
X115137143Y-125290000D01*
X115002857Y-125290000D01*
X114873147Y-125324755D01*
X114820000Y-125355439D01*
X114820000Y-124285000D01*
X114157155Y-124285000D01*
X114097627Y-124291401D01*
X114097620Y-124291403D01*
X113962913Y-124341645D01*
X113962906Y-124341649D01*
X113847812Y-124427809D01*
X113847809Y-124427812D01*
X113761649Y-124542906D01*
X113761645Y-124542913D01*
X113711403Y-124677620D01*
X113711401Y-124677627D01*
X113705000Y-124737155D01*
X113705000Y-125550000D01*
X114625440Y-125550000D01*
X114594755Y-125603147D01*
X114560000Y-125732857D01*
X114560000Y-125867143D01*
X114594755Y-125996853D01*
X114625440Y-126050000D01*
X113705000Y-126050000D01*
X113705000Y-126862844D01*
X113711401Y-126922372D01*
X113711403Y-126922379D01*
X113761645Y-127057086D01*
X113761649Y-127057093D01*
X113847809Y-127172187D01*
X113847812Y-127172190D01*
X113962906Y-127258350D01*
X113962913Y-127258354D01*
X114097620Y-127308596D01*
X114097627Y-127308598D01*
X114157155Y-127314999D01*
X114157172Y-127315000D01*
X114820000Y-127315000D01*
X114820000Y-126244560D01*
X114873147Y-126275245D01*
X115002857Y-126310000D01*
X115137143Y-126310000D01*
X115266853Y-126275245D01*
X115320000Y-126244560D01*
X115320000Y-127315000D01*
X115982828Y-127315000D01*
X115982844Y-127314999D01*
X116042372Y-127308598D01*
X116042379Y-127308596D01*
X116177086Y-127258354D01*
X116177093Y-127258350D01*
X116292187Y-127172190D01*
X116292190Y-127172187D01*
X116378350Y-127057093D01*
X116378355Y-127057084D01*
X116421659Y-126940979D01*
X116463529Y-126885045D01*
X116528994Y-126860627D01*
X116597267Y-126875478D01*
X116625522Y-126896630D01*
X116720437Y-126991545D01*
X116894322Y-127117880D01*
X116917917Y-127129902D01*
X117085829Y-127215458D01*
X117085832Y-127215459D01*
X117211363Y-127256246D01*
X117290245Y-127281876D01*
X117502533Y-127315500D01*
X117502534Y-127315500D01*
X117717466Y-127315500D01*
X117717467Y-127315500D01*
X117929755Y-127281876D01*
X117929758Y-127281875D01*
X117929759Y-127281875D01*
X118134167Y-127215459D01*
X118134170Y-127215458D01*
X118148558Y-127208127D01*
X118325678Y-127117880D01*
X118499563Y-126991545D01*
X118651545Y-126839563D01*
X118777880Y-126665678D01*
X118777879Y-126665678D01*
X118779682Y-126663198D01*
X118835012Y-126620532D01*
X118904625Y-126614553D01*
X118966420Y-126647159D01*
X118980318Y-126663198D01*
X118982120Y-126665678D01*
X119108455Y-126839563D01*
X119260437Y-126991545D01*
X119434322Y-127117880D01*
X119457917Y-127129902D01*
X119625829Y-127215458D01*
X119625832Y-127215459D01*
X119751363Y-127256246D01*
X119830245Y-127281876D01*
X120042533Y-127315500D01*
X120042534Y-127315500D01*
X120257466Y-127315500D01*
X120257467Y-127315500D01*
X120469755Y-127281876D01*
X120469758Y-127281875D01*
X120469759Y-127281875D01*
X120674167Y-127215459D01*
X120674170Y-127215458D01*
X120688558Y-127208127D01*
X120865678Y-127117880D01*
X121039563Y-126991545D01*
X121191545Y-126839563D01*
X121317880Y-126665678D01*
X121317879Y-126665678D01*
X121319682Y-126663198D01*
X121375012Y-126620532D01*
X121444625Y-126614553D01*
X121506420Y-126647159D01*
X121520318Y-126663198D01*
X121648452Y-126839559D01*
X121648457Y-126839565D01*
X121746711Y-126937819D01*
X121780196Y-126999142D01*
X121775212Y-127068834D01*
X121733340Y-127124767D01*
X121667876Y-127149184D01*
X121659030Y-127149500D01*
X121535929Y-127149500D01*
X121410261Y-127174497D01*
X121410255Y-127174499D01*
X121291875Y-127223533D01*
X121291866Y-127223538D01*
X121185331Y-127294723D01*
X121185327Y-127294726D01*
X120466873Y-128013181D01*
X120405550Y-128046666D01*
X120379192Y-128049500D01*
X118844932Y-128049500D01*
X118777893Y-128029815D01*
X118776041Y-128028602D01*
X118652860Y-127946295D01*
X118498082Y-127882184D01*
X118498074Y-127882182D01*
X118333771Y-127849500D01*
X118333767Y-127849500D01*
X118166233Y-127849500D01*
X118166228Y-127849500D01*
X118001925Y-127882182D01*
X118001917Y-127882184D01*
X117847139Y-127946295D01*
X117707837Y-128039373D01*
X117589373Y-128157837D01*
X117496295Y-128297139D01*
X117432184Y-128451917D01*
X117432182Y-128451925D01*
X117399500Y-128616228D01*
X117399500Y-128783771D01*
X117432182Y-128948074D01*
X117432184Y-128948082D01*
X117496295Y-129102860D01*
X117589373Y-129242162D01*
X117635030Y-129287819D01*
X117668515Y-129349142D01*
X117663531Y-129418834D01*
X117621659Y-129474767D01*
X117556195Y-129499184D01*
X117547349Y-129499500D01*
X103503246Y-129499500D01*
X103496756Y-129499330D01*
X103493970Y-129499184D01*
X103491815Y-129499071D01*
X103192953Y-129483407D01*
X103180046Y-129482050D01*
X102882794Y-129434971D01*
X102870097Y-129432273D01*
X102579376Y-129354374D01*
X102567033Y-129350363D01*
X102286064Y-129242510D01*
X102274206Y-129237231D01*
X102006036Y-129100591D01*
X101994796Y-129094101D01*
X101742391Y-128930187D01*
X101731890Y-128922558D01*
X101497989Y-128733149D01*
X101488344Y-128724464D01*
X101275535Y-128511655D01*
X101266850Y-128502010D01*
X101077441Y-128268109D01*
X101069812Y-128257608D01*
X101041927Y-128214669D01*
X100905896Y-128005199D01*
X100899408Y-127993963D01*
X100897258Y-127989744D01*
X100762767Y-127725790D01*
X100757489Y-127713935D01*
X100649636Y-127432966D01*
X100645625Y-127420623D01*
X100613473Y-127300631D01*
X100567724Y-127129896D01*
X100565028Y-127117205D01*
X100555507Y-127057093D01*
X100536371Y-126936266D01*
X100517949Y-126819953D01*
X100516592Y-126807046D01*
X100500670Y-126503243D01*
X100500500Y-126496753D01*
X100500500Y-119253713D01*
X109149500Y-119253713D01*
X109149500Y-119466287D01*
X109182754Y-119676243D01*
X109194236Y-119711582D01*
X109248444Y-119878414D01*
X109344951Y-120067820D01*
X109469890Y-120239786D01*
X109583818Y-120353714D01*
X109617303Y-120415037D01*
X109612319Y-120484729D01*
X109570447Y-120540662D01*
X109539471Y-120557577D01*
X109407912Y-120606646D01*
X109407906Y-120606649D01*
X109292812Y-120692809D01*
X109292809Y-120692812D01*
X109206649Y-120807906D01*
X109206645Y-120807913D01*
X109156403Y-120942620D01*
X109156401Y-120942627D01*
X109150000Y-121002155D01*
X109150000Y-121650000D01*
X110066988Y-121650000D01*
X110034075Y-121707007D01*
X110000000Y-121834174D01*
X110000000Y-121965826D01*
X110034075Y-122092993D01*
X110066988Y-122150000D01*
X109150000Y-122150000D01*
X109150000Y-122797844D01*
X109156401Y-122857372D01*
X109156403Y-122857379D01*
X109206645Y-122992086D01*
X109206649Y-122992093D01*
X109292809Y-123107187D01*
X109292812Y-123107190D01*
X109407906Y-123193350D01*
X109407913Y-123193354D01*
X109542620Y-123243596D01*
X109542627Y-123243598D01*
X109602155Y-123249999D01*
X109602172Y-123250000D01*
X110250000Y-123250000D01*
X110250000Y-122333012D01*
X110307007Y-122365925D01*
X110434174Y-122400000D01*
X110565826Y-122400000D01*
X110692993Y-122365925D01*
X110750000Y-122333012D01*
X110750000Y-123250000D01*
X111397828Y-123250000D01*
X111397844Y-123249999D01*
X111457372Y-123243598D01*
X111457379Y-123243596D01*
X111592086Y-123193354D01*
X111592093Y-123193350D01*
X111707187Y-123107190D01*
X111707190Y-123107187D01*
X111793350Y-122992093D01*
X111793354Y-122992086D01*
X111843596Y-122857379D01*
X111843598Y-122857372D01*
X111849999Y-122797844D01*
X111850000Y-122797827D01*
X111850000Y-122150000D01*
X110933012Y-122150000D01*
X110965925Y-122092993D01*
X111000000Y-121965826D01*
X111000000Y-121834174D01*
X110965925Y-121707007D01*
X110933012Y-121650000D01*
X111850000Y-121650000D01*
X111850000Y-121002172D01*
X111849999Y-121002155D01*
X111843598Y-120942627D01*
X111843596Y-120942620D01*
X111793354Y-120807913D01*
X111793350Y-120807906D01*
X111707190Y-120692812D01*
X111707187Y-120692809D01*
X111592093Y-120606649D01*
X111592088Y-120606646D01*
X111460528Y-120557577D01*
X111404595Y-120515705D01*
X111380178Y-120450241D01*
X111395030Y-120381968D01*
X111416175Y-120353720D01*
X111530104Y-120239792D01*
X111535247Y-120232714D01*
X111655048Y-120067820D01*
X111655047Y-120067820D01*
X111655051Y-120067816D01*
X111751557Y-119878412D01*
X111817246Y-119676243D01*
X111850500Y-119466287D01*
X111850500Y-119379728D01*
X123349500Y-119379728D01*
X123349500Y-119547271D01*
X123382182Y-119711574D01*
X123382184Y-119711582D01*
X123446295Y-119866360D01*
X123539373Y-120005662D01*
X123657837Y-120124126D01*
X123750494Y-120186037D01*
X123797137Y-120217203D01*
X123951918Y-120281316D01*
X124094756Y-120309728D01*
X124116228Y-120313999D01*
X124116232Y-120314000D01*
X124116233Y-120314000D01*
X124283768Y-120314000D01*
X124283769Y-120313999D01*
X124448082Y-120281316D01*
X124602863Y-120217203D01*
X124742162Y-120124126D01*
X124860626Y-120005662D01*
X124953703Y-119866363D01*
X125017816Y-119711582D01*
X125050500Y-119547267D01*
X125050500Y-119379733D01*
X125017816Y-119215418D01*
X124953703Y-119060637D01*
X124922537Y-119013994D01*
X124860626Y-118921337D01*
X124742162Y-118802873D01*
X124602860Y-118709795D01*
X124448082Y-118645684D01*
X124448074Y-118645682D01*
X124283771Y-118613000D01*
X124283767Y-118613000D01*
X124116233Y-118613000D01*
X124116228Y-118613000D01*
X123951925Y-118645682D01*
X123951917Y-118645684D01*
X123797139Y-118709795D01*
X123657837Y-118802873D01*
X123539373Y-118921337D01*
X123446295Y-119060639D01*
X123382184Y-119215417D01*
X123382182Y-119215425D01*
X123349500Y-119379728D01*
X111850500Y-119379728D01*
X111850500Y-119253713D01*
X111817246Y-119043757D01*
X111751557Y-118841588D01*
X111655051Y-118652184D01*
X111655049Y-118652181D01*
X111655048Y-118652179D01*
X111530109Y-118480213D01*
X111379786Y-118329890D01*
X111207820Y-118204951D01*
X111018414Y-118108444D01*
X111018413Y-118108443D01*
X111018412Y-118108443D01*
X110816243Y-118042754D01*
X110816241Y-118042753D01*
X110816240Y-118042753D01*
X110654957Y-118017208D01*
X110606287Y-118009500D01*
X110393713Y-118009500D01*
X110345042Y-118017208D01*
X110183760Y-118042753D01*
X109981585Y-118108444D01*
X109792179Y-118204951D01*
X109620213Y-118329890D01*
X109469890Y-118480213D01*
X109344951Y-118652179D01*
X109248444Y-118841585D01*
X109182753Y-119043760D01*
X109155565Y-119215418D01*
X109149500Y-119253713D01*
X100500500Y-119253713D01*
X100500500Y-116117228D01*
X107949500Y-116117228D01*
X107949500Y-116284771D01*
X107982182Y-116449074D01*
X107982184Y-116449082D01*
X108046295Y-116603860D01*
X108139373Y-116743162D01*
X108257837Y-116861626D01*
X108290974Y-116883767D01*
X108397137Y-116954703D01*
X108397138Y-116954703D01*
X108397139Y-116954704D01*
X108432201Y-116969227D01*
X108551918Y-117018816D01*
X108716228Y-117051499D01*
X108716232Y-117051500D01*
X108716233Y-117051500D01*
X108883768Y-117051500D01*
X108883769Y-117051499D01*
X109048082Y-117018816D01*
X109202863Y-116954703D01*
X109342162Y-116861626D01*
X109460626Y-116743162D01*
X109545441Y-116616228D01*
X116549500Y-116616228D01*
X116549500Y-116783771D01*
X116582182Y-116948074D01*
X116582184Y-116948082D01*
X116646295Y-117102860D01*
X116739373Y-117242162D01*
X116857837Y-117360626D01*
X116943430Y-117417817D01*
X116997137Y-117453703D01*
X117151918Y-117517816D01*
X117274315Y-117542162D01*
X117316228Y-117550499D01*
X117316232Y-117550500D01*
X117316233Y-117550500D01*
X117483768Y-117550500D01*
X117483769Y-117550499D01*
X117648082Y-117517816D01*
X117769171Y-117467658D01*
X117838638Y-117460190D01*
X117885513Y-117479118D01*
X117997137Y-117553703D01*
X118151918Y-117617816D01*
X118304037Y-117648074D01*
X118316228Y-117650499D01*
X118316232Y-117650500D01*
X118316233Y-117650500D01*
X118483768Y-117650500D01*
X118483769Y-117650499D01*
X118648082Y-117617816D01*
X118802863Y-117553703D01*
X118942162Y-117460626D01*
X119060626Y-117342162D01*
X119153703Y-117202863D01*
X119217816Y-117048082D01*
X119244043Y-116916228D01*
X121249500Y-116916228D01*
X121249500Y-117083771D01*
X121282182Y-117248074D01*
X121282184Y-117248082D01*
X121346295Y-117402860D01*
X121439373Y-117542162D01*
X121557837Y-117660626D01*
X121629886Y-117708767D01*
X121697137Y-117753703D01*
X121851918Y-117817816D01*
X122004037Y-117848074D01*
X122016228Y-117850499D01*
X122016232Y-117850500D01*
X122016233Y-117850500D01*
X122183768Y-117850500D01*
X122183769Y-117850499D01*
X122348082Y-117817816D01*
X122502863Y-117753703D01*
X122642162Y-117660626D01*
X122760626Y-117542162D01*
X122853703Y-117402863D01*
X122917816Y-117248082D01*
X122950500Y-117083767D01*
X122950500Y-116916233D01*
X122917816Y-116751918D01*
X122861611Y-116616228D01*
X122853704Y-116597139D01*
X122835284Y-116569572D01*
X122814012Y-116537735D01*
X122760626Y-116457837D01*
X122642162Y-116339373D01*
X122502860Y-116246295D01*
X122348082Y-116182184D01*
X122348074Y-116182182D01*
X122183771Y-116149500D01*
X122183767Y-116149500D01*
X122016233Y-116149500D01*
X122016228Y-116149500D01*
X121851925Y-116182182D01*
X121851917Y-116182184D01*
X121697139Y-116246295D01*
X121557837Y-116339373D01*
X121439373Y-116457837D01*
X121346295Y-116597139D01*
X121282184Y-116751917D01*
X121282182Y-116751925D01*
X121249500Y-116916228D01*
X119244043Y-116916228D01*
X119250500Y-116883767D01*
X119250500Y-116716233D01*
X119217816Y-116551918D01*
X119153703Y-116397137D01*
X119115106Y-116339373D01*
X119060626Y-116257837D01*
X118942162Y-116139373D01*
X118802860Y-116046295D01*
X118648082Y-115982184D01*
X118648074Y-115982182D01*
X118483771Y-115949500D01*
X118483767Y-115949500D01*
X118316233Y-115949500D01*
X118316228Y-115949500D01*
X118151925Y-115982182D01*
X118151913Y-115982185D01*
X118030829Y-116032340D01*
X117961360Y-116039809D01*
X117914487Y-116020881D01*
X117802865Y-115946298D01*
X117802861Y-115946296D01*
X117648082Y-115882184D01*
X117648074Y-115882182D01*
X117483771Y-115849500D01*
X117483767Y-115849500D01*
X117316233Y-115849500D01*
X117316228Y-115849500D01*
X117151925Y-115882182D01*
X117151917Y-115882184D01*
X116997139Y-115946295D01*
X116857837Y-116039373D01*
X116739373Y-116157837D01*
X116646295Y-116297139D01*
X116582184Y-116451917D01*
X116582182Y-116451925D01*
X116549500Y-116616228D01*
X109545441Y-116616228D01*
X109553703Y-116603863D01*
X109617816Y-116449082D01*
X109650500Y-116284767D01*
X109650500Y-116117233D01*
X109617816Y-115952918D01*
X109553703Y-115798137D01*
X109550528Y-115793386D01*
X109529654Y-115726709D01*
X109548141Y-115659329D01*
X109600121Y-115612641D01*
X109653634Y-115600500D01*
X111298543Y-115600500D01*
X111328504Y-115594539D01*
X111424228Y-115575499D01*
X111491836Y-115562051D01*
X111545165Y-115539961D01*
X111673914Y-115486632D01*
X111837782Y-115377139D01*
X111977139Y-115237782D01*
X111977139Y-115237780D01*
X111987347Y-115227573D01*
X111987348Y-115227570D01*
X112878102Y-114336819D01*
X112939425Y-114303334D01*
X112965783Y-114300500D01*
X121198542Y-114300500D01*
X121213360Y-114297552D01*
X121295188Y-114281275D01*
X121391836Y-114262051D01*
X121480075Y-114225501D01*
X121573914Y-114186632D01*
X121737782Y-114077139D01*
X121859809Y-113955111D01*
X121921128Y-113921629D01*
X121990820Y-113926613D01*
X122035168Y-113955114D01*
X125519345Y-117439291D01*
X125552830Y-117500614D01*
X125553281Y-117502781D01*
X125582182Y-117648074D01*
X125582184Y-117648082D01*
X125646295Y-117802860D01*
X125739373Y-117942162D01*
X125857837Y-118060626D01*
X125929401Y-118108443D01*
X125997137Y-118153703D01*
X126151918Y-118217816D01*
X126316228Y-118250499D01*
X126316232Y-118250500D01*
X126316233Y-118250500D01*
X126483768Y-118250500D01*
X126483769Y-118250499D01*
X126648082Y-118217816D01*
X126802863Y-118153703D01*
X126942162Y-118060626D01*
X127060626Y-117942162D01*
X127153703Y-117802863D01*
X127217816Y-117648082D01*
X127239070Y-117541228D01*
X133124500Y-117541228D01*
X133124500Y-117708771D01*
X133157182Y-117873074D01*
X133157184Y-117873082D01*
X133221295Y-118027860D01*
X133314373Y-118167162D01*
X133432837Y-118285626D01*
X133455098Y-118300500D01*
X133572137Y-118378703D01*
X133726918Y-118442816D01*
X133891228Y-118475499D01*
X133891232Y-118475500D01*
X133891233Y-118475500D01*
X134058768Y-118475500D01*
X134058769Y-118475499D01*
X134223082Y-118442816D01*
X134377863Y-118378703D01*
X134517162Y-118285626D01*
X134635626Y-118167162D01*
X134728703Y-118027863D01*
X134792816Y-117873082D01*
X134825500Y-117708767D01*
X134825500Y-117541233D01*
X134792816Y-117376918D01*
X134728703Y-117222137D01*
X134675265Y-117142162D01*
X134635626Y-117082837D01*
X134517162Y-116964373D01*
X134377860Y-116871295D01*
X134223082Y-116807184D01*
X134223074Y-116807182D01*
X134058771Y-116774500D01*
X134058767Y-116774500D01*
X133891233Y-116774500D01*
X133891228Y-116774500D01*
X133726925Y-116807182D01*
X133726917Y-116807184D01*
X133572139Y-116871295D01*
X133432837Y-116964373D01*
X133314373Y-117082837D01*
X133221295Y-117222139D01*
X133157184Y-117376917D01*
X133157182Y-117376925D01*
X133124500Y-117541228D01*
X127239070Y-117541228D01*
X127250500Y-117483767D01*
X127250500Y-117316233D01*
X127217816Y-117151918D01*
X127153703Y-116997137D01*
X127115106Y-116939373D01*
X127060626Y-116857837D01*
X126942162Y-116739373D01*
X126897794Y-116709728D01*
X126891988Y-116702781D01*
X126883822Y-116698874D01*
X126869935Y-116676393D01*
X126852989Y-116656116D01*
X126851860Y-116647133D01*
X126847103Y-116639431D01*
X126847575Y-116613009D01*
X126844282Y-116586791D01*
X126848222Y-116576776D01*
X126848351Y-116569572D01*
X126863580Y-116537740D01*
X126877954Y-116516228D01*
X128649500Y-116516228D01*
X128649500Y-116683771D01*
X128682182Y-116848074D01*
X128682184Y-116848082D01*
X128746295Y-117002860D01*
X128839373Y-117142162D01*
X128957837Y-117260626D01*
X129041052Y-117316228D01*
X129097137Y-117353703D01*
X129251918Y-117417816D01*
X129416228Y-117450499D01*
X129416232Y-117450500D01*
X129416233Y-117450500D01*
X129583768Y-117450500D01*
X129583769Y-117450499D01*
X129665924Y-117434158D01*
X129748078Y-117417817D01*
X129748078Y-117417816D01*
X129748082Y-117417816D01*
X129902863Y-117353703D01*
X130042162Y-117260626D01*
X130160626Y-117142162D01*
X130253703Y-117002863D01*
X130317816Y-116848082D01*
X130350500Y-116683767D01*
X130350500Y-116516233D01*
X130317816Y-116351918D01*
X130253703Y-116197137D01*
X130200312Y-116117232D01*
X130160626Y-116057837D01*
X130042162Y-115939373D01*
X129902860Y-115846295D01*
X129748082Y-115782184D01*
X129748074Y-115782182D01*
X129583771Y-115749500D01*
X129583767Y-115749500D01*
X129416233Y-115749500D01*
X129416228Y-115749500D01*
X129251925Y-115782182D01*
X129251917Y-115782184D01*
X129097139Y-115846295D01*
X128957837Y-115939373D01*
X128839373Y-116057837D01*
X128746295Y-116197139D01*
X128682184Y-116351917D01*
X128682182Y-116351925D01*
X128649500Y-116516228D01*
X126877954Y-116516228D01*
X126953703Y-116402863D01*
X127017816Y-116248082D01*
X127050500Y-116083767D01*
X127050500Y-115916233D01*
X127017816Y-115751918D01*
X126953703Y-115597137D01*
X126879863Y-115486628D01*
X126860626Y-115457837D01*
X126742162Y-115339373D01*
X126602860Y-115246295D01*
X126448082Y-115182184D01*
X126448074Y-115182182D01*
X126283771Y-115149500D01*
X126283767Y-115149500D01*
X126116233Y-115149500D01*
X126116228Y-115149500D01*
X125951925Y-115182182D01*
X125951917Y-115182184D01*
X125797139Y-115246295D01*
X125657838Y-115339373D01*
X125546259Y-115450952D01*
X125484936Y-115484436D01*
X125415244Y-115479452D01*
X125370897Y-115450951D01*
X124636174Y-114716228D01*
X134749500Y-114716228D01*
X134749500Y-114883771D01*
X134782182Y-115048074D01*
X134782184Y-115048082D01*
X134846295Y-115202860D01*
X134939373Y-115342162D01*
X135057837Y-115460626D01*
X135121045Y-115502860D01*
X135197137Y-115553703D01*
X135197138Y-115553703D01*
X135197139Y-115553704D01*
X135232201Y-115568227D01*
X135351918Y-115617816D01*
X135474315Y-115642162D01*
X135516228Y-115650499D01*
X135516232Y-115650500D01*
X135516233Y-115650500D01*
X135683768Y-115650500D01*
X135683769Y-115650499D01*
X135848082Y-115617816D01*
X136002863Y-115553703D01*
X136142162Y-115460626D01*
X136260626Y-115342162D01*
X136353703Y-115202863D01*
X136417816Y-115048082D01*
X136450500Y-114883767D01*
X136450500Y-114716233D01*
X136417816Y-114551918D01*
X136353703Y-114397137D01*
X136314043Y-114337782D01*
X136260626Y-114257837D01*
X136142162Y-114139373D01*
X136002860Y-114046295D01*
X135848082Y-113982184D01*
X135848074Y-113982182D01*
X135683771Y-113949500D01*
X135683767Y-113949500D01*
X135516233Y-113949500D01*
X135516228Y-113949500D01*
X135351925Y-113982182D01*
X135351917Y-113982184D01*
X135197139Y-114046295D01*
X135057837Y-114139373D01*
X134939373Y-114257837D01*
X134846295Y-114397139D01*
X134782184Y-114551917D01*
X134782182Y-114551925D01*
X134749500Y-114716228D01*
X124636174Y-114716228D01*
X122955114Y-113035168D01*
X122921629Y-112973845D01*
X122926613Y-112904153D01*
X122955114Y-112859805D01*
X123178103Y-112636818D01*
X123239426Y-112603334D01*
X123265784Y-112600500D01*
X136134218Y-112600500D01*
X136201257Y-112620185D01*
X136221899Y-112636819D01*
X137533330Y-113948251D01*
X137566815Y-114009574D01*
X137561831Y-114079266D01*
X137519959Y-114135199D01*
X137469841Y-114157549D01*
X137346001Y-114182182D01*
X137345995Y-114182184D01*
X137191217Y-114246295D01*
X137051915Y-114339373D01*
X136933451Y-114457837D01*
X136840373Y-114597139D01*
X136776262Y-114751917D01*
X136776260Y-114751925D01*
X136743578Y-114916228D01*
X136743578Y-115083771D01*
X136776260Y-115248074D01*
X136776262Y-115248082D01*
X136840373Y-115402860D01*
X136933451Y-115542162D01*
X137051915Y-115660626D01*
X137144572Y-115722537D01*
X137191215Y-115753703D01*
X137345996Y-115817816D01*
X137489171Y-115846295D01*
X137510306Y-115850499D01*
X137510310Y-115850500D01*
X137510311Y-115850500D01*
X137677846Y-115850500D01*
X137677847Y-115850499D01*
X137842160Y-115817816D01*
X137996941Y-115753703D01*
X138136240Y-115660626D01*
X138254704Y-115542162D01*
X138347781Y-115402863D01*
X138411894Y-115248082D01*
X138444578Y-115083767D01*
X138444578Y-114916233D01*
X138429640Y-114841134D01*
X138435867Y-114771543D01*
X138478730Y-114716366D01*
X138544619Y-114693121D01*
X138575445Y-114695325D01*
X138601459Y-114700500D01*
X138798540Y-114700500D01*
X143961208Y-114700500D01*
X144028247Y-114720185D01*
X144074002Y-114772989D01*
X144083946Y-114842147D01*
X144082825Y-114848691D01*
X144049500Y-115016228D01*
X144049500Y-115183771D01*
X144082182Y-115348074D01*
X144082184Y-115348082D01*
X144146295Y-115502860D01*
X144239373Y-115642162D01*
X144357837Y-115760626D01*
X144443430Y-115817817D01*
X144497137Y-115853703D01*
X144651918Y-115917816D01*
X144795093Y-115946295D01*
X144816228Y-115950499D01*
X144816232Y-115950500D01*
X144816233Y-115950500D01*
X144983768Y-115950500D01*
X144983769Y-115950499D01*
X145148082Y-115917816D01*
X145302863Y-115853703D01*
X145442162Y-115760626D01*
X145560626Y-115642162D01*
X145653703Y-115502863D01*
X145717816Y-115348082D01*
X145750500Y-115183767D01*
X145750500Y-115016233D01*
X145725757Y-114891839D01*
X145717175Y-114848691D01*
X145723402Y-114779099D01*
X145766266Y-114723922D01*
X145832155Y-114700678D01*
X145838792Y-114700500D01*
X150198542Y-114700500D01*
X150235636Y-114693121D01*
X150295188Y-114681275D01*
X150391836Y-114662051D01*
X150445165Y-114639961D01*
X150573914Y-114586632D01*
X150737782Y-114477139D01*
X150877139Y-114337782D01*
X150877141Y-114337778D01*
X151078102Y-114136816D01*
X151139425Y-114103334D01*
X151165782Y-114100500D01*
X154298542Y-114100500D01*
X154329566Y-114094328D01*
X154395188Y-114081275D01*
X154491836Y-114062051D01*
X154545165Y-114039961D01*
X154673914Y-113986632D01*
X154837782Y-113877139D01*
X154977139Y-113737782D01*
X154977140Y-113737779D01*
X154984206Y-113730714D01*
X154984210Y-113730709D01*
X155078103Y-113636818D01*
X155139426Y-113603334D01*
X155165783Y-113600500D01*
X157798543Y-113600500D01*
X157928582Y-113574632D01*
X157991835Y-113562051D01*
X158173914Y-113486632D01*
X158337782Y-113377139D01*
X158477139Y-113237782D01*
X158586632Y-113073914D01*
X158662051Y-112891835D01*
X158679749Y-112802863D01*
X158700500Y-112698543D01*
X158700500Y-112501456D01*
X158662052Y-112308170D01*
X158662051Y-112308169D01*
X158662051Y-112308165D01*
X158637161Y-112248074D01*
X158586635Y-112126092D01*
X158586628Y-112126079D01*
X158477139Y-111962218D01*
X158477136Y-111962214D01*
X158337785Y-111822863D01*
X158337781Y-111822860D01*
X158173920Y-111713371D01*
X158173907Y-111713364D01*
X157991839Y-111637950D01*
X157991829Y-111637947D01*
X157798543Y-111599500D01*
X157798541Y-111599500D01*
X154601459Y-111599500D01*
X154601457Y-111599500D01*
X154528217Y-111614069D01*
X154528216Y-111614069D01*
X154408167Y-111637947D01*
X154408159Y-111637950D01*
X154354834Y-111660037D01*
X154354834Y-111660038D01*
X154309315Y-111678892D01*
X154226089Y-111713366D01*
X154226079Y-111713371D01*
X154062219Y-111822859D01*
X154027242Y-111857837D01*
X153922861Y-111962218D01*
X153821898Y-112063181D01*
X153760575Y-112096666D01*
X153734217Y-112099500D01*
X150601458Y-112099500D01*
X150574422Y-112104878D01*
X150547386Y-112110256D01*
X150547385Y-112110256D01*
X150408167Y-112137947D01*
X150408159Y-112137950D01*
X150354834Y-112160037D01*
X150354834Y-112160038D01*
X150309315Y-112178892D01*
X150226089Y-112213366D01*
X150226079Y-112213371D01*
X150062219Y-112322859D01*
X149992540Y-112392538D01*
X149922861Y-112462218D01*
X149922858Y-112462221D01*
X149811793Y-112573287D01*
X149721899Y-112663181D01*
X149694971Y-112677884D01*
X149669153Y-112694477D01*
X149662952Y-112695368D01*
X149660576Y-112696666D01*
X149634218Y-112699500D01*
X149487484Y-112699500D01*
X149420445Y-112679815D01*
X149374690Y-112627011D01*
X149364746Y-112557853D01*
X149384382Y-112506609D01*
X149414043Y-112462218D01*
X149453703Y-112402863D01*
X149517816Y-112248082D01*
X149550500Y-112083767D01*
X149550500Y-111916233D01*
X149517816Y-111751918D01*
X149453703Y-111597137D01*
X149421873Y-111549500D01*
X149360626Y-111457837D01*
X149242162Y-111339373D01*
X149102860Y-111246295D01*
X148948082Y-111182184D01*
X148948074Y-111182182D01*
X148783771Y-111149500D01*
X148783767Y-111149500D01*
X148616233Y-111149500D01*
X148616228Y-111149500D01*
X148451925Y-111182182D01*
X148451917Y-111182184D01*
X148297139Y-111246295D01*
X148157837Y-111339373D01*
X148039373Y-111457837D01*
X147946295Y-111597139D01*
X147882184Y-111751917D01*
X147882182Y-111751925D01*
X147849500Y-111916228D01*
X147849500Y-112083771D01*
X147882182Y-112248074D01*
X147882184Y-112248082D01*
X147946295Y-112402860D01*
X148015618Y-112506609D01*
X148036496Y-112573287D01*
X148018011Y-112640667D01*
X147966032Y-112687357D01*
X147912516Y-112699500D01*
X140658683Y-112699500D01*
X140591644Y-112679815D01*
X140545889Y-112627011D01*
X140535945Y-112557853D01*
X140537065Y-112551310D01*
X140538885Y-112542162D01*
X140550500Y-112483767D01*
X140550500Y-112316233D01*
X140517816Y-112151918D01*
X140453703Y-111997137D01*
X140422537Y-111950494D01*
X140360626Y-111857837D01*
X140242162Y-111739373D01*
X140102860Y-111646295D01*
X139948082Y-111582184D01*
X139948074Y-111582182D01*
X139783771Y-111549500D01*
X139783767Y-111549500D01*
X139616233Y-111549500D01*
X139616228Y-111549500D01*
X139451925Y-111582182D01*
X139451917Y-111582184D01*
X139297139Y-111646295D01*
X139157837Y-111739373D01*
X139039373Y-111857837D01*
X138946295Y-111997139D01*
X138882184Y-112151917D01*
X138882183Y-112151920D01*
X138875122Y-112187417D01*
X138842735Y-112249327D01*
X138782019Y-112283900D01*
X138712250Y-112280159D01*
X138665826Y-112250905D01*
X137384208Y-110969288D01*
X137384206Y-110969285D01*
X137384206Y-110969286D01*
X137377139Y-110962219D01*
X137377139Y-110962218D01*
X137237782Y-110822861D01*
X137237781Y-110822860D01*
X137237780Y-110822859D01*
X137073920Y-110713371D01*
X137073911Y-110713366D01*
X136952919Y-110663250D01*
X136952920Y-110663250D01*
X136945165Y-110660038D01*
X136891836Y-110637949D01*
X136752614Y-110610256D01*
X136726285Y-110605018D01*
X136698542Y-110599500D01*
X136698541Y-110599500D01*
X122898540Y-110599500D01*
X122701459Y-110599500D01*
X122701456Y-110599500D01*
X122508171Y-110637946D01*
X122508167Y-110637948D01*
X122508165Y-110637948D01*
X122508164Y-110637949D01*
X122447081Y-110663250D01*
X122432743Y-110669189D01*
X122326089Y-110713366D01*
X122326086Y-110713367D01*
X122326086Y-110713368D01*
X122297926Y-110732184D01*
X122297925Y-110732185D01*
X122297924Y-110732184D01*
X122162222Y-110822857D01*
X122162214Y-110822863D01*
X121940193Y-111044885D01*
X121878870Y-111078370D01*
X121809178Y-111073386D01*
X121764831Y-111044885D01*
X121480654Y-110760708D01*
X121447169Y-110699385D01*
X121446718Y-110697218D01*
X121429273Y-110609515D01*
X121417816Y-110551918D01*
X121353703Y-110397137D01*
X121322537Y-110350494D01*
X121260626Y-110257837D01*
X121142162Y-110139373D01*
X121002860Y-110046295D01*
X120848082Y-109982184D01*
X120848074Y-109982182D01*
X120683771Y-109949500D01*
X120683767Y-109949500D01*
X120516233Y-109949500D01*
X120516228Y-109949500D01*
X120351925Y-109982182D01*
X120351917Y-109982184D01*
X120197139Y-110046295D01*
X120057837Y-110139373D01*
X119939373Y-110257837D01*
X119846295Y-110397139D01*
X119782184Y-110551917D01*
X119782182Y-110551925D01*
X119749500Y-110716228D01*
X119749500Y-110883771D01*
X119782182Y-111048074D01*
X119782184Y-111048082D01*
X119846295Y-111202860D01*
X119939373Y-111342162D01*
X120057837Y-111460626D01*
X120066229Y-111466233D01*
X120197137Y-111553703D01*
X120351918Y-111617816D01*
X120432110Y-111633767D01*
X120497218Y-111646718D01*
X120559129Y-111679102D01*
X120560708Y-111680654D01*
X120844886Y-111964832D01*
X120849224Y-111972777D01*
X120856472Y-111978203D01*
X120865706Y-112002962D01*
X120878371Y-112026155D01*
X120877725Y-112035184D01*
X120880889Y-112043667D01*
X120875272Y-112069487D01*
X120873387Y-112095847D01*
X120867568Y-112104900D01*
X120866037Y-112111940D01*
X120844886Y-112140194D01*
X120721899Y-112263181D01*
X120660576Y-112296666D01*
X120634218Y-112299500D01*
X118288792Y-112299500D01*
X118221753Y-112279815D01*
X118175998Y-112227011D01*
X118166054Y-112157853D01*
X118167175Y-112151309D01*
X118197840Y-111997139D01*
X118200500Y-111983767D01*
X118200500Y-111816233D01*
X118167816Y-111651918D01*
X118103703Y-111497137D01*
X118072537Y-111450494D01*
X118010626Y-111357837D01*
X117892162Y-111239373D01*
X117752860Y-111146295D01*
X117598082Y-111082184D01*
X117598074Y-111082182D01*
X117433771Y-111049500D01*
X117433767Y-111049500D01*
X117266233Y-111049500D01*
X117266228Y-111049500D01*
X117101925Y-111082182D01*
X117101917Y-111082184D01*
X116947139Y-111146295D01*
X116807837Y-111239373D01*
X116689373Y-111357837D01*
X116596295Y-111497139D01*
X116532184Y-111651917D01*
X116532182Y-111651925D01*
X116499500Y-111816228D01*
X116499500Y-111983771D01*
X116532825Y-112151309D01*
X116526598Y-112220901D01*
X116483734Y-112276078D01*
X116417845Y-112299322D01*
X116411208Y-112299500D01*
X115602645Y-112299500D01*
X115535606Y-112279815D01*
X115489851Y-112227011D01*
X115479907Y-112157853D01*
X115506789Y-112096839D01*
X115510623Y-112092166D01*
X115510626Y-112092162D01*
X115603703Y-111952863D01*
X115667816Y-111798082D01*
X115700500Y-111633767D01*
X115700500Y-111466233D01*
X115667816Y-111301918D01*
X115603703Y-111147137D01*
X115538464Y-111049500D01*
X115510626Y-111007837D01*
X115392162Y-110889373D01*
X115252860Y-110796295D01*
X115098082Y-110732184D01*
X115098074Y-110732182D01*
X114933771Y-110699500D01*
X114933767Y-110699500D01*
X114766233Y-110699500D01*
X114766228Y-110699500D01*
X114601925Y-110732182D01*
X114601917Y-110732184D01*
X114447139Y-110796295D01*
X114307837Y-110889373D01*
X114189373Y-111007837D01*
X114096295Y-111147139D01*
X114032184Y-111301917D01*
X114032182Y-111301925D01*
X113999500Y-111466228D01*
X113999500Y-111633771D01*
X114032182Y-111798074D01*
X114032184Y-111798082D01*
X114096295Y-111952860D01*
X114189376Y-112092166D01*
X114193211Y-112096839D01*
X114220522Y-112161150D01*
X114208728Y-112230017D01*
X114161574Y-112281575D01*
X114097355Y-112299500D01*
X112401454Y-112299500D01*
X112369391Y-112305876D01*
X112369392Y-112305877D01*
X112208170Y-112337946D01*
X112208164Y-112337948D01*
X112026088Y-112413366D01*
X112026079Y-112413371D01*
X111862219Y-112522859D01*
X111862215Y-112522862D01*
X111627608Y-112757469D01*
X111566285Y-112790954D01*
X111496593Y-112785970D01*
X111440660Y-112744098D01*
X111416243Y-112678634D01*
X111418310Y-112645596D01*
X111450500Y-112483767D01*
X111450500Y-112316233D01*
X111417816Y-112151918D01*
X111353703Y-111997137D01*
X111322537Y-111950494D01*
X111260626Y-111857837D01*
X111142162Y-111739373D01*
X111002860Y-111646295D01*
X110848082Y-111582184D01*
X110848074Y-111582182D01*
X110683771Y-111549500D01*
X110683767Y-111549500D01*
X110516233Y-111549500D01*
X110516228Y-111549500D01*
X110351925Y-111582182D01*
X110351917Y-111582184D01*
X110197139Y-111646295D01*
X110057837Y-111739373D01*
X109939373Y-111857837D01*
X109846295Y-111997139D01*
X109782184Y-112151917D01*
X109782182Y-112151925D01*
X109749500Y-112316228D01*
X109749500Y-112483771D01*
X109782182Y-112648074D01*
X109782184Y-112648082D01*
X109846295Y-112802860D01*
X109939373Y-112942162D01*
X110057837Y-113060626D01*
X110150494Y-113122537D01*
X110197137Y-113153703D01*
X110351918Y-113217816D01*
X110516228Y-113250499D01*
X110516232Y-113250500D01*
X110516233Y-113250500D01*
X110683768Y-113250500D01*
X110683768Y-113250499D01*
X110814293Y-113224537D01*
X110845599Y-113218310D01*
X110915190Y-113224537D01*
X110970368Y-113267400D01*
X110993612Y-113333290D01*
X110977544Y-113401287D01*
X110957472Y-113427607D01*
X110821897Y-113563182D01*
X110760577Y-113596666D01*
X110734218Y-113599500D01*
X109101457Y-113599500D01*
X108908170Y-113637947D01*
X108908160Y-113637950D01*
X108726092Y-113713364D01*
X108726079Y-113713371D01*
X108562218Y-113822860D01*
X108562214Y-113822863D01*
X108422863Y-113962214D01*
X108422860Y-113962218D01*
X108313371Y-114126079D01*
X108313364Y-114126092D01*
X108237950Y-114308160D01*
X108237947Y-114308170D01*
X108199500Y-114501456D01*
X108199500Y-114501459D01*
X108199500Y-114698541D01*
X108199500Y-114698543D01*
X108199499Y-114698543D01*
X108237947Y-114891829D01*
X108237950Y-114891839D01*
X108313364Y-115073907D01*
X108313371Y-115073920D01*
X108422860Y-115237781D01*
X108422863Y-115237785D01*
X108432251Y-115247173D01*
X108465736Y-115308496D01*
X108460752Y-115378188D01*
X108418880Y-115434121D01*
X108402113Y-115443670D01*
X108402515Y-115444422D01*
X108397139Y-115447295D01*
X108257837Y-115540373D01*
X108139373Y-115658837D01*
X108046295Y-115798139D01*
X107982184Y-115952917D01*
X107982182Y-115952925D01*
X107949500Y-116117228D01*
X100500500Y-116117228D01*
X100500500Y-114216228D01*
X106049500Y-114216228D01*
X106049500Y-114383771D01*
X106082182Y-114548074D01*
X106082184Y-114548082D01*
X106146295Y-114702860D01*
X106239373Y-114842162D01*
X106357837Y-114960626D01*
X106441052Y-115016228D01*
X106497137Y-115053703D01*
X106651918Y-115117816D01*
X106811206Y-115149500D01*
X106816228Y-115150499D01*
X106816232Y-115150500D01*
X106816233Y-115150500D01*
X106983768Y-115150500D01*
X106983769Y-115150499D01*
X107148082Y-115117816D01*
X107302863Y-115053703D01*
X107442162Y-114960626D01*
X107560626Y-114842162D01*
X107653703Y-114702863D01*
X107717816Y-114548082D01*
X107750500Y-114383767D01*
X107750500Y-114216233D01*
X107717816Y-114051918D01*
X107668227Y-113932201D01*
X107653704Y-113897139D01*
X107560626Y-113757837D01*
X107442162Y-113639373D01*
X107302860Y-113546295D01*
X107148082Y-113482184D01*
X107148074Y-113482182D01*
X106983771Y-113449500D01*
X106983767Y-113449500D01*
X106816233Y-113449500D01*
X106816228Y-113449500D01*
X106651925Y-113482182D01*
X106651917Y-113482184D01*
X106497139Y-113546295D01*
X106357837Y-113639373D01*
X106239373Y-113757837D01*
X106146295Y-113897139D01*
X106082184Y-114051917D01*
X106082182Y-114051925D01*
X106049500Y-114216228D01*
X100500500Y-114216228D01*
X100500500Y-108116228D01*
X105149500Y-108116228D01*
X105149500Y-108283771D01*
X105182182Y-108448074D01*
X105182184Y-108448082D01*
X105246295Y-108602860D01*
X105339373Y-108742162D01*
X105457837Y-108860626D01*
X105521045Y-108902860D01*
X105597137Y-108953703D01*
X105751918Y-109017816D01*
X105874315Y-109042162D01*
X105916228Y-109050499D01*
X105916232Y-109050500D01*
X105916233Y-109050500D01*
X106083768Y-109050500D01*
X106083769Y-109050499D01*
X106248082Y-109017816D01*
X106402863Y-108953703D01*
X106542162Y-108860626D01*
X106660626Y-108742162D01*
X106753703Y-108602863D01*
X106817816Y-108448082D01*
X106824152Y-108416228D01*
X127194500Y-108416228D01*
X127194500Y-108583771D01*
X127227182Y-108748074D01*
X127227184Y-108748082D01*
X127291295Y-108902860D01*
X127384373Y-109042162D01*
X127502837Y-109160626D01*
X127595494Y-109222537D01*
X127642137Y-109253703D01*
X127796918Y-109317816D01*
X127961228Y-109350499D01*
X127961232Y-109350500D01*
X127961233Y-109350500D01*
X128128768Y-109350500D01*
X128128769Y-109350499D01*
X128293082Y-109317816D01*
X128447863Y-109253703D01*
X128587162Y-109160626D01*
X128705626Y-109042162D01*
X128798703Y-108902863D01*
X128855300Y-108766228D01*
X130599500Y-108766228D01*
X130599500Y-108933771D01*
X130632182Y-109098074D01*
X130632184Y-109098082D01*
X130696295Y-109252860D01*
X130789373Y-109392162D01*
X130907837Y-109510626D01*
X131000494Y-109572537D01*
X131047137Y-109603703D01*
X131201918Y-109667816D01*
X131366228Y-109700499D01*
X131366232Y-109700500D01*
X131366233Y-109700500D01*
X131533768Y-109700500D01*
X131533769Y-109700499D01*
X131698082Y-109667816D01*
X131852863Y-109603703D01*
X131992162Y-109510626D01*
X132110626Y-109392162D01*
X132203703Y-109252863D01*
X132267816Y-109098082D01*
X132300500Y-108933767D01*
X132300500Y-108766233D01*
X132267816Y-108601918D01*
X132232642Y-108517003D01*
X132225174Y-108447536D01*
X132256449Y-108385057D01*
X132299760Y-108354988D01*
X132302863Y-108353703D01*
X132442162Y-108260626D01*
X132560626Y-108142162D01*
X132653703Y-108002863D01*
X132717816Y-107848082D01*
X132750500Y-107683767D01*
X132750500Y-107516233D01*
X132717816Y-107351918D01*
X132653703Y-107197137D01*
X132590709Y-107102860D01*
X132560626Y-107057837D01*
X132442162Y-106939373D01*
X132302860Y-106846295D01*
X132148082Y-106782184D01*
X132148074Y-106782182D01*
X131983771Y-106749500D01*
X131983767Y-106749500D01*
X131816233Y-106749500D01*
X131816228Y-106749500D01*
X131651925Y-106782182D01*
X131651917Y-106782184D01*
X131497139Y-106846295D01*
X131357837Y-106939373D01*
X131239373Y-107057837D01*
X131146295Y-107197139D01*
X131082184Y-107351917D01*
X131082182Y-107351925D01*
X131049500Y-107516228D01*
X131049500Y-107683771D01*
X131082182Y-107848074D01*
X131082184Y-107848082D01*
X131117356Y-107932994D01*
X131124825Y-108002463D01*
X131093550Y-108064943D01*
X131050256Y-108095004D01*
X131047143Y-108096293D01*
X131047139Y-108096295D01*
X130907837Y-108189373D01*
X130789373Y-108307837D01*
X130696295Y-108447139D01*
X130632184Y-108601917D01*
X130632182Y-108601925D01*
X130599500Y-108766228D01*
X128855300Y-108766228D01*
X128862816Y-108748082D01*
X128895500Y-108583767D01*
X128895500Y-108416233D01*
X128862816Y-108251918D01*
X128806613Y-108116233D01*
X128798704Y-108097139D01*
X128798141Y-108096297D01*
X128735444Y-108002463D01*
X128705626Y-107957837D01*
X128587162Y-107839373D01*
X128447860Y-107746295D01*
X128293082Y-107682184D01*
X128293074Y-107682182D01*
X128128771Y-107649500D01*
X128128767Y-107649500D01*
X127961233Y-107649500D01*
X127961228Y-107649500D01*
X127796925Y-107682182D01*
X127796917Y-107682184D01*
X127642139Y-107746295D01*
X127502837Y-107839373D01*
X127384373Y-107957837D01*
X127291295Y-108097139D01*
X127227184Y-108251917D01*
X127227182Y-108251925D01*
X127194500Y-108416228D01*
X106824152Y-108416228D01*
X106830353Y-108385057D01*
X106850499Y-108283770D01*
X106850500Y-108283768D01*
X106850500Y-108116232D01*
X106850499Y-108116228D01*
X106846700Y-108097127D01*
X106817816Y-107951918D01*
X106753703Y-107797137D01*
X106677952Y-107683768D01*
X106660626Y-107657837D01*
X106542162Y-107539373D01*
X106402860Y-107446295D01*
X106248082Y-107382184D01*
X106248074Y-107382182D01*
X106083771Y-107349500D01*
X106083767Y-107349500D01*
X105916233Y-107349500D01*
X105916228Y-107349500D01*
X105751925Y-107382182D01*
X105751917Y-107382184D01*
X105597139Y-107446295D01*
X105457837Y-107539373D01*
X105339373Y-107657837D01*
X105246295Y-107797139D01*
X105182184Y-107951917D01*
X105182182Y-107951925D01*
X105149500Y-108116228D01*
X100500500Y-108116228D01*
X100500500Y-103503246D01*
X100500670Y-103496756D01*
X100516592Y-103192953D01*
X100517949Y-103180046D01*
X100544609Y-103011716D01*
X100565029Y-102882786D01*
X100567723Y-102870107D01*
X100645627Y-102579368D01*
X100649636Y-102567033D01*
X100757493Y-102286054D01*
X100762763Y-102274215D01*
X100829258Y-102143713D01*
X107039500Y-102143713D01*
X107039500Y-102356287D01*
X107072754Y-102566243D01*
X107074983Y-102573104D01*
X107138444Y-102768414D01*
X107234951Y-102957820D01*
X107359890Y-103129786D01*
X107473430Y-103243326D01*
X107506915Y-103304649D01*
X107501931Y-103374341D01*
X107460059Y-103430274D01*
X107429083Y-103447189D01*
X107297669Y-103496203D01*
X107297664Y-103496206D01*
X107182455Y-103582452D01*
X107182452Y-103582455D01*
X107096206Y-103697664D01*
X107096202Y-103697671D01*
X107045908Y-103832517D01*
X107039501Y-103892116D01*
X107039500Y-103892135D01*
X107039500Y-105687870D01*
X107039501Y-105687876D01*
X107045908Y-105747483D01*
X107096202Y-105882328D01*
X107096206Y-105882335D01*
X107182452Y-105997544D01*
X107182455Y-105997547D01*
X107297664Y-106083793D01*
X107297671Y-106083797D01*
X107432517Y-106134091D01*
X107432516Y-106134091D01*
X107439444Y-106134835D01*
X107492127Y-106140500D01*
X109287872Y-106140499D01*
X109347483Y-106134091D01*
X109482331Y-106083796D01*
X109597546Y-105997546D01*
X109683796Y-105882331D01*
X109732810Y-105750916D01*
X109774681Y-105694984D01*
X109840145Y-105670566D01*
X109908418Y-105685417D01*
X109936673Y-105706569D01*
X110050213Y-105820109D01*
X110222179Y-105945048D01*
X110222181Y-105945049D01*
X110222184Y-105945051D01*
X110411588Y-106041557D01*
X110613757Y-106107246D01*
X110823713Y-106140500D01*
X110823714Y-106140500D01*
X111036286Y-106140500D01*
X111036287Y-106140500D01*
X111246243Y-106107246D01*
X111448412Y-106041557D01*
X111637816Y-105945051D01*
X111724138Y-105882335D01*
X111809786Y-105820109D01*
X111809788Y-105820106D01*
X111809792Y-105820104D01*
X111960104Y-105669792D01*
X111960106Y-105669788D01*
X111960109Y-105669786D01*
X112085048Y-105497820D01*
X112085047Y-105497820D01*
X112085051Y-105497816D01*
X112089514Y-105489054D01*
X112137488Y-105438259D01*
X112205308Y-105421463D01*
X112271444Y-105443999D01*
X112310486Y-105489056D01*
X112314951Y-105497820D01*
X112439890Y-105669786D01*
X112590213Y-105820109D01*
X112762179Y-105945048D01*
X112762181Y-105945049D01*
X112762184Y-105945051D01*
X112951588Y-106041557D01*
X113153757Y-106107246D01*
X113363713Y-106140500D01*
X113363714Y-106140500D01*
X113576286Y-106140500D01*
X113576287Y-106140500D01*
X113786243Y-106107246D01*
X113988412Y-106041557D01*
X114177816Y-105945051D01*
X114264138Y-105882335D01*
X114349786Y-105820109D01*
X114349788Y-105820106D01*
X114349792Y-105820104D01*
X114500104Y-105669792D01*
X114500106Y-105669788D01*
X114500109Y-105669786D01*
X114625048Y-105497820D01*
X114625047Y-105497820D01*
X114625051Y-105497816D01*
X114629514Y-105489054D01*
X114677488Y-105438259D01*
X114745308Y-105421463D01*
X114811444Y-105443999D01*
X114850486Y-105489056D01*
X114854951Y-105497820D01*
X114979890Y-105669786D01*
X115130213Y-105820109D01*
X115302179Y-105945048D01*
X115302181Y-105945049D01*
X115302184Y-105945051D01*
X115491588Y-106041557D01*
X115693757Y-106107246D01*
X115903713Y-106140500D01*
X115903714Y-106140500D01*
X116116286Y-106140500D01*
X116116287Y-106140500D01*
X116326243Y-106107246D01*
X116528412Y-106041557D01*
X116717816Y-105945051D01*
X116804138Y-105882335D01*
X116889786Y-105820109D01*
X116889788Y-105820106D01*
X116889792Y-105820104D01*
X117040104Y-105669792D01*
X117040106Y-105669788D01*
X117040109Y-105669786D01*
X117125890Y-105551717D01*
X117165051Y-105497816D01*
X117169793Y-105488508D01*
X117217763Y-105437711D01*
X117285583Y-105420911D01*
X117351719Y-105443445D01*
X117390763Y-105488500D01*
X117395373Y-105497547D01*
X117434728Y-105551716D01*
X118067037Y-104919408D01*
X118084075Y-104982993D01*
X118149901Y-105097007D01*
X118242993Y-105190099D01*
X118357007Y-105255925D01*
X118420590Y-105272962D01*
X117788282Y-105905269D01*
X117788282Y-105905270D01*
X117842449Y-105944624D01*
X118031782Y-106041095D01*
X118233870Y-106106757D01*
X118443754Y-106140000D01*
X118656246Y-106140000D01*
X118866127Y-106106757D01*
X118866130Y-106106757D01*
X119068217Y-106041095D01*
X119257554Y-105944622D01*
X119311716Y-105905270D01*
X119311717Y-105905270D01*
X118679408Y-105272962D01*
X118742993Y-105255925D01*
X118857007Y-105190099D01*
X118950099Y-105097007D01*
X119015925Y-104982993D01*
X119032962Y-104919409D01*
X119665270Y-105551717D01*
X119665270Y-105551716D01*
X119704622Y-105497555D01*
X119709232Y-105488507D01*
X119757205Y-105437709D01*
X119825025Y-105420912D01*
X119891161Y-105443447D01*
X119930204Y-105488504D01*
X119934949Y-105497817D01*
X120059890Y-105669786D01*
X120210213Y-105820109D01*
X120382179Y-105945048D01*
X120382181Y-105945049D01*
X120382184Y-105945051D01*
X120571588Y-106041557D01*
X120773757Y-106107246D01*
X120983713Y-106140500D01*
X120983714Y-106140500D01*
X121196286Y-106140500D01*
X121196287Y-106140500D01*
X121406243Y-106107246D01*
X121608412Y-106041557D01*
X121797816Y-105945051D01*
X121884138Y-105882335D01*
X121969786Y-105820109D01*
X121969788Y-105820106D01*
X121969792Y-105820104D01*
X122120104Y-105669792D01*
X122120106Y-105669788D01*
X122120109Y-105669786D01*
X122245048Y-105497820D01*
X122245047Y-105497820D01*
X122245051Y-105497816D01*
X122249514Y-105489054D01*
X122297488Y-105438259D01*
X122365308Y-105421463D01*
X122431444Y-105443999D01*
X122470486Y-105489056D01*
X122474951Y-105497820D01*
X122599890Y-105669786D01*
X122750213Y-105820109D01*
X122922179Y-105945048D01*
X122922181Y-105945049D01*
X122922184Y-105945051D01*
X123111588Y-106041557D01*
X123313757Y-106107246D01*
X123523713Y-106140500D01*
X123523714Y-106140500D01*
X123736286Y-106140500D01*
X123736287Y-106140500D01*
X123946243Y-106107246D01*
X124148412Y-106041557D01*
X124337816Y-105945051D01*
X124424138Y-105882335D01*
X124509786Y-105820109D01*
X124509788Y-105820106D01*
X124509792Y-105820104D01*
X124660104Y-105669792D01*
X124660106Y-105669788D01*
X124660109Y-105669786D01*
X124785048Y-105497820D01*
X124785047Y-105497820D01*
X124785051Y-105497816D01*
X124789514Y-105489054D01*
X124837488Y-105438259D01*
X124905308Y-105421463D01*
X124971444Y-105443999D01*
X125010486Y-105489056D01*
X125014951Y-105497820D01*
X125139890Y-105669786D01*
X125290213Y-105820109D01*
X125462179Y-105945048D01*
X125462181Y-105945049D01*
X125462184Y-105945051D01*
X125651588Y-106041557D01*
X125853757Y-106107246D01*
X126063713Y-106140500D01*
X126063714Y-106140500D01*
X126276286Y-106140500D01*
X126276287Y-106140500D01*
X126486243Y-106107246D01*
X126688412Y-106041557D01*
X126877816Y-105945051D01*
X126964138Y-105882335D01*
X127049786Y-105820109D01*
X127049788Y-105820106D01*
X127049792Y-105820104D01*
X127200104Y-105669792D01*
X127200106Y-105669788D01*
X127200109Y-105669786D01*
X127325048Y-105497820D01*
X127325047Y-105497820D01*
X127325051Y-105497816D01*
X127329514Y-105489054D01*
X127377488Y-105438259D01*
X127445308Y-105421463D01*
X127511444Y-105443999D01*
X127550486Y-105489056D01*
X127554951Y-105497820D01*
X127679890Y-105669786D01*
X127830213Y-105820109D01*
X128002179Y-105945048D01*
X128002181Y-105945049D01*
X128002184Y-105945051D01*
X128191588Y-106041557D01*
X128393757Y-106107246D01*
X128603713Y-106140500D01*
X128603714Y-106140500D01*
X128816286Y-106140500D01*
X128816287Y-106140500D01*
X129026243Y-106107246D01*
X129228412Y-106041557D01*
X129417816Y-105945051D01*
X129504138Y-105882335D01*
X129589786Y-105820109D01*
X129589788Y-105820106D01*
X129589792Y-105820104D01*
X129740104Y-105669792D01*
X129740106Y-105669788D01*
X129740109Y-105669786D01*
X129865048Y-105497820D01*
X129865047Y-105497820D01*
X129865051Y-105497816D01*
X129869514Y-105489054D01*
X129917488Y-105438259D01*
X129985308Y-105421463D01*
X130051444Y-105443999D01*
X130090486Y-105489056D01*
X130094951Y-105497820D01*
X130219890Y-105669786D01*
X130370213Y-105820109D01*
X130542179Y-105945048D01*
X130542181Y-105945049D01*
X130542184Y-105945051D01*
X130731588Y-106041557D01*
X130933757Y-106107246D01*
X131143713Y-106140500D01*
X131143714Y-106140500D01*
X131356286Y-106140500D01*
X131356287Y-106140500D01*
X131566243Y-106107246D01*
X131768412Y-106041557D01*
X131957816Y-105945051D01*
X132044138Y-105882335D01*
X132129786Y-105820109D01*
X132129788Y-105820106D01*
X132129792Y-105820104D01*
X132280104Y-105669792D01*
X132280106Y-105669788D01*
X132280109Y-105669786D01*
X132405048Y-105497820D01*
X132405047Y-105497820D01*
X132405051Y-105497816D01*
X132409514Y-105489054D01*
X132457488Y-105438259D01*
X132525308Y-105421463D01*
X132591444Y-105443999D01*
X132630486Y-105489056D01*
X132634951Y-105497820D01*
X132759890Y-105669786D01*
X132910213Y-105820109D01*
X133082179Y-105945048D01*
X133082181Y-105945049D01*
X133082184Y-105945051D01*
X133271588Y-106041557D01*
X133473757Y-106107246D01*
X133683713Y-106140500D01*
X133683714Y-106140500D01*
X133896286Y-106140500D01*
X133896287Y-106140500D01*
X134106243Y-106107246D01*
X134308412Y-106041557D01*
X134497816Y-105945051D01*
X134584138Y-105882335D01*
X134669786Y-105820109D01*
X134669788Y-105820106D01*
X134669792Y-105820104D01*
X134820104Y-105669792D01*
X134820106Y-105669788D01*
X134820109Y-105669786D01*
X134945048Y-105497820D01*
X134945047Y-105497820D01*
X134945051Y-105497816D01*
X134949514Y-105489054D01*
X134997488Y-105438259D01*
X135065308Y-105421463D01*
X135131444Y-105443999D01*
X135170486Y-105489056D01*
X135174951Y-105497820D01*
X135299890Y-105669786D01*
X135450213Y-105820109D01*
X135622179Y-105945048D01*
X135622181Y-105945049D01*
X135622184Y-105945051D01*
X135811588Y-106041557D01*
X136013757Y-106107246D01*
X136223713Y-106140500D01*
X136223714Y-106140500D01*
X136436286Y-106140500D01*
X136436287Y-106140500D01*
X136646243Y-106107246D01*
X136848412Y-106041557D01*
X137037816Y-105945051D01*
X137124138Y-105882335D01*
X137209786Y-105820109D01*
X137209788Y-105820106D01*
X137209792Y-105820104D01*
X137360104Y-105669792D01*
X137360106Y-105669788D01*
X137360109Y-105669786D01*
X137445890Y-105551717D01*
X137485051Y-105497816D01*
X137489793Y-105488508D01*
X137537763Y-105437711D01*
X137605583Y-105420911D01*
X137671719Y-105443445D01*
X137710763Y-105488500D01*
X137715373Y-105497547D01*
X137754728Y-105551716D01*
X138387037Y-104919408D01*
X138404075Y-104982993D01*
X138469901Y-105097007D01*
X138562993Y-105190099D01*
X138677007Y-105255925D01*
X138740590Y-105272962D01*
X138108282Y-105905269D01*
X138108282Y-105905270D01*
X138162449Y-105944624D01*
X138351782Y-106041095D01*
X138553870Y-106106757D01*
X138763754Y-106140000D01*
X138976246Y-106140000D01*
X139186127Y-106106757D01*
X139186130Y-106106757D01*
X139388217Y-106041095D01*
X139577554Y-105944622D01*
X139631716Y-105905270D01*
X139631717Y-105905270D01*
X138999408Y-105272962D01*
X139062993Y-105255925D01*
X139177007Y-105190099D01*
X139270099Y-105097007D01*
X139335925Y-104982993D01*
X139352962Y-104919408D01*
X139985270Y-105551717D01*
X139985270Y-105551716D01*
X140024622Y-105497555D01*
X140029232Y-105488507D01*
X140077205Y-105437709D01*
X140145025Y-105420912D01*
X140211161Y-105443447D01*
X140250204Y-105488504D01*
X140254949Y-105497817D01*
X140379890Y-105669786D01*
X140485769Y-105775665D01*
X140519254Y-105836988D01*
X140514270Y-105906680D01*
X140472398Y-105962613D01*
X140466979Y-105966448D01*
X140357838Y-106039373D01*
X140357834Y-106039376D01*
X140239373Y-106157837D01*
X140146295Y-106297139D01*
X140082184Y-106451917D01*
X140082182Y-106451925D01*
X140049500Y-106616228D01*
X140049500Y-106783771D01*
X140082182Y-106948074D01*
X140082184Y-106948082D01*
X140146295Y-107102860D01*
X140239373Y-107242162D01*
X140357837Y-107360626D01*
X140441052Y-107416228D01*
X140497137Y-107453703D01*
X140651918Y-107517816D01*
X140816228Y-107550499D01*
X140816232Y-107550500D01*
X140816233Y-107550500D01*
X140983768Y-107550500D01*
X140983769Y-107550499D01*
X141148082Y-107517816D01*
X141302863Y-107453703D01*
X141358948Y-107416228D01*
X150349500Y-107416228D01*
X150349500Y-107583771D01*
X150382182Y-107748074D01*
X150382184Y-107748082D01*
X150446295Y-107902859D01*
X150446302Y-107902872D01*
X150465170Y-107931111D01*
X150486047Y-107997789D01*
X150467561Y-108065168D01*
X150465170Y-108068889D01*
X150446302Y-108097127D01*
X150446295Y-108097140D01*
X150382184Y-108251917D01*
X150382182Y-108251925D01*
X150349500Y-108416228D01*
X150349500Y-108583771D01*
X150382182Y-108748074D01*
X150382184Y-108748082D01*
X150446295Y-108902860D01*
X150539373Y-109042162D01*
X150657837Y-109160626D01*
X150750494Y-109222537D01*
X150797137Y-109253703D01*
X150951918Y-109317816D01*
X151116228Y-109350499D01*
X151116232Y-109350500D01*
X151116233Y-109350500D01*
X151283768Y-109350500D01*
X151283769Y-109350499D01*
X151448082Y-109317816D01*
X151602863Y-109253703D01*
X151742162Y-109160626D01*
X151860626Y-109042162D01*
X151953703Y-108902863D01*
X152017816Y-108748082D01*
X152050500Y-108583767D01*
X152050500Y-108416233D01*
X152017816Y-108251918D01*
X151961613Y-108116233D01*
X151953704Y-108097139D01*
X151953141Y-108096297D01*
X151934828Y-108068889D01*
X151913951Y-108002214D01*
X151932435Y-107934834D01*
X151934829Y-107931109D01*
X151953703Y-107902863D01*
X152017816Y-107748082D01*
X152050500Y-107583767D01*
X152050500Y-107416233D01*
X152017816Y-107251918D01*
X151953703Y-107097137D01*
X151922537Y-107050494D01*
X151860626Y-106957837D01*
X151742162Y-106839373D01*
X151602860Y-106746295D01*
X151448082Y-106682184D01*
X151448074Y-106682182D01*
X151283771Y-106649500D01*
X151283767Y-106649500D01*
X151116233Y-106649500D01*
X151116228Y-106649500D01*
X150951925Y-106682182D01*
X150951917Y-106682184D01*
X150797139Y-106746295D01*
X150657837Y-106839373D01*
X150539373Y-106957837D01*
X150446295Y-107097139D01*
X150382184Y-107251917D01*
X150382182Y-107251925D01*
X150349500Y-107416228D01*
X141358948Y-107416228D01*
X141442162Y-107360626D01*
X141453288Y-107349500D01*
X141480329Y-107322460D01*
X141560623Y-107242165D01*
X141560626Y-107242162D01*
X141653703Y-107102863D01*
X141717816Y-106948082D01*
X141750500Y-106783767D01*
X141750500Y-106616233D01*
X141717816Y-106451918D01*
X141653703Y-106297137D01*
X141653237Y-106296440D01*
X141653105Y-106296019D01*
X141650834Y-106291770D01*
X141651639Y-106291339D01*
X141632355Y-106229766D01*
X141650835Y-106162385D01*
X141702810Y-106115691D01*
X141721689Y-106108994D01*
X141721610Y-106108751D01*
X141726240Y-106107246D01*
X141726243Y-106107246D01*
X141928412Y-106041557D01*
X142117816Y-105945051D01*
X142204138Y-105882335D01*
X142289786Y-105820109D01*
X142289788Y-105820106D01*
X142289792Y-105820104D01*
X142440104Y-105669792D01*
X142440106Y-105669788D01*
X142440109Y-105669786D01*
X142565048Y-105497820D01*
X142565047Y-105497820D01*
X142565051Y-105497816D01*
X142569514Y-105489054D01*
X142617488Y-105438259D01*
X142685308Y-105421463D01*
X142751444Y-105443999D01*
X142790486Y-105489056D01*
X142794951Y-105497820D01*
X142919890Y-105669786D01*
X143070213Y-105820109D01*
X143242179Y-105945048D01*
X143242181Y-105945049D01*
X143242184Y-105945051D01*
X143431588Y-106041557D01*
X143633757Y-106107246D01*
X143843713Y-106140500D01*
X143843714Y-106140500D01*
X144056286Y-106140500D01*
X144056287Y-106140500D01*
X144266243Y-106107246D01*
X144468412Y-106041557D01*
X144657816Y-105945051D01*
X144744138Y-105882335D01*
X144829786Y-105820109D01*
X144829788Y-105820106D01*
X144829792Y-105820104D01*
X144980104Y-105669792D01*
X144980106Y-105669788D01*
X144980109Y-105669786D01*
X145105048Y-105497820D01*
X145105047Y-105497820D01*
X145105051Y-105497816D01*
X145109514Y-105489054D01*
X145157488Y-105438259D01*
X145225308Y-105421463D01*
X145291444Y-105443999D01*
X145330486Y-105489056D01*
X145334951Y-105497820D01*
X145459890Y-105669786D01*
X145610213Y-105820109D01*
X145782179Y-105945048D01*
X145782181Y-105945049D01*
X145782184Y-105945051D01*
X145971588Y-106041557D01*
X146173757Y-106107246D01*
X146383713Y-106140500D01*
X146383714Y-106140500D01*
X146596286Y-106140500D01*
X146596287Y-106140500D01*
X146806243Y-106107246D01*
X147008412Y-106041557D01*
X147197816Y-105945051D01*
X147284138Y-105882335D01*
X147369786Y-105820109D01*
X147369788Y-105820106D01*
X147369792Y-105820104D01*
X147520104Y-105669792D01*
X147520106Y-105669788D01*
X147520109Y-105669786D01*
X147645048Y-105497820D01*
X147645047Y-105497820D01*
X147645051Y-105497816D01*
X147649514Y-105489054D01*
X147697488Y-105438259D01*
X147765308Y-105421463D01*
X147831444Y-105443999D01*
X147870486Y-105489056D01*
X147874951Y-105497820D01*
X147999890Y-105669786D01*
X148150213Y-105820109D01*
X148322179Y-105945048D01*
X148322181Y-105945049D01*
X148322184Y-105945051D01*
X148511588Y-106041557D01*
X148713757Y-106107246D01*
X148923713Y-106140500D01*
X148923714Y-106140500D01*
X149136286Y-106140500D01*
X149136287Y-106140500D01*
X149346243Y-106107246D01*
X149548412Y-106041557D01*
X149737816Y-105945051D01*
X149824138Y-105882335D01*
X149909786Y-105820109D01*
X149909788Y-105820106D01*
X149909792Y-105820104D01*
X150060104Y-105669792D01*
X150060106Y-105669788D01*
X150060109Y-105669786D01*
X150185048Y-105497820D01*
X150185047Y-105497820D01*
X150185051Y-105497816D01*
X150189514Y-105489054D01*
X150237488Y-105438259D01*
X150305308Y-105421463D01*
X150371444Y-105443999D01*
X150410486Y-105489056D01*
X150414951Y-105497820D01*
X150539890Y-105669786D01*
X150690213Y-105820109D01*
X150862179Y-105945048D01*
X150862181Y-105945049D01*
X150862184Y-105945051D01*
X151051588Y-106041557D01*
X151253757Y-106107246D01*
X151463713Y-106140500D01*
X151463714Y-106140500D01*
X151676286Y-106140500D01*
X151676287Y-106140500D01*
X151886243Y-106107246D01*
X152088412Y-106041557D01*
X152277816Y-105945051D01*
X152364138Y-105882335D01*
X152449786Y-105820109D01*
X152449788Y-105820106D01*
X152449792Y-105820104D01*
X152600104Y-105669792D01*
X152600106Y-105669788D01*
X152600109Y-105669786D01*
X152725048Y-105497820D01*
X152725047Y-105497820D01*
X152725051Y-105497816D01*
X152729514Y-105489054D01*
X152777488Y-105438259D01*
X152845308Y-105421463D01*
X152911444Y-105443999D01*
X152950486Y-105489056D01*
X152954951Y-105497820D01*
X153079890Y-105669786D01*
X153230213Y-105820109D01*
X153402179Y-105945048D01*
X153402181Y-105945049D01*
X153402184Y-105945051D01*
X153591588Y-106041557D01*
X153793757Y-106107246D01*
X154003713Y-106140500D01*
X154003714Y-106140500D01*
X154216286Y-106140500D01*
X154216287Y-106140500D01*
X154426243Y-106107246D01*
X154628412Y-106041557D01*
X154817816Y-105945051D01*
X154904138Y-105882335D01*
X154989786Y-105820109D01*
X154989788Y-105820106D01*
X154989792Y-105820104D01*
X155140104Y-105669792D01*
X155140106Y-105669788D01*
X155140109Y-105669786D01*
X155265048Y-105497820D01*
X155265047Y-105497820D01*
X155265051Y-105497816D01*
X155269514Y-105489054D01*
X155317488Y-105438259D01*
X155385308Y-105421463D01*
X155451444Y-105443999D01*
X155490486Y-105489056D01*
X155494951Y-105497820D01*
X155619890Y-105669786D01*
X155770213Y-105820109D01*
X155942179Y-105945048D01*
X155942181Y-105945049D01*
X155942184Y-105945051D01*
X156131588Y-106041557D01*
X156333757Y-106107246D01*
X156543713Y-106140500D01*
X156543714Y-106140500D01*
X156756286Y-106140500D01*
X156756287Y-106140500D01*
X156966243Y-106107246D01*
X157168412Y-106041557D01*
X157357816Y-105945051D01*
X157444138Y-105882335D01*
X157529786Y-105820109D01*
X157529788Y-105820106D01*
X157529792Y-105820104D01*
X157680104Y-105669792D01*
X157680106Y-105669788D01*
X157680109Y-105669786D01*
X157805048Y-105497820D01*
X157805047Y-105497820D01*
X157805051Y-105497816D01*
X157901557Y-105308412D01*
X157967246Y-105106243D01*
X158000500Y-104896287D01*
X158000500Y-104683713D01*
X157967246Y-104473757D01*
X157901557Y-104271588D01*
X157805051Y-104082184D01*
X157805049Y-104082181D01*
X157805048Y-104082179D01*
X157680109Y-103910213D01*
X157529786Y-103759890D01*
X157357820Y-103634951D01*
X157349600Y-103630763D01*
X157349054Y-103630485D01*
X157298259Y-103582512D01*
X157281463Y-103514692D01*
X157303999Y-103448556D01*
X157349054Y-103409515D01*
X157357816Y-103405051D01*
X157447554Y-103339853D01*
X157529786Y-103280109D01*
X157529788Y-103280106D01*
X157529792Y-103280104D01*
X157680104Y-103129792D01*
X157680106Y-103129788D01*
X157680109Y-103129786D01*
X157805048Y-102957820D01*
X157805047Y-102957820D01*
X157805051Y-102957816D01*
X157901557Y-102768412D01*
X157967246Y-102566243D01*
X158000500Y-102356287D01*
X158000500Y-102143713D01*
X157967246Y-101933757D01*
X157901557Y-101731588D01*
X157805051Y-101542184D01*
X157805049Y-101542181D01*
X157805048Y-101542179D01*
X157680109Y-101370213D01*
X157529786Y-101219890D01*
X157357820Y-101094951D01*
X157168414Y-100998444D01*
X157168413Y-100998443D01*
X157168412Y-100998443D01*
X156966243Y-100932754D01*
X156966241Y-100932753D01*
X156966240Y-100932753D01*
X156774325Y-100902357D01*
X156756287Y-100899500D01*
X156543713Y-100899500D01*
X156525675Y-100902357D01*
X156333760Y-100932753D01*
X156131585Y-100998444D01*
X155942179Y-101094951D01*
X155770213Y-101219890D01*
X155619890Y-101370213D01*
X155494949Y-101542182D01*
X155490484Y-101550946D01*
X155442509Y-101601742D01*
X155374688Y-101618536D01*
X155308553Y-101595998D01*
X155269516Y-101550946D01*
X155265050Y-101542182D01*
X155140109Y-101370213D01*
X154989786Y-101219890D01*
X154817820Y-101094951D01*
X154628414Y-100998444D01*
X154628413Y-100998443D01*
X154628412Y-100998443D01*
X154426243Y-100932754D01*
X154426241Y-100932753D01*
X154426240Y-100932753D01*
X154234325Y-100902357D01*
X154216287Y-100899500D01*
X154003713Y-100899500D01*
X153985675Y-100902357D01*
X153793760Y-100932753D01*
X153591585Y-100998444D01*
X153402179Y-101094951D01*
X153230213Y-101219890D01*
X153079890Y-101370213D01*
X152954949Y-101542182D01*
X152950484Y-101550946D01*
X152902509Y-101601742D01*
X152834688Y-101618536D01*
X152768553Y-101595998D01*
X152729516Y-101550946D01*
X152725050Y-101542182D01*
X152600109Y-101370213D01*
X152449786Y-101219890D01*
X152277820Y-101094951D01*
X152088414Y-100998444D01*
X152088413Y-100998443D01*
X152088412Y-100998443D01*
X151886243Y-100932754D01*
X151886241Y-100932753D01*
X151886240Y-100932753D01*
X151694325Y-100902357D01*
X151676287Y-100899500D01*
X151463713Y-100899500D01*
X151445675Y-100902357D01*
X151253760Y-100932753D01*
X151051585Y-100998444D01*
X150862179Y-101094951D01*
X150690213Y-101219890D01*
X150539890Y-101370213D01*
X150414949Y-101542182D01*
X150410202Y-101551499D01*
X150362227Y-101602293D01*
X150294405Y-101619087D01*
X150228271Y-101596548D01*
X150189234Y-101551495D01*
X150184626Y-101542452D01*
X150145270Y-101488282D01*
X150145269Y-101488282D01*
X149512962Y-102120590D01*
X149495925Y-102057007D01*
X149430099Y-101942993D01*
X149337007Y-101849901D01*
X149222993Y-101784075D01*
X149159409Y-101767037D01*
X149791716Y-101134728D01*
X149737550Y-101095375D01*
X149548217Y-100998904D01*
X149346129Y-100933242D01*
X149136246Y-100900000D01*
X148923754Y-100900000D01*
X148713872Y-100933242D01*
X148713869Y-100933242D01*
X148511782Y-100998904D01*
X148322439Y-101095380D01*
X148268282Y-101134727D01*
X148268282Y-101134728D01*
X148900591Y-101767037D01*
X148837007Y-101784075D01*
X148722993Y-101849901D01*
X148629901Y-101942993D01*
X148564075Y-102057007D01*
X148547037Y-102120591D01*
X147914728Y-101488282D01*
X147914727Y-101488282D01*
X147875380Y-101542440D01*
X147875376Y-101542446D01*
X147870760Y-101551505D01*
X147822781Y-101602297D01*
X147754959Y-101619087D01*
X147688826Y-101596543D01*
X147649794Y-101551493D01*
X147645051Y-101542184D01*
X147645049Y-101542181D01*
X147645048Y-101542179D01*
X147520109Y-101370213D01*
X147369786Y-101219890D01*
X147197820Y-101094951D01*
X147008414Y-100998444D01*
X147008413Y-100998443D01*
X147008412Y-100998443D01*
X146806243Y-100932754D01*
X146806241Y-100932753D01*
X146806240Y-100932753D01*
X146614325Y-100902357D01*
X146596287Y-100899500D01*
X146383713Y-100899500D01*
X146365675Y-100902357D01*
X146173760Y-100932753D01*
X145971585Y-100998444D01*
X145782179Y-101094951D01*
X145610213Y-101219890D01*
X145459890Y-101370213D01*
X145334949Y-101542182D01*
X145330202Y-101551499D01*
X145282227Y-101602293D01*
X145214405Y-101619087D01*
X145148271Y-101596548D01*
X145109234Y-101551495D01*
X145104626Y-101542452D01*
X145065270Y-101488282D01*
X145065269Y-101488282D01*
X144432962Y-102120590D01*
X144415925Y-102057007D01*
X144350099Y-101942993D01*
X144257007Y-101849901D01*
X144142993Y-101784075D01*
X144079409Y-101767037D01*
X144711716Y-101134728D01*
X144657550Y-101095375D01*
X144468217Y-100998904D01*
X144266129Y-100933242D01*
X144056246Y-100900000D01*
X143843754Y-100900000D01*
X143633872Y-100933242D01*
X143633869Y-100933242D01*
X143431782Y-100998904D01*
X143242439Y-101095380D01*
X143188282Y-101134727D01*
X143188282Y-101134728D01*
X143820591Y-101767037D01*
X143757007Y-101784075D01*
X143642993Y-101849901D01*
X143549901Y-101942993D01*
X143484075Y-102057007D01*
X143467037Y-102120591D01*
X142834728Y-101488282D01*
X142834727Y-101488282D01*
X142795380Y-101542440D01*
X142795376Y-101542446D01*
X142790760Y-101551505D01*
X142742781Y-101602297D01*
X142674959Y-101619087D01*
X142608826Y-101596543D01*
X142569794Y-101551493D01*
X142565051Y-101542184D01*
X142565049Y-101542181D01*
X142565048Y-101542179D01*
X142440109Y-101370213D01*
X142289786Y-101219890D01*
X142117820Y-101094951D01*
X141928414Y-100998444D01*
X141928413Y-100998443D01*
X141928412Y-100998443D01*
X141726243Y-100932754D01*
X141726241Y-100932753D01*
X141726240Y-100932753D01*
X141534325Y-100902357D01*
X141516287Y-100899500D01*
X141303713Y-100899500D01*
X141285675Y-100902357D01*
X141093760Y-100932753D01*
X140891585Y-100998444D01*
X140702179Y-101094951D01*
X140530213Y-101219890D01*
X140379890Y-101370213D01*
X140254949Y-101542182D01*
X140250484Y-101550946D01*
X140202509Y-101601742D01*
X140134688Y-101618536D01*
X140068553Y-101595998D01*
X140029516Y-101550946D01*
X140025050Y-101542182D01*
X139900109Y-101370213D01*
X139749786Y-101219890D01*
X139577820Y-101094951D01*
X139388414Y-100998444D01*
X139388413Y-100998443D01*
X139388412Y-100998443D01*
X139186243Y-100932754D01*
X139186241Y-100932753D01*
X139186240Y-100932753D01*
X138994325Y-100902357D01*
X138976287Y-100899500D01*
X138763713Y-100899500D01*
X138745675Y-100902357D01*
X138553760Y-100932753D01*
X138351585Y-100998444D01*
X138162179Y-101094951D01*
X137990213Y-101219890D01*
X137839890Y-101370213D01*
X137714949Y-101542182D01*
X137710484Y-101550946D01*
X137662509Y-101601742D01*
X137594688Y-101618536D01*
X137528553Y-101595998D01*
X137489516Y-101550946D01*
X137485050Y-101542182D01*
X137360109Y-101370213D01*
X137209786Y-101219890D01*
X137037820Y-101094951D01*
X136848414Y-100998444D01*
X136848413Y-100998443D01*
X136848412Y-100998443D01*
X136646243Y-100932754D01*
X136646241Y-100932753D01*
X136646240Y-100932753D01*
X136454325Y-100902357D01*
X136436287Y-100899500D01*
X136223713Y-100899500D01*
X136205675Y-100902357D01*
X136013760Y-100932753D01*
X135811585Y-100998444D01*
X135622179Y-101094951D01*
X135450213Y-101219890D01*
X135299890Y-101370213D01*
X135174949Y-101542182D01*
X135170484Y-101550946D01*
X135122509Y-101601742D01*
X135054688Y-101618536D01*
X134988553Y-101595998D01*
X134949516Y-101550946D01*
X134945050Y-101542182D01*
X134820109Y-101370213D01*
X134669786Y-101219890D01*
X134497820Y-101094951D01*
X134308414Y-100998444D01*
X134308413Y-100998443D01*
X134308412Y-100998443D01*
X134106243Y-100932754D01*
X134106241Y-100932753D01*
X134106240Y-100932753D01*
X133914325Y-100902357D01*
X133896287Y-100899500D01*
X133683713Y-100899500D01*
X133665675Y-100902357D01*
X133473760Y-100932753D01*
X133271585Y-100998444D01*
X133082179Y-101094951D01*
X132910213Y-101219890D01*
X132759890Y-101370213D01*
X132634949Y-101542182D01*
X132630202Y-101551499D01*
X132582227Y-101602293D01*
X132514405Y-101619087D01*
X132448271Y-101596548D01*
X132409234Y-101551495D01*
X132404626Y-101542452D01*
X132365270Y-101488282D01*
X132365269Y-101488282D01*
X131732962Y-102120590D01*
X131715925Y-102057007D01*
X131650099Y-101942993D01*
X131557007Y-101849901D01*
X131442993Y-101784075D01*
X131379409Y-101767037D01*
X132011716Y-101134728D01*
X131957550Y-101095375D01*
X131768217Y-100998904D01*
X131566129Y-100933242D01*
X131356246Y-100900000D01*
X131143754Y-100900000D01*
X130933872Y-100933242D01*
X130933869Y-100933242D01*
X130731782Y-100998904D01*
X130542439Y-101095380D01*
X130488282Y-101134727D01*
X130488282Y-101134728D01*
X131120591Y-101767037D01*
X131057007Y-101784075D01*
X130942993Y-101849901D01*
X130849901Y-101942993D01*
X130784075Y-102057007D01*
X130767037Y-102120591D01*
X130134728Y-101488282D01*
X130134727Y-101488282D01*
X130095380Y-101542440D01*
X130095376Y-101542446D01*
X130090760Y-101551505D01*
X130042781Y-101602297D01*
X129974959Y-101619087D01*
X129908826Y-101596543D01*
X129869794Y-101551493D01*
X129865051Y-101542184D01*
X129865049Y-101542181D01*
X129865048Y-101542179D01*
X129740109Y-101370213D01*
X129589786Y-101219890D01*
X129417820Y-101094951D01*
X129228414Y-100998444D01*
X129228413Y-100998443D01*
X129228412Y-100998443D01*
X129026243Y-100932754D01*
X129026241Y-100932753D01*
X129026240Y-100932753D01*
X128834325Y-100902357D01*
X128816287Y-100899500D01*
X128603713Y-100899500D01*
X128585675Y-100902357D01*
X128393760Y-100932753D01*
X128191585Y-100998444D01*
X128002179Y-101094951D01*
X127830213Y-101219890D01*
X127679890Y-101370213D01*
X127554949Y-101542182D01*
X127550484Y-101550946D01*
X127502509Y-101601742D01*
X127434688Y-101618536D01*
X127368553Y-101595998D01*
X127329516Y-101550946D01*
X127325050Y-101542182D01*
X127200109Y-101370213D01*
X127049786Y-101219890D01*
X126877820Y-101094951D01*
X126688414Y-100998444D01*
X126688413Y-100998443D01*
X126688412Y-100998443D01*
X126486243Y-100932754D01*
X126486241Y-100932753D01*
X126486240Y-100932753D01*
X126294325Y-100902357D01*
X126276287Y-100899500D01*
X126063713Y-100899500D01*
X126045675Y-100902357D01*
X125853760Y-100932753D01*
X125651585Y-100998444D01*
X125462179Y-101094951D01*
X125290213Y-101219890D01*
X125139890Y-101370213D01*
X125014949Y-101542182D01*
X125010202Y-101551499D01*
X124962227Y-101602293D01*
X124894405Y-101619087D01*
X124828271Y-101596548D01*
X124789234Y-101551495D01*
X124784626Y-101542452D01*
X124745270Y-101488282D01*
X124745269Y-101488282D01*
X124112962Y-102120590D01*
X124095925Y-102057007D01*
X124030099Y-101942993D01*
X123937007Y-101849901D01*
X123822993Y-101784075D01*
X123759409Y-101767037D01*
X124391716Y-101134728D01*
X124337550Y-101095375D01*
X124148217Y-100998904D01*
X123946129Y-100933242D01*
X123736246Y-100900000D01*
X123523754Y-100900000D01*
X123313872Y-100933242D01*
X123313869Y-100933242D01*
X123111782Y-100998904D01*
X122922439Y-101095380D01*
X122868282Y-101134727D01*
X122868282Y-101134728D01*
X123500591Y-101767037D01*
X123437007Y-101784075D01*
X123322993Y-101849901D01*
X123229901Y-101942993D01*
X123164075Y-102057007D01*
X123147037Y-102120591D01*
X122514728Y-101488282D01*
X122514727Y-101488282D01*
X122475380Y-101542440D01*
X122475376Y-101542446D01*
X122470760Y-101551505D01*
X122422781Y-101602297D01*
X122354959Y-101619087D01*
X122288826Y-101596543D01*
X122249794Y-101551493D01*
X122245051Y-101542184D01*
X122245049Y-101542181D01*
X122245048Y-101542179D01*
X122120109Y-101370213D01*
X121969786Y-101219890D01*
X121797820Y-101094951D01*
X121608414Y-100998444D01*
X121608413Y-100998443D01*
X121608412Y-100998443D01*
X121406243Y-100932754D01*
X121406241Y-100932753D01*
X121406240Y-100932753D01*
X121214325Y-100902357D01*
X121196287Y-100899500D01*
X120983713Y-100899500D01*
X120965675Y-100902357D01*
X120773760Y-100932753D01*
X120571585Y-100998444D01*
X120382179Y-101094951D01*
X120210213Y-101219890D01*
X120059890Y-101370213D01*
X119934949Y-101542182D01*
X119930484Y-101550946D01*
X119882509Y-101601742D01*
X119814688Y-101618536D01*
X119748553Y-101595998D01*
X119709516Y-101550946D01*
X119705050Y-101542182D01*
X119580109Y-101370213D01*
X119429786Y-101219890D01*
X119257820Y-101094951D01*
X119068414Y-100998444D01*
X119068413Y-100998443D01*
X119068412Y-100998443D01*
X118866243Y-100932754D01*
X118866241Y-100932753D01*
X118866240Y-100932753D01*
X118674325Y-100902357D01*
X118656287Y-100899500D01*
X118443713Y-100899500D01*
X118425675Y-100902357D01*
X118233760Y-100932753D01*
X118031585Y-100998444D01*
X117842179Y-101094951D01*
X117670213Y-101219890D01*
X117519890Y-101370213D01*
X117394949Y-101542182D01*
X117390484Y-101550946D01*
X117342509Y-101601742D01*
X117274688Y-101618536D01*
X117208553Y-101595998D01*
X117169516Y-101550946D01*
X117165050Y-101542182D01*
X117040109Y-101370213D01*
X116889786Y-101219890D01*
X116717820Y-101094951D01*
X116528414Y-100998444D01*
X116528413Y-100998443D01*
X116528412Y-100998443D01*
X116326243Y-100932754D01*
X116326241Y-100932753D01*
X116326240Y-100932753D01*
X116134325Y-100902357D01*
X116116287Y-100899500D01*
X115903713Y-100899500D01*
X115885675Y-100902357D01*
X115693760Y-100932753D01*
X115491585Y-100998444D01*
X115302179Y-101094951D01*
X115130213Y-101219890D01*
X114979890Y-101370213D01*
X114854949Y-101542182D01*
X114850202Y-101551499D01*
X114802227Y-101602293D01*
X114734405Y-101619087D01*
X114668271Y-101596548D01*
X114629234Y-101551495D01*
X114624626Y-101542452D01*
X114585270Y-101488282D01*
X114585269Y-101488282D01*
X113952962Y-102120590D01*
X113935925Y-102057007D01*
X113870099Y-101942993D01*
X113777007Y-101849901D01*
X113662993Y-101784075D01*
X113599409Y-101767037D01*
X114231716Y-101134728D01*
X114177550Y-101095375D01*
X113988217Y-100998904D01*
X113786129Y-100933242D01*
X113576246Y-100900000D01*
X113363754Y-100900000D01*
X113153872Y-100933242D01*
X113153869Y-100933242D01*
X112951782Y-100998904D01*
X112762439Y-101095380D01*
X112708282Y-101134727D01*
X112708282Y-101134728D01*
X113340591Y-101767037D01*
X113277007Y-101784075D01*
X113162993Y-101849901D01*
X113069901Y-101942993D01*
X113004075Y-102057007D01*
X112987037Y-102120591D01*
X112354728Y-101488282D01*
X112354727Y-101488282D01*
X112315380Y-101542440D01*
X112315376Y-101542446D01*
X112310760Y-101551505D01*
X112262781Y-101602297D01*
X112194959Y-101619087D01*
X112128826Y-101596543D01*
X112089794Y-101551493D01*
X112085051Y-101542184D01*
X112085049Y-101542181D01*
X112085048Y-101542179D01*
X111960109Y-101370213D01*
X111809786Y-101219890D01*
X111637820Y-101094951D01*
X111448414Y-100998444D01*
X111448413Y-100998443D01*
X111448412Y-100998443D01*
X111246243Y-100932754D01*
X111246241Y-100932753D01*
X111246240Y-100932753D01*
X111054325Y-100902357D01*
X111036287Y-100899500D01*
X110823713Y-100899500D01*
X110805675Y-100902357D01*
X110613760Y-100932753D01*
X110411585Y-100998444D01*
X110222179Y-101094951D01*
X110050213Y-101219890D01*
X109899890Y-101370213D01*
X109774949Y-101542182D01*
X109770484Y-101550946D01*
X109722509Y-101601742D01*
X109654688Y-101618536D01*
X109588553Y-101595998D01*
X109549516Y-101550946D01*
X109545050Y-101542182D01*
X109420109Y-101370213D01*
X109269786Y-101219890D01*
X109097820Y-101094951D01*
X108908414Y-100998444D01*
X108908413Y-100998443D01*
X108908412Y-100998443D01*
X108706243Y-100932754D01*
X108706241Y-100932753D01*
X108706240Y-100932753D01*
X108514325Y-100902357D01*
X108496287Y-100899500D01*
X108283713Y-100899500D01*
X108265675Y-100902357D01*
X108073760Y-100932753D01*
X107871585Y-100998444D01*
X107682179Y-101094951D01*
X107510213Y-101219890D01*
X107359890Y-101370213D01*
X107234951Y-101542179D01*
X107138444Y-101731585D01*
X107072753Y-101933760D01*
X107071291Y-101942993D01*
X107039500Y-102143713D01*
X100829258Y-102143713D01*
X100899415Y-102006023D01*
X100905891Y-101994808D01*
X101069819Y-101742380D01*
X101077434Y-101731899D01*
X101266858Y-101497979D01*
X101275525Y-101488354D01*
X101488354Y-101275525D01*
X101497979Y-101266858D01*
X101731899Y-101077434D01*
X101742380Y-101069819D01*
X101994808Y-100905891D01*
X102006023Y-100899415D01*
X102274215Y-100762763D01*
X102286054Y-100757493D01*
X102567040Y-100649633D01*
X102579368Y-100645627D01*
X102870107Y-100567723D01*
X102882786Y-100565029D01*
X103180046Y-100517949D01*
X103192951Y-100516592D01*
X103496756Y-100500669D01*
X103503246Y-100500500D01*
X103565892Y-100500500D01*
X161434108Y-100500500D01*
X161496754Y-100500500D01*
X161503244Y-100500670D01*
G37*
%TD.AperFunction*%
%TA.AperFunction,Conductor*%
G36*
X137570000Y-127315000D02*
G01*
X138232828Y-127315000D01*
X138232844Y-127314999D01*
X138292372Y-127308598D01*
X138292379Y-127308596D01*
X138427086Y-127258354D01*
X138427093Y-127258350D01*
X138542187Y-127172190D01*
X138542190Y-127172187D01*
X138628350Y-127057093D01*
X138628355Y-127057084D01*
X138671659Y-126940979D01*
X138713529Y-126885045D01*
X138778994Y-126860627D01*
X138847267Y-126875478D01*
X138875522Y-126896630D01*
X138970437Y-126991545D01*
X139144322Y-127117880D01*
X139167917Y-127129902D01*
X139335829Y-127215458D01*
X139335832Y-127215459D01*
X139461363Y-127256246D01*
X139540245Y-127281876D01*
X139752533Y-127315500D01*
X139752534Y-127315500D01*
X139967466Y-127315500D01*
X139967467Y-127315500D01*
X140179755Y-127281876D01*
X140179758Y-127281875D01*
X140179759Y-127281875D01*
X140384167Y-127215459D01*
X140384170Y-127215458D01*
X140398558Y-127208127D01*
X140575678Y-127117880D01*
X140749563Y-126991545D01*
X140901545Y-126839563D01*
X141027880Y-126665678D01*
X141027879Y-126665678D01*
X141029682Y-126663198D01*
X141085012Y-126620532D01*
X141154625Y-126614553D01*
X141216420Y-126647159D01*
X141230318Y-126663198D01*
X141232120Y-126665678D01*
X141358455Y-126839563D01*
X141510437Y-126991545D01*
X141684322Y-127117880D01*
X141707917Y-127129902D01*
X141875829Y-127215458D01*
X141875832Y-127215459D01*
X142001363Y-127256246D01*
X142080245Y-127281876D01*
X142292533Y-127315500D01*
X142292534Y-127315500D01*
X142507466Y-127315500D01*
X142507467Y-127315500D01*
X142719755Y-127281876D01*
X142719758Y-127281875D01*
X142719759Y-127281875D01*
X142924167Y-127215459D01*
X142924170Y-127215458D01*
X142938558Y-127208127D01*
X143115678Y-127117880D01*
X143289563Y-126991545D01*
X143441545Y-126839563D01*
X143567880Y-126665678D01*
X143567879Y-126665678D01*
X143569682Y-126663198D01*
X143625012Y-126620532D01*
X143694625Y-126614553D01*
X143756420Y-126647159D01*
X143770318Y-126663198D01*
X143772120Y-126665678D01*
X143898455Y-126839563D01*
X144050437Y-126991545D01*
X144053405Y-126993701D01*
X144096072Y-127049030D01*
X144102052Y-127118644D01*
X144069446Y-127180439D01*
X144027974Y-127208581D01*
X143991876Y-127223533D01*
X143991866Y-127223538D01*
X143885331Y-127294723D01*
X143885327Y-127294726D01*
X143360708Y-127819345D01*
X143299385Y-127852830D01*
X143297219Y-127853281D01*
X143151923Y-127882182D01*
X143151917Y-127882184D01*
X142997139Y-127946295D01*
X142857837Y-128039373D01*
X142739373Y-128157837D01*
X142646295Y-128297139D01*
X142582184Y-128451917D01*
X142582182Y-128451925D01*
X142549500Y-128616228D01*
X142549500Y-128783771D01*
X142582182Y-128948074D01*
X142582184Y-128948082D01*
X142646295Y-129102860D01*
X142739373Y-129242162D01*
X142785030Y-129287819D01*
X142818515Y-129349142D01*
X142813531Y-129418834D01*
X142771659Y-129474767D01*
X142706195Y-129499184D01*
X142697349Y-129499500D01*
X139202651Y-129499500D01*
X139135612Y-129479815D01*
X139089857Y-129427011D01*
X139079913Y-129357853D01*
X139108938Y-129294297D01*
X139114970Y-129287819D01*
X139160623Y-129242165D01*
X139160626Y-129242162D01*
X139171758Y-129225502D01*
X139253703Y-129102863D01*
X139317816Y-128948082D01*
X139350500Y-128783767D01*
X139350500Y-128616233D01*
X139317816Y-128451918D01*
X139253703Y-128297137D01*
X139198602Y-128214673D01*
X139160626Y-128157837D01*
X139042162Y-128039373D01*
X138902860Y-127946295D01*
X138748082Y-127882184D01*
X138748074Y-127882182D01*
X138583771Y-127849500D01*
X138583767Y-127849500D01*
X138416233Y-127849500D01*
X138416228Y-127849500D01*
X138251925Y-127882182D01*
X138251917Y-127882184D01*
X138097139Y-127946295D01*
X137957837Y-128039373D01*
X137839373Y-128157837D01*
X137746295Y-128297139D01*
X137682184Y-128451917D01*
X137682182Y-128451925D01*
X137649500Y-128616228D01*
X137649500Y-128783771D01*
X137682182Y-128948074D01*
X137682184Y-128948082D01*
X137746295Y-129102860D01*
X137839373Y-129242162D01*
X137885030Y-129287819D01*
X137918515Y-129349142D01*
X137913531Y-129418834D01*
X137871659Y-129474767D01*
X137806195Y-129499184D01*
X137797349Y-129499500D01*
X134202651Y-129499500D01*
X134135612Y-129479815D01*
X134089857Y-129427011D01*
X134079913Y-129357853D01*
X134108938Y-129294297D01*
X134114970Y-129287819D01*
X134160623Y-129242165D01*
X134160626Y-129242162D01*
X134171758Y-129225502D01*
X134253703Y-129102863D01*
X134317816Y-128948082D01*
X134350500Y-128783767D01*
X134350500Y-128773500D01*
X134370185Y-128706461D01*
X134422989Y-128660706D01*
X134474500Y-128649500D01*
X134665071Y-128649500D01*
X134749615Y-128632682D01*
X134790744Y-128624501D01*
X134909127Y-128575465D01*
X134968294Y-128535931D01*
X135006294Y-128510540D01*
X135015665Y-128504280D01*
X135015665Y-128504279D01*
X135015669Y-128504277D01*
X136192021Y-127327925D01*
X136253342Y-127294442D01*
X136323034Y-127299426D01*
X136323035Y-127299427D01*
X136347621Y-127308597D01*
X136407155Y-127314999D01*
X136407172Y-127315000D01*
X137070000Y-127315000D01*
X137070000Y-126244560D01*
X137123147Y-126275245D01*
X137252857Y-126310000D01*
X137387143Y-126310000D01*
X137516853Y-126275245D01*
X137570000Y-126244560D01*
X137570000Y-127315000D01*
G37*
%TD.AperFunction*%
%TA.AperFunction,Conductor*%
G36*
X126430000Y-127315000D02*
G01*
X126465692Y-127315000D01*
X126532731Y-127334685D01*
X126578486Y-127387489D01*
X126588430Y-127456647D01*
X126559405Y-127520203D01*
X126553373Y-127526681D01*
X126066873Y-128013181D01*
X126005550Y-128046666D01*
X125979192Y-128049500D01*
X124469808Y-128049500D01*
X124402769Y-128029815D01*
X124357014Y-127977011D01*
X124347070Y-127907853D01*
X124376095Y-127844297D01*
X124382127Y-127837819D01*
X124905272Y-127314673D01*
X124905271Y-127314673D01*
X124905276Y-127314669D01*
X124914656Y-127300629D01*
X124968267Y-127255825D01*
X125037592Y-127247116D01*
X125064230Y-127256246D01*
X125064601Y-127255254D01*
X125207620Y-127308596D01*
X125207627Y-127308598D01*
X125267155Y-127314999D01*
X125267172Y-127315000D01*
X125930000Y-127315000D01*
X125930000Y-126244560D01*
X125983147Y-126275245D01*
X126112857Y-126310000D01*
X126247143Y-126310000D01*
X126376853Y-126275245D01*
X126430000Y-126244560D01*
X126430000Y-127315000D01*
G37*
%TD.AperFunction*%
%TA.AperFunction,Conductor*%
G36*
X152810908Y-122953363D02*
G01*
X152820992Y-122952097D01*
X152843866Y-122963040D01*
X152868196Y-122970185D01*
X152874850Y-122977865D01*
X152884020Y-122982252D01*
X152897347Y-123003828D01*
X152913951Y-123022989D01*
X152915397Y-123033047D01*
X152920739Y-123041695D01*
X152920286Y-123067047D01*
X152923895Y-123092147D01*
X152919639Y-123103253D01*
X152919491Y-123111553D01*
X152904259Y-123143391D01*
X152827064Y-123258919D01*
X152827059Y-123258928D01*
X152766416Y-123405335D01*
X152766414Y-123405343D01*
X152735500Y-123560759D01*
X152735500Y-123719240D01*
X152766414Y-123874656D01*
X152766416Y-123874664D01*
X152827059Y-124021071D01*
X152827064Y-124021080D01*
X152915103Y-124152838D01*
X152915106Y-124152842D01*
X152981913Y-124219649D01*
X153015398Y-124280972D01*
X153010414Y-124350664D01*
X152968542Y-124406597D01*
X152950527Y-124417815D01*
X152824321Y-124482120D01*
X152748607Y-124537130D01*
X152650437Y-124608455D01*
X152650435Y-124608457D01*
X152650434Y-124608457D01*
X152498457Y-124760434D01*
X152498457Y-124760435D01*
X152498455Y-124760437D01*
X152464816Y-124806737D01*
X152370318Y-124936802D01*
X152314988Y-124979467D01*
X152245374Y-124985446D01*
X152183579Y-124952840D01*
X152169682Y-124936802D01*
X152156836Y-124919121D01*
X152041545Y-124760437D01*
X151889563Y-124608455D01*
X151715678Y-124482120D01*
X151705302Y-124476833D01*
X151524170Y-124384541D01*
X151524167Y-124384540D01*
X151319757Y-124318124D01*
X151155747Y-124292147D01*
X151107467Y-124284500D01*
X150892533Y-124284500D01*
X150844253Y-124292147D01*
X150680243Y-124318124D01*
X150680240Y-124318124D01*
X150475832Y-124384540D01*
X150475829Y-124384541D01*
X150284321Y-124482120D01*
X150110438Y-124608454D01*
X150015522Y-124703370D01*
X149954198Y-124736854D01*
X149884507Y-124731870D01*
X149828574Y-124689998D01*
X149811659Y-124659021D01*
X149768354Y-124542913D01*
X149768350Y-124542906D01*
X149682190Y-124427812D01*
X149682187Y-124427809D01*
X149567093Y-124341649D01*
X149567086Y-124341645D01*
X149432379Y-124291403D01*
X149432372Y-124291401D01*
X149372844Y-124285000D01*
X148710000Y-124285000D01*
X148710000Y-125355439D01*
X148656853Y-125324755D01*
X148527143Y-125290000D01*
X148392857Y-125290000D01*
X148263147Y-125324755D01*
X148210000Y-125355439D01*
X148210000Y-124285000D01*
X147547155Y-124285000D01*
X147487627Y-124291401D01*
X147487620Y-124291403D01*
X147352913Y-124341645D01*
X147352906Y-124341649D01*
X147237812Y-124427809D01*
X147237809Y-124427812D01*
X147151649Y-124542906D01*
X147151645Y-124542913D01*
X147101403Y-124677620D01*
X147101401Y-124677627D01*
X147095000Y-124737155D01*
X147095000Y-125550000D01*
X148015440Y-125550000D01*
X147984755Y-125603147D01*
X147950000Y-125732857D01*
X147950000Y-125867143D01*
X147984755Y-125996853D01*
X148015440Y-126050000D01*
X147095000Y-126050000D01*
X147095000Y-126862844D01*
X147101401Y-126922372D01*
X147101403Y-126922382D01*
X147123702Y-126982168D01*
X147128686Y-127051859D01*
X147095200Y-127113182D01*
X147033877Y-127146666D01*
X147007520Y-127149500D01*
X145970970Y-127149500D01*
X145903931Y-127129815D01*
X145858176Y-127077011D01*
X145848232Y-127007853D01*
X145877257Y-126944297D01*
X145883289Y-126937819D01*
X145924478Y-126896630D01*
X145981545Y-126839563D01*
X146107880Y-126665678D01*
X146205458Y-126474170D01*
X146271876Y-126269755D01*
X146305500Y-126057467D01*
X146305500Y-125542533D01*
X146271876Y-125330245D01*
X146271875Y-125330241D01*
X146271875Y-125330240D01*
X146205459Y-125125832D01*
X146205458Y-125125829D01*
X146130882Y-124979467D01*
X146107880Y-124934322D01*
X145981545Y-124760437D01*
X145829563Y-124608455D01*
X145655678Y-124482120D01*
X145645302Y-124476833D01*
X145464170Y-124384541D01*
X145464167Y-124384540D01*
X145259757Y-124318124D01*
X145095747Y-124292147D01*
X145047467Y-124284500D01*
X144832533Y-124284500D01*
X144784253Y-124292147D01*
X144620243Y-124318124D01*
X144620240Y-124318124D01*
X144415832Y-124384540D01*
X144415829Y-124384541D01*
X144224321Y-124482120D01*
X144148607Y-124537130D01*
X144050437Y-124608455D01*
X144050435Y-124608457D01*
X144050434Y-124608457D01*
X143898457Y-124760434D01*
X143898457Y-124760435D01*
X143898455Y-124760437D01*
X143864816Y-124806737D01*
X143770318Y-124936802D01*
X143714988Y-124979467D01*
X143645374Y-124985446D01*
X143583579Y-124952840D01*
X143569682Y-124936802D01*
X143556836Y-124919121D01*
X143441545Y-124760437D01*
X143289563Y-124608455D01*
X143115678Y-124482120D01*
X142989471Y-124417814D01*
X142938676Y-124369840D01*
X142921881Y-124302019D01*
X142944418Y-124235885D01*
X142958080Y-124219654D01*
X143024896Y-124152839D01*
X143112939Y-124021074D01*
X143173584Y-123874664D01*
X143204500Y-123719236D01*
X143204500Y-123560764D01*
X143173584Y-123405336D01*
X143112939Y-123258926D01*
X143112938Y-123258925D01*
X143112935Y-123258919D01*
X143035741Y-123143391D01*
X143014863Y-123076714D01*
X143033347Y-123009334D01*
X143085326Y-122962643D01*
X143138843Y-122950500D01*
X152801157Y-122950500D01*
X152810908Y-122953363D01*
G37*
%TD.AperFunction*%
%TA.AperFunction,Conductor*%
G36*
X141728196Y-122970185D02*
G01*
X141773951Y-123022989D01*
X141783895Y-123092147D01*
X141764259Y-123143391D01*
X141687064Y-123258919D01*
X141687059Y-123258928D01*
X141626416Y-123405335D01*
X141626414Y-123405343D01*
X141595500Y-123560759D01*
X141595500Y-123719240D01*
X141626414Y-123874656D01*
X141626416Y-123874664D01*
X141687059Y-124021071D01*
X141687064Y-124021080D01*
X141775103Y-124152838D01*
X141775106Y-124152842D01*
X141841913Y-124219649D01*
X141875398Y-124280972D01*
X141870414Y-124350664D01*
X141828542Y-124406597D01*
X141810527Y-124417815D01*
X141684321Y-124482120D01*
X141608607Y-124537130D01*
X141510437Y-124608455D01*
X141510435Y-124608457D01*
X141510434Y-124608457D01*
X141358457Y-124760434D01*
X141358457Y-124760435D01*
X141358455Y-124760437D01*
X141324816Y-124806737D01*
X141230318Y-124936802D01*
X141174988Y-124979467D01*
X141105374Y-124985446D01*
X141043579Y-124952840D01*
X141029682Y-124936802D01*
X141016836Y-124919121D01*
X140901545Y-124760437D01*
X140749563Y-124608455D01*
X140575678Y-124482120D01*
X140565302Y-124476833D01*
X140384170Y-124384541D01*
X140384167Y-124384540D01*
X140179757Y-124318124D01*
X140015747Y-124292147D01*
X139967467Y-124284500D01*
X139752533Y-124284500D01*
X139704253Y-124292147D01*
X139540243Y-124318124D01*
X139540240Y-124318124D01*
X139335832Y-124384540D01*
X139335829Y-124384541D01*
X139144321Y-124482120D01*
X138970438Y-124608454D01*
X138875522Y-124703370D01*
X138814198Y-124736854D01*
X138744507Y-124731870D01*
X138688574Y-124689998D01*
X138671659Y-124659021D01*
X138628354Y-124542913D01*
X138628350Y-124542906D01*
X138542190Y-124427812D01*
X138542187Y-124427809D01*
X138427093Y-124341649D01*
X138427086Y-124341645D01*
X138292379Y-124291403D01*
X138292372Y-124291401D01*
X138232844Y-124285000D01*
X137570000Y-124285000D01*
X137570000Y-125355439D01*
X137516853Y-125324755D01*
X137387143Y-125290000D01*
X137252857Y-125290000D01*
X137123147Y-125324755D01*
X137070000Y-125355439D01*
X137070000Y-124285000D01*
X137040154Y-124255154D01*
X137006669Y-124193831D01*
X137011653Y-124124139D01*
X137040154Y-124079792D01*
X137234127Y-123885819D01*
X137295450Y-123852334D01*
X137321808Y-123849500D01*
X137919683Y-123849500D01*
X137931834Y-123850097D01*
X137935927Y-123850500D01*
X137935931Y-123850500D01*
X140064071Y-123850500D01*
X140148615Y-123833682D01*
X140189744Y-123825501D01*
X140308127Y-123776465D01*
X140308130Y-123776463D01*
X140309635Y-123775458D01*
X140359466Y-123742162D01*
X140414669Y-123705277D01*
X141133126Y-122986818D01*
X141194449Y-122953334D01*
X141220807Y-122950500D01*
X141661157Y-122950500D01*
X141728196Y-122970185D01*
G37*
%TD.AperFunction*%
%TA.AperFunction,Conductor*%
G36*
X135188711Y-123170185D02*
G01*
X135234466Y-123222989D01*
X135244410Y-123292147D01*
X135215385Y-123355703D01*
X135209353Y-123362181D01*
X134693727Y-123877805D01*
X134693724Y-123877808D01*
X134636087Y-123964070D01*
X134622535Y-123984351D01*
X134573499Y-124102735D01*
X134573497Y-124102741D01*
X134548500Y-124228408D01*
X134548500Y-124296493D01*
X134528815Y-124363532D01*
X134476011Y-124409287D01*
X134406853Y-124419231D01*
X134368207Y-124406979D01*
X134324171Y-124384542D01*
X134324167Y-124384540D01*
X134119757Y-124318124D01*
X133955747Y-124292147D01*
X133907467Y-124284500D01*
X133692533Y-124284500D01*
X133644253Y-124292147D01*
X133480243Y-124318124D01*
X133480240Y-124318124D01*
X133275832Y-124384540D01*
X133275829Y-124384541D01*
X133084321Y-124482120D01*
X133008607Y-124537130D01*
X132910437Y-124608455D01*
X132910435Y-124608457D01*
X132910434Y-124608457D01*
X132758457Y-124760434D01*
X132758457Y-124760435D01*
X132758455Y-124760437D01*
X132724816Y-124806737D01*
X132630318Y-124936802D01*
X132574988Y-124979467D01*
X132505374Y-124985446D01*
X132443579Y-124952840D01*
X132429682Y-124936802D01*
X132416836Y-124919121D01*
X132301545Y-124760437D01*
X132149563Y-124608455D01*
X131975678Y-124482120D01*
X131849471Y-124417814D01*
X131798676Y-124369840D01*
X131781881Y-124302019D01*
X131804418Y-124235885D01*
X131818080Y-124219654D01*
X131884896Y-124152839D01*
X131972939Y-124021074D01*
X132033584Y-123874664D01*
X132064500Y-123719236D01*
X132064500Y-123560764D01*
X132033584Y-123405336D01*
X132015709Y-123362181D01*
X131999046Y-123321952D01*
X131991577Y-123252483D01*
X132022853Y-123190004D01*
X132082942Y-123154352D01*
X132113607Y-123150500D01*
X135121672Y-123150500D01*
X135188711Y-123170185D01*
G37*
%TD.AperFunction*%
%TD*%
M02*
