M48
; DRILL file {KiCad 9.0.6} date 2026-07-04T20:59:39+0200
; FORMAT={-:-/ absolute / inch / decimal}
; #@! TF.CreationDate,2026-07-04T20:59:39+02:00
; #@! TF.GenerationSoftware,Kicad,Pcbnew,9.0.6
; #@! TF.FileFunction,Plated,1,4,PTH
FMAT,2
INCH
; #@! TA.AperFunction,Plated,PTH,ViaDrill
T1C0.0118
; #@! TA.AperFunction,Plated,PTH,ComponentDrill
T2C0.0394
; #@! TA.AperFunction,Plated,PTH,ComponentDrill
T3C0.0402
; #@! TA.AperFunction,Plated,PTH,ComponentDrill
T4C0.0984
%
G90
G05
T1
X4.1732Y-4.2598
X4.1772Y-4.1654
X4.1772Y-4.2047
X4.2047Y-4.3839
X4.2087Y-4.5
X4.2835Y-4.5748
X4.2992Y-4.5118
X4.3307Y-4.9803
X4.3307Y-5.0197
X4.3307Y-5.0591
X4.3386Y-4.5118
X4.3543Y-4.4252
X4.3701Y-4.9803
X4.3701Y-5.0197
X4.3701Y-5.0591
X4.378Y-4.5118
X4.4094Y-4.9803
X4.4094Y-5.0197
X4.4094Y-5.0591
X4.4114Y-4.4055
X4.4449Y-4.2677
X4.4488Y-4.9803
X4.4488Y-5.0197
X4.4488Y-5.0591
X4.4547Y-4.4055
X4.4961Y-4.8661
X4.5217Y-4.3917
X4.5669Y-4.8661
X4.6201Y-4.4055
X4.622Y-4.5945
X4.6555Y-5.0669
X4.6614Y-4.5984
X4.6693Y-5.0137
X4.6811Y-4.2047
X4.6929Y-4.622
X4.7205Y-4.2047
X4.748Y-4.3622
X4.7638Y-5.0137
X4.7953Y-4.8346
X4.8071Y-4.6063
X4.8346Y-4.8661
X4.8622Y-5.0669
X4.874Y-4.8583
X4.878Y-4.811
X4.8898Y-4.7033
X4.9685Y-4.5669
X4.9764Y-4.622
X5.0411Y-4.2717
X5.0492Y-5.0669
X5.0984Y-4.5906
X5.1417Y-4.5591
X5.1496Y-4.6063
X5.1732Y-4.5748
X5.1752Y-4.2854
X5.1929Y-4.2362
X5.1969Y-4.5984
X5.2205Y-4.8661
X5.2559Y-5.0669
X5.2677Y-4.2677
X5.2746Y-4.6309
X5.2913Y-4.2913
X5.3071Y-4.2205
X5.3228Y-4.6614
X5.3386Y-4.5197
X5.3543Y-4.2205
X5.3622Y-4.624
X5.4063Y-4.8787
X5.4094Y-4.1969
X5.4171Y-4.5276
X5.4528Y-5.0669
X5.4567Y-4.1969
X5.4921Y-4.5354
X5.5Y-4.4252
X5.5276Y-4.5354
X5.5472Y-4.2008
X5.5512Y-4.6299
X5.563Y-4.5354
X5.5984Y-4.2047
X5.5984Y-4.5354
X5.6063Y-4.6299
X5.6299Y-4.2205
X5.6339Y-4.5354
X5.6378Y-4.4724
X5.6457Y-5.0669
X5.6535Y-4.8858
X5.6693Y-4.4724
X5.7047Y-4.4724
X5.7047Y-4.5315
X5.7165Y-4.6457
X5.7283Y-4.1929
X5.7362Y-4.2992
X5.7362Y-4.3307
X5.7402Y-4.874
X5.7559Y-4.3701
X5.7559Y-4.7087
X5.7638Y-4.7638
X5.7776Y-4.1929
X5.7992Y-4.874
X5.8031Y-4.7244
X5.8268Y-4.1929
X5.8386Y-4.874
X5.8386Y-5.0669
X5.8504Y-4.7323
X5.8543Y-4.4094
X5.876Y-4.1929
X5.9252Y-4.1929
X5.9409Y-4.4528
X5.9528Y-4.2323
X5.9528Y-4.2717
X5.9528Y-4.6378
X6.0787Y-5.0669
X6.1299Y-4.8228
X6.1732Y-4.8504
X6.2087Y-4.4331
X6.2126Y-4.8268
X6.2597Y-4.8188
X6.3071Y-4.811
X6.3543Y-4.8346
X6.4094Y-4.8189
T2
X4.2673Y-4.0256
X4.2673Y-4.1256
X4.3504Y-4.6992
X4.3504Y-4.7992
X4.3673Y-4.0256
X4.3673Y-4.1256
X4.4673Y-4.0256
X4.4673Y-4.1256
X4.5673Y-4.0256
X4.5673Y-4.1256
X4.6673Y-4.0256
X4.6673Y-4.1256
X4.7673Y-4.0256
X4.7673Y-4.1256
X4.8673Y-4.0256
X4.8673Y-4.1256
X4.9673Y-4.0256
X4.9673Y-4.1256
X5.0673Y-4.0256
X5.0673Y-4.1256
X5.1673Y-4.0256
X5.1673Y-4.1256
X5.2673Y-4.0256
X5.2673Y-4.1256
X5.3673Y-4.0256
X5.3673Y-4.1256
X5.4673Y-4.0256
X5.4673Y-4.1256
X5.5673Y-4.0256
X5.5673Y-4.1256
X5.6673Y-4.0256
X5.6673Y-4.1256
X5.7673Y-4.0256
X5.7673Y-4.1256
X5.8673Y-4.0256
X5.8673Y-4.1256
X5.9673Y-4.0256
X5.9673Y-4.1256
X6.0673Y-4.0256
X6.0673Y-4.1256
X6.1673Y-4.0256
X6.1673Y-4.1256
T3
X4.5303Y-4.9528
X4.6303Y-4.9528
X4.7303Y-4.9528
X4.8303Y-4.9528
X4.9677Y-4.9528
X5.0677Y-4.9528
X5.1677Y-4.9528
X5.2677Y-4.9528
X5.4063Y-4.9528
X5.5063Y-4.9528
X5.6063Y-4.9528
X5.7063Y-4.9528
X5.8449Y-4.9528
X5.9449Y-4.9528
X6.0449Y-4.9528
X6.1449Y-4.9528
T4
X4.0748Y-4.0748
X4.0748Y-4.9803
X6.3583Y-4.0748
X6.3583Y-4.9803
M30
