%TF.GenerationSoftware,KiCad,Pcbnew,9.0.6*%
%TF.CreationDate,2026-07-04T20:59:39+02:00*%
%TF.ProjectId,IOT_AIR_FILTER_PROJ,494f545f-4149-4525-9f46-494c5445525f,rev?*%
%TF.SameCoordinates,Original*%
%TF.FileFunction,Soldermask,Top*%
%TF.FilePolarity,Negative*%
%FSLAX46Y46*%
G04 Gerber Fmt 4.6, Leading zero omitted, Abs format (unit mm)*
G04 Created by KiCad (PCBNEW 9.0.6) date 2026-07-04 20:59:39*
%MOMM*%
%LPD*%
G01*
G04 APERTURE LIST*
G04 Aperture macros list*
%AMRoundRect*
0 Rectangle with rounded corners*
0 $1 Rounding radius*
0 $2 $3 $4 $5 $6 $7 $8 $9 X,Y pos of 4 corners*
0 Add a 4 corners polygon primitive as box body*
4,1,4,$2,$3,$4,$5,$6,$7,$8,$9,$2,$3,0*
0 Add four circle primitives for the rounded corners*
1,1,$1+$1,$2,$3*
1,1,$1+$1,$4,$5*
1,1,$1+$1,$6,$7*
1,1,$1+$1,$8,$9*
0 Add four rect primitives between the rounded corners*
20,1,$1+$1,$2,$3,$4,$5,0*
20,1,$1+$1,$4,$5,$6,$7,0*
20,1,$1+$1,$6,$7,$8,$9,0*
20,1,$1+$1,$8,$9,$2,$3,0*%
G04 Aperture macros list end*
%ADD10RoundRect,0.150000X-0.150000X0.512500X-0.150000X-0.512500X0.150000X-0.512500X0.150000X0.512500X0*%
%ADD11RoundRect,0.250000X-0.475000X0.250000X-0.475000X-0.250000X0.475000X-0.250000X0.475000X0.250000X0*%
%ADD12C,5.000000*%
%ADD13RoundRect,0.250000X-0.450000X0.262500X-0.450000X-0.262500X0.450000X-0.262500X0.450000X0.262500X0*%
%ADD14RoundRect,0.250000X0.475000X-0.250000X0.475000X0.250000X-0.475000X0.250000X-0.475000X-0.250000X0*%
%ADD15RoundRect,0.250000X-1.075000X0.312500X-1.075000X-0.312500X1.075000X-0.312500X1.075000X0.312500X0*%
%ADD16RoundRect,0.112500X0.112500X-0.187500X0.112500X0.187500X-0.112500X0.187500X-0.112500X-0.187500X0*%
%ADD17RoundRect,0.250000X-1.500000X-0.550000X1.500000X-0.550000X1.500000X0.550000X-1.500000X0.550000X0*%
%ADD18RoundRect,0.375000X-0.625000X-0.375000X0.625000X-0.375000X0.625000X0.375000X-0.625000X0.375000X0*%
%ADD19RoundRect,0.500000X-0.500000X-1.400000X0.500000X-1.400000X0.500000X1.400000X-0.500000X1.400000X0*%
%ADD20RoundRect,0.250000X-0.250000X-0.475000X0.250000X-0.475000X0.250000X0.475000X-0.250000X0.475000X0*%
%ADD21RoundRect,0.250000X-0.450000X0.325000X-0.450000X-0.325000X0.450000X-0.325000X0.450000X0.325000X0*%
%ADD22R,1.730000X2.030000*%
%ADD23O,1.730000X2.030000*%
%ADD24RoundRect,0.150000X0.700000X-0.150000X0.700000X0.150000X-0.700000X0.150000X-0.700000X-0.150000X0*%
%ADD25RoundRect,0.250000X1.100000X-0.250000X1.100000X0.250000X-1.100000X0.250000X-1.100000X-0.250000X0*%
%ADD26RoundRect,0.250000X-0.800000X-0.650000X0.800000X-0.650000X0.800000X0.650000X-0.800000X0.650000X0*%
%ADD27RoundRect,0.250000X-0.550000X1.500000X-0.550000X-1.500000X0.550000X-1.500000X0.550000X1.500000X0*%
%ADD28R,1.700000X1.700000*%
%ADD29C,1.700000*%
G04 APERTURE END LIST*
D10*
%TO.C,U6*%
X142750000Y-119062500D03*
X141800000Y-119062500D03*
X140850000Y-119062500D03*
X140850000Y-121337500D03*
X142750000Y-121337500D03*
%TD*%
D11*
%TO.C,C7*%
X144300000Y-108625000D03*
X144300000Y-110525000D03*
%TD*%
D12*
%TO.C,H1*%
X103500000Y-103500000D03*
%TD*%
D13*
%TO.C,R4*%
X131800000Y-110487500D03*
X131800000Y-112312500D03*
%TD*%
D14*
%TO.C,C6*%
X135725000Y-110525000D03*
X135725000Y-108625000D03*
%TD*%
D12*
%TO.C,H4*%
X103500000Y-126500000D03*
%TD*%
%TO.C,H2*%
X161500000Y-103500000D03*
%TD*%
D14*
%TO.C,C11*%
X133600000Y-121150000D03*
X133600000Y-119250000D03*
%TD*%
D15*
%TO.C,R7*%
X127400000Y-118737500D03*
X127400000Y-121662500D03*
%TD*%
D16*
%TO.C,D1*%
X129300000Y-112450000D03*
X129300000Y-110350000D03*
%TD*%
D17*
%TO.C,C5*%
X112000000Y-110500000D03*
X117600000Y-110500000D03*
%TD*%
D12*
%TO.C,H3*%
X161500000Y-126500000D03*
%TD*%
D18*
%TO.C,U1*%
X102150000Y-107950000D03*
X102150000Y-110250000D03*
D19*
X108450000Y-110250000D03*
D18*
X102150000Y-112550000D03*
%TD*%
D20*
%TO.C,C13*%
X134650000Y-113600000D03*
X136550000Y-113600000D03*
%TD*%
D14*
%TO.C,C10*%
X144600000Y-121150000D03*
X144600000Y-119250000D03*
%TD*%
D15*
%TO.C,R3*%
X138400000Y-118737500D03*
X138400000Y-121662500D03*
%TD*%
D21*
%TO.C,D2*%
X148500000Y-108975000D03*
X148500000Y-111025000D03*
%TD*%
D22*
%TO.C,J6*%
X148460000Y-125800000D03*
D23*
X151000000Y-125800000D03*
X153540000Y-125800000D03*
X156080000Y-125800000D03*
%TD*%
D14*
%TO.C,C8*%
X155600000Y-121150000D03*
X155600000Y-119250000D03*
%TD*%
D22*
%TO.C,J8*%
X126180000Y-125800000D03*
D23*
X128720000Y-125800000D03*
X131260000Y-125800000D03*
X133800000Y-125800000D03*
%TD*%
D13*
%TO.C,R2*%
X126800000Y-110487500D03*
X126800000Y-112312500D03*
%TD*%
D10*
%TO.C,U7*%
X131750000Y-119062500D03*
X130800000Y-119062500D03*
X129850000Y-119062500D03*
X129850000Y-121337500D03*
X131750000Y-121337500D03*
%TD*%
D15*
%TO.C,R1*%
X149400000Y-118737500D03*
X149400000Y-121662500D03*
%TD*%
D22*
%TO.C,J9*%
X115070000Y-125800000D03*
D23*
X117610000Y-125800000D03*
X120150000Y-125800000D03*
X122690000Y-125800000D03*
%TD*%
D24*
%TO.C,J5*%
X159950000Y-116275000D03*
X159950000Y-115025000D03*
X159950000Y-113775000D03*
X159950000Y-112525000D03*
D25*
X163150000Y-118125000D03*
X163150000Y-110675000D03*
%TD*%
D14*
%TO.C,C12*%
X122600000Y-121150000D03*
X122600000Y-119250000D03*
%TD*%
D15*
%TO.C,R8*%
X116400000Y-118737500D03*
X116400000Y-121662500D03*
%TD*%
D10*
%TO.C,U8*%
X120750000Y-119062500D03*
X119800000Y-119062500D03*
X118850000Y-119062500D03*
X118850000Y-121337500D03*
X120750000Y-121337500D03*
%TD*%
%TO.C,U5*%
X153750000Y-119062500D03*
X152800000Y-119062500D03*
X151850000Y-119062500D03*
X151850000Y-121337500D03*
X153750000Y-121337500D03*
%TD*%
D22*
%TO.C,J7*%
X137320000Y-125800000D03*
D23*
X139860000Y-125800000D03*
X142400000Y-125800000D03*
X144940000Y-125800000D03*
%TD*%
D26*
%TO.C,Y1*%
X138550000Y-110675000D03*
X141450000Y-110675000D03*
X141450000Y-108475000D03*
X138550000Y-108475000D03*
%TD*%
D27*
%TO.C,C1*%
X104325000Y-116000000D03*
X104325000Y-121600000D03*
%TD*%
D28*
%TO.C,J3*%
X108390000Y-104790000D03*
D29*
X108390000Y-102250000D03*
X110930000Y-104790000D03*
X110930000Y-102250000D03*
X113470000Y-104790000D03*
X113470000Y-102250000D03*
X116010000Y-104790000D03*
X116010000Y-102250000D03*
X118550000Y-104790000D03*
X118550000Y-102250000D03*
X121090000Y-104790000D03*
X121090000Y-102250000D03*
X123630000Y-104790000D03*
X123630000Y-102250000D03*
X126170000Y-104790000D03*
X126170000Y-102250000D03*
X128710000Y-104790000D03*
X128710000Y-102250000D03*
X131250000Y-104790000D03*
X131250000Y-102250000D03*
X133790000Y-104790000D03*
X133790000Y-102250000D03*
X136330000Y-104790000D03*
X136330000Y-102250000D03*
X138870000Y-104790000D03*
X138870000Y-102250000D03*
X141410000Y-104790000D03*
X141410000Y-102250000D03*
X143950000Y-104790000D03*
X143950000Y-102250000D03*
X146490000Y-104790000D03*
X146490000Y-102250000D03*
X149030000Y-104790000D03*
X149030000Y-102250000D03*
X151570000Y-104790000D03*
X151570000Y-102250000D03*
X154110000Y-104790000D03*
X154110000Y-102250000D03*
X156650000Y-104790000D03*
X156650000Y-102250000D03*
%TD*%
D28*
%TO.C,J2*%
X110500000Y-121900000D03*
D29*
X110500000Y-119360000D03*
%TD*%
M02*
