%TF.GenerationSoftware,KiCad,Pcbnew,9.0.6*%
%TF.CreationDate,2026-04-16T22:50:19+02:00*%
%TF.ProjectId,IOT_AIR_FILTER_PROJ,494f545f-4149-4525-9f46-494c5445525f,rev?*%
%TF.SameCoordinates,Original*%
%TF.FileFunction,Legend,Top*%
%TF.FilePolarity,Positive*%
%FSLAX46Y46*%
G04 Gerber Fmt 4.6, Leading zero omitted, Abs format (unit mm)*
G04 Created by KiCad (PCBNEW 9.0.6) date 2026-04-16 22:50:19*
%MOMM*%
%LPD*%
G01*
G04 APERTURE LIST*
G04 Aperture macros list*
%AMRoundRect*
0 Rectangle with rounded corners*
0 $1 Rounding radius*
0 $2 $3 $4 $5 $6 $7 $8 $9 X,Y pos of 4 corners*
0 Add a 4 corners polygon primitive as box body*
4,1,4,$2,$3,$4,$5,$6,$7,$8,$9,$2,$3,0*
0 Add four circle primitives for the rounded corners*
1,1,$1+$1,$2,$3*
1,1,$1+$1,$4,$5*
1,1,$1+$1,$6,$7*
1,1,$1+$1,$8,$9*
0 Add four rect primitives between the rounded corners*
20,1,$1+$1,$2,$3,$4,$5,0*
20,1,$1+$1,$4,$5,$6,$7,0*
20,1,$1+$1,$6,$7,$8,$9,0*
20,1,$1+$1,$8,$9,$2,$3,0*%
G04 Aperture macros list end*
%ADD10C,0.150000*%
%ADD11C,0.120000*%
%ADD12O,2.030000X1.730000*%
%ADD13R,2.030000X1.730000*%
%ADD14C,1.100000*%
%ADD15RoundRect,0.150000X0.150000X-0.825000X0.150000X0.825000X-0.150000X0.825000X-0.150000X-0.825000X0*%
%ADD16C,6.400000*%
%ADD17RoundRect,0.250000X-0.450000X0.262500X-0.450000X-0.262500X0.450000X-0.262500X0.450000X0.262500X0*%
%ADD18R,1.700000X1.700000*%
%ADD19C,1.700000*%
%ADD20RoundRect,0.375000X-0.375000X0.625000X-0.375000X-0.625000X0.375000X-0.625000X0.375000X0.625000X0*%
%ADD21RoundRect,0.500000X-1.400000X0.500000X-1.400000X-0.500000X1.400000X-0.500000X1.400000X0.500000X0*%
%ADD22RoundRect,0.250000X0.550000X0.550000X-0.550000X0.550000X-0.550000X-0.550000X0.550000X-0.550000X0*%
%ADD23C,1.600000*%
%ADD24RoundRect,0.250000X-0.262500X-0.450000X0.262500X-0.450000X0.262500X0.450000X-0.262500X0.450000X0*%
%ADD25RoundRect,0.250000X-1.500000X-0.550000X1.500000X-0.550000X1.500000X0.550000X-1.500000X0.550000X0*%
%ADD26RoundRect,0.250000X0.250000X0.475000X-0.250000X0.475000X-0.250000X-0.475000X0.250000X-0.475000X0*%
%ADD27RoundRect,0.250000X-0.550000X1.500000X-0.550000X-1.500000X0.550000X-1.500000X0.550000X1.500000X0*%
%ADD28RoundRect,0.250000X0.450000X-0.262500X0.450000X0.262500X-0.450000X0.262500X-0.450000X-0.262500X0*%
%ADD29RoundRect,0.250000X-0.250000X-0.475000X0.250000X-0.475000X0.250000X0.475000X-0.250000X0.475000X0*%
%ADD30RoundRect,0.243750X0.243750X0.456250X-0.243750X0.456250X-0.243750X-0.456250X0.243750X-0.456250X0*%
G04 APERTURE END LIST*
D10*
G36*
X108657612Y-64999823D02*
G01*
X108686133Y-65056865D01*
X108686133Y-65277255D01*
X108687574Y-65291887D01*
X108688605Y-65294376D01*
X108688796Y-65297064D01*
X108688960Y-65297493D01*
X108474152Y-65297493D01*
X108455180Y-65259548D01*
X108455180Y-65056866D01*
X108483701Y-64999823D01*
X108540743Y-64971303D01*
X108600571Y-64971303D01*
X108657612Y-64999823D01*
G37*
G36*
X109566291Y-67461925D02*
G01*
X108194069Y-67461925D01*
X108194069Y-66705827D01*
X108305180Y-66705827D01*
X108305180Y-67277255D01*
X108306621Y-67291887D01*
X108317820Y-67318923D01*
X108338512Y-67339615D01*
X108365548Y-67350814D01*
X108394812Y-67350814D01*
X108421848Y-67339615D01*
X108442540Y-67318923D01*
X108453739Y-67291887D01*
X108455180Y-67277255D01*
X108455180Y-67066541D01*
X109380180Y-67066541D01*
X109380232Y-67066535D01*
X109380259Y-67066541D01*
X109380335Y-67066525D01*
X109394812Y-67065100D01*
X109401672Y-67062258D01*
X109408954Y-67060802D01*
X109415060Y-67056712D01*
X109421848Y-67053901D01*
X109427096Y-67048652D01*
X109433269Y-67044519D01*
X109437346Y-67038402D01*
X109442540Y-67033209D01*
X109445381Y-67026349D01*
X109449501Y-67020170D01*
X109450926Y-67012961D01*
X109453739Y-67006173D01*
X109453739Y-66998746D01*
X109455180Y-66991462D01*
X109453739Y-66984257D01*
X109453739Y-66976909D01*
X109450897Y-66970048D01*
X109449441Y-66962768D01*
X109445352Y-66956662D01*
X109442540Y-66949873D01*
X109437289Y-66944622D01*
X109433158Y-66938453D01*
X109421899Y-66929232D01*
X109421848Y-66929181D01*
X109421825Y-66929171D01*
X109421783Y-66929137D01*
X109285103Y-66838017D01*
X109203724Y-66756638D01*
X109161548Y-66672286D01*
X109153716Y-66659843D01*
X109131608Y-66640670D01*
X109103847Y-66631416D01*
X109074657Y-66633490D01*
X109048482Y-66646577D01*
X109029309Y-66668685D01*
X109020055Y-66696446D01*
X109022129Y-66725636D01*
X109027384Y-66739368D01*
X109075003Y-66834606D01*
X109078967Y-66840905D01*
X109079725Y-66842733D01*
X109081413Y-66844789D01*
X109082835Y-66847049D01*
X109084333Y-66848348D01*
X109089052Y-66854098D01*
X109151495Y-66916541D01*
X108455180Y-66916541D01*
X108455180Y-66705827D01*
X108453739Y-66691195D01*
X108442540Y-66664159D01*
X108421848Y-66643467D01*
X108394812Y-66632268D01*
X108365548Y-66632268D01*
X108338512Y-66643467D01*
X108317820Y-66664159D01*
X108306621Y-66691195D01*
X108305180Y-66705827D01*
X108194069Y-66705827D01*
X108194069Y-65834052D01*
X108306621Y-65834052D01*
X108306621Y-65863316D01*
X108317820Y-65890352D01*
X108338512Y-65911044D01*
X108365548Y-65922243D01*
X108380180Y-65923684D01*
X108920543Y-65923684D01*
X108937589Y-65940730D01*
X108971847Y-66009246D01*
X108971847Y-66116693D01*
X108943326Y-66173734D01*
X108886285Y-66202255D01*
X108380180Y-66202255D01*
X108365548Y-66203696D01*
X108338512Y-66214895D01*
X108317820Y-66235587D01*
X108306621Y-66262623D01*
X108306621Y-66291887D01*
X108317820Y-66318923D01*
X108338512Y-66339615D01*
X108365548Y-66350814D01*
X108380180Y-66352255D01*
X108903990Y-66352255D01*
X108918622Y-66350814D01*
X108921111Y-66349782D01*
X108923799Y-66349592D01*
X108937531Y-66344337D01*
X109032769Y-66296718D01*
X109035216Y-66295177D01*
X109036370Y-66294793D01*
X109037806Y-66293547D01*
X109045212Y-66288886D01*
X109051373Y-66281781D01*
X109058478Y-66275620D01*
X109063139Y-66268214D01*
X109064385Y-66266778D01*
X109064769Y-66265624D01*
X109066310Y-66263177D01*
X109113929Y-66167939D01*
X109119184Y-66154208D01*
X109119375Y-66151518D01*
X109120406Y-66149030D01*
X109121847Y-66134398D01*
X109121847Y-65991541D01*
X109120406Y-65976909D01*
X109119375Y-65974420D01*
X109119184Y-65971731D01*
X109113929Y-65958000D01*
X109089805Y-65909753D01*
X109109207Y-65890352D01*
X109120406Y-65863316D01*
X109120406Y-65834052D01*
X109109207Y-65807016D01*
X109088515Y-65786324D01*
X109061479Y-65775125D01*
X109046847Y-65773684D01*
X108380180Y-65773684D01*
X108365548Y-65775125D01*
X108338512Y-65786324D01*
X108317820Y-65807016D01*
X108306621Y-65834052D01*
X108194069Y-65834052D01*
X108194069Y-65039160D01*
X108305180Y-65039160D01*
X108305180Y-65277255D01*
X108306621Y-65291887D01*
X108307651Y-65294375D01*
X108307843Y-65297065D01*
X108313098Y-65310797D01*
X108321348Y-65327296D01*
X108317820Y-65330825D01*
X108306621Y-65357861D01*
X108306621Y-65387125D01*
X108317820Y-65414161D01*
X108338512Y-65434853D01*
X108365548Y-65446052D01*
X108380180Y-65447493D01*
X108903990Y-65447493D01*
X108918622Y-65446052D01*
X108921111Y-65445020D01*
X108923799Y-65444830D01*
X108937531Y-65439575D01*
X109032769Y-65391956D01*
X109035216Y-65390415D01*
X109036370Y-65390031D01*
X109037806Y-65388785D01*
X109045212Y-65384124D01*
X109051373Y-65377019D01*
X109058478Y-65370858D01*
X109063139Y-65363452D01*
X109064385Y-65362016D01*
X109064769Y-65360862D01*
X109066310Y-65358415D01*
X109113929Y-65263177D01*
X109119184Y-65249446D01*
X109119375Y-65246756D01*
X109120406Y-65244268D01*
X109121847Y-65229636D01*
X109121847Y-65039160D01*
X109120406Y-65024528D01*
X109119375Y-65022039D01*
X109119184Y-65019350D01*
X109113929Y-65005619D01*
X109066310Y-64910381D01*
X109058478Y-64897938D01*
X109036370Y-64878765D01*
X109008609Y-64869511D01*
X108979419Y-64871585D01*
X108953244Y-64884672D01*
X108934071Y-64906780D01*
X108924817Y-64934541D01*
X108926891Y-64963731D01*
X108932146Y-64977463D01*
X108971847Y-65056865D01*
X108971847Y-65211931D01*
X108943326Y-65268972D01*
X108886285Y-65297493D01*
X108855104Y-65297493D01*
X108836133Y-65259550D01*
X108836133Y-65039160D01*
X108834692Y-65024528D01*
X108833661Y-65022039D01*
X108833470Y-65019350D01*
X108828215Y-65005619D01*
X108780596Y-64910381D01*
X108779055Y-64907933D01*
X108778671Y-64906780D01*
X108777425Y-64905343D01*
X108772764Y-64897938D01*
X108765659Y-64891776D01*
X108759498Y-64884672D01*
X108752092Y-64880010D01*
X108750656Y-64878765D01*
X108749502Y-64878380D01*
X108747055Y-64876840D01*
X108651817Y-64829221D01*
X108638085Y-64823966D01*
X108635397Y-64823775D01*
X108632908Y-64822744D01*
X108618276Y-64821303D01*
X108523038Y-64821303D01*
X108508406Y-64822744D01*
X108505917Y-64823774D01*
X108503228Y-64823966D01*
X108489497Y-64829221D01*
X108394259Y-64876840D01*
X108391813Y-64878379D01*
X108390659Y-64878764D01*
X108389221Y-64880011D01*
X108381816Y-64884672D01*
X108375655Y-64891776D01*
X108368551Y-64897937D01*
X108363887Y-64905344D01*
X108362643Y-64906780D01*
X108362258Y-64907932D01*
X108360718Y-64910380D01*
X108313098Y-65005618D01*
X108307843Y-65019350D01*
X108307651Y-65022039D01*
X108306621Y-65024528D01*
X108305180Y-65039160D01*
X108194069Y-65039160D01*
X108194069Y-64072147D01*
X108306621Y-64072147D01*
X108306621Y-64101411D01*
X108317820Y-64128447D01*
X108338512Y-64149139D01*
X108365548Y-64160338D01*
X108380180Y-64161779D01*
X108828990Y-64161779D01*
X108828990Y-64420112D01*
X108830431Y-64434744D01*
X108841630Y-64461780D01*
X108862322Y-64482472D01*
X108889358Y-64493671D01*
X108918622Y-64493671D01*
X108945658Y-64482472D01*
X108966350Y-64461780D01*
X108977549Y-64434744D01*
X108978990Y-64420112D01*
X108978990Y-64161779D01*
X109305180Y-64161779D01*
X109305180Y-64562969D01*
X109306621Y-64577601D01*
X109317820Y-64604637D01*
X109338512Y-64625329D01*
X109365548Y-64636528D01*
X109394812Y-64636528D01*
X109421848Y-64625329D01*
X109442540Y-64604637D01*
X109453739Y-64577601D01*
X109455180Y-64562969D01*
X109455180Y-64086779D01*
X109453739Y-64072147D01*
X109442540Y-64045111D01*
X109421848Y-64024419D01*
X109394812Y-64013220D01*
X109380180Y-64011779D01*
X108380180Y-64011779D01*
X108365548Y-64013220D01*
X108338512Y-64024419D01*
X108317820Y-64045111D01*
X108306621Y-64072147D01*
X108194069Y-64072147D01*
X108194069Y-63900668D01*
X109566291Y-63900668D01*
X109566291Y-67461925D01*
G37*
G36*
X111655180Y-84210323D02*
G01*
X111617009Y-84324836D01*
X111542896Y-84398949D01*
X111465909Y-84437442D01*
X111292375Y-84480826D01*
X111167986Y-84480826D01*
X110994452Y-84437442D01*
X110917465Y-84398949D01*
X110843351Y-84324835D01*
X110805180Y-84210321D01*
X110805180Y-84059398D01*
X111655180Y-84059398D01*
X111655180Y-84210323D01*
G37*
G36*
X114712897Y-84079636D02*
G01*
X114310783Y-84213674D01*
X114310783Y-83945597D01*
X114712897Y-84079636D01*
G37*
G36*
X114875068Y-83115085D02*
G01*
X114836897Y-83229598D01*
X114762784Y-83303711D01*
X114685797Y-83342204D01*
X114512263Y-83385588D01*
X114387874Y-83385588D01*
X114214340Y-83342204D01*
X114137353Y-83303711D01*
X114063239Y-83229597D01*
X114025068Y-83115083D01*
X114025068Y-82964160D01*
X114875068Y-82964160D01*
X114875068Y-83115085D01*
G37*
G36*
X116746123Y-84741937D02*
G01*
X110544069Y-84741937D01*
X110544069Y-83984398D01*
X110655180Y-83984398D01*
X110655180Y-84222493D01*
X110655909Y-84229898D01*
X110655769Y-84231874D01*
X110656359Y-84234471D01*
X110656621Y-84237125D01*
X110657379Y-84238955D01*
X110659029Y-84246211D01*
X110706649Y-84389068D01*
X110712643Y-84402493D01*
X110714409Y-84404529D01*
X110715440Y-84407018D01*
X110724767Y-84418383D01*
X110820005Y-84513621D01*
X110825755Y-84518341D01*
X110827054Y-84519838D01*
X110829308Y-84521257D01*
X110831370Y-84522949D01*
X110833202Y-84523707D01*
X110839497Y-84527670D01*
X110934735Y-84575289D01*
X110935804Y-84575698D01*
X110936240Y-84576021D01*
X110942376Y-84578213D01*
X110948466Y-84580544D01*
X110949006Y-84580582D01*
X110950086Y-84580968D01*
X111140562Y-84628587D01*
X111143098Y-84628962D01*
X111144120Y-84629385D01*
X111149632Y-84629927D01*
X111155106Y-84630737D01*
X111156198Y-84630574D01*
X111158752Y-84630826D01*
X111301609Y-84630826D01*
X111304162Y-84630574D01*
X111305255Y-84630737D01*
X111310728Y-84629927D01*
X111316241Y-84629385D01*
X111317262Y-84628962D01*
X111319799Y-84628587D01*
X111510275Y-84580968D01*
X111511354Y-84580582D01*
X111511894Y-84580544D01*
X111517975Y-84578216D01*
X111524121Y-84576021D01*
X111524556Y-84575698D01*
X111525626Y-84575289D01*
X111620864Y-84527670D01*
X111627163Y-84523705D01*
X111628991Y-84522948D01*
X111631047Y-84521259D01*
X111633307Y-84519838D01*
X111634606Y-84518339D01*
X111640356Y-84513621D01*
X111735594Y-84418383D01*
X111744922Y-84407018D01*
X111745953Y-84404527D01*
X111747718Y-84402493D01*
X111753712Y-84389067D01*
X111801331Y-84246211D01*
X111802980Y-84238955D01*
X111803739Y-84237125D01*
X111804000Y-84234471D01*
X111804591Y-84231874D01*
X111804450Y-84229899D01*
X111805180Y-84222493D01*
X111805180Y-83984398D01*
X111803739Y-83969766D01*
X111792540Y-83942730D01*
X111771848Y-83922038D01*
X111744812Y-83910839D01*
X111730180Y-83909398D01*
X110730180Y-83909398D01*
X110715548Y-83910839D01*
X110688512Y-83922038D01*
X110667820Y-83942730D01*
X110656621Y-83969766D01*
X110655180Y-83984398D01*
X110544069Y-83984398D01*
X110544069Y-83736923D01*
X113875657Y-83736923D01*
X113877732Y-83766113D01*
X113890818Y-83792286D01*
X113912925Y-83811460D01*
X113926351Y-83817454D01*
X114160783Y-83895597D01*
X114160783Y-84263674D01*
X113926351Y-84341818D01*
X113912925Y-84347812D01*
X113890818Y-84366986D01*
X113877732Y-84393159D01*
X113875657Y-84422349D01*
X113884911Y-84450112D01*
X113904085Y-84472219D01*
X113930258Y-84485305D01*
X113959448Y-84487380D01*
X113973785Y-84484120D01*
X114973785Y-84150787D01*
X114987210Y-84144793D01*
X114991257Y-84141282D01*
X114996051Y-84138886D01*
X115002215Y-84131778D01*
X115009317Y-84125619D01*
X115011712Y-84120827D01*
X115015225Y-84116778D01*
X115018199Y-84107855D01*
X115022404Y-84099446D01*
X115022783Y-84094101D01*
X115024479Y-84089016D01*
X115023812Y-84079636D01*
X115024479Y-84070256D01*
X115022783Y-84065170D01*
X115022404Y-84059826D01*
X115018199Y-84051416D01*
X115015225Y-84042494D01*
X115011712Y-84038444D01*
X115009317Y-84033653D01*
X115002215Y-84027493D01*
X114996051Y-84020386D01*
X114991257Y-84017989D01*
X114987210Y-84014479D01*
X114973785Y-84008485D01*
X114615810Y-83889160D01*
X115485012Y-83889160D01*
X115485012Y-84365350D01*
X115486453Y-84379982D01*
X115497652Y-84407018D01*
X115518344Y-84427710D01*
X115545380Y-84438909D01*
X115574644Y-84438909D01*
X115601680Y-84427710D01*
X115622372Y-84407018D01*
X115633571Y-84379982D01*
X115635012Y-84365350D01*
X115635012Y-83964160D01*
X116560012Y-83964160D01*
X116574644Y-83962719D01*
X116601680Y-83951520D01*
X116622372Y-83930828D01*
X116633571Y-83903792D01*
X116633571Y-83874528D01*
X116622372Y-83847492D01*
X116601680Y-83826800D01*
X116574644Y-83815601D01*
X116560012Y-83814160D01*
X115560012Y-83814160D01*
X115545380Y-83815601D01*
X115518344Y-83826800D01*
X115497652Y-83847492D01*
X115486453Y-83874528D01*
X115485012Y-83889160D01*
X114615810Y-83889160D01*
X113973785Y-83675152D01*
X113959448Y-83671892D01*
X113930258Y-83673967D01*
X113904085Y-83687053D01*
X113884911Y-83709160D01*
X113875657Y-83736923D01*
X110544069Y-83736923D01*
X110544069Y-83502968D01*
X110655363Y-83502968D01*
X110656621Y-83512864D01*
X110656621Y-83522839D01*
X110658450Y-83527254D01*
X110659053Y-83531998D01*
X110664003Y-83540662D01*
X110667820Y-83549875D01*
X110671198Y-83553253D01*
X110673572Y-83557407D01*
X110681461Y-83563516D01*
X110688512Y-83570567D01*
X110692928Y-83572396D01*
X110696709Y-83575324D01*
X110706332Y-83577948D01*
X110715548Y-83581766D01*
X110723030Y-83582502D01*
X110724941Y-83583024D01*
X110726416Y-83582836D01*
X110730180Y-83583207D01*
X111730180Y-83583207D01*
X111744812Y-83581766D01*
X111771848Y-83570567D01*
X111792540Y-83549875D01*
X111803739Y-83522839D01*
X111803739Y-83493575D01*
X111792540Y-83466539D01*
X111771848Y-83445847D01*
X111744812Y-83434648D01*
X111730180Y-83433207D01*
X111012597Y-83433207D01*
X111647763Y-83070256D01*
X112265713Y-83070256D01*
X112266379Y-83079636D01*
X112265713Y-83089016D01*
X112267408Y-83094101D01*
X112267788Y-83099446D01*
X112271992Y-83107855D01*
X112274967Y-83116779D01*
X112278478Y-83120827D01*
X112280874Y-83125619D01*
X112287978Y-83131781D01*
X112294141Y-83138886D01*
X112298932Y-83141281D01*
X112302981Y-83144793D01*
X112316407Y-83150787D01*
X113316407Y-83484120D01*
X113330743Y-83487380D01*
X113359933Y-83485305D01*
X113386107Y-83472219D01*
X113405281Y-83450111D01*
X113414535Y-83422349D01*
X113412460Y-83393159D01*
X113399373Y-83366986D01*
X113377266Y-83347812D01*
X113363841Y-83341818D01*
X112577294Y-83079636D01*
X113148723Y-82889160D01*
X113875068Y-82889160D01*
X113875068Y-83127255D01*
X113875797Y-83134660D01*
X113875657Y-83136636D01*
X113876247Y-83139233D01*
X113876509Y-83141887D01*
X113877267Y-83143717D01*
X113878917Y-83150973D01*
X113926537Y-83293830D01*
X113932531Y-83307255D01*
X113934297Y-83309291D01*
X113935328Y-83311780D01*
X113944655Y-83323145D01*
X114039893Y-83418383D01*
X114045643Y-83423103D01*
X114046942Y-83424600D01*
X114049196Y-83426019D01*
X114051258Y-83427711D01*
X114053090Y-83428469D01*
X114059385Y-83432432D01*
X114154623Y-83480051D01*
X114155692Y-83480460D01*
X114156128Y-83480783D01*
X114162264Y-83482975D01*
X114168354Y-83485306D01*
X114168894Y-83485344D01*
X114169974Y-83485730D01*
X114360450Y-83533349D01*
X114362986Y-83533724D01*
X114364008Y-83534147D01*
X114369520Y-83534689D01*
X114374994Y-83535499D01*
X114376086Y-83535336D01*
X114378640Y-83535588D01*
X114521497Y-83535588D01*
X114524050Y-83535336D01*
X114525143Y-83535499D01*
X114530616Y-83534689D01*
X114536129Y-83534147D01*
X114537150Y-83533724D01*
X114539687Y-83533349D01*
X114730163Y-83485730D01*
X114731242Y-83485344D01*
X114731782Y-83485306D01*
X114737863Y-83482978D01*
X114744009Y-83480783D01*
X114744444Y-83480460D01*
X114745514Y-83480051D01*
X114840752Y-83432432D01*
X114847051Y-83428467D01*
X114848879Y-83427710D01*
X114850935Y-83426021D01*
X114853195Y-83424600D01*
X114854494Y-83423101D01*
X114860244Y-83418383D01*
X114955482Y-83323145D01*
X114964810Y-83311780D01*
X114965841Y-83309289D01*
X114967606Y-83307255D01*
X114973600Y-83293829D01*
X115013252Y-83174874D01*
X115485012Y-83174874D01*
X115485012Y-83270112D01*
X115485741Y-83277517D01*
X115485601Y-83279493D01*
X115486191Y-83282090D01*
X115486453Y-83284744D01*
X115487211Y-83286574D01*
X115488861Y-83293830D01*
X115536481Y-83436687D01*
X115542475Y-83450112D01*
X115544241Y-83452148D01*
X115545272Y-83454637D01*
X115554599Y-83466002D01*
X115602218Y-83513621D01*
X115613583Y-83522948D01*
X115640619Y-83534147D01*
X115669882Y-83534147D01*
X115696918Y-83522948D01*
X115717611Y-83502255D01*
X115728810Y-83475219D01*
X115728810Y-83445956D01*
X115717611Y-83418920D01*
X115708284Y-83407555D01*
X115673183Y-83372454D01*
X115635012Y-83257940D01*
X115635012Y-83187045D01*
X115673183Y-83072531D01*
X115747297Y-82998418D01*
X115824284Y-82959924D01*
X115997818Y-82916541D01*
X116122207Y-82916541D01*
X116295741Y-82959924D01*
X116372728Y-82998418D01*
X116446841Y-83072531D01*
X116485012Y-83187044D01*
X116485012Y-83257942D01*
X116446841Y-83372455D01*
X116411741Y-83407555D01*
X116402414Y-83418920D01*
X116391215Y-83445957D01*
X116391215Y-83475219D01*
X116402414Y-83502256D01*
X116423106Y-83522948D01*
X116450143Y-83534147D01*
X116479405Y-83534147D01*
X116506442Y-83522948D01*
X116517807Y-83513621D01*
X116565426Y-83466002D01*
X116574753Y-83454637D01*
X116575783Y-83452148D01*
X116577550Y-83450112D01*
X116583544Y-83436686D01*
X116631163Y-83293830D01*
X116632812Y-83286574D01*
X116633571Y-83284744D01*
X116633832Y-83282090D01*
X116634423Y-83279493D01*
X116634282Y-83277518D01*
X116635012Y-83270112D01*
X116635012Y-83174874D01*
X116634282Y-83167467D01*
X116634423Y-83165493D01*
X116633832Y-83162895D01*
X116633571Y-83160242D01*
X116632812Y-83158411D01*
X116631163Y-83151156D01*
X116583544Y-83008300D01*
X116577550Y-82994874D01*
X116575785Y-82992839D01*
X116574754Y-82990349D01*
X116565426Y-82978984D01*
X116470188Y-82883746D01*
X116464438Y-82879027D01*
X116463139Y-82877529D01*
X116460879Y-82876107D01*
X116458823Y-82874419D01*
X116456995Y-82873661D01*
X116450696Y-82869697D01*
X116355458Y-82822078D01*
X116354388Y-82821668D01*
X116353953Y-82821346D01*
X116347807Y-82819150D01*
X116341726Y-82816823D01*
X116341186Y-82816784D01*
X116340107Y-82816399D01*
X116149631Y-82768780D01*
X116147094Y-82768404D01*
X116146073Y-82767982D01*
X116140560Y-82767439D01*
X116135087Y-82766630D01*
X116133994Y-82766792D01*
X116131441Y-82766541D01*
X115988584Y-82766541D01*
X115986030Y-82766792D01*
X115984938Y-82766630D01*
X115979464Y-82767439D01*
X115973952Y-82767982D01*
X115972930Y-82768404D01*
X115970394Y-82768780D01*
X115779918Y-82816399D01*
X115778838Y-82816784D01*
X115778298Y-82816823D01*
X115772208Y-82819153D01*
X115766072Y-82821346D01*
X115765636Y-82821668D01*
X115764567Y-82822078D01*
X115669329Y-82869697D01*
X115663034Y-82873659D01*
X115661202Y-82874418D01*
X115659140Y-82876109D01*
X115656886Y-82877529D01*
X115655587Y-82879025D01*
X115649837Y-82883746D01*
X115554599Y-82978984D01*
X115545272Y-82990349D01*
X115544241Y-82992837D01*
X115542475Y-82994874D01*
X115536481Y-83008299D01*
X115488861Y-83151156D01*
X115487211Y-83158411D01*
X115486453Y-83160242D01*
X115486191Y-83162895D01*
X115485601Y-83165493D01*
X115485741Y-83167468D01*
X115485012Y-83174874D01*
X115013252Y-83174874D01*
X115021219Y-83150973D01*
X115022868Y-83143717D01*
X115023627Y-83141887D01*
X115023888Y-83139233D01*
X115024479Y-83136636D01*
X115024338Y-83134661D01*
X115025068Y-83127255D01*
X115025068Y-82889160D01*
X115023627Y-82874528D01*
X115012428Y-82847492D01*
X114991736Y-82826800D01*
X114964700Y-82815601D01*
X114950068Y-82814160D01*
X113950068Y-82814160D01*
X113935436Y-82815601D01*
X113908400Y-82826800D01*
X113887708Y-82847492D01*
X113876509Y-82874528D01*
X113875068Y-82889160D01*
X113148723Y-82889160D01*
X113363841Y-82817454D01*
X113377266Y-82811460D01*
X113399373Y-82792286D01*
X113412460Y-82766113D01*
X113414535Y-82736923D01*
X113405281Y-82709161D01*
X113386107Y-82687053D01*
X113359933Y-82673967D01*
X113330743Y-82671892D01*
X113316407Y-82675152D01*
X112316407Y-83008485D01*
X112302981Y-83014479D01*
X112298932Y-83017990D01*
X112294141Y-83020386D01*
X112287978Y-83027490D01*
X112280874Y-83033653D01*
X112278478Y-83038444D01*
X112274967Y-83042493D01*
X112271992Y-83051416D01*
X112267788Y-83059826D01*
X112267408Y-83065170D01*
X112265713Y-83070256D01*
X111647763Y-83070256D01*
X111767391Y-83001897D01*
X111770475Y-82999707D01*
X111771848Y-82999139D01*
X111773245Y-82997741D01*
X111779380Y-82993387D01*
X111785488Y-82985498D01*
X111792540Y-82978447D01*
X111794370Y-82974028D01*
X111797297Y-82970249D01*
X111799921Y-82960627D01*
X111803739Y-82951411D01*
X111803739Y-82946630D01*
X111804997Y-82942018D01*
X111803739Y-82932121D01*
X111803739Y-82922147D01*
X111801909Y-82917731D01*
X111801307Y-82912988D01*
X111796356Y-82904323D01*
X111792540Y-82895111D01*
X111789161Y-82891732D01*
X111786788Y-82887579D01*
X111778898Y-82881469D01*
X111771848Y-82874419D01*
X111767431Y-82872589D01*
X111763651Y-82869662D01*
X111754027Y-82867037D01*
X111744812Y-82863220D01*
X111737329Y-82862483D01*
X111735419Y-82861962D01*
X111733943Y-82862149D01*
X111730180Y-82861779D01*
X110730180Y-82861779D01*
X110715548Y-82863220D01*
X110688512Y-82874419D01*
X110667820Y-82895111D01*
X110656621Y-82922147D01*
X110656621Y-82951411D01*
X110667820Y-82978447D01*
X110688512Y-82999139D01*
X110715548Y-83010338D01*
X110730180Y-83011779D01*
X111447763Y-83011779D01*
X110692970Y-83443089D01*
X110689886Y-83445277D01*
X110688512Y-83445847D01*
X110687112Y-83447246D01*
X110680980Y-83451599D01*
X110674870Y-83459488D01*
X110667820Y-83466539D01*
X110665990Y-83470955D01*
X110663063Y-83474736D01*
X110660438Y-83484359D01*
X110656621Y-83493575D01*
X110656621Y-83498355D01*
X110655363Y-83502968D01*
X110544069Y-83502968D01*
X110544069Y-82222493D01*
X110655180Y-82222493D01*
X110655180Y-82317731D01*
X110655909Y-82325136D01*
X110655769Y-82327112D01*
X110656359Y-82329709D01*
X110656621Y-82332363D01*
X110657379Y-82334193D01*
X110659029Y-82341449D01*
X110706649Y-82484306D01*
X110712643Y-82497731D01*
X110714409Y-82499767D01*
X110715440Y-82502256D01*
X110724767Y-82513621D01*
X110772386Y-82561240D01*
X110783751Y-82570567D01*
X110810787Y-82581766D01*
X110825419Y-82583207D01*
X111158752Y-82583207D01*
X111173384Y-82581766D01*
X111200420Y-82570567D01*
X111221112Y-82549875D01*
X111232311Y-82522839D01*
X111232311Y-82522838D01*
X111233752Y-82508207D01*
X111233752Y-82317731D01*
X111232311Y-82303099D01*
X111221112Y-82276063D01*
X111200420Y-82255371D01*
X111173384Y-82244172D01*
X111144120Y-82244172D01*
X111117084Y-82255371D01*
X111096392Y-82276063D01*
X111085193Y-82303099D01*
X111083752Y-82317731D01*
X111083752Y-82433207D01*
X110856485Y-82433207D01*
X110843351Y-82420073D01*
X110805180Y-82305559D01*
X110805180Y-82234664D01*
X110843351Y-82120150D01*
X110917465Y-82046037D01*
X110994452Y-82007543D01*
X111167986Y-81964160D01*
X111292375Y-81964160D01*
X111465909Y-82007543D01*
X111542896Y-82046037D01*
X111617009Y-82120150D01*
X111655180Y-82234663D01*
X111655180Y-82347645D01*
X111615479Y-82427047D01*
X111610224Y-82440779D01*
X111608150Y-82469969D01*
X111617404Y-82497730D01*
X111636577Y-82519838D01*
X111662752Y-82532925D01*
X111691942Y-82534999D01*
X111719703Y-82525745D01*
X111741811Y-82506572D01*
X111749643Y-82494129D01*
X111797262Y-82398891D01*
X111802517Y-82385160D01*
X111802708Y-82382470D01*
X111803739Y-82379982D01*
X111805180Y-82365350D01*
X111805180Y-82222493D01*
X111804450Y-82215086D01*
X111804591Y-82213112D01*
X111804000Y-82210514D01*
X111803739Y-82207861D01*
X111802980Y-82206030D01*
X111801331Y-82198775D01*
X111753712Y-82055919D01*
X111747718Y-82042493D01*
X111745953Y-82040458D01*
X111744922Y-82037968D01*
X111740038Y-82032017D01*
X112265124Y-82032017D01*
X112265124Y-82270112D01*
X112266565Y-82284744D01*
X112267595Y-82287232D01*
X112267787Y-82289922D01*
X112273042Y-82303654D01*
X112320662Y-82398892D01*
X112324627Y-82405190D01*
X112325384Y-82407018D01*
X112327072Y-82409075D01*
X112328495Y-82411335D01*
X112329993Y-82412634D01*
X112334711Y-82418383D01*
X112382330Y-82466002D01*
X112388079Y-82470720D01*
X112389379Y-82472219D01*
X112391638Y-82473640D01*
X112393695Y-82475329D01*
X112395522Y-82476086D01*
X112401822Y-82480051D01*
X112497060Y-82527670D01*
X112510791Y-82532925D01*
X112513480Y-82533116D01*
X112515969Y-82534147D01*
X112530601Y-82535588D01*
X112768696Y-82535588D01*
X112783328Y-82534147D01*
X112785817Y-82533115D01*
X112788505Y-82532925D01*
X112802237Y-82527670D01*
X112897475Y-82480051D01*
X112903774Y-82476086D01*
X112905602Y-82475329D01*
X112907658Y-82473640D01*
X112909918Y-82472219D01*
X112911217Y-82470720D01*
X112916967Y-82466002D01*
X112964586Y-82418383D01*
X112969304Y-82412633D01*
X112970803Y-82411334D01*
X112972224Y-82409074D01*
X112973913Y-82407018D01*
X112974670Y-82405190D01*
X112978635Y-82398891D01*
X113026254Y-82303653D01*
X113031509Y-82289922D01*
X113031700Y-82287232D01*
X113032731Y-82284744D01*
X113034172Y-82270112D01*
X113034172Y-82032017D01*
X113032731Y-82017385D01*
X113031700Y-82014896D01*
X113031509Y-82012207D01*
X113026254Y-81998476D01*
X113016933Y-81979834D01*
X113265124Y-82004653D01*
X113265124Y-82412969D01*
X113266565Y-82427601D01*
X113277764Y-82454637D01*
X113298456Y-82475329D01*
X113325492Y-82486528D01*
X113354756Y-82486528D01*
X113381792Y-82475329D01*
X113402484Y-82454637D01*
X113413683Y-82427601D01*
X113415124Y-82412969D01*
X113415124Y-82032017D01*
X113875068Y-82032017D01*
X113875068Y-82270112D01*
X113876509Y-82284744D01*
X113877539Y-82287232D01*
X113877731Y-82289922D01*
X113882986Y-82303654D01*
X113930606Y-82398892D01*
X113934571Y-82405190D01*
X113935328Y-82407018D01*
X113937016Y-82409075D01*
X113938439Y-82411335D01*
X113939937Y-82412634D01*
X113944655Y-82418383D01*
X113992274Y-82466002D01*
X113998023Y-82470720D01*
X113999323Y-82472219D01*
X114001582Y-82473640D01*
X114003639Y-82475329D01*
X114005466Y-82476086D01*
X114011766Y-82480051D01*
X114107004Y-82527670D01*
X114120735Y-82532925D01*
X114123424Y-82533116D01*
X114125913Y-82534147D01*
X114140545Y-82535588D01*
X114235783Y-82535588D01*
X114250415Y-82534147D01*
X114252904Y-82533115D01*
X114255592Y-82532925D01*
X114269324Y-82527670D01*
X114364562Y-82480051D01*
X114370861Y-82476086D01*
X114372689Y-82475329D01*
X114374745Y-82473640D01*
X114377005Y-82472219D01*
X114378304Y-82470720D01*
X114384054Y-82466002D01*
X114431673Y-82418383D01*
X114436391Y-82412633D01*
X114437890Y-82411334D01*
X114439311Y-82409074D01*
X114441000Y-82407018D01*
X114441757Y-82405190D01*
X114445722Y-82398891D01*
X114493341Y-82303653D01*
X114493750Y-82302583D01*
X114494073Y-82302148D01*
X114496265Y-82296011D01*
X114498596Y-82289922D01*
X114498634Y-82289381D01*
X114499020Y-82288302D01*
X114544642Y-82105812D01*
X114583136Y-82028825D01*
X114613543Y-81998418D01*
X114682059Y-81964160D01*
X114741887Y-81964160D01*
X114810403Y-81998418D01*
X114840810Y-82028825D01*
X114875068Y-82097341D01*
X114875068Y-82305561D01*
X114831298Y-82436871D01*
X114828038Y-82451208D01*
X114830113Y-82480398D01*
X114843199Y-82506571D01*
X114865306Y-82525745D01*
X114893069Y-82534999D01*
X114922259Y-82532924D01*
X114948432Y-82519838D01*
X114967606Y-82497731D01*
X114973600Y-82484305D01*
X115021219Y-82341449D01*
X115022868Y-82334193D01*
X115023627Y-82332363D01*
X115023888Y-82329709D01*
X115024479Y-82327112D01*
X115024338Y-82325137D01*
X115025068Y-82317731D01*
X115025068Y-82079636D01*
X115023627Y-82065004D01*
X115022596Y-82062515D01*
X115022405Y-82059826D01*
X115017150Y-82046095D01*
X115010111Y-82032017D01*
X115485012Y-82032017D01*
X115485012Y-82270112D01*
X115486453Y-82284744D01*
X115487483Y-82287232D01*
X115487675Y-82289922D01*
X115492930Y-82303654D01*
X115540550Y-82398892D01*
X115544515Y-82405190D01*
X115545272Y-82407018D01*
X115546960Y-82409075D01*
X115548383Y-82411335D01*
X115549881Y-82412634D01*
X115554599Y-82418383D01*
X115602218Y-82466002D01*
X115607967Y-82470720D01*
X115609267Y-82472219D01*
X115611526Y-82473640D01*
X115613583Y-82475329D01*
X115615410Y-82476086D01*
X115621710Y-82480051D01*
X115716948Y-82527670D01*
X115730679Y-82532925D01*
X115733368Y-82533116D01*
X115735857Y-82534147D01*
X115750489Y-82535588D01*
X115845727Y-82535588D01*
X115860359Y-82534147D01*
X115862848Y-82533115D01*
X115865536Y-82532925D01*
X115879268Y-82527670D01*
X115974506Y-82480051D01*
X115980805Y-82476086D01*
X115982633Y-82475329D01*
X115984689Y-82473640D01*
X115986949Y-82472219D01*
X115988248Y-82470720D01*
X115993998Y-82466002D01*
X116041617Y-82418383D01*
X116046335Y-82412633D01*
X116047834Y-82411334D01*
X116049255Y-82409074D01*
X116050944Y-82407018D01*
X116051701Y-82405190D01*
X116055666Y-82398891D01*
X116103285Y-82303653D01*
X116103694Y-82302583D01*
X116104017Y-82302148D01*
X116106209Y-82296011D01*
X116108540Y-82289922D01*
X116108578Y-82289381D01*
X116108964Y-82288302D01*
X116154586Y-82105812D01*
X116193080Y-82028825D01*
X116223487Y-81998418D01*
X116292003Y-81964160D01*
X116351831Y-81964160D01*
X116420347Y-81998418D01*
X116450754Y-82028825D01*
X116485012Y-82097341D01*
X116485012Y-82305561D01*
X116441242Y-82436871D01*
X116437982Y-82451208D01*
X116440057Y-82480398D01*
X116453143Y-82506571D01*
X116475250Y-82525745D01*
X116503013Y-82534999D01*
X116532203Y-82532924D01*
X116558376Y-82519838D01*
X116577550Y-82497731D01*
X116583544Y-82484305D01*
X116631163Y-82341449D01*
X116632812Y-82334193D01*
X116633571Y-82332363D01*
X116633832Y-82329709D01*
X116634423Y-82327112D01*
X116634282Y-82325137D01*
X116635012Y-82317731D01*
X116635012Y-82079636D01*
X116633571Y-82065004D01*
X116632540Y-82062515D01*
X116632349Y-82059826D01*
X116627094Y-82046095D01*
X116579475Y-81950857D01*
X116575510Y-81944557D01*
X116574753Y-81942730D01*
X116573064Y-81940673D01*
X116571643Y-81938414D01*
X116570144Y-81937114D01*
X116565426Y-81931365D01*
X116517807Y-81883746D01*
X116512057Y-81879027D01*
X116510758Y-81877529D01*
X116508498Y-81876107D01*
X116506442Y-81874419D01*
X116504614Y-81873661D01*
X116498315Y-81869697D01*
X116403077Y-81822078D01*
X116389345Y-81816823D01*
X116386657Y-81816632D01*
X116384168Y-81815601D01*
X116369536Y-81814160D01*
X116274298Y-81814160D01*
X116259666Y-81815601D01*
X116257177Y-81816631D01*
X116254488Y-81816823D01*
X116240757Y-81822078D01*
X116145519Y-81869697D01*
X116139219Y-81873661D01*
X116137392Y-81874419D01*
X116135335Y-81876107D01*
X116133076Y-81877529D01*
X116131776Y-81879027D01*
X116126027Y-81883746D01*
X116078408Y-81931365D01*
X116073689Y-81937114D01*
X116072191Y-81938414D01*
X116070769Y-81940673D01*
X116069081Y-81942730D01*
X116068323Y-81944557D01*
X116064359Y-81950857D01*
X116016740Y-82046095D01*
X116016330Y-82047164D01*
X116016008Y-82047600D01*
X116013812Y-82053745D01*
X116011485Y-82059827D01*
X116011446Y-82060366D01*
X116011061Y-82061446D01*
X115965438Y-82243936D01*
X115926945Y-82320923D01*
X115896538Y-82351330D01*
X115828022Y-82385588D01*
X115768194Y-82385588D01*
X115699678Y-82351330D01*
X115669270Y-82320922D01*
X115635012Y-82252405D01*
X115635012Y-82044188D01*
X115678783Y-81912877D01*
X115682043Y-81898541D01*
X115679969Y-81869351D01*
X115666882Y-81843177D01*
X115644775Y-81824003D01*
X115617013Y-81814749D01*
X115587823Y-81816823D01*
X115561649Y-81829910D01*
X115542475Y-81852017D01*
X115536481Y-81865442D01*
X115488861Y-82008299D01*
X115487211Y-82015554D01*
X115486453Y-82017385D01*
X115486191Y-82020038D01*
X115485601Y-82022636D01*
X115485741Y-82024611D01*
X115485012Y-82032017D01*
X115010111Y-82032017D01*
X114969531Y-81950857D01*
X114965566Y-81944557D01*
X114964809Y-81942730D01*
X114963120Y-81940673D01*
X114961699Y-81938414D01*
X114960200Y-81937114D01*
X114955482Y-81931365D01*
X114907863Y-81883746D01*
X114902113Y-81879027D01*
X114900814Y-81877529D01*
X114898554Y-81876107D01*
X114896498Y-81874419D01*
X114894670Y-81873661D01*
X114888371Y-81869697D01*
X114793133Y-81822078D01*
X114779401Y-81816823D01*
X114776713Y-81816632D01*
X114774224Y-81815601D01*
X114759592Y-81814160D01*
X114664354Y-81814160D01*
X114649722Y-81815601D01*
X114647233Y-81816631D01*
X114644544Y-81816823D01*
X114630813Y-81822078D01*
X114535575Y-81869697D01*
X114529275Y-81873661D01*
X114527448Y-81874419D01*
X114525391Y-81876107D01*
X114523132Y-81877529D01*
X114521832Y-81879027D01*
X114516083Y-81883746D01*
X114468464Y-81931365D01*
X114463745Y-81937114D01*
X114462247Y-81938414D01*
X114460825Y-81940673D01*
X114459137Y-81942730D01*
X114458379Y-81944557D01*
X114454415Y-81950857D01*
X114406796Y-82046095D01*
X114406386Y-82047164D01*
X114406064Y-82047600D01*
X114403868Y-82053745D01*
X114401541Y-82059827D01*
X114401502Y-82060366D01*
X114401117Y-82061446D01*
X114355494Y-82243936D01*
X114317001Y-82320923D01*
X114286594Y-82351330D01*
X114218078Y-82385588D01*
X114158250Y-82385588D01*
X114089734Y-82351330D01*
X114059326Y-82320922D01*
X114025068Y-82252405D01*
X114025068Y-82044188D01*
X114068839Y-81912877D01*
X114072099Y-81898541D01*
X114070025Y-81869351D01*
X114056938Y-81843177D01*
X114034831Y-81824003D01*
X114007069Y-81814749D01*
X113977879Y-81816823D01*
X113951705Y-81829910D01*
X113932531Y-81852017D01*
X113926537Y-81865442D01*
X113878917Y-82008299D01*
X113877267Y-82015554D01*
X113876509Y-82017385D01*
X113876247Y-82020038D01*
X113875657Y-82022636D01*
X113875797Y-82024611D01*
X113875068Y-82032017D01*
X113415124Y-82032017D01*
X113415124Y-81936779D01*
X113414591Y-81931365D01*
X113414774Y-81929539D01*
X113414235Y-81927752D01*
X113413683Y-81922147D01*
X113409488Y-81912020D01*
X113406321Y-81901523D01*
X113403929Y-81898599D01*
X113402484Y-81895111D01*
X113394730Y-81887357D01*
X113387790Y-81878875D01*
X113384463Y-81877090D01*
X113381792Y-81874419D01*
X113371662Y-81870223D01*
X113362003Y-81865041D01*
X113356478Y-81863933D01*
X113354756Y-81863220D01*
X113352919Y-81863220D01*
X113347587Y-81862151D01*
X112871397Y-81814532D01*
X112856694Y-81814510D01*
X112853078Y-81815601D01*
X112849303Y-81815601D01*
X112839177Y-81819795D01*
X112828678Y-81822963D01*
X112825754Y-81825354D01*
X112822266Y-81826800D01*
X112814512Y-81834553D01*
X112806030Y-81841494D01*
X112804245Y-81844820D01*
X112801574Y-81847492D01*
X112797378Y-81857619D01*
X112792196Y-81867281D01*
X112791820Y-81871040D01*
X112790375Y-81874529D01*
X112790375Y-81885490D01*
X112789284Y-81896400D01*
X112790375Y-81900015D01*
X112790375Y-81903791D01*
X112794569Y-81913916D01*
X112797737Y-81924416D01*
X112800128Y-81927339D01*
X112801574Y-81930828D01*
X112810901Y-81942193D01*
X112849914Y-81981206D01*
X112884172Y-82049722D01*
X112884172Y-82252407D01*
X112849914Y-82320923D01*
X112819507Y-82351330D01*
X112750991Y-82385588D01*
X112548306Y-82385588D01*
X112479790Y-82351330D01*
X112449382Y-82320922D01*
X112415124Y-82252405D01*
X112415124Y-82049723D01*
X112449382Y-81981206D01*
X112488396Y-81942193D01*
X112497723Y-81930828D01*
X112508922Y-81903792D01*
X112508922Y-81874529D01*
X112497723Y-81847493D01*
X112477030Y-81826800D01*
X112449994Y-81815601D01*
X112420731Y-81815601D01*
X112393695Y-81826800D01*
X112382330Y-81836127D01*
X112334711Y-81883746D01*
X112329993Y-81889494D01*
X112328495Y-81890794D01*
X112327072Y-81893053D01*
X112325384Y-81895111D01*
X112324627Y-81896938D01*
X112320662Y-81903237D01*
X112273042Y-81998475D01*
X112267787Y-82012207D01*
X112267595Y-82014896D01*
X112266565Y-82017385D01*
X112265124Y-82032017D01*
X111740038Y-82032017D01*
X111735594Y-82026603D01*
X111640356Y-81931365D01*
X111634606Y-81926646D01*
X111633307Y-81925148D01*
X111631047Y-81923726D01*
X111628991Y-81922038D01*
X111627163Y-81921280D01*
X111620864Y-81917316D01*
X111525626Y-81869697D01*
X111524556Y-81869287D01*
X111524121Y-81868965D01*
X111517975Y-81866769D01*
X111511894Y-81864442D01*
X111511354Y-81864403D01*
X111510275Y-81864018D01*
X111319799Y-81816399D01*
X111317262Y-81816023D01*
X111316241Y-81815601D01*
X111310728Y-81815058D01*
X111305255Y-81814249D01*
X111304162Y-81814411D01*
X111301609Y-81814160D01*
X111158752Y-81814160D01*
X111156198Y-81814411D01*
X111155106Y-81814249D01*
X111149632Y-81815058D01*
X111144120Y-81815601D01*
X111143098Y-81816023D01*
X111140562Y-81816399D01*
X110950086Y-81864018D01*
X110949006Y-81864403D01*
X110948466Y-81864442D01*
X110942376Y-81866772D01*
X110936240Y-81868965D01*
X110935804Y-81869287D01*
X110934735Y-81869697D01*
X110839497Y-81917316D01*
X110833202Y-81921278D01*
X110831370Y-81922037D01*
X110829308Y-81923728D01*
X110827054Y-81925148D01*
X110825755Y-81926644D01*
X110820005Y-81931365D01*
X110724767Y-82026603D01*
X110715440Y-82037968D01*
X110714409Y-82040456D01*
X110712643Y-82042493D01*
X110706649Y-82055918D01*
X110659029Y-82198775D01*
X110657379Y-82206030D01*
X110656621Y-82207861D01*
X110656359Y-82210514D01*
X110655769Y-82213112D01*
X110655909Y-82215087D01*
X110655180Y-82222493D01*
X110544069Y-82222493D01*
X110544069Y-81703049D01*
X116746123Y-81703049D01*
X116746123Y-84741937D01*
G37*
G36*
X106311399Y-59779077D02*
G01*
X106341806Y-59809484D01*
X106376064Y-59878000D01*
X106376064Y-59985447D01*
X106341806Y-60053963D01*
X106311399Y-60084370D01*
X106242883Y-60118628D01*
X105954636Y-60118628D01*
X105954636Y-59744819D01*
X106242883Y-59744819D01*
X106311399Y-59779077D01*
G37*
G36*
X104168542Y-59779077D02*
G01*
X104198949Y-59809484D01*
X104233207Y-59878000D01*
X104233207Y-59985447D01*
X104198949Y-60053963D01*
X104168542Y-60084370D01*
X104100026Y-60118628D01*
X103811779Y-60118628D01*
X103811779Y-59744819D01*
X104100026Y-59744819D01*
X104168542Y-59779077D01*
G37*
G36*
X106683354Y-60855913D02*
G01*
X103550668Y-60855913D01*
X103550668Y-59669819D01*
X103661779Y-59669819D01*
X103661779Y-60669819D01*
X103663220Y-60684451D01*
X103674419Y-60711487D01*
X103695111Y-60732179D01*
X103722147Y-60743378D01*
X103751411Y-60743378D01*
X103778447Y-60732179D01*
X103799139Y-60711487D01*
X103810338Y-60684451D01*
X103811779Y-60669819D01*
X103811779Y-60268628D01*
X104117731Y-60268628D01*
X104132363Y-60267187D01*
X104134852Y-60266155D01*
X104137540Y-60265965D01*
X104151272Y-60260710D01*
X104246510Y-60213091D01*
X104252809Y-60209126D01*
X104254637Y-60208369D01*
X104256693Y-60206680D01*
X104258953Y-60205259D01*
X104260252Y-60203760D01*
X104266002Y-60199042D01*
X104313621Y-60151423D01*
X104318339Y-60145673D01*
X104319838Y-60144374D01*
X104321259Y-60142114D01*
X104322948Y-60140058D01*
X104323705Y-60138230D01*
X104327670Y-60131931D01*
X104375289Y-60036693D01*
X104380544Y-60022962D01*
X104380735Y-60020272D01*
X104381766Y-60017784D01*
X104383207Y-60003152D01*
X104383207Y-59860295D01*
X104381766Y-59845663D01*
X104380735Y-59843174D01*
X104380544Y-59840485D01*
X104375289Y-59826754D01*
X104327670Y-59731516D01*
X104323705Y-59725216D01*
X104322948Y-59723389D01*
X104321259Y-59721332D01*
X104319838Y-59719073D01*
X104318339Y-59717773D01*
X104313621Y-59712024D01*
X104274220Y-59672623D01*
X104566593Y-59672623D01*
X104568581Y-59687191D01*
X104806676Y-60687191D01*
X104808405Y-60692210D01*
X104808645Y-60694012D01*
X104809587Y-60695640D01*
X104811466Y-60701091D01*
X104817852Y-60709915D01*
X104823307Y-60719337D01*
X104826364Y-60721677D01*
X104828623Y-60724798D01*
X104837898Y-60730505D01*
X104846545Y-60737124D01*
X104850265Y-60738116D01*
X104853545Y-60740134D01*
X104864299Y-60741858D01*
X104874821Y-60744664D01*
X104878636Y-60744157D01*
X104882440Y-60744767D01*
X104893038Y-60742243D01*
X104903829Y-60740810D01*
X104907160Y-60738881D01*
X104910908Y-60737989D01*
X104919732Y-60731602D01*
X104929154Y-60726148D01*
X104931494Y-60723090D01*
X104934615Y-60720832D01*
X104940322Y-60711556D01*
X104946941Y-60702910D01*
X104948966Y-60697510D01*
X104949951Y-60695910D01*
X104950238Y-60694118D01*
X104952104Y-60689144D01*
X105070111Y-60246613D01*
X105188120Y-60689144D01*
X105189985Y-60694119D01*
X105190273Y-60695910D01*
X105191257Y-60697509D01*
X105193283Y-60702911D01*
X105199903Y-60711559D01*
X105205609Y-60720832D01*
X105208729Y-60723090D01*
X105211070Y-60726148D01*
X105220491Y-60731602D01*
X105229316Y-60737989D01*
X105233063Y-60738881D01*
X105236395Y-60740810D01*
X105247188Y-60742244D01*
X105257784Y-60744767D01*
X105261585Y-60744157D01*
X105265404Y-60744665D01*
X105275935Y-60741856D01*
X105286679Y-60740134D01*
X105289955Y-60738118D01*
X105293679Y-60737125D01*
X105302329Y-60730503D01*
X105311601Y-60724798D01*
X105313859Y-60721677D01*
X105316917Y-60719337D01*
X105322372Y-60709914D01*
X105328758Y-60701091D01*
X105330635Y-60695642D01*
X105331579Y-60694013D01*
X105331818Y-60692209D01*
X105333548Y-60687191D01*
X105571644Y-59687191D01*
X105573632Y-59672623D01*
X105573182Y-59669819D01*
X105804636Y-59669819D01*
X105804636Y-60669819D01*
X105806077Y-60684451D01*
X105817276Y-60711487D01*
X105837968Y-60732179D01*
X105865004Y-60743378D01*
X105894268Y-60743378D01*
X105921304Y-60732179D01*
X105941996Y-60711487D01*
X105953195Y-60684451D01*
X105954636Y-60669819D01*
X105954636Y-60268628D01*
X106078682Y-60268628D01*
X106389622Y-60712829D01*
X106399193Y-60723989D01*
X106423872Y-60739716D01*
X106452689Y-60744802D01*
X106481260Y-60738472D01*
X106505234Y-60721690D01*
X106520961Y-60697012D01*
X106526046Y-60668194D01*
X106519717Y-60639623D01*
X106512507Y-60626810D01*
X106261703Y-60268518D01*
X106275220Y-60267187D01*
X106277709Y-60266155D01*
X106280397Y-60265965D01*
X106294129Y-60260710D01*
X106389367Y-60213091D01*
X106395666Y-60209126D01*
X106397494Y-60208369D01*
X106399550Y-60206680D01*
X106401810Y-60205259D01*
X106403109Y-60203760D01*
X106408859Y-60199042D01*
X106456478Y-60151423D01*
X106461196Y-60145673D01*
X106462695Y-60144374D01*
X106464116Y-60142114D01*
X106465805Y-60140058D01*
X106466562Y-60138230D01*
X106470527Y-60131931D01*
X106518146Y-60036693D01*
X106523401Y-60022962D01*
X106523592Y-60020272D01*
X106524623Y-60017784D01*
X106526064Y-60003152D01*
X106526064Y-59860295D01*
X106524623Y-59845663D01*
X106523592Y-59843174D01*
X106523401Y-59840485D01*
X106518146Y-59826754D01*
X106470527Y-59731516D01*
X106466562Y-59725216D01*
X106465805Y-59723389D01*
X106464116Y-59721332D01*
X106462695Y-59719073D01*
X106461196Y-59717773D01*
X106456478Y-59712024D01*
X106408859Y-59664405D01*
X106403109Y-59659686D01*
X106401810Y-59658188D01*
X106399550Y-59656766D01*
X106397494Y-59655078D01*
X106395666Y-59654320D01*
X106389367Y-59650356D01*
X106294129Y-59602737D01*
X106280397Y-59597482D01*
X106277709Y-59597291D01*
X106275220Y-59596260D01*
X106260588Y-59594819D01*
X105879636Y-59594819D01*
X105865004Y-59596260D01*
X105837968Y-59607459D01*
X105817276Y-59628151D01*
X105806077Y-59655187D01*
X105804636Y-59669819D01*
X105573182Y-59669819D01*
X105568999Y-59643728D01*
X105553663Y-59618806D01*
X105529956Y-59601650D01*
X105501488Y-59594871D01*
X105472593Y-59599504D01*
X105447671Y-59614840D01*
X105430514Y-59638547D01*
X105425724Y-59652448D01*
X105256471Y-60363303D01*
X105142580Y-59936208D01*
X105141294Y-59932780D01*
X105141103Y-59931339D01*
X105140111Y-59929626D01*
X105137417Y-59922442D01*
X105131402Y-59914583D01*
X105126441Y-59906015D01*
X105122582Y-59903061D01*
X105119630Y-59899204D01*
X105111065Y-59894245D01*
X105103203Y-59888227D01*
X105098506Y-59886974D01*
X105094305Y-59884542D01*
X105084498Y-59883239D01*
X105074928Y-59880687D01*
X105070109Y-59881327D01*
X105065297Y-59880688D01*
X105055736Y-59883237D01*
X105045919Y-59884542D01*
X105041713Y-59886976D01*
X105037021Y-59888228D01*
X105029161Y-59894243D01*
X105020594Y-59899204D01*
X105017640Y-59903062D01*
X105013783Y-59906015D01*
X105008824Y-59914580D01*
X105002807Y-59922441D01*
X105000110Y-59929630D01*
X104999121Y-59931340D01*
X104998929Y-59932779D01*
X104997644Y-59936208D01*
X104883752Y-60363303D01*
X104714501Y-59652447D01*
X104709711Y-59638547D01*
X104692554Y-59614840D01*
X104667632Y-59599504D01*
X104638737Y-59594871D01*
X104610269Y-59601649D01*
X104586562Y-59618806D01*
X104571226Y-59643728D01*
X104566593Y-59672623D01*
X104274220Y-59672623D01*
X104266002Y-59664405D01*
X104260252Y-59659686D01*
X104258953Y-59658188D01*
X104256693Y-59656766D01*
X104254637Y-59655078D01*
X104252809Y-59654320D01*
X104246510Y-59650356D01*
X104151272Y-59602737D01*
X104137540Y-59597482D01*
X104134852Y-59597291D01*
X104132363Y-59596260D01*
X104117731Y-59594819D01*
X103736779Y-59594819D01*
X103722147Y-59596260D01*
X103695111Y-59607459D01*
X103674419Y-59628151D01*
X103663220Y-59655187D01*
X103661779Y-59669819D01*
X103550668Y-59669819D01*
X103550668Y-58664290D01*
X103663220Y-58664290D01*
X103663220Y-58693554D01*
X103674419Y-58720590D01*
X103695111Y-58741282D01*
X103722147Y-58752481D01*
X103736779Y-58753922D01*
X104042731Y-58753922D01*
X104042731Y-59059875D01*
X104044172Y-59074507D01*
X104055371Y-59101543D01*
X104076063Y-59122235D01*
X104103099Y-59133434D01*
X104132363Y-59133434D01*
X104159399Y-59122235D01*
X104180091Y-59101543D01*
X104191290Y-59074507D01*
X104192731Y-59059875D01*
X104192731Y-58753922D01*
X104498684Y-58753922D01*
X104513316Y-58752481D01*
X104540352Y-58741282D01*
X104561044Y-58720590D01*
X104572243Y-58693554D01*
X104572243Y-58664290D01*
X105663220Y-58664290D01*
X105663220Y-58693554D01*
X105674419Y-58720590D01*
X105695111Y-58741282D01*
X105722147Y-58752481D01*
X105736779Y-58753922D01*
X106498684Y-58753922D01*
X106513316Y-58752481D01*
X106540352Y-58741282D01*
X106561044Y-58720590D01*
X106572243Y-58693554D01*
X106572243Y-58664290D01*
X106561044Y-58637254D01*
X106540352Y-58616562D01*
X106513316Y-58605363D01*
X106498684Y-58603922D01*
X105736779Y-58603922D01*
X105722147Y-58605363D01*
X105695111Y-58616562D01*
X105674419Y-58637254D01*
X105663220Y-58664290D01*
X104572243Y-58664290D01*
X104561044Y-58637254D01*
X104540352Y-58616562D01*
X104513316Y-58605363D01*
X104498684Y-58603922D01*
X104192731Y-58603922D01*
X104192731Y-58297970D01*
X104191290Y-58283338D01*
X104180091Y-58256302D01*
X104159399Y-58235610D01*
X104132363Y-58224411D01*
X104103099Y-58224411D01*
X104076063Y-58235610D01*
X104055371Y-58256302D01*
X104044172Y-58283338D01*
X104042731Y-58297970D01*
X104042731Y-58603922D01*
X103736779Y-58603922D01*
X103722147Y-58605363D01*
X103695111Y-58616562D01*
X103674419Y-58637254D01*
X103663220Y-58664290D01*
X103550668Y-58664290D01*
X103550668Y-58113300D01*
X106683354Y-58113300D01*
X106683354Y-60855913D01*
G37*
G36*
X136518542Y-67369133D02*
G01*
X136548949Y-67399540D01*
X136583207Y-67468056D01*
X136583207Y-67575503D01*
X136548949Y-67644019D01*
X136518542Y-67674426D01*
X136450026Y-67708684D01*
X136161779Y-67708684D01*
X136161779Y-67334875D01*
X136450026Y-67334875D01*
X136518542Y-67369133D01*
G37*
G36*
X138474836Y-65763102D02*
G01*
X138548949Y-65837215D01*
X138587442Y-65914202D01*
X138630826Y-66087736D01*
X138630826Y-66212125D01*
X138587442Y-66385659D01*
X138548948Y-66462646D01*
X138474836Y-66536759D01*
X138360323Y-66574931D01*
X138209398Y-66574931D01*
X138209398Y-65724931D01*
X138360323Y-65724931D01*
X138474836Y-65763102D01*
G37*
G36*
X138474836Y-64153158D02*
G01*
X138548949Y-64227271D01*
X138587442Y-64304258D01*
X138630826Y-64477792D01*
X138630826Y-64602181D01*
X138587442Y-64775715D01*
X138548948Y-64852702D01*
X138474836Y-64926815D01*
X138360323Y-64964987D01*
X138209398Y-64964987D01*
X138209398Y-64114987D01*
X138360323Y-64114987D01*
X138474836Y-64153158D01*
G37*
G36*
X138891937Y-70055930D02*
G01*
X135759252Y-70055930D01*
X135759252Y-68855187D01*
X135870363Y-68855187D01*
X135870363Y-68884451D01*
X135881562Y-68911487D01*
X135902254Y-68932179D01*
X135929290Y-68943378D01*
X135943922Y-68944819D01*
X136154636Y-68944819D01*
X136154636Y-69869819D01*
X136156077Y-69884451D01*
X136167276Y-69911487D01*
X136187968Y-69932179D01*
X136215004Y-69943378D01*
X136244268Y-69943378D01*
X136271304Y-69932179D01*
X136291996Y-69911487D01*
X136303195Y-69884451D01*
X136304636Y-69869819D01*
X136304636Y-68944819D01*
X136515350Y-68944819D01*
X136529982Y-68943378D01*
X136557018Y-68932179D01*
X136577710Y-68911487D01*
X136588909Y-68884451D01*
X136588909Y-68869740D01*
X136678446Y-68869740D01*
X136684125Y-68898448D01*
X136691042Y-68911421D01*
X136996640Y-69369819D01*
X136691042Y-69828217D01*
X136684125Y-69841190D01*
X136678446Y-69869898D01*
X136684185Y-69898592D01*
X136700468Y-69922907D01*
X136724817Y-69939140D01*
X136753525Y-69944819D01*
X136782219Y-69939080D01*
X136806534Y-69922797D01*
X136815850Y-69911421D01*
X137086779Y-69505027D01*
X137357708Y-69911421D01*
X137367024Y-69922797D01*
X137391339Y-69939080D01*
X137420033Y-69944819D01*
X137448741Y-69939140D01*
X137473090Y-69922907D01*
X137489373Y-69898592D01*
X137495112Y-69869898D01*
X137489433Y-69841190D01*
X137482516Y-69828216D01*
X137176918Y-69369819D01*
X137482516Y-68911422D01*
X137489433Y-68898448D01*
X137495112Y-68869740D01*
X137489373Y-68841046D01*
X137473090Y-68816731D01*
X137448741Y-68800498D01*
X137420033Y-68794819D01*
X137391339Y-68800558D01*
X137367024Y-68816841D01*
X137357708Y-68828217D01*
X137086779Y-69234610D01*
X136815850Y-68828217D01*
X136806534Y-68816841D01*
X136782219Y-68800558D01*
X136753525Y-68794819D01*
X136724817Y-68800498D01*
X136700468Y-68816731D01*
X136684185Y-68841046D01*
X136678446Y-68869740D01*
X136588909Y-68869740D01*
X136588909Y-68855187D01*
X136577710Y-68828151D01*
X136557018Y-68807459D01*
X136529982Y-68796260D01*
X136515350Y-68794819D01*
X135943922Y-68794819D01*
X135929290Y-68796260D01*
X135902254Y-68807459D01*
X135881562Y-68828151D01*
X135870363Y-68855187D01*
X135759252Y-68855187D01*
X135759252Y-67259875D01*
X136011779Y-67259875D01*
X136011779Y-68259875D01*
X136013220Y-68274507D01*
X136024419Y-68301543D01*
X136045111Y-68322235D01*
X136072147Y-68333434D01*
X136101411Y-68333434D01*
X136128447Y-68322235D01*
X136149139Y-68301543D01*
X136160338Y-68274507D01*
X136161779Y-68259875D01*
X136161779Y-67858684D01*
X136285825Y-67858684D01*
X136596765Y-68302885D01*
X136606336Y-68314045D01*
X136631015Y-68329772D01*
X136659832Y-68334858D01*
X136688403Y-68328528D01*
X136712377Y-68311746D01*
X136728104Y-68287068D01*
X136733189Y-68258250D01*
X136726860Y-68229679D01*
X136719650Y-68216866D01*
X136468846Y-67858574D01*
X136482363Y-67857243D01*
X136484852Y-67856211D01*
X136487540Y-67856021D01*
X136501272Y-67850766D01*
X136596510Y-67803147D01*
X136602809Y-67799182D01*
X136604637Y-67798425D01*
X136606693Y-67796736D01*
X136608953Y-67795315D01*
X136610252Y-67793816D01*
X136616002Y-67789098D01*
X136663621Y-67741479D01*
X136668339Y-67735729D01*
X136669838Y-67734430D01*
X136671259Y-67732170D01*
X136672948Y-67730114D01*
X136673705Y-67728286D01*
X136677670Y-67721987D01*
X136725289Y-67626749D01*
X136730544Y-67613018D01*
X136730735Y-67610328D01*
X136731766Y-67607840D01*
X136733207Y-67593208D01*
X136733207Y-67450351D01*
X136731766Y-67435719D01*
X136730735Y-67433230D01*
X136730544Y-67430541D01*
X136725289Y-67416810D01*
X136677670Y-67321572D01*
X136673705Y-67315272D01*
X136672948Y-67313445D01*
X136671259Y-67311388D01*
X136669838Y-67309129D01*
X136668339Y-67307829D01*
X136663621Y-67302080D01*
X136621337Y-67259796D01*
X136916541Y-67259796D01*
X136922220Y-67288504D01*
X136929137Y-67301477D01*
X137234735Y-67759875D01*
X136929137Y-68218273D01*
X136922220Y-68231246D01*
X136916541Y-68259954D01*
X136922280Y-68288648D01*
X136938563Y-68312963D01*
X136962912Y-68329196D01*
X136991620Y-68334875D01*
X137020314Y-68329136D01*
X137044629Y-68312853D01*
X137053945Y-68301477D01*
X137324874Y-67895083D01*
X137595803Y-68301477D01*
X137605119Y-68312853D01*
X137629434Y-68329136D01*
X137658128Y-68334875D01*
X137686836Y-68329196D01*
X137711185Y-68312963D01*
X137727468Y-68288648D01*
X137733207Y-68259954D01*
X137727528Y-68231246D01*
X137720611Y-68218272D01*
X137415013Y-67759875D01*
X137720611Y-67301478D01*
X137727528Y-67288504D01*
X137733207Y-67259796D01*
X137727468Y-67231102D01*
X137711185Y-67206787D01*
X137686836Y-67190554D01*
X137658128Y-67184875D01*
X137629434Y-67190614D01*
X137605119Y-67206897D01*
X137595803Y-67218273D01*
X137324874Y-67624666D01*
X137053945Y-67218273D01*
X137044629Y-67206897D01*
X137020314Y-67190614D01*
X136991620Y-67184875D01*
X136962912Y-67190554D01*
X136938563Y-67206787D01*
X136922280Y-67231102D01*
X136916541Y-67259796D01*
X136621337Y-67259796D01*
X136616002Y-67254461D01*
X136610252Y-67249742D01*
X136608953Y-67248244D01*
X136606693Y-67246822D01*
X136604637Y-67245134D01*
X136602809Y-67244376D01*
X136596510Y-67240412D01*
X136501272Y-67192793D01*
X136487540Y-67187538D01*
X136484852Y-67187347D01*
X136482363Y-67186316D01*
X136467731Y-67184875D01*
X136086779Y-67184875D01*
X136072147Y-67186316D01*
X136045111Y-67197515D01*
X136024419Y-67218207D01*
X136013220Y-67245243D01*
X136011779Y-67259875D01*
X135759252Y-67259875D01*
X135759252Y-66078502D01*
X135964160Y-66078502D01*
X135964160Y-66221359D01*
X135964411Y-66223912D01*
X135964249Y-66225005D01*
X135965058Y-66230478D01*
X135965601Y-66235991D01*
X135966023Y-66237012D01*
X135966399Y-66239549D01*
X136014018Y-66430025D01*
X136014403Y-66431104D01*
X136014442Y-66431644D01*
X136016769Y-66437725D01*
X136018965Y-66443871D01*
X136019287Y-66444306D01*
X136019697Y-66445376D01*
X136067316Y-66540614D01*
X136071279Y-66546910D01*
X136072037Y-66548740D01*
X136073726Y-66550798D01*
X136075148Y-66553057D01*
X136076646Y-66554356D01*
X136081365Y-66560106D01*
X136176603Y-66655345D01*
X136187968Y-66664673D01*
X136190458Y-66665704D01*
X136192493Y-66667469D01*
X136205919Y-66673463D01*
X136348775Y-66721082D01*
X136356030Y-66722731D01*
X136357861Y-66723490D01*
X136360514Y-66723751D01*
X136363112Y-66724342D01*
X136365086Y-66724201D01*
X136372493Y-66724931D01*
X136467731Y-66724931D01*
X136475136Y-66724201D01*
X136477111Y-66724342D01*
X136479708Y-66723751D01*
X136482363Y-66723490D01*
X136484194Y-66722731D01*
X136491448Y-66721082D01*
X136634305Y-66673463D01*
X136647730Y-66667469D01*
X136649765Y-66665703D01*
X136652256Y-66664672D01*
X136663622Y-66655344D01*
X136711240Y-66607725D01*
X136720568Y-66596359D01*
X136727849Y-66578780D01*
X136731766Y-66569324D01*
X136733207Y-66554692D01*
X136733207Y-66221359D01*
X136731766Y-66206727D01*
X136720567Y-66179691D01*
X136699875Y-66158999D01*
X136672839Y-66147800D01*
X136658207Y-66146359D01*
X136467731Y-66146359D01*
X136453099Y-66147800D01*
X136426063Y-66158999D01*
X136405371Y-66179691D01*
X136394172Y-66206727D01*
X136394172Y-66235991D01*
X136405371Y-66263027D01*
X136426063Y-66283719D01*
X136453099Y-66294918D01*
X136467731Y-66296359D01*
X136583207Y-66296359D01*
X136583207Y-66523626D01*
X136570074Y-66536759D01*
X136455561Y-66574931D01*
X136384663Y-66574931D01*
X136270150Y-66536760D01*
X136196037Y-66462646D01*
X136157543Y-66385659D01*
X136114160Y-66212125D01*
X136114160Y-66087736D01*
X136157543Y-65914202D01*
X136196037Y-65837215D01*
X136270150Y-65763102D01*
X136384663Y-65724931D01*
X136497645Y-65724931D01*
X136577047Y-65764632D01*
X136590778Y-65769887D01*
X136619968Y-65771961D01*
X136647730Y-65762707D01*
X136669837Y-65743534D01*
X136682925Y-65717359D01*
X136684999Y-65688169D01*
X136675745Y-65660408D01*
X136666659Y-65649931D01*
X137011779Y-65649931D01*
X137011779Y-66649931D01*
X137013220Y-66664563D01*
X137024419Y-66691599D01*
X137045111Y-66712291D01*
X137072147Y-66723490D01*
X137101411Y-66723490D01*
X137128447Y-66712291D01*
X137149139Y-66691599D01*
X137160338Y-66664563D01*
X137161779Y-66649931D01*
X137161779Y-65932347D01*
X137593089Y-66687142D01*
X137595278Y-66690226D01*
X137595847Y-66691599D01*
X137597244Y-66692996D01*
X137601599Y-66699131D01*
X137609487Y-66705239D01*
X137616539Y-66712291D01*
X137620957Y-66714121D01*
X137624737Y-66717048D01*
X137634358Y-66719672D01*
X137643575Y-66723490D01*
X137648356Y-66723490D01*
X137652968Y-66724748D01*
X137662865Y-66723490D01*
X137672839Y-66723490D01*
X137677254Y-66721660D01*
X137681998Y-66721058D01*
X137690662Y-66716107D01*
X137699875Y-66712291D01*
X137703253Y-66708912D01*
X137707407Y-66706539D01*
X137713516Y-66698649D01*
X137720567Y-66691599D01*
X137722396Y-66687182D01*
X137725324Y-66683402D01*
X137727948Y-66673778D01*
X137731766Y-66664563D01*
X137732502Y-66657080D01*
X137733024Y-66655170D01*
X137732836Y-66653694D01*
X137733207Y-66649931D01*
X137733207Y-65649931D01*
X138059398Y-65649931D01*
X138059398Y-66649931D01*
X138060839Y-66664563D01*
X138072038Y-66691599D01*
X138092730Y-66712291D01*
X138119766Y-66723490D01*
X138134398Y-66724931D01*
X138372493Y-66724931D01*
X138379898Y-66724201D01*
X138381873Y-66724342D01*
X138384470Y-66723751D01*
X138387125Y-66723490D01*
X138388956Y-66722731D01*
X138396210Y-66721082D01*
X138539067Y-66673463D01*
X138552492Y-66667469D01*
X138554527Y-66665703D01*
X138557018Y-66664672D01*
X138568383Y-66655345D01*
X138663622Y-66560105D01*
X138668339Y-66554356D01*
X138669838Y-66553057D01*
X138671259Y-66550798D01*
X138672949Y-66548740D01*
X138673706Y-66546910D01*
X138677670Y-66540614D01*
X138725289Y-66445376D01*
X138725698Y-66444306D01*
X138726021Y-66443871D01*
X138728213Y-66437734D01*
X138730544Y-66431645D01*
X138730582Y-66431104D01*
X138730968Y-66430025D01*
X138778587Y-66239549D01*
X138778962Y-66237012D01*
X138779385Y-66235991D01*
X138779927Y-66230478D01*
X138780737Y-66225005D01*
X138780574Y-66223912D01*
X138780826Y-66221359D01*
X138780826Y-66078502D01*
X138780574Y-66075948D01*
X138780737Y-66074856D01*
X138779927Y-66069382D01*
X138779385Y-66063870D01*
X138778962Y-66062848D01*
X138778587Y-66060312D01*
X138730968Y-65869836D01*
X138730582Y-65868756D01*
X138730544Y-65868216D01*
X138728213Y-65862126D01*
X138726021Y-65855990D01*
X138725698Y-65855554D01*
X138725289Y-65854485D01*
X138677670Y-65759247D01*
X138673707Y-65752952D01*
X138672949Y-65751120D01*
X138671257Y-65749058D01*
X138669838Y-65746804D01*
X138668341Y-65745505D01*
X138663621Y-65739755D01*
X138568383Y-65644517D01*
X138557018Y-65635190D01*
X138554527Y-65634158D01*
X138552492Y-65632393D01*
X138539067Y-65626399D01*
X138396210Y-65578780D01*
X138388956Y-65577130D01*
X138387125Y-65576372D01*
X138384470Y-65576110D01*
X138381873Y-65575520D01*
X138379898Y-65575660D01*
X138372493Y-65574931D01*
X138134398Y-65574931D01*
X138119766Y-65576372D01*
X138092730Y-65587571D01*
X138072038Y-65608263D01*
X138060839Y-65635299D01*
X138059398Y-65649931D01*
X137733207Y-65649931D01*
X137731766Y-65635299D01*
X137720567Y-65608263D01*
X137699875Y-65587571D01*
X137672839Y-65576372D01*
X137643575Y-65576372D01*
X137616539Y-65587571D01*
X137595847Y-65608263D01*
X137584648Y-65635299D01*
X137583207Y-65649931D01*
X137583207Y-66367514D01*
X137151897Y-65612721D01*
X137149708Y-65609637D01*
X137149139Y-65608263D01*
X137147739Y-65606863D01*
X137143387Y-65600731D01*
X137135497Y-65594621D01*
X137128447Y-65587571D01*
X137124030Y-65585741D01*
X137120250Y-65582814D01*
X137110626Y-65580189D01*
X137101411Y-65576372D01*
X137096630Y-65576372D01*
X137092018Y-65575114D01*
X137082121Y-65576372D01*
X137072147Y-65576372D01*
X137067731Y-65578201D01*
X137062988Y-65578804D01*
X137054323Y-65583754D01*
X137045111Y-65587571D01*
X137041732Y-65590949D01*
X137037579Y-65593323D01*
X137031469Y-65601212D01*
X137024419Y-65608263D01*
X137022589Y-65612679D01*
X137019662Y-65616460D01*
X137017037Y-65626083D01*
X137013220Y-65635299D01*
X137012483Y-65642781D01*
X137011962Y-65644692D01*
X137012149Y-65646167D01*
X137011779Y-65649931D01*
X136666659Y-65649931D01*
X136656572Y-65638300D01*
X136644129Y-65630468D01*
X136548891Y-65582849D01*
X136535159Y-65577594D01*
X136532471Y-65577403D01*
X136529982Y-65576372D01*
X136515350Y-65574931D01*
X136372493Y-65574931D01*
X136365086Y-65575660D01*
X136363112Y-65575520D01*
X136360514Y-65576110D01*
X136357861Y-65576372D01*
X136356030Y-65577130D01*
X136348775Y-65578780D01*
X136205919Y-65626399D01*
X136192493Y-65632393D01*
X136190458Y-65634157D01*
X136187968Y-65635189D01*
X136176603Y-65644517D01*
X136081365Y-65739755D01*
X136076646Y-65745504D01*
X136075148Y-65746804D01*
X136073726Y-65749063D01*
X136072038Y-65751120D01*
X136071280Y-65752947D01*
X136067316Y-65759247D01*
X136019697Y-65854485D01*
X136019287Y-65855554D01*
X136018965Y-65855990D01*
X136016769Y-65862135D01*
X136014442Y-65868217D01*
X136014403Y-65868756D01*
X136014018Y-65869836D01*
X135966399Y-66060312D01*
X135966023Y-66062848D01*
X135965601Y-66063870D01*
X135965058Y-66069382D01*
X135964249Y-66074856D01*
X135964411Y-66075948D01*
X135964160Y-66078502D01*
X135759252Y-66078502D01*
X135759252Y-64468558D01*
X135964160Y-64468558D01*
X135964160Y-64611415D01*
X135964411Y-64613968D01*
X135964249Y-64615061D01*
X135965058Y-64620534D01*
X135965601Y-64626047D01*
X135966023Y-64627068D01*
X135966399Y-64629605D01*
X136014018Y-64820081D01*
X136014403Y-64821160D01*
X136014442Y-64821700D01*
X136016769Y-64827781D01*
X136018965Y-64833927D01*
X136019287Y-64834362D01*
X136019697Y-64835432D01*
X136067316Y-64930670D01*
X136071279Y-64936966D01*
X136072037Y-64938796D01*
X136073726Y-64940854D01*
X136075148Y-64943113D01*
X136076646Y-64944412D01*
X136081365Y-64950162D01*
X136176603Y-65045401D01*
X136187968Y-65054729D01*
X136190458Y-65055760D01*
X136192493Y-65057525D01*
X136205919Y-65063519D01*
X136348775Y-65111138D01*
X136356030Y-65112787D01*
X136357861Y-65113546D01*
X136360514Y-65113807D01*
X136363112Y-65114398D01*
X136365086Y-65114257D01*
X136372493Y-65114987D01*
X136467731Y-65114987D01*
X136475136Y-65114257D01*
X136477111Y-65114398D01*
X136479708Y-65113807D01*
X136482363Y-65113546D01*
X136484194Y-65112787D01*
X136491448Y-65111138D01*
X136634305Y-65063519D01*
X136647730Y-65057525D01*
X136649765Y-65055759D01*
X136652256Y-65054728D01*
X136663622Y-65045400D01*
X136711240Y-64997781D01*
X136720568Y-64986415D01*
X136727849Y-64968836D01*
X136731766Y-64959380D01*
X136733207Y-64944748D01*
X136733207Y-64611415D01*
X136731766Y-64596783D01*
X136720567Y-64569747D01*
X136699875Y-64549055D01*
X136672839Y-64537856D01*
X136658207Y-64536415D01*
X136467731Y-64536415D01*
X136453099Y-64537856D01*
X136426063Y-64549055D01*
X136405371Y-64569747D01*
X136394172Y-64596783D01*
X136394172Y-64626047D01*
X136405371Y-64653083D01*
X136426063Y-64673775D01*
X136453099Y-64684974D01*
X136467731Y-64686415D01*
X136583207Y-64686415D01*
X136583207Y-64913682D01*
X136570074Y-64926815D01*
X136455561Y-64964987D01*
X136384663Y-64964987D01*
X136270150Y-64926816D01*
X136196037Y-64852702D01*
X136157543Y-64775715D01*
X136114160Y-64602181D01*
X136114160Y-64477792D01*
X136157543Y-64304258D01*
X136196037Y-64227271D01*
X136270150Y-64153158D01*
X136384663Y-64114987D01*
X136497645Y-64114987D01*
X136577047Y-64154688D01*
X136590778Y-64159943D01*
X136619968Y-64162017D01*
X136647730Y-64152763D01*
X136669837Y-64133590D01*
X136682925Y-64107415D01*
X136684999Y-64078225D01*
X136675745Y-64050464D01*
X136666659Y-64039987D01*
X137011779Y-64039987D01*
X137011779Y-65039987D01*
X137013220Y-65054619D01*
X137024419Y-65081655D01*
X137045111Y-65102347D01*
X137072147Y-65113546D01*
X137101411Y-65113546D01*
X137128447Y-65102347D01*
X137149139Y-65081655D01*
X137160338Y-65054619D01*
X137161779Y-65039987D01*
X137161779Y-64322403D01*
X137593089Y-65077198D01*
X137595278Y-65080282D01*
X137595847Y-65081655D01*
X137597244Y-65083052D01*
X137601599Y-65089187D01*
X137609487Y-65095295D01*
X137616539Y-65102347D01*
X137620957Y-65104177D01*
X137624737Y-65107104D01*
X137634358Y-65109728D01*
X137643575Y-65113546D01*
X137648356Y-65113546D01*
X137652968Y-65114804D01*
X137662865Y-65113546D01*
X137672839Y-65113546D01*
X137677254Y-65111716D01*
X137681998Y-65111114D01*
X137690662Y-65106163D01*
X137699875Y-65102347D01*
X137703253Y-65098968D01*
X137707407Y-65096595D01*
X137713516Y-65088705D01*
X137720567Y-65081655D01*
X137722396Y-65077238D01*
X137725324Y-65073458D01*
X137727948Y-65063834D01*
X137731766Y-65054619D01*
X137732502Y-65047136D01*
X137733024Y-65045226D01*
X137732836Y-65043750D01*
X137733207Y-65039987D01*
X137733207Y-64039987D01*
X138059398Y-64039987D01*
X138059398Y-65039987D01*
X138060839Y-65054619D01*
X138072038Y-65081655D01*
X138092730Y-65102347D01*
X138119766Y-65113546D01*
X138134398Y-65114987D01*
X138372493Y-65114987D01*
X138379898Y-65114257D01*
X138381873Y-65114398D01*
X138384470Y-65113807D01*
X138387125Y-65113546D01*
X138388956Y-65112787D01*
X138396210Y-65111138D01*
X138539067Y-65063519D01*
X138552492Y-65057525D01*
X138554527Y-65055759D01*
X138557018Y-65054728D01*
X138568383Y-65045401D01*
X138663622Y-64950161D01*
X138668339Y-64944412D01*
X138669838Y-64943113D01*
X138671259Y-64940854D01*
X138672949Y-64938796D01*
X138673706Y-64936966D01*
X138677670Y-64930670D01*
X138725289Y-64835432D01*
X138725698Y-64834362D01*
X138726021Y-64833927D01*
X138728213Y-64827790D01*
X138730544Y-64821701D01*
X138730582Y-64821160D01*
X138730968Y-64820081D01*
X138778587Y-64629605D01*
X138778962Y-64627068D01*
X138779385Y-64626047D01*
X138779927Y-64620534D01*
X138780737Y-64615061D01*
X138780574Y-64613968D01*
X138780826Y-64611415D01*
X138780826Y-64468558D01*
X138780574Y-64466004D01*
X138780737Y-64464912D01*
X138779927Y-64459438D01*
X138779385Y-64453926D01*
X138778962Y-64452904D01*
X138778587Y-64450368D01*
X138730968Y-64259892D01*
X138730582Y-64258812D01*
X138730544Y-64258272D01*
X138728213Y-64252182D01*
X138726021Y-64246046D01*
X138725698Y-64245610D01*
X138725289Y-64244541D01*
X138677670Y-64149303D01*
X138673707Y-64143008D01*
X138672949Y-64141176D01*
X138671257Y-64139114D01*
X138669838Y-64136860D01*
X138668341Y-64135561D01*
X138663621Y-64129811D01*
X138568383Y-64034573D01*
X138557018Y-64025246D01*
X138554527Y-64024214D01*
X138552492Y-64022449D01*
X138539067Y-64016455D01*
X138396210Y-63968836D01*
X138388956Y-63967186D01*
X138387125Y-63966428D01*
X138384470Y-63966166D01*
X138381873Y-63965576D01*
X138379898Y-63965716D01*
X138372493Y-63964987D01*
X138134398Y-63964987D01*
X138119766Y-63966428D01*
X138092730Y-63977627D01*
X138072038Y-63998319D01*
X138060839Y-64025355D01*
X138059398Y-64039987D01*
X137733207Y-64039987D01*
X137731766Y-64025355D01*
X137720567Y-63998319D01*
X137699875Y-63977627D01*
X137672839Y-63966428D01*
X137643575Y-63966428D01*
X137616539Y-63977627D01*
X137595847Y-63998319D01*
X137584648Y-64025355D01*
X137583207Y-64039987D01*
X137583207Y-64757570D01*
X137151897Y-64002777D01*
X137149708Y-63999693D01*
X137149139Y-63998319D01*
X137147739Y-63996919D01*
X137143387Y-63990787D01*
X137135497Y-63984677D01*
X137128447Y-63977627D01*
X137124030Y-63975797D01*
X137120250Y-63972870D01*
X137110626Y-63970245D01*
X137101411Y-63966428D01*
X137096630Y-63966428D01*
X137092018Y-63965170D01*
X137082121Y-63966428D01*
X137072147Y-63966428D01*
X137067731Y-63968257D01*
X137062988Y-63968860D01*
X137054323Y-63973810D01*
X137045111Y-63977627D01*
X137041732Y-63981005D01*
X137037579Y-63983379D01*
X137031469Y-63991268D01*
X137024419Y-63998319D01*
X137022589Y-64002735D01*
X137019662Y-64006516D01*
X137017037Y-64016139D01*
X137013220Y-64025355D01*
X137012483Y-64032837D01*
X137011962Y-64034748D01*
X137012149Y-64036223D01*
X137011779Y-64039987D01*
X136666659Y-64039987D01*
X136656572Y-64028356D01*
X136644129Y-64020524D01*
X136548891Y-63972905D01*
X136535159Y-63967650D01*
X136532471Y-63967459D01*
X136529982Y-63966428D01*
X136515350Y-63964987D01*
X136372493Y-63964987D01*
X136365086Y-63965716D01*
X136363112Y-63965576D01*
X136360514Y-63966166D01*
X136357861Y-63966428D01*
X136356030Y-63967186D01*
X136348775Y-63968836D01*
X136205919Y-64016455D01*
X136192493Y-64022449D01*
X136190458Y-64024213D01*
X136187968Y-64025245D01*
X136176603Y-64034573D01*
X136081365Y-64129811D01*
X136076646Y-64135560D01*
X136075148Y-64136860D01*
X136073726Y-64139119D01*
X136072038Y-64141176D01*
X136071280Y-64143003D01*
X136067316Y-64149303D01*
X136019697Y-64244541D01*
X136019287Y-64245610D01*
X136018965Y-64246046D01*
X136016769Y-64252191D01*
X136014442Y-64258273D01*
X136014403Y-64258812D01*
X136014018Y-64259892D01*
X135966399Y-64450368D01*
X135966023Y-64452904D01*
X135965601Y-64453926D01*
X135965058Y-64459438D01*
X135964249Y-64464912D01*
X135964411Y-64466004D01*
X135964160Y-64468558D01*
X135759252Y-64468558D01*
X135759252Y-63853876D01*
X138891937Y-63853876D01*
X138891937Y-70055930D01*
G37*
G36*
X108767556Y-73499823D02*
G01*
X108796077Y-73556865D01*
X108796077Y-73777255D01*
X108797518Y-73791887D01*
X108798549Y-73794376D01*
X108798740Y-73797064D01*
X108798904Y-73797493D01*
X108584096Y-73797493D01*
X108565124Y-73759548D01*
X108565124Y-73556866D01*
X108593645Y-73499823D01*
X108650687Y-73471303D01*
X108710515Y-73471303D01*
X108767556Y-73499823D01*
G37*
G36*
X109676235Y-75963366D02*
G01*
X108304013Y-75963366D01*
X108304013Y-75158208D01*
X108415124Y-75158208D01*
X108415124Y-75777255D01*
X108416565Y-75791887D01*
X108427764Y-75818923D01*
X108448456Y-75839615D01*
X108475492Y-75850814D01*
X108504756Y-75850814D01*
X108531792Y-75839615D01*
X108552484Y-75818923D01*
X108563683Y-75791887D01*
X108565124Y-75777255D01*
X108565124Y-75339273D01*
X109008520Y-75782669D01*
X109019885Y-75791997D01*
X109022375Y-75793028D01*
X109024410Y-75794793D01*
X109037836Y-75800787D01*
X109180692Y-75848406D01*
X109187947Y-75850055D01*
X109189778Y-75850814D01*
X109192431Y-75851075D01*
X109195029Y-75851666D01*
X109197003Y-75851525D01*
X109204410Y-75852255D01*
X109299648Y-75852255D01*
X109314280Y-75850814D01*
X109316769Y-75849782D01*
X109319457Y-75849592D01*
X109333189Y-75844337D01*
X109428427Y-75796718D01*
X109434726Y-75792753D01*
X109436554Y-75791996D01*
X109438610Y-75790307D01*
X109440870Y-75788886D01*
X109442169Y-75787387D01*
X109447919Y-75782669D01*
X109495538Y-75735050D01*
X109500256Y-75729300D01*
X109501755Y-75728001D01*
X109503176Y-75725741D01*
X109504865Y-75723685D01*
X109505622Y-75721857D01*
X109509587Y-75715558D01*
X109557206Y-75620320D01*
X109562461Y-75606589D01*
X109562652Y-75603899D01*
X109563683Y-75601411D01*
X109565124Y-75586779D01*
X109565124Y-75348684D01*
X109563683Y-75334052D01*
X109562652Y-75331563D01*
X109562461Y-75328874D01*
X109557206Y-75315143D01*
X109509587Y-75219905D01*
X109505622Y-75213605D01*
X109504865Y-75211778D01*
X109503176Y-75209721D01*
X109501755Y-75207462D01*
X109500256Y-75206162D01*
X109495538Y-75200413D01*
X109447919Y-75152794D01*
X109436554Y-75143467D01*
X109409517Y-75132268D01*
X109380255Y-75132268D01*
X109353218Y-75143467D01*
X109332526Y-75164159D01*
X109321327Y-75191196D01*
X109321327Y-75220458D01*
X109332526Y-75247495D01*
X109341853Y-75258860D01*
X109380866Y-75297873D01*
X109415124Y-75366389D01*
X109415124Y-75569074D01*
X109380866Y-75637590D01*
X109350459Y-75667997D01*
X109281943Y-75702255D01*
X109216580Y-75702255D01*
X109102066Y-75664083D01*
X108543157Y-75105175D01*
X108531792Y-75095848D01*
X108504756Y-75084649D01*
X108475492Y-75084649D01*
X108448456Y-75095848D01*
X108427764Y-75116540D01*
X108416565Y-75143576D01*
X108415124Y-75158208D01*
X108304013Y-75158208D01*
X108304013Y-74334052D01*
X108416565Y-74334052D01*
X108416565Y-74363316D01*
X108427764Y-74390352D01*
X108448456Y-74411044D01*
X108475492Y-74422243D01*
X108490124Y-74423684D01*
X109030487Y-74423684D01*
X109047533Y-74440730D01*
X109081791Y-74509246D01*
X109081791Y-74616693D01*
X109053270Y-74673734D01*
X108996229Y-74702255D01*
X108490124Y-74702255D01*
X108475492Y-74703696D01*
X108448456Y-74714895D01*
X108427764Y-74735587D01*
X108416565Y-74762623D01*
X108416565Y-74791887D01*
X108427764Y-74818923D01*
X108448456Y-74839615D01*
X108475492Y-74850814D01*
X108490124Y-74852255D01*
X109013934Y-74852255D01*
X109028566Y-74850814D01*
X109031055Y-74849782D01*
X109033743Y-74849592D01*
X109047475Y-74844337D01*
X109142713Y-74796718D01*
X109145160Y-74795177D01*
X109146314Y-74794793D01*
X109147750Y-74793547D01*
X109155156Y-74788886D01*
X109161317Y-74781781D01*
X109168422Y-74775620D01*
X109173083Y-74768214D01*
X109174329Y-74766778D01*
X109174713Y-74765624D01*
X109176254Y-74763177D01*
X109223873Y-74667939D01*
X109229128Y-74654208D01*
X109229319Y-74651518D01*
X109230350Y-74649030D01*
X109231791Y-74634398D01*
X109231791Y-74491541D01*
X109230350Y-74476909D01*
X109229319Y-74474420D01*
X109229128Y-74471731D01*
X109223873Y-74458000D01*
X109199749Y-74409753D01*
X109219151Y-74390352D01*
X109230350Y-74363316D01*
X109230350Y-74334052D01*
X109219151Y-74307016D01*
X109198459Y-74286324D01*
X109171423Y-74275125D01*
X109156791Y-74273684D01*
X108490124Y-74273684D01*
X108475492Y-74275125D01*
X108448456Y-74286324D01*
X108427764Y-74307016D01*
X108416565Y-74334052D01*
X108304013Y-74334052D01*
X108304013Y-73539160D01*
X108415124Y-73539160D01*
X108415124Y-73777255D01*
X108416565Y-73791887D01*
X108417595Y-73794375D01*
X108417787Y-73797065D01*
X108423042Y-73810797D01*
X108431292Y-73827296D01*
X108427764Y-73830825D01*
X108416565Y-73857861D01*
X108416565Y-73887125D01*
X108427764Y-73914161D01*
X108448456Y-73934853D01*
X108475492Y-73946052D01*
X108490124Y-73947493D01*
X109013934Y-73947493D01*
X109028566Y-73946052D01*
X109031055Y-73945020D01*
X109033743Y-73944830D01*
X109047475Y-73939575D01*
X109142713Y-73891956D01*
X109145160Y-73890415D01*
X109146314Y-73890031D01*
X109147750Y-73888785D01*
X109155156Y-73884124D01*
X109161317Y-73877019D01*
X109168422Y-73870858D01*
X109173083Y-73863452D01*
X109174329Y-73862016D01*
X109174713Y-73860862D01*
X109176254Y-73858415D01*
X109223873Y-73763177D01*
X109229128Y-73749446D01*
X109229319Y-73746756D01*
X109230350Y-73744268D01*
X109231791Y-73729636D01*
X109231791Y-73539160D01*
X109230350Y-73524528D01*
X109229319Y-73522039D01*
X109229128Y-73519350D01*
X109223873Y-73505619D01*
X109176254Y-73410381D01*
X109168422Y-73397938D01*
X109146314Y-73378765D01*
X109118553Y-73369511D01*
X109089363Y-73371585D01*
X109063188Y-73384672D01*
X109044015Y-73406780D01*
X109034761Y-73434541D01*
X109036835Y-73463731D01*
X109042090Y-73477463D01*
X109081791Y-73556865D01*
X109081791Y-73711931D01*
X109053270Y-73768972D01*
X108996229Y-73797493D01*
X108965048Y-73797493D01*
X108946077Y-73759550D01*
X108946077Y-73539160D01*
X108944636Y-73524528D01*
X108943605Y-73522039D01*
X108943414Y-73519350D01*
X108938159Y-73505619D01*
X108890540Y-73410381D01*
X108888999Y-73407933D01*
X108888615Y-73406780D01*
X108887369Y-73405343D01*
X108882708Y-73397938D01*
X108875603Y-73391776D01*
X108869442Y-73384672D01*
X108862036Y-73380010D01*
X108860600Y-73378765D01*
X108859446Y-73378380D01*
X108856999Y-73376840D01*
X108761761Y-73329221D01*
X108748029Y-73323966D01*
X108745341Y-73323775D01*
X108742852Y-73322744D01*
X108728220Y-73321303D01*
X108632982Y-73321303D01*
X108618350Y-73322744D01*
X108615861Y-73323774D01*
X108613172Y-73323966D01*
X108599441Y-73329221D01*
X108504203Y-73376840D01*
X108501757Y-73378379D01*
X108500603Y-73378764D01*
X108499165Y-73380011D01*
X108491760Y-73384672D01*
X108485599Y-73391776D01*
X108478495Y-73397937D01*
X108473831Y-73405344D01*
X108472587Y-73406780D01*
X108472202Y-73407932D01*
X108470662Y-73410380D01*
X108423042Y-73505618D01*
X108417787Y-73519350D01*
X108417595Y-73522039D01*
X108416565Y-73524528D01*
X108415124Y-73539160D01*
X108304013Y-73539160D01*
X108304013Y-72572147D01*
X108416565Y-72572147D01*
X108416565Y-72601411D01*
X108427764Y-72628447D01*
X108448456Y-72649139D01*
X108475492Y-72660338D01*
X108490124Y-72661779D01*
X108938934Y-72661779D01*
X108938934Y-72920112D01*
X108940375Y-72934744D01*
X108951574Y-72961780D01*
X108972266Y-72982472D01*
X108999302Y-72993671D01*
X109028566Y-72993671D01*
X109055602Y-72982472D01*
X109076294Y-72961780D01*
X109087493Y-72934744D01*
X109088934Y-72920112D01*
X109088934Y-72661779D01*
X109415124Y-72661779D01*
X109415124Y-73062969D01*
X109416565Y-73077601D01*
X109427764Y-73104637D01*
X109448456Y-73125329D01*
X109475492Y-73136528D01*
X109504756Y-73136528D01*
X109531792Y-73125329D01*
X109552484Y-73104637D01*
X109563683Y-73077601D01*
X109565124Y-73062969D01*
X109565124Y-72586779D01*
X109563683Y-72572147D01*
X109552484Y-72545111D01*
X109531792Y-72524419D01*
X109504756Y-72513220D01*
X109490124Y-72511779D01*
X108490124Y-72511779D01*
X108475492Y-72513220D01*
X108448456Y-72524419D01*
X108427764Y-72545111D01*
X108416565Y-72572147D01*
X108304013Y-72572147D01*
X108304013Y-72400668D01*
X109676235Y-72400668D01*
X109676235Y-75963366D01*
G37*
X116238095Y-67954819D02*
X116238095Y-68764342D01*
X116238095Y-68764342D02*
X116285714Y-68859580D01*
X116285714Y-68859580D02*
X116333333Y-68907200D01*
X116333333Y-68907200D02*
X116428571Y-68954819D01*
X116428571Y-68954819D02*
X116619047Y-68954819D01*
X116619047Y-68954819D02*
X116714285Y-68907200D01*
X116714285Y-68907200D02*
X116761904Y-68859580D01*
X116761904Y-68859580D02*
X116809523Y-68764342D01*
X116809523Y-68764342D02*
X116809523Y-67954819D01*
X117190476Y-67954819D02*
X117809523Y-67954819D01*
X117809523Y-67954819D02*
X117476190Y-68335771D01*
X117476190Y-68335771D02*
X117619047Y-68335771D01*
X117619047Y-68335771D02*
X117714285Y-68383390D01*
X117714285Y-68383390D02*
X117761904Y-68431009D01*
X117761904Y-68431009D02*
X117809523Y-68526247D01*
X117809523Y-68526247D02*
X117809523Y-68764342D01*
X117809523Y-68764342D02*
X117761904Y-68859580D01*
X117761904Y-68859580D02*
X117714285Y-68907200D01*
X117714285Y-68907200D02*
X117619047Y-68954819D01*
X117619047Y-68954819D02*
X117333333Y-68954819D01*
X117333333Y-68954819D02*
X117238095Y-68907200D01*
X117238095Y-68907200D02*
X117190476Y-68859580D01*
X133583333Y-66454819D02*
X133250000Y-65978628D01*
X133011905Y-66454819D02*
X133011905Y-65454819D01*
X133011905Y-65454819D02*
X133392857Y-65454819D01*
X133392857Y-65454819D02*
X133488095Y-65502438D01*
X133488095Y-65502438D02*
X133535714Y-65550057D01*
X133535714Y-65550057D02*
X133583333Y-65645295D01*
X133583333Y-65645295D02*
X133583333Y-65788152D01*
X133583333Y-65788152D02*
X133535714Y-65883390D01*
X133535714Y-65883390D02*
X133488095Y-65931009D01*
X133488095Y-65931009D02*
X133392857Y-65978628D01*
X133392857Y-65978628D02*
X133011905Y-65978628D01*
X133964286Y-65550057D02*
X134011905Y-65502438D01*
X134011905Y-65502438D02*
X134107143Y-65454819D01*
X134107143Y-65454819D02*
X134345238Y-65454819D01*
X134345238Y-65454819D02*
X134440476Y-65502438D01*
X134440476Y-65502438D02*
X134488095Y-65550057D01*
X134488095Y-65550057D02*
X134535714Y-65645295D01*
X134535714Y-65645295D02*
X134535714Y-65740533D01*
X134535714Y-65740533D02*
X134488095Y-65883390D01*
X134488095Y-65883390D02*
X133916667Y-66454819D01*
X133916667Y-66454819D02*
X134535714Y-66454819D01*
X124238095Y-55204819D02*
X124238095Y-56014342D01*
X124238095Y-56014342D02*
X124285714Y-56109580D01*
X124285714Y-56109580D02*
X124333333Y-56157200D01*
X124333333Y-56157200D02*
X124428571Y-56204819D01*
X124428571Y-56204819D02*
X124619047Y-56204819D01*
X124619047Y-56204819D02*
X124714285Y-56157200D01*
X124714285Y-56157200D02*
X124761904Y-56109580D01*
X124761904Y-56109580D02*
X124809523Y-56014342D01*
X124809523Y-56014342D02*
X124809523Y-55204819D01*
X125238095Y-55300057D02*
X125285714Y-55252438D01*
X125285714Y-55252438D02*
X125380952Y-55204819D01*
X125380952Y-55204819D02*
X125619047Y-55204819D01*
X125619047Y-55204819D02*
X125714285Y-55252438D01*
X125714285Y-55252438D02*
X125761904Y-55300057D01*
X125761904Y-55300057D02*
X125809523Y-55395295D01*
X125809523Y-55395295D02*
X125809523Y-55490533D01*
X125809523Y-55490533D02*
X125761904Y-55633390D01*
X125761904Y-55633390D02*
X125190476Y-56204819D01*
X125190476Y-56204819D02*
X125809523Y-56204819D01*
X122738095Y-78454819D02*
X122738095Y-79264342D01*
X122738095Y-79264342D02*
X122785714Y-79359580D01*
X122785714Y-79359580D02*
X122833333Y-79407200D01*
X122833333Y-79407200D02*
X122928571Y-79454819D01*
X122928571Y-79454819D02*
X123119047Y-79454819D01*
X123119047Y-79454819D02*
X123214285Y-79407200D01*
X123214285Y-79407200D02*
X123261904Y-79359580D01*
X123261904Y-79359580D02*
X123309523Y-79264342D01*
X123309523Y-79264342D02*
X123309523Y-78454819D01*
X124214285Y-78788152D02*
X124214285Y-79454819D01*
X123976190Y-78407200D02*
X123738095Y-79121485D01*
X123738095Y-79121485D02*
X124357142Y-79121485D01*
X130633333Y-71454819D02*
X130300000Y-70978628D01*
X130061905Y-71454819D02*
X130061905Y-70454819D01*
X130061905Y-70454819D02*
X130442857Y-70454819D01*
X130442857Y-70454819D02*
X130538095Y-70502438D01*
X130538095Y-70502438D02*
X130585714Y-70550057D01*
X130585714Y-70550057D02*
X130633333Y-70645295D01*
X130633333Y-70645295D02*
X130633333Y-70788152D01*
X130633333Y-70788152D02*
X130585714Y-70883390D01*
X130585714Y-70883390D02*
X130538095Y-70931009D01*
X130538095Y-70931009D02*
X130442857Y-70978628D01*
X130442857Y-70978628D02*
X130061905Y-70978628D01*
X131585714Y-71454819D02*
X131014286Y-71454819D01*
X131300000Y-71454819D02*
X131300000Y-70454819D01*
X131300000Y-70454819D02*
X131204762Y-70597676D01*
X131204762Y-70597676D02*
X131109524Y-70692914D01*
X131109524Y-70692914D02*
X131014286Y-70740533D01*
X133583333Y-53759580D02*
X133535714Y-53807200D01*
X133535714Y-53807200D02*
X133392857Y-53854819D01*
X133392857Y-53854819D02*
X133297619Y-53854819D01*
X133297619Y-53854819D02*
X133154762Y-53807200D01*
X133154762Y-53807200D02*
X133059524Y-53711961D01*
X133059524Y-53711961D02*
X133011905Y-53616723D01*
X133011905Y-53616723D02*
X132964286Y-53426247D01*
X132964286Y-53426247D02*
X132964286Y-53283390D01*
X132964286Y-53283390D02*
X133011905Y-53092914D01*
X133011905Y-53092914D02*
X133059524Y-52997676D01*
X133059524Y-52997676D02*
X133154762Y-52902438D01*
X133154762Y-52902438D02*
X133297619Y-52854819D01*
X133297619Y-52854819D02*
X133392857Y-52854819D01*
X133392857Y-52854819D02*
X133535714Y-52902438D01*
X133535714Y-52902438D02*
X133583333Y-52950057D01*
X134440476Y-52854819D02*
X134250000Y-52854819D01*
X134250000Y-52854819D02*
X134154762Y-52902438D01*
X134154762Y-52902438D02*
X134107143Y-52950057D01*
X134107143Y-52950057D02*
X134011905Y-53092914D01*
X134011905Y-53092914D02*
X133964286Y-53283390D01*
X133964286Y-53283390D02*
X133964286Y-53664342D01*
X133964286Y-53664342D02*
X134011905Y-53759580D01*
X134011905Y-53759580D02*
X134059524Y-53807200D01*
X134059524Y-53807200D02*
X134154762Y-53854819D01*
X134154762Y-53854819D02*
X134345238Y-53854819D01*
X134345238Y-53854819D02*
X134440476Y-53807200D01*
X134440476Y-53807200D02*
X134488095Y-53759580D01*
X134488095Y-53759580D02*
X134535714Y-53664342D01*
X134535714Y-53664342D02*
X134535714Y-53426247D01*
X134535714Y-53426247D02*
X134488095Y-53331009D01*
X134488095Y-53331009D02*
X134440476Y-53283390D01*
X134440476Y-53283390D02*
X134345238Y-53235771D01*
X134345238Y-53235771D02*
X134154762Y-53235771D01*
X134154762Y-53235771D02*
X134059524Y-53283390D01*
X134059524Y-53283390D02*
X134011905Y-53331009D01*
X134011905Y-53331009D02*
X133964286Y-53426247D01*
X110466666Y-73654819D02*
X110466666Y-74369104D01*
X110466666Y-74369104D02*
X110419047Y-74511961D01*
X110419047Y-74511961D02*
X110323809Y-74607200D01*
X110323809Y-74607200D02*
X110180952Y-74654819D01*
X110180952Y-74654819D02*
X110085714Y-74654819D01*
X111085714Y-74083390D02*
X110990476Y-74035771D01*
X110990476Y-74035771D02*
X110942857Y-73988152D01*
X110942857Y-73988152D02*
X110895238Y-73892914D01*
X110895238Y-73892914D02*
X110895238Y-73845295D01*
X110895238Y-73845295D02*
X110942857Y-73750057D01*
X110942857Y-73750057D02*
X110990476Y-73702438D01*
X110990476Y-73702438D02*
X111085714Y-73654819D01*
X111085714Y-73654819D02*
X111276190Y-73654819D01*
X111276190Y-73654819D02*
X111371428Y-73702438D01*
X111371428Y-73702438D02*
X111419047Y-73750057D01*
X111419047Y-73750057D02*
X111466666Y-73845295D01*
X111466666Y-73845295D02*
X111466666Y-73892914D01*
X111466666Y-73892914D02*
X111419047Y-73988152D01*
X111419047Y-73988152D02*
X111371428Y-74035771D01*
X111371428Y-74035771D02*
X111276190Y-74083390D01*
X111276190Y-74083390D02*
X111085714Y-74083390D01*
X111085714Y-74083390D02*
X110990476Y-74131009D01*
X110990476Y-74131009D02*
X110942857Y-74178628D01*
X110942857Y-74178628D02*
X110895238Y-74273866D01*
X110895238Y-74273866D02*
X110895238Y-74464342D01*
X110895238Y-74464342D02*
X110942857Y-74559580D01*
X110942857Y-74559580D02*
X110990476Y-74607200D01*
X110990476Y-74607200D02*
X111085714Y-74654819D01*
X111085714Y-74654819D02*
X111276190Y-74654819D01*
X111276190Y-74654819D02*
X111371428Y-74607200D01*
X111371428Y-74607200D02*
X111419047Y-74559580D01*
X111419047Y-74559580D02*
X111466666Y-74464342D01*
X111466666Y-74464342D02*
X111466666Y-74273866D01*
X111466666Y-74273866D02*
X111419047Y-74178628D01*
X111419047Y-74178628D02*
X111371428Y-74131009D01*
X111371428Y-74131009D02*
X111276190Y-74083390D01*
X122459580Y-56166666D02*
X122507200Y-56214285D01*
X122507200Y-56214285D02*
X122554819Y-56357142D01*
X122554819Y-56357142D02*
X122554819Y-56452380D01*
X122554819Y-56452380D02*
X122507200Y-56595237D01*
X122507200Y-56595237D02*
X122411961Y-56690475D01*
X122411961Y-56690475D02*
X122316723Y-56738094D01*
X122316723Y-56738094D02*
X122126247Y-56785713D01*
X122126247Y-56785713D02*
X121983390Y-56785713D01*
X121983390Y-56785713D02*
X121792914Y-56738094D01*
X121792914Y-56738094D02*
X121697676Y-56690475D01*
X121697676Y-56690475D02*
X121602438Y-56595237D01*
X121602438Y-56595237D02*
X121554819Y-56452380D01*
X121554819Y-56452380D02*
X121554819Y-56357142D01*
X121554819Y-56357142D02*
X121602438Y-56214285D01*
X121602438Y-56214285D02*
X121650057Y-56166666D01*
X122554819Y-55214285D02*
X122554819Y-55785713D01*
X122554819Y-55499999D02*
X121554819Y-55499999D01*
X121554819Y-55499999D02*
X121697676Y-55595237D01*
X121697676Y-55595237D02*
X121792914Y-55690475D01*
X121792914Y-55690475D02*
X121840533Y-55785713D01*
X129833333Y-62454819D02*
X129500000Y-61978628D01*
X129261905Y-62454819D02*
X129261905Y-61454819D01*
X129261905Y-61454819D02*
X129642857Y-61454819D01*
X129642857Y-61454819D02*
X129738095Y-61502438D01*
X129738095Y-61502438D02*
X129785714Y-61550057D01*
X129785714Y-61550057D02*
X129833333Y-61645295D01*
X129833333Y-61645295D02*
X129833333Y-61788152D01*
X129833333Y-61788152D02*
X129785714Y-61883390D01*
X129785714Y-61883390D02*
X129738095Y-61931009D01*
X129738095Y-61931009D02*
X129642857Y-61978628D01*
X129642857Y-61978628D02*
X129261905Y-61978628D01*
X130166667Y-61454819D02*
X130785714Y-61454819D01*
X130785714Y-61454819D02*
X130452381Y-61835771D01*
X130452381Y-61835771D02*
X130595238Y-61835771D01*
X130595238Y-61835771D02*
X130690476Y-61883390D01*
X130690476Y-61883390D02*
X130738095Y-61931009D01*
X130738095Y-61931009D02*
X130785714Y-62026247D01*
X130785714Y-62026247D02*
X130785714Y-62264342D01*
X130785714Y-62264342D02*
X130738095Y-62359580D01*
X130738095Y-62359580D02*
X130690476Y-62407200D01*
X130690476Y-62407200D02*
X130595238Y-62454819D01*
X130595238Y-62454819D02*
X130309524Y-62454819D01*
X130309524Y-62454819D02*
X130214286Y-62407200D01*
X130214286Y-62407200D02*
X130166667Y-62359580D01*
X109333333Y-78204819D02*
X109000000Y-77728628D01*
X108761905Y-78204819D02*
X108761905Y-77204819D01*
X108761905Y-77204819D02*
X109142857Y-77204819D01*
X109142857Y-77204819D02*
X109238095Y-77252438D01*
X109238095Y-77252438D02*
X109285714Y-77300057D01*
X109285714Y-77300057D02*
X109333333Y-77395295D01*
X109333333Y-77395295D02*
X109333333Y-77538152D01*
X109333333Y-77538152D02*
X109285714Y-77633390D01*
X109285714Y-77633390D02*
X109238095Y-77681009D01*
X109238095Y-77681009D02*
X109142857Y-77728628D01*
X109142857Y-77728628D02*
X108761905Y-77728628D01*
X110238095Y-77204819D02*
X109761905Y-77204819D01*
X109761905Y-77204819D02*
X109714286Y-77681009D01*
X109714286Y-77681009D02*
X109761905Y-77633390D01*
X109761905Y-77633390D02*
X109857143Y-77585771D01*
X109857143Y-77585771D02*
X110095238Y-77585771D01*
X110095238Y-77585771D02*
X110190476Y-77633390D01*
X110190476Y-77633390D02*
X110238095Y-77681009D01*
X110238095Y-77681009D02*
X110285714Y-77776247D01*
X110285714Y-77776247D02*
X110285714Y-78014342D01*
X110285714Y-78014342D02*
X110238095Y-78109580D01*
X110238095Y-78109580D02*
X110190476Y-78157200D01*
X110190476Y-78157200D02*
X110095238Y-78204819D01*
X110095238Y-78204819D02*
X109857143Y-78204819D01*
X109857143Y-78204819D02*
X109761905Y-78157200D01*
X109761905Y-78157200D02*
X109714286Y-78109580D01*
X116733333Y-62792319D02*
X116400000Y-62316128D01*
X116161905Y-62792319D02*
X116161905Y-61792319D01*
X116161905Y-61792319D02*
X116542857Y-61792319D01*
X116542857Y-61792319D02*
X116638095Y-61839938D01*
X116638095Y-61839938D02*
X116685714Y-61887557D01*
X116685714Y-61887557D02*
X116733333Y-61982795D01*
X116733333Y-61982795D02*
X116733333Y-62125652D01*
X116733333Y-62125652D02*
X116685714Y-62220890D01*
X116685714Y-62220890D02*
X116638095Y-62268509D01*
X116638095Y-62268509D02*
X116542857Y-62316128D01*
X116542857Y-62316128D02*
X116161905Y-62316128D01*
X117590476Y-62125652D02*
X117590476Y-62792319D01*
X117352381Y-61744700D02*
X117114286Y-62458985D01*
X117114286Y-62458985D02*
X117733333Y-62458985D01*
X133861905Y-65054819D02*
X133861905Y-64054819D01*
X133861905Y-64054819D02*
X134100000Y-64054819D01*
X134100000Y-64054819D02*
X134242857Y-64102438D01*
X134242857Y-64102438D02*
X134338095Y-64197676D01*
X134338095Y-64197676D02*
X134385714Y-64292914D01*
X134385714Y-64292914D02*
X134433333Y-64483390D01*
X134433333Y-64483390D02*
X134433333Y-64626247D01*
X134433333Y-64626247D02*
X134385714Y-64816723D01*
X134385714Y-64816723D02*
X134338095Y-64911961D01*
X134338095Y-64911961D02*
X134242857Y-65007200D01*
X134242857Y-65007200D02*
X134100000Y-65054819D01*
X134100000Y-65054819D02*
X133861905Y-65054819D01*
X135385714Y-65054819D02*
X134814286Y-65054819D01*
X135100000Y-65054819D02*
X135100000Y-64054819D01*
X135100000Y-64054819D02*
X135004762Y-64197676D01*
X135004762Y-64197676D02*
X134909524Y-64292914D01*
X134909524Y-64292914D02*
X134814286Y-64340533D01*
D11*
%TO.C,J3*%
X107900000Y-84850000D02*
X101900000Y-84850000D01*
X107900000Y-74550000D02*
X107900000Y-84850000D01*
X107800000Y-83500000D02*
X106790000Y-83500000D01*
X106790000Y-83500000D02*
X106790000Y-78420000D01*
X106790000Y-78420000D02*
X107800000Y-78420000D01*
X101950000Y-77750000D02*
X101950000Y-74550000D01*
X101950000Y-74550000D02*
X107900000Y-74550000D01*
X101900000Y-84850000D02*
X101900000Y-79100000D01*
%TO.C,J4*%
X107900000Y-72850000D02*
X101900000Y-72850000D01*
X107900000Y-62550000D02*
X107900000Y-72850000D01*
X107800000Y-71500000D02*
X106790000Y-71500000D01*
X106790000Y-71500000D02*
X106790000Y-66420000D01*
X106790000Y-66420000D02*
X107800000Y-66420000D01*
X101950000Y-65750000D02*
X101950000Y-62550000D01*
X101950000Y-62550000D02*
X107900000Y-62550000D01*
X101900000Y-72850000D02*
X101900000Y-67100000D01*
%TO.C,U3*%
X110530000Y-70850000D02*
X110200000Y-71090000D01*
X110200000Y-70610000D01*
X110530000Y-70850000D01*
G36*
X110530000Y-70850000D02*
G01*
X110200000Y-71090000D01*
X110200000Y-70610000D01*
X110530000Y-70850000D01*
G37*
X115560000Y-70310000D02*
X115465000Y-70310000D01*
X115560000Y-66190000D02*
X115560000Y-70310000D01*
X115465000Y-66190000D02*
X115560000Y-66190000D01*
X110535000Y-70310000D02*
X110440000Y-70310000D01*
X110440000Y-70310000D02*
X110440000Y-66190000D01*
X110440000Y-66190000D02*
X110535000Y-66190000D01*
%TO.C,R2*%
X131015000Y-65772936D02*
X131015000Y-66227064D01*
X132485000Y-65772936D02*
X132485000Y-66227064D01*
%TO.C,J7*%
X134120000Y-70790000D02*
X135500000Y-70790000D01*
X134120000Y-72170000D02*
X134120000Y-70790000D01*
X134120000Y-73440000D02*
X134120000Y-81170000D01*
X134120000Y-73440000D02*
X136880000Y-73440000D01*
X134120000Y-81170000D02*
X136880000Y-81170000D01*
X136880000Y-73440000D02*
X136880000Y-81170000D01*
%TO.C,U2*%
X121590000Y-53900000D02*
X121590000Y-57660000D01*
X121590000Y-57660000D02*
X122850000Y-57660000D01*
X128410000Y-53900000D02*
X128410000Y-57660000D01*
X128410000Y-57660000D02*
X127150000Y-57660000D01*
X128640000Y-52860000D02*
X128310000Y-52620000D01*
X128640000Y-52380000D01*
X128640000Y-52860000D01*
G36*
X128640000Y-52860000D02*
G01*
X128310000Y-52620000D01*
X128640000Y-52380000D01*
X128640000Y-52860000D01*
G37*
%TO.C,U4*%
X120790000Y-62930000D02*
X120790000Y-80830000D01*
X120790000Y-80830000D02*
X122440000Y-80830000D01*
X124440000Y-80830000D02*
X126090000Y-80830000D01*
X126090000Y-62930000D02*
X120790000Y-62930000D01*
X126090000Y-80830000D02*
X126090000Y-62930000D01*
X122440000Y-80830000D02*
G75*
G02*
X124440000Y-80830000I1000000J0D01*
G01*
%TO.C,R1*%
X130522936Y-71765000D02*
X130977064Y-71765000D01*
X130522936Y-73235000D02*
X130977064Y-73235000D01*
%TO.C,C6*%
X129312500Y-55902500D02*
X130100000Y-55902500D01*
X129706250Y-55508750D02*
X129706250Y-56296250D01*
X130340000Y-55404437D02*
X130340000Y-56690000D01*
X130340000Y-55404437D02*
X131404437Y-54340000D01*
X130340000Y-60095563D02*
X130340000Y-58810000D01*
X130340000Y-60095563D02*
X131404437Y-61160000D01*
X131404437Y-54340000D02*
X137160000Y-54340000D01*
X131404437Y-61160000D02*
X137160000Y-61160000D01*
X137160000Y-54340000D02*
X137160000Y-56690000D01*
X137160000Y-61160000D02*
X137160000Y-58810000D01*
%TO.C,C5*%
X119811252Y-82265000D02*
X119288748Y-82265000D01*
X119811252Y-83735000D02*
X119288748Y-83735000D01*
%TO.C,J8*%
X112070000Y-77610000D02*
X112070000Y-72470000D01*
X112070000Y-80210000D02*
X112070000Y-78880000D01*
X113400000Y-80210000D02*
X112070000Y-80210000D01*
X114670000Y-77610000D02*
X112070000Y-77610000D01*
X114670000Y-80210000D02*
X114670000Y-77610000D01*
X117270000Y-72470000D02*
X112070000Y-72470000D01*
X117270000Y-80210000D02*
X114670000Y-80210000D01*
X117270000Y-80210000D02*
X117270000Y-72470000D01*
%TO.C,C1*%
X114340000Y-53654437D02*
X114340000Y-59410000D01*
X114340000Y-59410000D02*
X116690000Y-59410000D01*
X115404437Y-52590000D02*
X114340000Y-53654437D01*
X115404437Y-52590000D02*
X116690000Y-52590000D01*
X119597500Y-51562500D02*
X119597500Y-52350000D01*
X119991250Y-51956250D02*
X119203750Y-51956250D01*
X120095563Y-52590000D02*
X118810000Y-52590000D01*
X120095563Y-52590000D02*
X121160000Y-53654437D01*
X121160000Y-53654437D02*
X121160000Y-59410000D01*
X121160000Y-59410000D02*
X118810000Y-59410000D01*
%TO.C,J5*%
X120830000Y-84870000D02*
X120830000Y-87630000D01*
X128560000Y-84870000D02*
X120830000Y-84870000D01*
X128560000Y-84870000D02*
X128560000Y-87630000D01*
X128560000Y-87630000D02*
X120830000Y-87630000D01*
X129830000Y-84870000D02*
X131210000Y-84870000D01*
X131210000Y-84870000D02*
X131210000Y-86250000D01*
%TO.C,R3*%
X132610436Y-62015000D02*
X133064564Y-62015000D01*
X132610436Y-63485000D02*
X133064564Y-63485000D01*
%TO.C,R5*%
X108765000Y-80389564D02*
X108765000Y-79935436D01*
X110235000Y-80389564D02*
X110235000Y-79935436D01*
%TO.C,R4*%
X114515000Y-62110436D02*
X114515000Y-62564564D01*
X115985000Y-62110436D02*
X115985000Y-62564564D01*
%TO.C,C4*%
X123511252Y-82265000D02*
X122988748Y-82265000D01*
X123511252Y-83735000D02*
X122988748Y-83735000D01*
%TO.C,J6*%
X108810000Y-84870000D02*
X108810000Y-87630000D01*
X116540000Y-84870000D02*
X108810000Y-84870000D01*
X116540000Y-84870000D02*
X116540000Y-87630000D01*
X116540000Y-87630000D02*
X108810000Y-87630000D01*
X117810000Y-84870000D02*
X119190000Y-84870000D01*
X119190000Y-84870000D02*
X119190000Y-86250000D01*
%TO.C,C3*%
X126738748Y-82265000D02*
X127261252Y-82265000D01*
X126738748Y-83735000D02*
X127261252Y-83735000D01*
%TO.C,D1*%
X135537500Y-63710000D02*
X138222500Y-63710000D01*
X138222500Y-61790000D02*
X135537500Y-61790000D01*
X138222500Y-63710000D02*
X138222500Y-61790000D01*
%TO.C,J2*%
X107930000Y-50310000D02*
X107930000Y-58940000D01*
X108900000Y-58940000D02*
X108900000Y-59350000D01*
X109620000Y-58940000D02*
X109620000Y-59350000D01*
X110530000Y-50310000D02*
X110530000Y-58940000D01*
X110648100Y-50310000D02*
X110648100Y-58940000D01*
X110766195Y-50310000D02*
X110766195Y-58940000D01*
X110884290Y-50310000D02*
X110884290Y-58940000D01*
X111002385Y-50310000D02*
X111002385Y-58940000D01*
X111120480Y-50310000D02*
X111120480Y-58940000D01*
X111238575Y-50310000D02*
X111238575Y-58940000D01*
X111356670Y-50310000D02*
X111356670Y-58940000D01*
X111440000Y-58940000D02*
X111440000Y-59290000D01*
X111474765Y-50310000D02*
X111474765Y-58940000D01*
X111592860Y-50310000D02*
X111592860Y-58940000D01*
X111710955Y-50310000D02*
X111710955Y-58940000D01*
X111829050Y-50310000D02*
X111829050Y-58940000D01*
X111947145Y-50310000D02*
X111947145Y-58940000D01*
X112065240Y-50310000D02*
X112065240Y-58940000D01*
X112160000Y-58940000D02*
X112160000Y-59290000D01*
X112183335Y-50310000D02*
X112183335Y-58940000D01*
X112301430Y-50310000D02*
X112301430Y-58940000D01*
X112419525Y-50310000D02*
X112419525Y-58940000D01*
X112537620Y-50310000D02*
X112537620Y-58940000D01*
X112655715Y-50310000D02*
X112655715Y-58940000D01*
X112773810Y-50310000D02*
X112773810Y-58940000D01*
X112891905Y-50310000D02*
X112891905Y-58940000D01*
X113010000Y-50310000D02*
X113010000Y-58940000D01*
X113130000Y-50310000D02*
X107930000Y-50310000D01*
X113130000Y-50310000D02*
X113130000Y-58940000D01*
X113130000Y-58940000D02*
X107930000Y-58940000D01*
X113130000Y-60400000D02*
X113130000Y-61510000D01*
X113130000Y-61510000D02*
X111800000Y-61510000D01*
%TD*%
%LPC*%
D12*
%TO.C,J3*%
X104500000Y-75880000D03*
X104500000Y-78420000D03*
X104500000Y-80960000D03*
D13*
X104500000Y-83500000D03*
D14*
X102340000Y-78420000D03*
%TD*%
D12*
%TO.C,J4*%
X104500000Y-63880000D03*
X104500000Y-66420000D03*
X104500000Y-68960000D03*
D13*
X104500000Y-71500000D03*
D14*
X102340000Y-66420000D03*
%TD*%
D15*
%TO.C,U3*%
X111095000Y-65775000D03*
X112365000Y-65775000D03*
X113635000Y-65775000D03*
X114905000Y-65775000D03*
X114905000Y-70725000D03*
X113635000Y-70725000D03*
X112365000Y-70725000D03*
X111095000Y-70725000D03*
%TD*%
D16*
%TO.C,H1*%
X104000000Y-54000000D03*
%TD*%
D17*
%TO.C,R2*%
X131750000Y-65087500D03*
X131750000Y-66912500D03*
%TD*%
D18*
%TO.C,J7*%
X135500000Y-72170000D03*
D19*
X135500000Y-74710000D03*
X135500000Y-77250000D03*
X135500000Y-79790000D03*
%TD*%
D20*
%TO.C,U2*%
X127300000Y-52600000D03*
X125000000Y-52600000D03*
D21*
X125000000Y-58900000D03*
D20*
X122700000Y-52600000D03*
%TD*%
D22*
%TO.C,U4*%
X127250000Y-79500000D03*
D23*
X127250000Y-76960000D03*
X127250000Y-74420000D03*
X127250000Y-71880000D03*
X127250000Y-69340000D03*
X127250000Y-66800000D03*
X127250000Y-64260000D03*
X119630000Y-64260000D03*
X119630000Y-66800000D03*
X119630000Y-69340000D03*
X119630000Y-71880000D03*
X119630000Y-74420000D03*
X119630000Y-76960000D03*
X119630000Y-79500000D03*
%TD*%
D24*
%TO.C,R1*%
X129837500Y-72500000D03*
X131662500Y-72500000D03*
%TD*%
D25*
%TO.C,C6*%
X130950000Y-57750000D03*
X136550000Y-57750000D03*
%TD*%
D26*
%TO.C,C5*%
X120500000Y-83000000D03*
X118600000Y-83000000D03*
%TD*%
D18*
%TO.C,J8*%
X113400000Y-78880000D03*
D19*
X115940000Y-78880000D03*
X113400000Y-76340000D03*
X115940000Y-76340000D03*
X113400000Y-73800000D03*
X115940000Y-73800000D03*
%TD*%
D27*
%TO.C,C1*%
X117750000Y-53200000D03*
X117750000Y-58800000D03*
%TD*%
D18*
%TO.C,J5*%
X129830000Y-86250000D03*
D19*
X127290000Y-86250000D03*
X124750000Y-86250000D03*
X122210000Y-86250000D03*
%TD*%
D24*
%TO.C,R3*%
X131925000Y-62750000D03*
X133750000Y-62750000D03*
%TD*%
D28*
%TO.C,R5*%
X109500000Y-81075000D03*
X109500000Y-79250000D03*
%TD*%
D17*
%TO.C,R4*%
X115250000Y-61425000D03*
X115250000Y-63250000D03*
%TD*%
D26*
%TO.C,C4*%
X124200000Y-83000000D03*
X122300000Y-83000000D03*
%TD*%
D18*
%TO.C,J6*%
X117810000Y-86250000D03*
D19*
X115270000Y-86250000D03*
X112730000Y-86250000D03*
X110190000Y-86250000D03*
%TD*%
D16*
%TO.C,H2*%
X136000000Y-86000000D03*
%TD*%
D29*
%TO.C,C3*%
X126050000Y-83000000D03*
X127950000Y-83000000D03*
%TD*%
D30*
%TO.C,D1*%
X137475000Y-62750000D03*
X135600000Y-62750000D03*
%TD*%
D18*
%TO.C,J2*%
X111800000Y-60400000D03*
D19*
X109260000Y-60400000D03*
%TD*%
%LPD*%
M02*
