%TF.GenerationSoftware,KiCad,Pcbnew,9.0.6*%
%TF.CreationDate,2026-04-16T22:50:19+02:00*%
%TF.ProjectId,IOT_AIR_FILTER_PROJ,494f545f-4149-4525-9f46-494c5445525f,rev?*%
%TF.SameCoordinates,Original*%
%TF.FileFunction,Soldermask,Bot*%
%TF.FilePolarity,Negative*%
%FSLAX46Y46*%
G04 Gerber Fmt 4.6, Leading zero omitted, Abs format (unit mm)*
G04 Created by KiCad (PCBNEW 9.0.6) date 2026-04-16 22:50:19*
%MOMM*%
%LPD*%
G01*
G04 APERTURE LIST*
G04 Aperture macros list*
%AMRoundRect*
0 Rectangle with rounded corners*
0 $1 Rounding radius*
0 $2 $3 $4 $5 $6 $7 $8 $9 X,Y pos of 4 corners*
0 Add a 4 corners polygon primitive as box body*
4,1,4,$2,$3,$4,$5,$6,$7,$8,$9,$2,$3,0*
0 Add four circle primitives for the rounded corners*
1,1,$1+$1,$2,$3*
1,1,$1+$1,$4,$5*
1,1,$1+$1,$6,$7*
1,1,$1+$1,$8,$9*
0 Add four rect primitives between the rounded corners*
20,1,$1+$1,$2,$3,$4,$5,0*
20,1,$1+$1,$4,$5,$6,$7,0*
20,1,$1+$1,$6,$7,$8,$9,0*
20,1,$1+$1,$8,$9,$2,$3,0*%
G04 Aperture macros list end*
%ADD10O,2.030000X1.730000*%
%ADD11R,2.030000X1.730000*%
%ADD12C,1.100000*%
%ADD13C,6.400000*%
%ADD14R,1.700000X1.700000*%
%ADD15C,1.700000*%
%ADD16RoundRect,0.250000X0.550000X0.550000X-0.550000X0.550000X-0.550000X-0.550000X0.550000X-0.550000X0*%
%ADD17C,1.600000*%
G04 APERTURE END LIST*
D10*
%TO.C,J3*%
X104500000Y-75880000D03*
X104500000Y-78420000D03*
X104500000Y-80960000D03*
D11*
X104500000Y-83500000D03*
D12*
X102340000Y-78420000D03*
%TD*%
D10*
%TO.C,J4*%
X104500000Y-63880000D03*
X104500000Y-66420000D03*
X104500000Y-68960000D03*
D11*
X104500000Y-71500000D03*
D12*
X102340000Y-66420000D03*
%TD*%
D13*
%TO.C,H1*%
X104000000Y-54000000D03*
%TD*%
D14*
%TO.C,J7*%
X135500000Y-72170000D03*
D15*
X135500000Y-74710000D03*
X135500000Y-77250000D03*
X135500000Y-79790000D03*
%TD*%
D16*
%TO.C,U4*%
X127250000Y-79500000D03*
D17*
X127250000Y-76960000D03*
X127250000Y-74420000D03*
X127250000Y-71880000D03*
X127250000Y-69340000D03*
X127250000Y-66800000D03*
X127250000Y-64260000D03*
X119630000Y-64260000D03*
X119630000Y-66800000D03*
X119630000Y-69340000D03*
X119630000Y-71880000D03*
X119630000Y-74420000D03*
X119630000Y-76960000D03*
X119630000Y-79500000D03*
%TD*%
D14*
%TO.C,J8*%
X113400000Y-78880000D03*
D15*
X115940000Y-78880000D03*
X113400000Y-76340000D03*
X115940000Y-76340000D03*
X113400000Y-73800000D03*
X115940000Y-73800000D03*
%TD*%
D14*
%TO.C,J5*%
X129830000Y-86250000D03*
D15*
X127290000Y-86250000D03*
X124750000Y-86250000D03*
X122210000Y-86250000D03*
%TD*%
D14*
%TO.C,J6*%
X117810000Y-86250000D03*
D15*
X115270000Y-86250000D03*
X112730000Y-86250000D03*
X110190000Y-86250000D03*
%TD*%
D13*
%TO.C,H2*%
X136000000Y-86000000D03*
%TD*%
D14*
%TO.C,J2*%
X111800000Y-60400000D03*
D15*
X109260000Y-60400000D03*
%TD*%
M02*
