%TF.GenerationSoftware,KiCad,Pcbnew,9.0.6*%
%TF.CreationDate,2026-03-29T00:05:21+01:00*%
%TF.ProjectId,IOT_AIR_FILTER_PROJ,494f545f-4149-4525-9f46-494c5445525f,rev?*%
%TF.SameCoordinates,Original*%
%TF.FileFunction,Soldermask,Top*%
%TF.FilePolarity,Negative*%
%FSLAX46Y46*%
G04 Gerber Fmt 4.6, Leading zero omitted, Abs format (unit mm)*
G04 Created by KiCad (PCBNEW 9.0.6) date 2026-03-29 00:05:21*
%MOMM*%
%LPD*%
G01*
G04 APERTURE LIST*
G04 Aperture macros list*
%AMRoundRect*
0 Rectangle with rounded corners*
0 $1 Rounding radius*
0 $2 $3 $4 $5 $6 $7 $8 $9 X,Y pos of 4 corners*
0 Add a 4 corners polygon primitive as box body*
4,1,4,$2,$3,$4,$5,$6,$7,$8,$9,$2,$3,0*
0 Add four circle primitives for the rounded corners*
1,1,$1+$1,$2,$3*
1,1,$1+$1,$4,$5*
1,1,$1+$1,$6,$7*
1,1,$1+$1,$8,$9*
0 Add four rect primitives between the rounded corners*
20,1,$1+$1,$2,$3,$4,$5,0*
20,1,$1+$1,$4,$5,$6,$7,0*
20,1,$1+$1,$6,$7,$8,$9,0*
20,1,$1+$1,$8,$9,$2,$3,0*%
G04 Aperture macros list end*
%ADD10RoundRect,0.250000X0.450000X-0.262500X0.450000X0.262500X-0.450000X0.262500X-0.450000X-0.262500X0*%
%ADD11RoundRect,0.150000X0.150000X-0.825000X0.150000X0.825000X-0.150000X0.825000X-0.150000X-0.825000X0*%
%ADD12C,0.787400*%
%ADD13C,6.400000*%
%ADD14RoundRect,0.250000X-0.450000X0.262500X-0.450000X-0.262500X0.450000X-0.262500X0.450000X0.262500X0*%
%ADD15RoundRect,0.375000X-0.375000X0.625000X-0.375000X-0.625000X0.375000X-0.625000X0.375000X0.625000X0*%
%ADD16RoundRect,0.500000X-1.400000X0.500000X-1.400000X-0.500000X1.400000X-0.500000X1.400000X0.500000X0*%
%ADD17RoundRect,0.250000X-0.262500X-0.450000X0.262500X-0.450000X0.262500X0.450000X-0.262500X0.450000X0*%
%ADD18RoundRect,0.250000X-1.500000X-0.550000X1.500000X-0.550000X1.500000X0.550000X-1.500000X0.550000X0*%
%ADD19RoundRect,0.250000X0.250000X0.475000X-0.250000X0.475000X-0.250000X-0.475000X0.250000X-0.475000X0*%
%ADD20RoundRect,0.250000X-0.550000X1.500000X-0.550000X-1.500000X0.550000X-1.500000X0.550000X1.500000X0*%
%ADD21R,1.700000X1.700000*%
%ADD22C,1.700000*%
%ADD23RoundRect,0.250000X-0.250000X-0.475000X0.250000X-0.475000X0.250000X0.475000X-0.250000X0.475000X0*%
%ADD24RoundRect,0.243750X0.243750X0.456250X-0.243750X0.456250X-0.243750X-0.456250X0.243750X-0.456250X0*%
%ADD25RoundRect,0.250000X0.550000X0.550000X-0.550000X0.550000X-0.550000X-0.550000X0.550000X-0.550000X0*%
%ADD26C,1.600000*%
%ADD27O,2.030000X1.730000*%
%ADD28R,2.030000X1.730000*%
G04 APERTURE END LIST*
D10*
%TO.C,R5*%
X109500000Y-79250000D03*
X109500000Y-81075000D03*
%TD*%
D11*
%TO.C,U3*%
X111095000Y-65775000D03*
X112365000Y-65775000D03*
X113635000Y-65775000D03*
X114905000Y-65775000D03*
X114905000Y-70725000D03*
X113635000Y-70725000D03*
X112365000Y-70725000D03*
X111095000Y-70725000D03*
%TD*%
D12*
%TO.C,J1*%
X115270000Y-75365000D03*
X115270000Y-76635000D03*
X114000000Y-75365000D03*
X114000000Y-76635000D03*
X112730000Y-75365000D03*
X112730000Y-76635000D03*
%TD*%
D13*
%TO.C,H1*%
X104000000Y-54000000D03*
%TD*%
D14*
%TO.C,R2*%
X131750000Y-65087500D03*
X131750000Y-66912500D03*
%TD*%
D15*
%TO.C,U2*%
X127300000Y-52600000D03*
X125000000Y-52600000D03*
D16*
X125000000Y-58900000D03*
D15*
X122700000Y-52600000D03*
%TD*%
D17*
%TO.C,R1*%
X129837500Y-72500000D03*
X131662500Y-72500000D03*
%TD*%
D18*
%TO.C,C6*%
X130950000Y-57750000D03*
X136550000Y-57750000D03*
%TD*%
D19*
%TO.C,C5*%
X120500000Y-83000000D03*
X118600000Y-83000000D03*
%TD*%
D20*
%TO.C,C1*%
X117750000Y-53200000D03*
X117750000Y-58800000D03*
%TD*%
D17*
%TO.C,R3*%
X131925000Y-62750000D03*
X133750000Y-62750000D03*
%TD*%
D14*
%TO.C,R4*%
X115250000Y-61425000D03*
X115250000Y-63250000D03*
%TD*%
D19*
%TO.C,C4*%
X124200000Y-83000000D03*
X122300000Y-83000000D03*
%TD*%
D21*
%TO.C,J2*%
X111800000Y-60400000D03*
D22*
X109260000Y-60400000D03*
%TD*%
D13*
%TO.C,H2*%
X136000000Y-86000000D03*
%TD*%
D23*
%TO.C,C3*%
X126050000Y-83000000D03*
X127950000Y-83000000D03*
%TD*%
D24*
%TO.C,D1*%
X137475000Y-62750000D03*
X135600000Y-62750000D03*
%TD*%
D25*
%TO.C,U4*%
X127250000Y-79500000D03*
D26*
X127250000Y-76960000D03*
X127250000Y-74420000D03*
X127250000Y-71880000D03*
X127250000Y-69340000D03*
X127250000Y-66800000D03*
X127250000Y-64260000D03*
X119630000Y-64260000D03*
X119630000Y-66800000D03*
X119630000Y-69340000D03*
X119630000Y-71880000D03*
X119630000Y-74420000D03*
X119630000Y-76960000D03*
X119630000Y-79500000D03*
%TD*%
D27*
%TO.C,J3*%
X104500000Y-75880000D03*
X104500000Y-78420000D03*
X104500000Y-80960000D03*
D28*
X104500000Y-83500000D03*
%TD*%
%TO.C,J4*%
X104500000Y-71500000D03*
D27*
X104500000Y-68960000D03*
X104500000Y-66420000D03*
X104500000Y-63880000D03*
%TD*%
D21*
%TO.C,J5*%
X129830000Y-86250000D03*
D22*
X127290000Y-86250000D03*
X124750000Y-86250000D03*
X122210000Y-86250000D03*
%TD*%
D21*
%TO.C,J6*%
X117810000Y-86250000D03*
D22*
X115270000Y-86250000D03*
X112730000Y-86250000D03*
X110190000Y-86250000D03*
%TD*%
D21*
%TO.C,J7*%
X135500000Y-72170000D03*
D22*
X135500000Y-74710000D03*
X135500000Y-77250000D03*
X135500000Y-79790000D03*
%TD*%
M02*
