M48
; DRILL file {KiCad 9.0.6} date 2026-04-16T22:50:19+0200
; FORMAT={-:-/ absolute / inch / decimal}
; #@! TF.CreationDate,2026-04-16T22:50:19+02:00
; #@! TF.GenerationSoftware,Kicad,Pcbnew,9.0.6
; #@! TF.FileFunction,Plated,1,2,PTH
FMAT,2
INCH
; #@! TA.AperFunction,Plated,PTH,ViaDrill
T1C0.0118
; #@! TA.AperFunction,Plated,PTH,ComponentDrill
T2C0.0315
; #@! TA.AperFunction,Plated,PTH,ComponentDrill
T3C0.0394
; #@! TA.AperFunction,Plated,PTH,ComponentDrill
T4C0.0402
; #@! TA.AperFunction,Plated,PTH,ComponentDrill
T5C0.1260
%
G90
G05
T1
X4.0945Y-3.3858
X4.1339Y-3.3858
X4.1732Y-3.3858
X4.2126Y-3.3858
X4.252Y-3.2677
X4.2913Y-3.2677
X4.3209Y-2.6378
X4.3307Y-3.2677
X4.3661Y-2.9764
X4.3661Y-3.0157
X4.4488Y-2.2835
X4.4646Y-3.2126
X4.4685Y-3.2874
X4.4882Y-2.2835
X4.5276Y-3.2677
X4.5827Y-2.7992
X4.622Y-2.7992
X4.7244Y-3.3563
X4.7244Y-3.4154
X4.7835Y-3.1299
X4.8031Y-2.4016
X4.8425Y-2.4606
X4.8425Y-2.8543
X4.8541Y-3.1612
X4.8622Y-3.061
X4.8819Y-2.4016
X4.9606Y-2.4016
X5.0315Y-2.3091
X5.0787Y-2.4803
X5.0984Y-3.2402
X5.1024Y-2.7874
X5.1181Y-2.5197
X5.122Y-3.2205
X5.2657Y-2.7461
X5.2657Y-3.2382
X5.2756Y-2.5984
X5.2756Y-2.6772
X5.315Y-2.6772
X5.4134Y-3.2382
T2
X4.7098Y-2.5299
X4.7098Y-2.6299
X4.7098Y-2.7299
X4.7098Y-2.8299
X4.7098Y-2.9299
X4.7098Y-3.0299
X4.7098Y-3.1299
X5.0098Y-2.5299
X5.0098Y-2.6299
X5.0098Y-2.7299
X5.0098Y-2.8299
X5.0098Y-2.9299
X5.0098Y-3.0299
X5.0098Y-3.1299
T3
X4.3016Y-2.378
X4.3382Y-3.3957
X4.4016Y-2.378
X4.4382Y-3.3957
X4.4646Y-2.9055
X4.4646Y-3.0055
X4.4646Y-3.1055
X4.5382Y-3.3957
X4.5646Y-2.9055
X4.5646Y-3.0055
X4.5646Y-3.1055
X4.6382Y-3.3957
X4.8114Y-3.3957
X4.9114Y-3.3957
X5.0114Y-3.3957
X5.1114Y-3.3957
X5.3346Y-2.8413
X5.3346Y-2.9413
X5.3346Y-3.0413
X5.3346Y-3.1413
T4
X4.1142Y-2.515
X4.1142Y-2.615
X4.1142Y-2.715
X4.1142Y-2.815
X4.1142Y-2.9874
X4.1142Y-3.0874
X4.1142Y-3.1874
X4.1142Y-3.2874
T5
X4.0945Y-2.126
X5.3543Y-3.3858
M30
