%TF.GenerationSoftware,KiCad,Pcbnew,9.0.6*%
%TF.CreationDate,2026-03-29T00:05:21+01:00*%
%TF.ProjectId,IOT_AIR_FILTER_PROJ,494f545f-4149-4525-9f46-494c5445525f,rev?*%
%TF.SameCoordinates,Original*%
%TF.FileFunction,Copper,L2,Bot*%
%TF.FilePolarity,Positive*%
%FSLAX46Y46*%
G04 Gerber Fmt 4.6, Leading zero omitted, Abs format (unit mm)*
G04 Created by KiCad (PCBNEW 9.0.6) date 2026-03-29 00:05:21*
%MOMM*%
%LPD*%
G01*
G04 APERTURE LIST*
G04 Aperture macros list*
%AMRoundRect*
0 Rectangle with rounded corners*
0 $1 Rounding radius*
0 $2 $3 $4 $5 $6 $7 $8 $9 X,Y pos of 4 corners*
0 Add a 4 corners polygon primitive as box body*
4,1,4,$2,$3,$4,$5,$6,$7,$8,$9,$2,$3,0*
0 Add four circle primitives for the rounded corners*
1,1,$1+$1,$2,$3*
1,1,$1+$1,$4,$5*
1,1,$1+$1,$6,$7*
1,1,$1+$1,$8,$9*
0 Add four rect primitives between the rounded corners*
20,1,$1+$1,$2,$3,$4,$5,0*
20,1,$1+$1,$4,$5,$6,$7,0*
20,1,$1+$1,$6,$7,$8,$9,0*
20,1,$1+$1,$8,$9,$2,$3,0*%
G04 Aperture macros list end*
%TA.AperFunction,ComponentPad*%
%ADD10C,6.400000*%
%TD*%
%TA.AperFunction,ComponentPad*%
%ADD11R,1.700000X1.700000*%
%TD*%
%TA.AperFunction,ComponentPad*%
%ADD12C,1.700000*%
%TD*%
%TA.AperFunction,ComponentPad*%
%ADD13RoundRect,0.250000X0.550000X0.550000X-0.550000X0.550000X-0.550000X-0.550000X0.550000X-0.550000X0*%
%TD*%
%TA.AperFunction,ComponentPad*%
%ADD14C,1.600000*%
%TD*%
%TA.AperFunction,ComponentPad*%
%ADD15O,2.030000X1.730000*%
%TD*%
%TA.AperFunction,ComponentPad*%
%ADD16R,2.030000X1.730000*%
%TD*%
%TA.AperFunction,ViaPad*%
%ADD17C,0.700000*%
%TD*%
%TA.AperFunction,Conductor*%
%ADD18C,0.300000*%
%TD*%
%TA.AperFunction,Conductor*%
%ADD19C,0.500000*%
%TD*%
%TA.AperFunction,Conductor*%
%ADD20C,1.000000*%
%TD*%
G04 APERTURE END LIST*
D10*
%TO.P,H1,1,1*%
%TO.N,GND*%
X104000000Y-54000000D03*
%TD*%
D11*
%TO.P,J2,1,Pin_1*%
%TO.N,GND*%
X111800000Y-60400000D03*
D12*
%TO.P,J2,2,Pin_2*%
%TO.N,+12V*%
X109260000Y-60400000D03*
%TD*%
D10*
%TO.P,H2,1,1*%
%TO.N,GND*%
X136000000Y-86000000D03*
%TD*%
D13*
%TO.P,U4,1,VDD*%
%TO.N,+5V*%
X127250000Y-79500000D03*
D14*
%TO.P,U4,2,RA5*%
%TO.N,/TX*%
X127250000Y-76960000D03*
%TO.P,U4,3,RA4*%
%TO.N,/RX*%
X127250000Y-74420000D03*
%TO.P,U4,4,RA3/\u002AMCLR/VPP*%
%TO.N,RST*%
X127250000Y-71880000D03*
%TO.P,U4,5,RC5*%
%TO.N,Net-(U4-RC5)*%
X127250000Y-69340000D03*
%TO.P,U4,6,RC4*%
%TO.N,/SCL*%
X127250000Y-66800000D03*
%TO.P,U4,7,RC3*%
%TO.N,/SDA*%
X127250000Y-64260000D03*
%TO.P,U4,8,RC2*%
%TO.N,PWM12*%
X119630000Y-64260000D03*
%TO.P,U4,9,RC1*%
%TO.N,PWM11*%
X119630000Y-66800000D03*
%TO.P,U4,10,RC0*%
%TO.N,/T1CKI*%
X119630000Y-69340000D03*
%TO.P,U4,11,RA2*%
%TO.N,/FAN_TACH_SELECT*%
X119630000Y-71880000D03*
%TO.P,U4,12,RA1/ICSPCLK*%
%TO.N,SWCLK*%
X119630000Y-74420000D03*
%TO.P,U4,13,RA0/ICSPDAT*%
%TO.N,SWDIO*%
X119630000Y-76960000D03*
%TO.P,U4,14,VSS*%
%TO.N,GND*%
X119630000Y-79500000D03*
%TD*%
D15*
%TO.P,J3,4,Pin_4*%
%TO.N,PWM11*%
X104500000Y-75880000D03*
%TO.P,J3,3,Pin_3*%
%TO.N,Net-(J3-Pin_3)*%
X104500000Y-78420000D03*
%TO.P,J3,2,Pin_2*%
%TO.N,+12V*%
X104500000Y-80960000D03*
D16*
%TO.P,J3,1,Pin_1*%
%TO.N,GND*%
X104500000Y-83500000D03*
%TD*%
%TO.P,J4,1,Pin_1*%
%TO.N,GND*%
X104500000Y-71500000D03*
D15*
%TO.P,J4,2,Pin_2*%
%TO.N,+12V*%
X104500000Y-68960000D03*
%TO.P,J4,3,Pin_3*%
%TO.N,Net-(J4-Pin_3)*%
X104500000Y-66420000D03*
%TO.P,J4,4,Pin_4*%
%TO.N,PWM12*%
X104500000Y-63880000D03*
%TD*%
D11*
%TO.P,J5,1,Pin_1*%
%TO.N,/SCL*%
X129830000Y-86250000D03*
D12*
%TO.P,J5,2,Pin_2*%
%TO.N,/SDA*%
X127290000Y-86250000D03*
%TO.P,J5,3,Pin_3*%
%TO.N,+5V*%
X124750000Y-86250000D03*
%TO.P,J5,4,Pin_4*%
%TO.N,GND*%
X122210000Y-86250000D03*
%TD*%
D11*
%TO.P,J6,1,Pin_1*%
%TO.N,/SCL*%
X117810000Y-86250000D03*
D12*
%TO.P,J6,2,Pin_2*%
%TO.N,/SDA*%
X115270000Y-86250000D03*
%TO.P,J6,3,Pin_3*%
%TO.N,+5V*%
X112730000Y-86250000D03*
%TO.P,J6,4,Pin_4*%
%TO.N,GND*%
X110190000Y-86250000D03*
%TD*%
D11*
%TO.P,J7,1,Pin_1*%
%TO.N,GND*%
X135500000Y-72170000D03*
D12*
%TO.P,J7,2,Pin_2*%
X135500000Y-74710000D03*
%TO.P,J7,3,Pin_3*%
%TO.N,/RX*%
X135500000Y-77250000D03*
%TO.P,J7,4,Pin_4*%
%TO.N,/TX*%
X135500000Y-79790000D03*
%TD*%
D17*
%TO.N,GND*%
X123294975Y-80294975D03*
%TO.N,+5V*%
X129600000Y-70800000D03*
%TO.N,GND*%
X130100000Y-81800000D03*
X129500000Y-82300000D03*
X120000000Y-86750000D03*
X120000000Y-85250000D03*
X123000000Y-62500000D03*
X123000000Y-72500000D03*
X121500000Y-79500000D03*
X123500000Y-77750000D03*
X133750000Y-69750000D03*
X137500000Y-82250000D03*
X133750000Y-82250000D03*
X135000000Y-68000000D03*
X104000000Y-86000000D03*
X105000000Y-86000000D03*
X106000000Y-86000000D03*
X107000000Y-86000000D03*
X116250000Y-79500000D03*
X114250000Y-79500000D03*
X118000000Y-76250000D03*
X118000000Y-75250000D03*
X109750000Y-67000000D03*
X108000000Y-83000000D03*
X113500000Y-83500000D03*
X129000000Y-63000000D03*
X122000000Y-61000000D03*
X114000000Y-58000000D03*
X109000000Y-83000000D03*
X134000000Y-66000000D03*
X126000000Y-61000000D03*
X124000000Y-61000000D03*
X130000000Y-64000000D03*
X113000000Y-58000000D03*
X134000000Y-68000000D03*
X110000000Y-83000000D03*
X115000000Y-83000000D03*
%TO.N,+5V*%
X113400000Y-81600000D03*
X127800000Y-58650000D03*
%TD*%
D18*
%TO.N,+5V*%
X128200000Y-68100000D02*
X124750000Y-68100000D01*
X129600000Y-69500000D02*
X128200000Y-68100000D01*
X129600000Y-70800000D02*
X129600000Y-69500000D01*
D19*
X124750000Y-68100000D02*
X124750000Y-79500000D01*
D20*
%TO.N,+12V*%
X106040000Y-80960000D02*
X105190000Y-80960000D01*
X107800000Y-79200000D02*
X106040000Y-80960000D01*
X107800000Y-68900000D02*
X107800000Y-79200000D01*
X107740000Y-68960000D02*
X104500000Y-68960000D01*
X107800000Y-68900000D02*
X107740000Y-68960000D01*
X107800000Y-68200000D02*
X107800000Y-68900000D01*
D18*
%TO.N,+5V*%
X127250000Y-79500000D02*
X124750000Y-79500000D01*
D19*
X124750000Y-79500000D02*
X124750000Y-80580000D01*
X124750000Y-64500000D02*
X124750000Y-68100000D01*
X127800000Y-61450000D02*
X124750000Y-64500000D01*
X124750000Y-80580000D02*
X123730000Y-81600000D01*
X127800000Y-58650000D02*
X127800000Y-61450000D01*
D18*
%TO.N,/TX*%
X132670000Y-76960000D02*
X127250000Y-76960000D01*
X135500000Y-79790000D02*
X132670000Y-76960000D01*
%TO.N,/RX*%
X132670000Y-74420000D02*
X127250000Y-74420000D01*
X135500000Y-77250000D02*
X132670000Y-74420000D01*
D20*
%TO.N,+12V*%
X109260000Y-61990000D02*
X109260000Y-60400000D01*
X107800000Y-63450000D02*
X109260000Y-61990000D01*
X107800000Y-68200000D02*
X107800000Y-63450000D01*
D19*
%TO.N,+5V*%
X112400000Y-81600000D02*
X111800000Y-82200000D01*
X113400000Y-81600000D02*
X112400000Y-81600000D01*
X123730000Y-86615000D02*
X123730000Y-81600000D01*
X123730000Y-81600000D02*
X122800000Y-81600000D01*
X122800000Y-81600000D02*
X113400000Y-81600000D01*
X111730000Y-86615000D02*
X111800000Y-86545000D01*
X111800000Y-86545000D02*
X111800000Y-82200000D01*
%TD*%
%TA.AperFunction,Conductor*%
%TO.N,GND*%
G36*
X137504043Y-50500765D02*
G01*
X137752895Y-50517075D01*
X137768953Y-50519190D01*
X137976105Y-50560395D01*
X138009535Y-50567045D01*
X138025202Y-50571243D01*
X138194947Y-50628863D01*
X138257481Y-50650091D01*
X138272458Y-50656294D01*
X138481799Y-50759529D01*
X138492460Y-50764787D01*
X138506508Y-50772897D01*
X138710464Y-50909177D01*
X138723328Y-50919048D01*
X138907749Y-51080781D01*
X138919218Y-51092250D01*
X139080951Y-51276671D01*
X139090825Y-51289539D01*
X139227102Y-51493492D01*
X139235212Y-51507539D01*
X139343702Y-51727534D01*
X139349909Y-51742520D01*
X139428756Y-51974797D01*
X139432954Y-51990464D01*
X139480807Y-52231035D01*
X139482925Y-52247116D01*
X139499235Y-52495956D01*
X139499500Y-52504066D01*
X139499500Y-85996948D01*
X139499351Y-86003033D01*
X139482947Y-86336928D01*
X139481754Y-86349037D01*
X139433151Y-86676694D01*
X139430777Y-86688630D01*
X139350292Y-87009944D01*
X139346759Y-87021588D01*
X139235170Y-87333459D01*
X139230514Y-87344702D01*
X139088885Y-87644151D01*
X139083148Y-87654883D01*
X138912862Y-87938988D01*
X138906102Y-87949106D01*
X138708775Y-88215170D01*
X138701055Y-88224576D01*
X138478611Y-88470006D01*
X138470006Y-88478611D01*
X138224576Y-88701055D01*
X138215170Y-88708775D01*
X137949106Y-88906102D01*
X137938988Y-88912862D01*
X137654883Y-89083148D01*
X137644151Y-89088885D01*
X137344702Y-89230514D01*
X137333459Y-89235170D01*
X137021588Y-89346759D01*
X137009944Y-89350292D01*
X136688630Y-89430777D01*
X136676694Y-89433151D01*
X136349037Y-89481754D01*
X136336928Y-89482947D01*
X136021989Y-89498419D01*
X136003031Y-89499351D01*
X135996949Y-89499500D01*
X102504067Y-89499500D01*
X102495957Y-89499235D01*
X102247116Y-89482925D01*
X102231035Y-89480807D01*
X101990464Y-89432954D01*
X101974797Y-89428756D01*
X101742520Y-89349909D01*
X101727534Y-89343702D01*
X101507539Y-89235212D01*
X101493492Y-89227102D01*
X101289539Y-89090825D01*
X101276671Y-89080951D01*
X101092250Y-88919218D01*
X101080781Y-88907749D01*
X100919048Y-88723328D01*
X100909174Y-88710460D01*
X100908048Y-88708775D01*
X100772897Y-88506507D01*
X100764787Y-88492460D01*
X100658855Y-88277652D01*
X100656294Y-88272458D01*
X100650090Y-88257479D01*
X100571243Y-88025202D01*
X100567045Y-88009535D01*
X100553012Y-87938988D01*
X100519190Y-87768953D01*
X100517075Y-87752895D01*
X100500765Y-87504043D01*
X100500500Y-87495933D01*
X100500500Y-86143753D01*
X108840000Y-86143753D01*
X108840000Y-86356246D01*
X108873242Y-86566127D01*
X108873242Y-86566130D01*
X108938904Y-86768217D01*
X109035375Y-86957550D01*
X109074728Y-87011716D01*
X109707037Y-86379408D01*
X109724075Y-86442993D01*
X109789901Y-86557007D01*
X109882993Y-86650099D01*
X109997007Y-86715925D01*
X110060590Y-86732962D01*
X109428282Y-87365269D01*
X109428282Y-87365270D01*
X109482449Y-87404624D01*
X109671782Y-87501095D01*
X109873870Y-87566757D01*
X110083754Y-87600000D01*
X110296246Y-87600000D01*
X110506127Y-87566757D01*
X110506130Y-87566757D01*
X110708217Y-87501095D01*
X110897554Y-87404622D01*
X110951716Y-87365270D01*
X110951717Y-87365270D01*
X110319408Y-86732962D01*
X110382993Y-86715925D01*
X110497007Y-86650099D01*
X110590099Y-86557007D01*
X110655925Y-86442993D01*
X110672962Y-86379408D01*
X110952164Y-86658610D01*
X110985649Y-86719933D01*
X110986100Y-86722099D01*
X111008340Y-86833906D01*
X111008342Y-86833912D01*
X111064913Y-86970488D01*
X111064916Y-86970494D01*
X111147048Y-87093416D01*
X111147051Y-87093419D01*
X111147052Y-87093420D01*
X111147052Y-87093421D01*
X111251578Y-87197947D01*
X111251581Y-87197949D01*
X111251584Y-87197952D01*
X111374506Y-87280084D01*
X111511088Y-87336658D01*
X111511092Y-87336658D01*
X111511093Y-87336659D01*
X111656080Y-87365500D01*
X111656083Y-87365500D01*
X111803918Y-87365500D01*
X111863740Y-87353600D01*
X111879334Y-87350498D01*
X111948926Y-87356725D01*
X111976411Y-87371796D01*
X112006512Y-87393665D01*
X112022184Y-87405051D01*
X112211588Y-87501557D01*
X112413757Y-87567246D01*
X112623713Y-87600500D01*
X112623714Y-87600500D01*
X112836286Y-87600500D01*
X112836287Y-87600500D01*
X113046243Y-87567246D01*
X113248412Y-87501557D01*
X113437816Y-87405051D01*
X113483588Y-87371796D01*
X113609786Y-87280109D01*
X113609788Y-87280106D01*
X113609792Y-87280104D01*
X113760104Y-87129792D01*
X113760106Y-87129788D01*
X113760109Y-87129786D01*
X113885048Y-86957820D01*
X113885047Y-86957820D01*
X113885051Y-86957816D01*
X113889514Y-86949054D01*
X113937488Y-86898259D01*
X114005308Y-86881463D01*
X114071444Y-86903999D01*
X114110486Y-86949056D01*
X114114951Y-86957820D01*
X114239890Y-87129786D01*
X114390213Y-87280109D01*
X114562179Y-87405048D01*
X114562181Y-87405049D01*
X114562184Y-87405051D01*
X114751588Y-87501557D01*
X114953757Y-87567246D01*
X115163713Y-87600500D01*
X115163714Y-87600500D01*
X115376286Y-87600500D01*
X115376287Y-87600500D01*
X115586243Y-87567246D01*
X115788412Y-87501557D01*
X115977816Y-87405051D01*
X116035141Y-87363402D01*
X116149784Y-87280110D01*
X116149784Y-87280109D01*
X116149792Y-87280104D01*
X116263329Y-87166566D01*
X116324648Y-87133084D01*
X116394340Y-87138068D01*
X116450274Y-87179939D01*
X116467189Y-87210917D01*
X116516202Y-87342328D01*
X116516206Y-87342335D01*
X116602452Y-87457544D01*
X116602455Y-87457547D01*
X116717664Y-87543793D01*
X116717671Y-87543797D01*
X116852517Y-87594091D01*
X116852516Y-87594091D01*
X116859444Y-87594835D01*
X116912127Y-87600500D01*
X118707872Y-87600499D01*
X118767483Y-87594091D01*
X118902331Y-87543796D01*
X119017546Y-87457546D01*
X119103796Y-87342331D01*
X119127005Y-87280104D01*
X119129029Y-87274678D01*
X119154091Y-87207482D01*
X119160500Y-87147873D01*
X119160499Y-85352128D01*
X119154091Y-85292517D01*
X119152810Y-85289083D01*
X119103797Y-85157671D01*
X119103793Y-85157664D01*
X119017547Y-85042455D01*
X119017544Y-85042452D01*
X118902335Y-84956206D01*
X118902328Y-84956202D01*
X118767482Y-84905908D01*
X118767483Y-84905908D01*
X118707883Y-84899501D01*
X118707881Y-84899500D01*
X118707873Y-84899500D01*
X118707864Y-84899500D01*
X116912129Y-84899500D01*
X116912123Y-84899501D01*
X116852516Y-84905908D01*
X116717671Y-84956202D01*
X116717664Y-84956206D01*
X116602455Y-85042452D01*
X116602452Y-85042455D01*
X116516206Y-85157664D01*
X116516203Y-85157669D01*
X116467189Y-85289083D01*
X116425317Y-85345016D01*
X116359853Y-85369433D01*
X116291580Y-85354581D01*
X116263326Y-85333430D01*
X116149786Y-85219890D01*
X115977820Y-85094951D01*
X115788414Y-84998444D01*
X115788413Y-84998443D01*
X115788412Y-84998443D01*
X115586243Y-84932754D01*
X115586241Y-84932753D01*
X115586240Y-84932753D01*
X115424957Y-84907208D01*
X115376287Y-84899500D01*
X115163713Y-84899500D01*
X115115042Y-84907208D01*
X114953760Y-84932753D01*
X114751585Y-84998444D01*
X114562179Y-85094951D01*
X114390213Y-85219890D01*
X114239890Y-85370213D01*
X114114949Y-85542182D01*
X114110484Y-85550946D01*
X114062509Y-85601742D01*
X113994688Y-85618536D01*
X113928553Y-85595998D01*
X113889516Y-85550946D01*
X113885050Y-85542182D01*
X113760109Y-85370213D01*
X113609786Y-85219890D01*
X113437820Y-85094951D01*
X113248414Y-84998444D01*
X113248413Y-84998443D01*
X113248412Y-84998443D01*
X113046243Y-84932754D01*
X113046241Y-84932753D01*
X113046240Y-84932753D01*
X112884957Y-84907208D01*
X112836287Y-84899500D01*
X112674500Y-84899500D01*
X112607461Y-84879815D01*
X112561706Y-84827011D01*
X112550500Y-84775500D01*
X112550500Y-82562229D01*
X112559144Y-82532788D01*
X112565668Y-82502802D01*
X112569422Y-82497786D01*
X112570185Y-82495190D01*
X112586819Y-82474548D01*
X112674548Y-82386819D01*
X112735871Y-82353334D01*
X112762229Y-82350500D01*
X112964739Y-82350500D01*
X113012191Y-82359938D01*
X113151918Y-82417816D01*
X113316228Y-82450499D01*
X113316232Y-82450500D01*
X113316233Y-82450500D01*
X113483768Y-82450500D01*
X113483769Y-82450499D01*
X113648082Y-82417816D01*
X113787808Y-82359938D01*
X113835261Y-82350500D01*
X122726082Y-82350500D01*
X122855500Y-82350500D01*
X122922539Y-82370185D01*
X122968294Y-82422989D01*
X122979500Y-82474500D01*
X122979500Y-84924589D01*
X122959815Y-84991628D01*
X122907011Y-85037383D01*
X122837853Y-85047327D01*
X122799206Y-85035074D01*
X122728220Y-84998905D01*
X122526129Y-84933242D01*
X122316246Y-84900000D01*
X122103754Y-84900000D01*
X121893872Y-84933242D01*
X121893869Y-84933242D01*
X121691782Y-84998904D01*
X121502439Y-85095380D01*
X121448282Y-85134727D01*
X121448282Y-85134728D01*
X122080591Y-85767037D01*
X122017007Y-85784075D01*
X121902993Y-85849901D01*
X121809901Y-85942993D01*
X121744075Y-86057007D01*
X121727037Y-86120591D01*
X121094728Y-85488282D01*
X121094727Y-85488282D01*
X121055380Y-85542439D01*
X120958904Y-85731782D01*
X120893242Y-85933869D01*
X120893242Y-85933872D01*
X120860000Y-86143753D01*
X120860000Y-86356246D01*
X120893242Y-86566127D01*
X120893242Y-86566130D01*
X120958904Y-86768217D01*
X121055375Y-86957550D01*
X121094728Y-87011716D01*
X121727037Y-86379408D01*
X121744075Y-86442993D01*
X121809901Y-86557007D01*
X121902993Y-86650099D01*
X122017007Y-86715925D01*
X122080590Y-86732962D01*
X121448282Y-87365269D01*
X121448282Y-87365270D01*
X121502449Y-87404624D01*
X121691782Y-87501095D01*
X121893870Y-87566757D01*
X122103754Y-87600000D01*
X122316246Y-87600000D01*
X122526127Y-87566757D01*
X122526130Y-87566757D01*
X122728217Y-87501095D01*
X122917554Y-87404622D01*
X122971716Y-87365270D01*
X122971717Y-87365270D01*
X122339408Y-86732962D01*
X122402993Y-86715925D01*
X122517007Y-86650099D01*
X122610099Y-86557007D01*
X122675925Y-86442993D01*
X122692962Y-86379408D01*
X122947197Y-86633643D01*
X122980682Y-86694966D01*
X122981133Y-86697132D01*
X123008340Y-86833907D01*
X123008343Y-86833917D01*
X123064912Y-86970488D01*
X123064919Y-86970501D01*
X123147048Y-87093415D01*
X123147051Y-87093419D01*
X123251580Y-87197948D01*
X123251584Y-87197951D01*
X123374498Y-87280080D01*
X123374511Y-87280087D01*
X123503364Y-87333459D01*
X123511087Y-87336658D01*
X123511091Y-87336658D01*
X123511092Y-87336659D01*
X123656079Y-87365500D01*
X123656082Y-87365500D01*
X123803919Y-87365500D01*
X123818772Y-87362545D01*
X123895039Y-87347374D01*
X123964627Y-87353600D01*
X123992111Y-87368671D01*
X123996412Y-87371796D01*
X124041593Y-87404622D01*
X124042184Y-87405051D01*
X124231588Y-87501557D01*
X124433757Y-87567246D01*
X124643713Y-87600500D01*
X124643714Y-87600500D01*
X124856286Y-87600500D01*
X124856287Y-87600500D01*
X125066243Y-87567246D01*
X125268412Y-87501557D01*
X125457816Y-87405051D01*
X125503588Y-87371796D01*
X125629786Y-87280109D01*
X125629788Y-87280106D01*
X125629792Y-87280104D01*
X125780104Y-87129792D01*
X125780106Y-87129788D01*
X125780109Y-87129786D01*
X125905048Y-86957820D01*
X125905047Y-86957820D01*
X125905051Y-86957816D01*
X125909514Y-86949054D01*
X125957488Y-86898259D01*
X126025308Y-86881463D01*
X126091444Y-86903999D01*
X126130486Y-86949056D01*
X126134951Y-86957820D01*
X126259890Y-87129786D01*
X126410213Y-87280109D01*
X126582179Y-87405048D01*
X126582181Y-87405049D01*
X126582184Y-87405051D01*
X126771588Y-87501557D01*
X126973757Y-87567246D01*
X127183713Y-87600500D01*
X127183714Y-87600500D01*
X127396286Y-87600500D01*
X127396287Y-87600500D01*
X127606243Y-87567246D01*
X127808412Y-87501557D01*
X127997816Y-87405051D01*
X128055141Y-87363402D01*
X128169784Y-87280110D01*
X128169784Y-87280109D01*
X128169792Y-87280104D01*
X128283329Y-87166566D01*
X128344648Y-87133084D01*
X128414340Y-87138068D01*
X128470274Y-87179939D01*
X128487189Y-87210917D01*
X128536202Y-87342328D01*
X128536206Y-87342335D01*
X128622452Y-87457544D01*
X128622455Y-87457547D01*
X128737664Y-87543793D01*
X128737671Y-87543797D01*
X128872517Y-87594091D01*
X128872516Y-87594091D01*
X128879444Y-87594835D01*
X128932127Y-87600500D01*
X130727872Y-87600499D01*
X130787483Y-87594091D01*
X130922331Y-87543796D01*
X131037546Y-87457546D01*
X131123796Y-87342331D01*
X131174091Y-87207483D01*
X131180500Y-87147873D01*
X131180499Y-85352128D01*
X131174091Y-85292517D01*
X131172810Y-85289083D01*
X131123797Y-85157671D01*
X131123793Y-85157664D01*
X131037547Y-85042455D01*
X131037544Y-85042452D01*
X130922335Y-84956206D01*
X130922328Y-84956202D01*
X130787482Y-84905908D01*
X130787483Y-84905908D01*
X130727883Y-84899501D01*
X130727881Y-84899500D01*
X130727873Y-84899500D01*
X130727864Y-84899500D01*
X128932129Y-84899500D01*
X128932123Y-84899501D01*
X128872516Y-84905908D01*
X128737671Y-84956202D01*
X128737664Y-84956206D01*
X128622455Y-85042452D01*
X128622452Y-85042455D01*
X128536206Y-85157664D01*
X128536203Y-85157669D01*
X128487189Y-85289083D01*
X128445317Y-85345016D01*
X128379853Y-85369433D01*
X128311580Y-85354581D01*
X128283326Y-85333430D01*
X128169786Y-85219890D01*
X127997820Y-85094951D01*
X127808414Y-84998444D01*
X127808413Y-84998443D01*
X127808412Y-84998443D01*
X127606243Y-84932754D01*
X127606241Y-84932753D01*
X127606240Y-84932753D01*
X127444957Y-84907208D01*
X127396287Y-84899500D01*
X127183713Y-84899500D01*
X127135042Y-84907208D01*
X126973760Y-84932753D01*
X126771585Y-84998444D01*
X126582179Y-85094951D01*
X126410213Y-85219890D01*
X126259890Y-85370213D01*
X126134949Y-85542182D01*
X126130484Y-85550946D01*
X126082509Y-85601742D01*
X126014688Y-85618536D01*
X125948553Y-85595998D01*
X125909516Y-85550946D01*
X125905050Y-85542182D01*
X125780109Y-85370213D01*
X125629786Y-85219890D01*
X125457820Y-85094951D01*
X125268414Y-84998444D01*
X125268413Y-84998443D01*
X125268412Y-84998443D01*
X125066243Y-84932754D01*
X125066241Y-84932753D01*
X125066240Y-84932753D01*
X124904957Y-84907208D01*
X124856287Y-84899500D01*
X124643713Y-84899500D01*
X124643710Y-84899500D01*
X124623895Y-84902638D01*
X124554602Y-84893681D01*
X124501151Y-84848684D01*
X124480513Y-84781932D01*
X124480500Y-84780164D01*
X124480500Y-81962230D01*
X124500185Y-81895191D01*
X124516819Y-81874549D01*
X125332950Y-81058418D01*
X125332952Y-81058416D01*
X125389023Y-80974499D01*
X125405726Y-80949501D01*
X125408845Y-80944831D01*
X125415084Y-80935495D01*
X125471658Y-80798913D01*
X125484409Y-80734812D01*
X125500500Y-80653920D01*
X125500500Y-80274500D01*
X125503050Y-80265814D01*
X125501762Y-80256853D01*
X125512740Y-80232812D01*
X125520185Y-80207461D01*
X125527025Y-80201533D01*
X125530787Y-80193297D01*
X125553021Y-80179007D01*
X125572989Y-80161706D01*
X125583503Y-80159418D01*
X125589565Y-80155523D01*
X125624500Y-80150500D01*
X125853130Y-80150500D01*
X125920169Y-80170185D01*
X125965924Y-80222989D01*
X125970836Y-80235495D01*
X126015186Y-80369334D01*
X126107288Y-80518656D01*
X126231344Y-80642712D01*
X126380666Y-80734814D01*
X126547203Y-80789999D01*
X126649991Y-80800500D01*
X127850008Y-80800499D01*
X127952797Y-80789999D01*
X128119334Y-80734814D01*
X128268656Y-80642712D01*
X128392712Y-80518656D01*
X128484814Y-80369334D01*
X128539999Y-80202797D01*
X128550500Y-80100009D01*
X128550499Y-78899992D01*
X128539999Y-78797203D01*
X128484814Y-78630666D01*
X128392712Y-78481344D01*
X128268656Y-78357288D01*
X128175888Y-78300069D01*
X128119336Y-78265187D01*
X128119335Y-78265186D01*
X128119334Y-78265186D01*
X128037427Y-78238044D01*
X127979984Y-78198272D01*
X127953161Y-78133756D01*
X127965476Y-78064980D01*
X128003547Y-78020021D01*
X128097219Y-77951966D01*
X128241966Y-77807219D01*
X128347753Y-77661613D01*
X128403082Y-77618949D01*
X128448071Y-77610500D01*
X132349192Y-77610500D01*
X132416231Y-77630185D01*
X132436873Y-77646819D01*
X134149342Y-79359288D01*
X134182827Y-79420611D01*
X134182319Y-79468755D01*
X134183516Y-79468945D01*
X134164393Y-79589682D01*
X134149500Y-79683713D01*
X134149500Y-79896287D01*
X134154133Y-79925537D01*
X134181767Y-80100016D01*
X134182754Y-80106243D01*
X134237424Y-80274500D01*
X134248444Y-80308414D01*
X134344951Y-80497820D01*
X134469890Y-80669786D01*
X134620213Y-80820109D01*
X134792179Y-80945048D01*
X134792181Y-80945049D01*
X134792184Y-80945051D01*
X134981588Y-81041557D01*
X135183757Y-81107246D01*
X135393713Y-81140500D01*
X135393714Y-81140500D01*
X135606286Y-81140500D01*
X135606287Y-81140500D01*
X135816243Y-81107246D01*
X136018412Y-81041557D01*
X136207816Y-80945051D01*
X136229789Y-80929086D01*
X136379786Y-80820109D01*
X136379788Y-80820106D01*
X136379792Y-80820104D01*
X136530104Y-80669792D01*
X136530106Y-80669788D01*
X136530109Y-80669786D01*
X136655048Y-80497820D01*
X136655047Y-80497820D01*
X136655051Y-80497816D01*
X136751557Y-80308412D01*
X136817246Y-80106243D01*
X136850500Y-79896287D01*
X136850500Y-79683713D01*
X136817246Y-79473757D01*
X136751557Y-79271588D01*
X136655051Y-79082184D01*
X136655049Y-79082181D01*
X136655048Y-79082179D01*
X136530109Y-78910213D01*
X136379786Y-78759890D01*
X136207820Y-78634951D01*
X136207115Y-78634591D01*
X136199054Y-78630485D01*
X136148259Y-78582512D01*
X136131463Y-78514692D01*
X136153999Y-78448556D01*
X136199054Y-78409515D01*
X136207816Y-78405051D01*
X136335156Y-78312534D01*
X136379786Y-78280109D01*
X136379788Y-78280106D01*
X136379792Y-78280104D01*
X136530104Y-78129792D01*
X136530106Y-78129788D01*
X136530109Y-78129786D01*
X136655048Y-77957820D01*
X136655047Y-77957820D01*
X136655051Y-77957816D01*
X136751557Y-77768412D01*
X136817246Y-77566243D01*
X136850500Y-77356287D01*
X136850500Y-77143713D01*
X136817246Y-76933757D01*
X136751557Y-76731588D01*
X136655051Y-76542184D01*
X136655049Y-76542181D01*
X136655048Y-76542179D01*
X136530109Y-76370213D01*
X136379786Y-76219890D01*
X136207817Y-76094949D01*
X136198504Y-76090204D01*
X136147707Y-76042230D01*
X136130912Y-75974409D01*
X136153449Y-75908274D01*
X136198507Y-75869232D01*
X136207555Y-75864622D01*
X136261716Y-75825270D01*
X136261717Y-75825270D01*
X135629408Y-75192962D01*
X135692993Y-75175925D01*
X135807007Y-75110099D01*
X135900099Y-75017007D01*
X135965925Y-74902993D01*
X135982962Y-74839408D01*
X136615270Y-75471717D01*
X136615270Y-75471716D01*
X136654622Y-75417554D01*
X136751095Y-75228217D01*
X136816757Y-75026130D01*
X136816757Y-75026127D01*
X136850000Y-74816246D01*
X136850000Y-74603753D01*
X136816757Y-74393872D01*
X136816757Y-74393869D01*
X136751095Y-74191782D01*
X136654624Y-74002449D01*
X136615270Y-73948282D01*
X136615269Y-73948282D01*
X135982962Y-74580590D01*
X135965925Y-74517007D01*
X135900099Y-74402993D01*
X135807007Y-74309901D01*
X135692993Y-74244075D01*
X135629409Y-74227037D01*
X136298802Y-73557642D01*
X136360125Y-73524157D01*
X136374833Y-73525078D01*
X136374556Y-73522501D01*
X136457375Y-73513598D01*
X136592086Y-73463354D01*
X136592093Y-73463350D01*
X136707187Y-73377190D01*
X136707190Y-73377187D01*
X136793350Y-73262093D01*
X136793354Y-73262086D01*
X136843596Y-73127379D01*
X136843598Y-73127372D01*
X136849999Y-73067844D01*
X136850000Y-73067827D01*
X136850000Y-72420000D01*
X135933012Y-72420000D01*
X135965925Y-72362993D01*
X136000000Y-72235826D01*
X136000000Y-72104174D01*
X135965925Y-71977007D01*
X135933012Y-71920000D01*
X136850000Y-71920000D01*
X136850000Y-71272172D01*
X136849999Y-71272155D01*
X136843598Y-71212627D01*
X136843596Y-71212620D01*
X136793354Y-71077913D01*
X136793350Y-71077906D01*
X136707190Y-70962812D01*
X136707187Y-70962809D01*
X136592093Y-70876649D01*
X136592086Y-70876645D01*
X136457379Y-70826403D01*
X136457372Y-70826401D01*
X136397844Y-70820000D01*
X135750000Y-70820000D01*
X135750000Y-71736988D01*
X135692993Y-71704075D01*
X135565826Y-71670000D01*
X135434174Y-71670000D01*
X135307007Y-71704075D01*
X135250000Y-71736988D01*
X135250000Y-70820000D01*
X134602155Y-70820000D01*
X134542627Y-70826401D01*
X134542620Y-70826403D01*
X134407913Y-70876645D01*
X134407906Y-70876649D01*
X134292812Y-70962809D01*
X134292809Y-70962812D01*
X134206649Y-71077906D01*
X134206645Y-71077913D01*
X134156403Y-71212620D01*
X134156401Y-71212627D01*
X134150000Y-71272155D01*
X134150000Y-71920000D01*
X135066988Y-71920000D01*
X135034075Y-71977007D01*
X135000000Y-72104174D01*
X135000000Y-72235826D01*
X135034075Y-72362993D01*
X135066988Y-72420000D01*
X134150000Y-72420000D01*
X134150000Y-73067844D01*
X134156401Y-73127372D01*
X134156403Y-73127379D01*
X134206645Y-73262086D01*
X134206649Y-73262093D01*
X134292809Y-73377187D01*
X134292812Y-73377190D01*
X134407906Y-73463350D01*
X134407913Y-73463354D01*
X134542620Y-73513596D01*
X134542619Y-73513596D01*
X134625444Y-73522501D01*
X134625116Y-73525550D01*
X134642014Y-73524642D01*
X134701196Y-73557642D01*
X135370591Y-74227037D01*
X135307007Y-74244075D01*
X135192993Y-74309901D01*
X135099901Y-74402993D01*
X135034075Y-74517007D01*
X135017037Y-74580591D01*
X134384728Y-73948282D01*
X134384727Y-73948282D01*
X134345380Y-74002439D01*
X134248904Y-74191782D01*
X134183242Y-74393869D01*
X134183242Y-74393872D01*
X134150000Y-74603753D01*
X134150000Y-74680691D01*
X134130315Y-74747730D01*
X134077511Y-74793485D01*
X134008353Y-74803429D01*
X133944797Y-74774404D01*
X133938319Y-74768372D01*
X133084673Y-73914726D01*
X133084669Y-73914723D01*
X132978127Y-73843535D01*
X132859744Y-73794499D01*
X132859738Y-73794497D01*
X132734071Y-73769500D01*
X132734069Y-73769500D01*
X128448071Y-73769500D01*
X128381032Y-73749815D01*
X128347754Y-73718386D01*
X128241966Y-73572781D01*
X128097219Y-73428034D01*
X128097213Y-73428028D01*
X127931614Y-73307715D01*
X127925006Y-73304348D01*
X127838917Y-73260483D01*
X127788123Y-73212511D01*
X127771328Y-73144690D01*
X127793865Y-73078555D01*
X127838917Y-73039516D01*
X127931610Y-72992287D01*
X127952770Y-72976913D01*
X128097213Y-72871971D01*
X128097215Y-72871968D01*
X128097219Y-72871966D01*
X128241966Y-72727219D01*
X128241968Y-72727215D01*
X128241971Y-72727213D01*
X128356119Y-72570099D01*
X128362287Y-72561610D01*
X128455220Y-72379219D01*
X128518477Y-72184534D01*
X128550500Y-71982352D01*
X128550500Y-71777648D01*
X128533450Y-71670000D01*
X128518477Y-71575465D01*
X128481163Y-71460626D01*
X128455220Y-71380781D01*
X128455218Y-71380778D01*
X128455218Y-71380776D01*
X128399872Y-71272155D01*
X128362287Y-71198390D01*
X128353905Y-71186853D01*
X128241971Y-71032786D01*
X128097213Y-70888028D01*
X127931614Y-70767715D01*
X127925006Y-70764348D01*
X127838917Y-70720483D01*
X127788123Y-70672511D01*
X127771328Y-70604690D01*
X127793865Y-70538555D01*
X127838917Y-70499516D01*
X127931610Y-70452287D01*
X127952770Y-70436913D01*
X128097213Y-70331971D01*
X128097215Y-70331968D01*
X128097219Y-70331966D01*
X128241966Y-70187219D01*
X128241968Y-70187215D01*
X128241971Y-70187213D01*
X128316595Y-70084500D01*
X128362287Y-70021610D01*
X128455220Y-69839219D01*
X128518477Y-69644534D01*
X128522260Y-69620644D01*
X128552186Y-69557512D01*
X128611496Y-69520578D01*
X128681359Y-69521573D01*
X128732414Y-69552360D01*
X128913181Y-69733127D01*
X128946666Y-69794450D01*
X128949500Y-69820808D01*
X128949500Y-70205068D01*
X128929815Y-70272107D01*
X128928602Y-70273959D01*
X128846295Y-70397139D01*
X128782184Y-70551917D01*
X128782182Y-70551925D01*
X128749500Y-70716228D01*
X128749500Y-70883771D01*
X128782182Y-71048074D01*
X128782184Y-71048082D01*
X128846295Y-71202860D01*
X128939373Y-71342162D01*
X129057837Y-71460626D01*
X129150494Y-71522537D01*
X129197137Y-71553703D01*
X129351918Y-71617816D01*
X129516228Y-71650499D01*
X129516232Y-71650500D01*
X129516233Y-71650500D01*
X129683768Y-71650500D01*
X129683769Y-71650499D01*
X129848082Y-71617816D01*
X130002863Y-71553703D01*
X130142162Y-71460626D01*
X130260626Y-71342162D01*
X130353703Y-71202863D01*
X130417816Y-71048082D01*
X130450500Y-70883767D01*
X130450500Y-70716233D01*
X130417816Y-70551918D01*
X130353703Y-70397137D01*
X130271398Y-70273959D01*
X130250520Y-70207281D01*
X130250500Y-70205068D01*
X130250500Y-69435928D01*
X130225502Y-69310261D01*
X130225501Y-69310260D01*
X130225501Y-69310256D01*
X130176465Y-69191873D01*
X130156539Y-69162051D01*
X130105277Y-69085331D01*
X130105275Y-69085328D01*
X128614673Y-67594726D01*
X128604427Y-67587880D01*
X128508127Y-67523535D01*
X128508128Y-67523535D01*
X128508126Y-67523534D01*
X128498459Y-67519530D01*
X128493995Y-67517681D01*
X128439592Y-67473841D01*
X128417526Y-67407547D01*
X128430962Y-67346826D01*
X128455220Y-67299219D01*
X128518477Y-67104534D01*
X128550500Y-66902352D01*
X128550500Y-66697648D01*
X128518477Y-66495466D01*
X128455220Y-66300781D01*
X128455218Y-66300778D01*
X128455218Y-66300776D01*
X128396401Y-66185343D01*
X128362287Y-66118390D01*
X128349100Y-66100240D01*
X128241971Y-65952786D01*
X128097213Y-65808028D01*
X127931614Y-65687715D01*
X127925006Y-65684348D01*
X127838917Y-65640483D01*
X127788123Y-65592511D01*
X127771328Y-65524690D01*
X127793865Y-65458555D01*
X127838917Y-65419516D01*
X127931610Y-65372287D01*
X127952770Y-65356913D01*
X128097213Y-65251971D01*
X128097215Y-65251968D01*
X128097219Y-65251966D01*
X128241966Y-65107219D01*
X128241968Y-65107215D01*
X128241971Y-65107213D01*
X128294732Y-65034590D01*
X128362287Y-64941610D01*
X128455220Y-64759219D01*
X128518477Y-64564534D01*
X128550500Y-64362352D01*
X128550500Y-64157648D01*
X128518477Y-63955466D01*
X128455220Y-63760781D01*
X128455218Y-63760778D01*
X128455218Y-63760776D01*
X128421503Y-63694607D01*
X128362287Y-63578390D01*
X128349100Y-63560240D01*
X128241971Y-63412786D01*
X128097213Y-63268028D01*
X127931613Y-63147715D01*
X127931612Y-63147714D01*
X127931610Y-63147713D01*
X127828340Y-63095094D01*
X127749223Y-63054781D01*
X127569843Y-62996497D01*
X127512168Y-62957059D01*
X127484970Y-62892700D01*
X127496885Y-62823854D01*
X127520478Y-62790888D01*
X128382951Y-61928416D01*
X128465084Y-61805495D01*
X128521658Y-61668913D01*
X128550500Y-61523918D01*
X128550500Y-61376083D01*
X128550500Y-59085261D01*
X128559939Y-59037808D01*
X128617816Y-58898082D01*
X128650500Y-58733767D01*
X128650500Y-58566233D01*
X128617816Y-58401918D01*
X128553703Y-58247137D01*
X128522537Y-58200494D01*
X128460626Y-58107837D01*
X128342162Y-57989373D01*
X128202860Y-57896295D01*
X128048082Y-57832184D01*
X128048074Y-57832182D01*
X127883771Y-57799500D01*
X127883767Y-57799500D01*
X127716233Y-57799500D01*
X127716228Y-57799500D01*
X127551925Y-57832182D01*
X127551917Y-57832184D01*
X127397139Y-57896295D01*
X127257837Y-57989373D01*
X127139373Y-58107837D01*
X127046295Y-58247139D01*
X126982184Y-58401917D01*
X126982182Y-58401925D01*
X126949500Y-58566228D01*
X126949500Y-58733771D01*
X126982182Y-58898074D01*
X126982184Y-58898082D01*
X127040061Y-59037808D01*
X127049500Y-59085261D01*
X127049500Y-61087770D01*
X127029815Y-61154809D01*
X127013181Y-61175451D01*
X124167048Y-64021583D01*
X124144859Y-64054792D01*
X124122818Y-64087781D01*
X124084914Y-64144507D01*
X124084913Y-64144509D01*
X124028343Y-64281082D01*
X124028340Y-64281092D01*
X123999500Y-64426079D01*
X123999500Y-80217770D01*
X123979815Y-80284809D01*
X123963181Y-80305451D01*
X123455451Y-80813181D01*
X123394128Y-80846666D01*
X123367770Y-80849500D01*
X120361452Y-80849500D01*
X120294413Y-80829815D01*
X120248658Y-80777011D01*
X120238714Y-80707853D01*
X120267739Y-80644297D01*
X120305156Y-80615016D01*
X120311345Y-80611862D01*
X120311347Y-80611861D01*
X120355921Y-80579474D01*
X119676447Y-79900000D01*
X119682661Y-79900000D01*
X119784394Y-79872741D01*
X119875606Y-79820080D01*
X119950080Y-79745606D01*
X120002741Y-79654394D01*
X120030000Y-79552661D01*
X120030000Y-79546447D01*
X120709474Y-80225921D01*
X120741859Y-80181349D01*
X120834755Y-79999031D01*
X120897990Y-79804417D01*
X120930000Y-79602317D01*
X120930000Y-79397682D01*
X120897990Y-79195582D01*
X120834755Y-79000968D01*
X120741859Y-78818650D01*
X120709474Y-78774077D01*
X120709474Y-78774076D01*
X120030000Y-79453551D01*
X120030000Y-79447339D01*
X120002741Y-79345606D01*
X119950080Y-79254394D01*
X119875606Y-79179920D01*
X119784394Y-79127259D01*
X119682661Y-79100000D01*
X119676446Y-79100000D01*
X120355922Y-78420524D01*
X120355921Y-78420523D01*
X120311359Y-78388147D01*
X120311350Y-78388141D01*
X120218369Y-78340765D01*
X120167573Y-78292790D01*
X120150778Y-78224969D01*
X120173315Y-78158835D01*
X120218370Y-78119795D01*
X120256749Y-78100240D01*
X120311610Y-78072287D01*
X120469162Y-77957820D01*
X120477213Y-77951971D01*
X120477215Y-77951968D01*
X120477219Y-77951966D01*
X120621966Y-77807219D01*
X120621968Y-77807215D01*
X120621971Y-77807213D01*
X120714061Y-77680460D01*
X120742287Y-77641610D01*
X120835220Y-77459219D01*
X120898477Y-77264534D01*
X120930500Y-77062352D01*
X120930500Y-76857648D01*
X120898477Y-76655466D01*
X120898476Y-76655464D01*
X120898476Y-76655461D01*
X120840805Y-76477970D01*
X120835220Y-76460781D01*
X120835218Y-76460778D01*
X120835218Y-76460776D01*
X120789073Y-76370213D01*
X120742287Y-76278390D01*
X120685156Y-76199755D01*
X120621971Y-76112786D01*
X120477213Y-75968028D01*
X120311614Y-75847715D01*
X120267563Y-75825270D01*
X120218917Y-75800483D01*
X120168123Y-75752511D01*
X120151328Y-75684690D01*
X120173865Y-75618555D01*
X120218917Y-75579516D01*
X120311610Y-75532287D01*
X120332770Y-75516913D01*
X120477213Y-75411971D01*
X120477215Y-75411968D01*
X120477219Y-75411966D01*
X120621966Y-75267219D01*
X120621968Y-75267215D01*
X120621971Y-75267213D01*
X120696725Y-75164321D01*
X120742287Y-75101610D01*
X120835220Y-74919219D01*
X120898477Y-74724534D01*
X120930500Y-74522352D01*
X120930500Y-74317648D01*
X120913450Y-74210000D01*
X120898477Y-74115465D01*
X120869127Y-74025137D01*
X120835220Y-73920781D01*
X120835218Y-73920778D01*
X120835218Y-73920776D01*
X120770876Y-73794499D01*
X120742287Y-73738390D01*
X120727753Y-73718385D01*
X120621971Y-73572786D01*
X120477213Y-73428028D01*
X120311614Y-73307715D01*
X120305006Y-73304348D01*
X120218917Y-73260483D01*
X120168123Y-73212511D01*
X120151328Y-73144690D01*
X120173865Y-73078555D01*
X120218917Y-73039516D01*
X120311610Y-72992287D01*
X120332770Y-72976913D01*
X120477213Y-72871971D01*
X120477215Y-72871968D01*
X120477219Y-72871966D01*
X120621966Y-72727219D01*
X120621968Y-72727215D01*
X120621971Y-72727213D01*
X120736119Y-72570099D01*
X120742287Y-72561610D01*
X120835220Y-72379219D01*
X120898477Y-72184534D01*
X120930500Y-71982352D01*
X120930500Y-71777648D01*
X120913450Y-71670000D01*
X120898477Y-71575465D01*
X120861163Y-71460626D01*
X120835220Y-71380781D01*
X120835218Y-71380778D01*
X120835218Y-71380776D01*
X120779872Y-71272155D01*
X120742287Y-71198390D01*
X120733905Y-71186853D01*
X120621971Y-71032786D01*
X120477213Y-70888028D01*
X120311614Y-70767715D01*
X120305006Y-70764348D01*
X120218917Y-70720483D01*
X120168123Y-70672511D01*
X120151328Y-70604690D01*
X120173865Y-70538555D01*
X120218917Y-70499516D01*
X120311610Y-70452287D01*
X120332770Y-70436913D01*
X120477213Y-70331971D01*
X120477215Y-70331968D01*
X120477219Y-70331966D01*
X120621966Y-70187219D01*
X120621968Y-70187215D01*
X120621971Y-70187213D01*
X120696595Y-70084500D01*
X120742287Y-70021610D01*
X120835220Y-69839219D01*
X120898477Y-69644534D01*
X120930500Y-69442352D01*
X120930500Y-69237648D01*
X120906375Y-69085331D01*
X120898477Y-69035465D01*
X120869127Y-68945137D01*
X120835220Y-68840781D01*
X120835218Y-68840778D01*
X120835218Y-68840776D01*
X120789219Y-68750500D01*
X120742287Y-68658390D01*
X120729100Y-68640240D01*
X120621971Y-68492786D01*
X120477213Y-68348028D01*
X120311614Y-68227715D01*
X120305006Y-68224348D01*
X120218917Y-68180483D01*
X120168123Y-68132511D01*
X120151328Y-68064690D01*
X120173865Y-67998555D01*
X120218917Y-67959516D01*
X120311610Y-67912287D01*
X120332770Y-67896913D01*
X120477213Y-67791971D01*
X120477215Y-67791968D01*
X120477219Y-67791966D01*
X120621966Y-67647219D01*
X120621968Y-67647215D01*
X120621971Y-67647213D01*
X120711827Y-67523535D01*
X120742287Y-67481610D01*
X120835220Y-67299219D01*
X120898477Y-67104534D01*
X120930500Y-66902352D01*
X120930500Y-66697648D01*
X120898477Y-66495466D01*
X120835220Y-66300781D01*
X120835218Y-66300778D01*
X120835218Y-66300776D01*
X120776401Y-66185343D01*
X120742287Y-66118390D01*
X120729100Y-66100240D01*
X120621971Y-65952786D01*
X120477213Y-65808028D01*
X120311614Y-65687715D01*
X120305006Y-65684348D01*
X120218917Y-65640483D01*
X120168123Y-65592511D01*
X120151328Y-65524690D01*
X120173865Y-65458555D01*
X120218917Y-65419516D01*
X120311610Y-65372287D01*
X120332770Y-65356913D01*
X120477213Y-65251971D01*
X120477215Y-65251968D01*
X120477219Y-65251966D01*
X120621966Y-65107219D01*
X120621968Y-65107215D01*
X120621971Y-65107213D01*
X120674732Y-65034590D01*
X120742287Y-64941610D01*
X120835220Y-64759219D01*
X120898477Y-64564534D01*
X120930500Y-64362352D01*
X120930500Y-64157648D01*
X120898477Y-63955466D01*
X120835220Y-63760781D01*
X120835218Y-63760778D01*
X120835218Y-63760776D01*
X120801503Y-63694607D01*
X120742287Y-63578390D01*
X120729100Y-63560240D01*
X120621971Y-63412786D01*
X120477213Y-63268028D01*
X120311613Y-63147715D01*
X120311612Y-63147714D01*
X120311610Y-63147713D01*
X120208340Y-63095094D01*
X120129223Y-63054781D01*
X119934534Y-62991522D01*
X119759995Y-62963878D01*
X119732352Y-62959500D01*
X119527648Y-62959500D01*
X119503329Y-62963351D01*
X119325465Y-62991522D01*
X119130776Y-63054781D01*
X118948386Y-63147715D01*
X118782786Y-63268028D01*
X118638028Y-63412786D01*
X118517715Y-63578386D01*
X118424781Y-63760776D01*
X118361522Y-63955465D01*
X118329500Y-64157648D01*
X118329500Y-64362351D01*
X118361522Y-64564534D01*
X118424781Y-64759223D01*
X118477266Y-64862229D01*
X118507490Y-64921547D01*
X118517715Y-64941613D01*
X118638028Y-65107213D01*
X118782786Y-65251971D01*
X118937749Y-65364556D01*
X118948390Y-65372287D01*
X119039840Y-65418883D01*
X119041080Y-65419515D01*
X119091876Y-65467490D01*
X119108671Y-65535311D01*
X119086134Y-65601446D01*
X119041080Y-65640485D01*
X118948386Y-65687715D01*
X118782786Y-65808028D01*
X118638028Y-65952786D01*
X118517715Y-66118386D01*
X118424781Y-66300776D01*
X118361522Y-66495465D01*
X118329500Y-66697648D01*
X118329500Y-66902351D01*
X118361522Y-67104534D01*
X118424781Y-67299223D01*
X118464417Y-67377011D01*
X118513754Y-67473841D01*
X118517715Y-67481613D01*
X118638028Y-67647213D01*
X118782786Y-67791971D01*
X118934973Y-67902539D01*
X118948390Y-67912287D01*
X119002417Y-67939815D01*
X119041080Y-67959515D01*
X119091876Y-68007490D01*
X119108671Y-68075311D01*
X119086134Y-68141446D01*
X119041080Y-68180485D01*
X118948386Y-68227715D01*
X118782786Y-68348028D01*
X118638028Y-68492786D01*
X118517715Y-68658386D01*
X118424781Y-68840776D01*
X118361522Y-69035465D01*
X118329500Y-69237648D01*
X118329500Y-69442351D01*
X118361522Y-69644534D01*
X118424781Y-69839223D01*
X118478412Y-69944477D01*
X118511892Y-70010186D01*
X118517715Y-70021613D01*
X118638028Y-70187213D01*
X118782786Y-70331971D01*
X118937749Y-70444556D01*
X118948390Y-70452287D01*
X119039840Y-70498883D01*
X119041080Y-70499515D01*
X119091876Y-70547490D01*
X119108671Y-70615311D01*
X119086134Y-70681446D01*
X119041080Y-70720485D01*
X118948386Y-70767715D01*
X118782786Y-70888028D01*
X118638028Y-71032786D01*
X118517715Y-71198386D01*
X118424781Y-71380776D01*
X118361522Y-71575465D01*
X118329500Y-71777648D01*
X118329500Y-71982351D01*
X118361522Y-72184534D01*
X118424781Y-72379223D01*
X118517715Y-72561613D01*
X118638028Y-72727213D01*
X118782786Y-72871971D01*
X118937749Y-72984556D01*
X118948390Y-72992287D01*
X119039840Y-73038883D01*
X119041080Y-73039515D01*
X119091876Y-73087490D01*
X119108671Y-73155311D01*
X119086134Y-73221446D01*
X119041080Y-73260485D01*
X118948386Y-73307715D01*
X118782786Y-73428028D01*
X118638028Y-73572786D01*
X118517715Y-73738386D01*
X118424781Y-73920776D01*
X118361522Y-74115465D01*
X118329500Y-74317648D01*
X118329500Y-74522351D01*
X118361522Y-74724534D01*
X118424781Y-74919223D01*
X118517715Y-75101613D01*
X118638028Y-75267213D01*
X118782786Y-75411971D01*
X118934267Y-75522026D01*
X118948390Y-75532287D01*
X119039840Y-75578883D01*
X119041080Y-75579515D01*
X119091876Y-75627490D01*
X119108671Y-75695311D01*
X119086134Y-75761446D01*
X119041080Y-75800485D01*
X118948386Y-75847715D01*
X118782786Y-75968028D01*
X118638028Y-76112786D01*
X118517715Y-76278386D01*
X118424781Y-76460776D01*
X118361524Y-76655461D01*
X118361523Y-76655464D01*
X118361523Y-76655466D01*
X118329500Y-76857648D01*
X118329500Y-77062352D01*
X118333855Y-77089849D01*
X118361522Y-77264534D01*
X118424781Y-77459223D01*
X118488691Y-77584653D01*
X118504409Y-77615500D01*
X118517715Y-77641613D01*
X118638028Y-77807213D01*
X118782786Y-77951971D01*
X118948385Y-78072284D01*
X118948387Y-78072285D01*
X118948390Y-78072287D01*
X119003251Y-78100240D01*
X119041630Y-78119795D01*
X119092426Y-78167770D01*
X119109221Y-78235591D01*
X119086684Y-78301725D01*
X119041630Y-78340765D01*
X118948644Y-78388143D01*
X118904077Y-78420523D01*
X118904077Y-78420524D01*
X119583554Y-79100000D01*
X119577339Y-79100000D01*
X119475606Y-79127259D01*
X119384394Y-79179920D01*
X119309920Y-79254394D01*
X119257259Y-79345606D01*
X119230000Y-79447339D01*
X119230000Y-79453553D01*
X118550524Y-78774077D01*
X118550523Y-78774077D01*
X118518143Y-78818644D01*
X118425244Y-79000968D01*
X118362009Y-79195582D01*
X118330000Y-79397682D01*
X118330000Y-79602317D01*
X118362009Y-79804417D01*
X118425244Y-79999031D01*
X118518141Y-80181350D01*
X118518147Y-80181359D01*
X118550523Y-80225921D01*
X118550524Y-80225922D01*
X119230000Y-79546446D01*
X119230000Y-79552661D01*
X119257259Y-79654394D01*
X119309920Y-79745606D01*
X119384394Y-79820080D01*
X119475606Y-79872741D01*
X119577339Y-79900000D01*
X119583553Y-79900000D01*
X118904076Y-80579474D01*
X118948653Y-80611861D01*
X118954844Y-80615016D01*
X119005640Y-80662991D01*
X119022434Y-80730812D01*
X118999896Y-80796947D01*
X118945180Y-80840398D01*
X118898548Y-80849500D01*
X113835261Y-80849500D01*
X113787808Y-80840061D01*
X113688454Y-80798907D01*
X113648082Y-80782184D01*
X113648074Y-80782182D01*
X113483771Y-80749500D01*
X113483767Y-80749500D01*
X113316233Y-80749500D01*
X113316228Y-80749500D01*
X113151925Y-80782182D01*
X113151917Y-80782184D01*
X113012192Y-80840061D01*
X112964739Y-80849500D01*
X112326080Y-80849500D01*
X112181092Y-80878340D01*
X112181082Y-80878343D01*
X112044511Y-80934912D01*
X112044504Y-80934916D01*
X112022677Y-80949501D01*
X111985265Y-80974499D01*
X111985264Y-80974500D01*
X111921581Y-81017050D01*
X111921580Y-81017051D01*
X111217052Y-81721578D01*
X111217051Y-81721579D01*
X111171507Y-81789743D01*
X111171506Y-81789744D01*
X111134914Y-81844507D01*
X111078343Y-81981082D01*
X111078340Y-81981092D01*
X111049500Y-82126079D01*
X111049500Y-84970447D01*
X111029815Y-85037486D01*
X110977011Y-85083241D01*
X110907853Y-85093185D01*
X110869205Y-85080932D01*
X110708217Y-84998904D01*
X110506129Y-84933242D01*
X110296246Y-84900000D01*
X110083754Y-84900000D01*
X109873872Y-84933242D01*
X109873869Y-84933242D01*
X109671782Y-84998904D01*
X109482439Y-85095380D01*
X109428282Y-85134727D01*
X109428282Y-85134728D01*
X110060591Y-85767037D01*
X109997007Y-85784075D01*
X109882993Y-85849901D01*
X109789901Y-85942993D01*
X109724075Y-86057007D01*
X109707037Y-86120591D01*
X109074728Y-85488282D01*
X109074727Y-85488282D01*
X109035380Y-85542439D01*
X108938904Y-85731782D01*
X108873242Y-85933869D01*
X108873242Y-85933872D01*
X108840000Y-86143753D01*
X100500500Y-86143753D01*
X100500500Y-66340759D01*
X101535500Y-66340759D01*
X101535500Y-66499240D01*
X101566414Y-66654656D01*
X101566416Y-66654664D01*
X101627059Y-66801071D01*
X101627064Y-66801080D01*
X101715103Y-66932838D01*
X101715106Y-66932842D01*
X101827157Y-67044893D01*
X101827161Y-67044896D01*
X101958919Y-67132935D01*
X101958928Y-67132940D01*
X101992095Y-67146678D01*
X102105336Y-67193584D01*
X102260759Y-67224499D01*
X102260763Y-67224500D01*
X102260764Y-67224500D01*
X102419237Y-67224500D01*
X102419238Y-67224499D01*
X102574664Y-67193584D01*
X102721074Y-67132939D01*
X102852839Y-67044896D01*
X102919650Y-66978084D01*
X102980971Y-66944601D01*
X103050663Y-66949585D01*
X103106597Y-66991456D01*
X103117814Y-67009471D01*
X103182120Y-67135678D01*
X103308455Y-67309563D01*
X103460437Y-67461545D01*
X103545759Y-67523535D01*
X103636802Y-67589682D01*
X103679467Y-67645012D01*
X103685446Y-67714626D01*
X103652840Y-67776421D01*
X103636802Y-67790318D01*
X103634322Y-67792120D01*
X103460437Y-67918455D01*
X103460435Y-67918457D01*
X103460434Y-67918457D01*
X103308457Y-68070434D01*
X103308457Y-68070435D01*
X103308455Y-68070437D01*
X103304914Y-68075311D01*
X103182120Y-68244321D01*
X103084541Y-68435829D01*
X103084540Y-68435832D01*
X103018124Y-68640240D01*
X103018124Y-68640243D01*
X103015250Y-68658390D01*
X102984500Y-68852533D01*
X102984500Y-69067467D01*
X103006916Y-69208992D01*
X103018124Y-69279756D01*
X103018124Y-69279759D01*
X103084540Y-69484167D01*
X103084541Y-69484170D01*
X103154081Y-69620648D01*
X103182120Y-69675678D01*
X103308455Y-69849563D01*
X103308457Y-69849565D01*
X103403369Y-69944477D01*
X103436854Y-70005800D01*
X103431870Y-70075492D01*
X103389998Y-70131425D01*
X103359021Y-70148340D01*
X103242913Y-70191645D01*
X103242906Y-70191649D01*
X103127812Y-70277809D01*
X103127809Y-70277812D01*
X103041649Y-70392906D01*
X103041645Y-70392913D01*
X102991403Y-70527620D01*
X102991401Y-70527627D01*
X102985000Y-70587155D01*
X102985000Y-71250000D01*
X104055440Y-71250000D01*
X104024755Y-71303147D01*
X103990000Y-71432857D01*
X103990000Y-71567143D01*
X104024755Y-71696853D01*
X104055440Y-71750000D01*
X102985000Y-71750000D01*
X102985000Y-72412844D01*
X102991401Y-72472372D01*
X102991403Y-72472379D01*
X103041645Y-72607086D01*
X103041649Y-72607093D01*
X103127809Y-72722187D01*
X103127812Y-72722190D01*
X103242906Y-72808350D01*
X103242913Y-72808354D01*
X103377620Y-72858596D01*
X103377627Y-72858598D01*
X103437155Y-72864999D01*
X103437172Y-72865000D01*
X104250000Y-72865000D01*
X104250000Y-71944560D01*
X104303147Y-71975245D01*
X104432857Y-72010000D01*
X104567143Y-72010000D01*
X104696853Y-71975245D01*
X104750000Y-71944560D01*
X104750000Y-72865000D01*
X105562828Y-72865000D01*
X105562844Y-72864999D01*
X105622372Y-72858598D01*
X105622379Y-72858596D01*
X105757086Y-72808354D01*
X105757093Y-72808350D01*
X105872187Y-72722190D01*
X105872190Y-72722187D01*
X105958350Y-72607093D01*
X105958354Y-72607086D01*
X106008596Y-72472379D01*
X106008598Y-72472372D01*
X106014999Y-72412844D01*
X106015000Y-72412827D01*
X106015000Y-71750000D01*
X104944560Y-71750000D01*
X104975245Y-71696853D01*
X105010000Y-71567143D01*
X105010000Y-71432857D01*
X104975245Y-71303147D01*
X104944560Y-71250000D01*
X106015000Y-71250000D01*
X106015000Y-70587172D01*
X106014999Y-70587155D01*
X106008598Y-70527627D01*
X106008596Y-70527620D01*
X105958354Y-70392913D01*
X105958350Y-70392906D01*
X105872190Y-70277812D01*
X105872187Y-70277809D01*
X105749989Y-70186331D01*
X105751352Y-70184509D01*
X105710768Y-70143923D01*
X105695919Y-70075649D01*
X105720339Y-70010186D01*
X105776274Y-69968317D01*
X105819603Y-69960500D01*
X106675500Y-69960500D01*
X106742539Y-69980185D01*
X106788294Y-70032989D01*
X106799500Y-70084500D01*
X106799500Y-78734218D01*
X106779815Y-78801257D01*
X106763181Y-78821899D01*
X105688043Y-79897036D01*
X105626720Y-79930521D01*
X105557028Y-79925537D01*
X105527477Y-79909673D01*
X105363198Y-79790318D01*
X105320532Y-79734988D01*
X105314553Y-79665375D01*
X105347158Y-79603580D01*
X105363198Y-79589682D01*
X105414153Y-79552661D01*
X105539563Y-79461545D01*
X105691545Y-79309563D01*
X105817880Y-79135678D01*
X105915458Y-78944170D01*
X105946218Y-78849500D01*
X105981875Y-78739759D01*
X105981875Y-78739758D01*
X105981876Y-78739755D01*
X106015500Y-78527467D01*
X106015500Y-78312533D01*
X105981876Y-78100245D01*
X105981875Y-78100241D01*
X105981875Y-78100240D01*
X105915459Y-77895832D01*
X105915458Y-77895829D01*
X105850535Y-77768412D01*
X105817880Y-77704322D01*
X105691545Y-77530437D01*
X105539563Y-77378455D01*
X105529522Y-77371160D01*
X105363198Y-77250318D01*
X105320532Y-77194988D01*
X105314553Y-77125375D01*
X105347159Y-77063580D01*
X105363198Y-77049682D01*
X105391381Y-77029205D01*
X105539563Y-76921545D01*
X105691545Y-76769563D01*
X105817880Y-76595678D01*
X105915458Y-76404170D01*
X105950925Y-76295014D01*
X105981875Y-76199759D01*
X105981875Y-76199758D01*
X105981876Y-76199755D01*
X106015500Y-75987467D01*
X106015500Y-75772533D01*
X105981876Y-75560245D01*
X105981875Y-75560241D01*
X105981875Y-75560240D01*
X105915459Y-75355832D01*
X105915458Y-75355829D01*
X105817879Y-75164321D01*
X105691545Y-74990437D01*
X105539563Y-74838455D01*
X105365678Y-74712120D01*
X105361515Y-74709999D01*
X105174170Y-74614541D01*
X105174167Y-74614540D01*
X104969757Y-74548124D01*
X104807035Y-74522351D01*
X104757467Y-74514500D01*
X104242533Y-74514500D01*
X104192965Y-74522351D01*
X104030243Y-74548124D01*
X104030240Y-74548124D01*
X103825832Y-74614540D01*
X103825829Y-74614541D01*
X103634321Y-74712120D01*
X103546638Y-74775826D01*
X103460437Y-74838455D01*
X103460435Y-74838457D01*
X103460434Y-74838457D01*
X103308457Y-74990434D01*
X103308457Y-74990435D01*
X103308455Y-74990437D01*
X103259477Y-75057849D01*
X103182120Y-75164321D01*
X103084541Y-75355829D01*
X103084540Y-75355832D01*
X103018124Y-75560240D01*
X103018124Y-75560243D01*
X102997572Y-75690000D01*
X102984500Y-75772533D01*
X102984500Y-75987467D01*
X102993174Y-76042230D01*
X103018124Y-76199756D01*
X103018124Y-76199759D01*
X103084540Y-76404167D01*
X103084541Y-76404170D01*
X103175357Y-76582405D01*
X103182120Y-76595678D01*
X103308455Y-76769563D01*
X103460437Y-76921545D01*
X103606181Y-77027434D01*
X103636802Y-77049682D01*
X103679467Y-77105012D01*
X103685446Y-77174626D01*
X103652840Y-77236421D01*
X103636802Y-77250318D01*
X103594539Y-77281023D01*
X103460437Y-77378455D01*
X103460435Y-77378457D01*
X103460434Y-77378457D01*
X103308457Y-77530434D01*
X103308457Y-77530435D01*
X103308455Y-77530437D01*
X103259073Y-77598405D01*
X103182120Y-77704321D01*
X103117815Y-77830527D01*
X103069840Y-77881323D01*
X103002019Y-77898118D01*
X102935884Y-77875580D01*
X102919649Y-77861913D01*
X102852842Y-77795106D01*
X102852838Y-77795103D01*
X102721080Y-77707064D01*
X102721071Y-77707059D01*
X102574664Y-77646416D01*
X102574656Y-77646414D01*
X102419240Y-77615500D01*
X102419236Y-77615500D01*
X102260764Y-77615500D01*
X102260759Y-77615500D01*
X102105343Y-77646414D01*
X102105335Y-77646416D01*
X101958928Y-77707059D01*
X101958919Y-77707064D01*
X101827161Y-77795103D01*
X101827157Y-77795106D01*
X101715106Y-77907157D01*
X101715103Y-77907161D01*
X101627064Y-78038919D01*
X101627059Y-78038928D01*
X101566416Y-78185335D01*
X101566414Y-78185343D01*
X101535500Y-78340759D01*
X101535500Y-78499240D01*
X101566414Y-78654656D01*
X101566416Y-78654664D01*
X101627059Y-78801071D01*
X101627064Y-78801080D01*
X101715103Y-78932838D01*
X101715106Y-78932842D01*
X101827157Y-79044893D01*
X101827161Y-79044896D01*
X101958919Y-79132935D01*
X101958928Y-79132940D01*
X101991535Y-79146446D01*
X102105336Y-79193584D01*
X102260759Y-79224499D01*
X102260763Y-79224500D01*
X102260764Y-79224500D01*
X102419237Y-79224500D01*
X102419238Y-79224499D01*
X102574664Y-79193584D01*
X102721074Y-79132939D01*
X102852839Y-79044896D01*
X102919650Y-78978084D01*
X102980971Y-78944601D01*
X103050663Y-78949585D01*
X103106597Y-78991456D01*
X103117814Y-79009471D01*
X103182120Y-79135678D01*
X103308455Y-79309563D01*
X103460437Y-79461545D01*
X103585847Y-79552661D01*
X103636802Y-79589682D01*
X103679467Y-79645012D01*
X103685446Y-79714626D01*
X103652840Y-79776421D01*
X103636802Y-79790318D01*
X103634322Y-79792120D01*
X103460437Y-79918455D01*
X103460435Y-79918457D01*
X103460434Y-79918457D01*
X103308457Y-80070434D01*
X103308457Y-80070435D01*
X103308455Y-80070437D01*
X103254198Y-80145114D01*
X103182120Y-80244321D01*
X103084541Y-80435829D01*
X103084540Y-80435832D01*
X103018124Y-80640240D01*
X103018124Y-80640243D01*
X103003779Y-80730812D01*
X102984981Y-80849500D01*
X102984500Y-80852534D01*
X102984500Y-81067465D01*
X103018124Y-81279756D01*
X103018124Y-81279759D01*
X103084540Y-81484167D01*
X103084541Y-81484170D01*
X103142428Y-81597778D01*
X103182120Y-81675678D01*
X103308455Y-81849563D01*
X103308457Y-81849565D01*
X103403369Y-81944477D01*
X103436854Y-82005800D01*
X103431870Y-82075492D01*
X103389998Y-82131425D01*
X103359021Y-82148340D01*
X103242913Y-82191645D01*
X103242906Y-82191649D01*
X103127812Y-82277809D01*
X103127809Y-82277812D01*
X103041649Y-82392906D01*
X103041645Y-82392913D01*
X102991403Y-82527620D01*
X102991401Y-82527627D01*
X102985000Y-82587155D01*
X102985000Y-83250000D01*
X104055440Y-83250000D01*
X104024755Y-83303147D01*
X103990000Y-83432857D01*
X103990000Y-83567143D01*
X104024755Y-83696853D01*
X104055440Y-83750000D01*
X102985000Y-83750000D01*
X102985000Y-84412844D01*
X102991401Y-84472372D01*
X102991403Y-84472379D01*
X103041645Y-84607086D01*
X103041649Y-84607093D01*
X103127809Y-84722187D01*
X103127812Y-84722190D01*
X103242906Y-84808350D01*
X103242913Y-84808354D01*
X103377620Y-84858596D01*
X103377627Y-84858598D01*
X103437155Y-84864999D01*
X103437172Y-84865000D01*
X104250000Y-84865000D01*
X104250000Y-83944560D01*
X104303147Y-83975245D01*
X104432857Y-84010000D01*
X104567143Y-84010000D01*
X104696853Y-83975245D01*
X104750000Y-83944560D01*
X104750000Y-84865000D01*
X105562828Y-84865000D01*
X105562844Y-84864999D01*
X105622372Y-84858598D01*
X105622379Y-84858596D01*
X105757086Y-84808354D01*
X105757093Y-84808350D01*
X105872187Y-84722190D01*
X105872190Y-84722187D01*
X105958350Y-84607093D01*
X105958354Y-84607086D01*
X106008596Y-84472379D01*
X106008598Y-84472372D01*
X106014999Y-84412844D01*
X106015000Y-84412827D01*
X106015000Y-83750000D01*
X104944560Y-83750000D01*
X104975245Y-83696853D01*
X105010000Y-83567143D01*
X105010000Y-83432857D01*
X104975245Y-83303147D01*
X104944560Y-83250000D01*
X106015000Y-83250000D01*
X106015000Y-82587172D01*
X106014999Y-82587155D01*
X106008598Y-82527627D01*
X106008596Y-82527620D01*
X105958354Y-82392913D01*
X105958350Y-82392906D01*
X105872190Y-82277812D01*
X105872187Y-82277809D01*
X105749989Y-82186331D01*
X105751352Y-82184509D01*
X105710768Y-82143923D01*
X105695919Y-82075649D01*
X105720339Y-82010186D01*
X105776274Y-81968317D01*
X105819603Y-81960500D01*
X106138543Y-81960500D01*
X106188949Y-81950473D01*
X106283493Y-81931667D01*
X106331836Y-81922051D01*
X106385165Y-81899961D01*
X106513914Y-81846632D01*
X106677782Y-81737139D01*
X106817139Y-81597782D01*
X106817140Y-81597779D01*
X106824206Y-81590714D01*
X106824209Y-81590710D01*
X108437778Y-79977141D01*
X108437782Y-79977139D01*
X108577139Y-79837782D01*
X108686632Y-79673914D01*
X108762051Y-79491835D01*
X108774252Y-79430500D01*
X108788417Y-79359288D01*
X108798171Y-79310254D01*
X108800499Y-79298546D01*
X108800500Y-79298541D01*
X108800500Y-76942146D01*
X115790200Y-76942146D01*
X115790200Y-77089853D01*
X115819012Y-77234701D01*
X115819014Y-77234709D01*
X115875534Y-77371160D01*
X115875539Y-77371170D01*
X115957591Y-77493969D01*
X115957594Y-77493973D01*
X116062026Y-77598405D01*
X116062030Y-77598408D01*
X116184829Y-77680460D01*
X116184833Y-77680462D01*
X116184836Y-77680464D01*
X116321291Y-77736986D01*
X116466146Y-77765799D01*
X116466150Y-77765800D01*
X116466151Y-77765800D01*
X116613850Y-77765800D01*
X116613851Y-77765799D01*
X116758709Y-77736986D01*
X116895164Y-77680464D01*
X117017970Y-77598408D01*
X117122408Y-77493970D01*
X117204464Y-77371164D01*
X117260986Y-77234709D01*
X117289800Y-77089849D01*
X117289800Y-76942151D01*
X117260986Y-76797291D01*
X117204464Y-76660836D01*
X117204462Y-76660833D01*
X117204460Y-76660829D01*
X117122407Y-76538028D01*
X117017973Y-76433594D01*
X117017969Y-76433591D01*
X116895170Y-76351539D01*
X116895160Y-76351534D01*
X116758709Y-76295014D01*
X116758701Y-76295012D01*
X116613853Y-76266200D01*
X116613849Y-76266200D01*
X116466151Y-76266200D01*
X116466146Y-76266200D01*
X116321298Y-76295012D01*
X116321290Y-76295014D01*
X116184839Y-76351534D01*
X116184829Y-76351539D01*
X116062030Y-76433591D01*
X116062026Y-76433594D01*
X115957594Y-76538026D01*
X115957593Y-76538028D01*
X115875539Y-76660829D01*
X115875534Y-76660839D01*
X115819014Y-76797290D01*
X115819012Y-76797298D01*
X115790200Y-76942146D01*
X108800500Y-76942146D01*
X108800500Y-75926146D01*
X110710200Y-75926146D01*
X110710200Y-76073853D01*
X110739012Y-76218701D01*
X110739014Y-76218709D01*
X110795534Y-76355160D01*
X110795539Y-76355170D01*
X110877591Y-76477969D01*
X110877594Y-76477973D01*
X110982026Y-76582405D01*
X110982030Y-76582408D01*
X111104829Y-76664460D01*
X111104833Y-76664462D01*
X111104836Y-76664464D01*
X111241291Y-76720986D01*
X111386146Y-76749799D01*
X111386150Y-76749800D01*
X111386151Y-76749800D01*
X111533850Y-76749800D01*
X111533851Y-76749799D01*
X111678709Y-76720986D01*
X111815164Y-76664464D01*
X111937970Y-76582408D01*
X112042408Y-76477970D01*
X112124464Y-76355164D01*
X112180986Y-76218709D01*
X112209800Y-76073849D01*
X112209800Y-75926151D01*
X112180986Y-75781291D01*
X112124464Y-75644836D01*
X112124462Y-75644833D01*
X112124460Y-75644829D01*
X112042408Y-75522030D01*
X112042405Y-75522026D01*
X111937973Y-75417594D01*
X111937969Y-75417591D01*
X111815170Y-75335539D01*
X111815160Y-75335534D01*
X111678709Y-75279014D01*
X111678701Y-75279012D01*
X111533853Y-75250200D01*
X111533849Y-75250200D01*
X111386151Y-75250200D01*
X111386146Y-75250200D01*
X111241298Y-75279012D01*
X111241290Y-75279014D01*
X111104839Y-75335534D01*
X111104829Y-75335539D01*
X110982030Y-75417591D01*
X110982026Y-75417594D01*
X110877594Y-75522026D01*
X110877591Y-75522030D01*
X110795539Y-75644829D01*
X110795534Y-75644839D01*
X110739014Y-75781290D01*
X110739012Y-75781298D01*
X110710200Y-75926146D01*
X108800500Y-75926146D01*
X108800500Y-74910146D01*
X115790200Y-74910146D01*
X115790200Y-75057853D01*
X115819012Y-75202701D01*
X115819014Y-75202709D01*
X115875534Y-75339160D01*
X115875539Y-75339170D01*
X115957591Y-75461969D01*
X115957594Y-75461973D01*
X116062026Y-75566405D01*
X116062030Y-75566408D01*
X116184829Y-75648460D01*
X116184833Y-75648462D01*
X116184836Y-75648464D01*
X116321291Y-75704986D01*
X116466146Y-75733799D01*
X116466150Y-75733800D01*
X116466151Y-75733800D01*
X116613850Y-75733800D01*
X116613851Y-75733799D01*
X116758709Y-75704986D01*
X116895164Y-75648464D01*
X117017970Y-75566408D01*
X117122408Y-75461970D01*
X117204464Y-75339164D01*
X117260986Y-75202709D01*
X117289800Y-75057849D01*
X117289800Y-74910151D01*
X117260986Y-74765291D01*
X117204464Y-74628836D01*
X117204462Y-74628833D01*
X117204460Y-74628829D01*
X117122408Y-74506030D01*
X117122405Y-74506026D01*
X117017973Y-74401594D01*
X117017969Y-74401591D01*
X116895170Y-74319539D01*
X116895160Y-74319534D01*
X116758709Y-74263014D01*
X116758701Y-74263012D01*
X116613853Y-74234200D01*
X116613849Y-74234200D01*
X116466151Y-74234200D01*
X116466146Y-74234200D01*
X116321298Y-74263012D01*
X116321290Y-74263014D01*
X116184839Y-74319534D01*
X116184829Y-74319539D01*
X116062030Y-74401591D01*
X116062026Y-74401594D01*
X115957594Y-74506026D01*
X115957591Y-74506030D01*
X115875539Y-74628829D01*
X115875534Y-74628839D01*
X115819014Y-74765290D01*
X115819012Y-74765298D01*
X115790200Y-74910146D01*
X108800500Y-74910146D01*
X108800500Y-63915781D01*
X108820185Y-63848742D01*
X108836814Y-63828104D01*
X109897778Y-62767141D01*
X109897782Y-62767139D01*
X110037139Y-62627782D01*
X110146632Y-62463914D01*
X110222051Y-62281835D01*
X110260500Y-62088541D01*
X110260500Y-61519430D01*
X110280185Y-61452391D01*
X110332989Y-61406636D01*
X110402147Y-61396692D01*
X110465703Y-61425717D01*
X110500682Y-61476097D01*
X110506645Y-61492086D01*
X110506649Y-61492093D01*
X110592809Y-61607187D01*
X110592812Y-61607190D01*
X110707906Y-61693350D01*
X110707913Y-61693354D01*
X110842620Y-61743596D01*
X110842627Y-61743598D01*
X110902155Y-61749999D01*
X110902172Y-61750000D01*
X111550000Y-61750000D01*
X111550000Y-60833012D01*
X111607007Y-60865925D01*
X111734174Y-60900000D01*
X111865826Y-60900000D01*
X111992993Y-60865925D01*
X112050000Y-60833012D01*
X112050000Y-61750000D01*
X112697828Y-61750000D01*
X112697844Y-61749999D01*
X112757372Y-61743598D01*
X112757379Y-61743596D01*
X112892086Y-61693354D01*
X112892093Y-61693350D01*
X113007187Y-61607190D01*
X113007190Y-61607187D01*
X113093350Y-61492093D01*
X113093354Y-61492086D01*
X113143596Y-61357379D01*
X113143598Y-61357372D01*
X113149999Y-61297844D01*
X113150000Y-61297827D01*
X113150000Y-60650000D01*
X112233012Y-60650000D01*
X112265925Y-60592993D01*
X112300000Y-60465826D01*
X112300000Y-60334174D01*
X112265925Y-60207007D01*
X112233012Y-60150000D01*
X113150000Y-60150000D01*
X113150000Y-59502172D01*
X113149999Y-59502155D01*
X113143598Y-59442627D01*
X113143596Y-59442620D01*
X113093354Y-59307913D01*
X113093350Y-59307906D01*
X113007190Y-59192812D01*
X113007187Y-59192809D01*
X112892093Y-59106649D01*
X112892086Y-59106645D01*
X112757379Y-59056403D01*
X112757372Y-59056401D01*
X112697844Y-59050000D01*
X112050000Y-59050000D01*
X112050000Y-59966988D01*
X111992993Y-59934075D01*
X111865826Y-59900000D01*
X111734174Y-59900000D01*
X111607007Y-59934075D01*
X111550000Y-59966988D01*
X111550000Y-59050000D01*
X110902155Y-59050000D01*
X110842627Y-59056401D01*
X110842620Y-59056403D01*
X110707913Y-59106645D01*
X110707906Y-59106649D01*
X110592812Y-59192809D01*
X110592809Y-59192812D01*
X110506649Y-59307906D01*
X110506646Y-59307912D01*
X110457577Y-59439471D01*
X110415705Y-59495404D01*
X110350241Y-59519821D01*
X110281968Y-59504969D01*
X110253714Y-59483818D01*
X110139786Y-59369890D01*
X109967820Y-59244951D01*
X109778414Y-59148444D01*
X109778413Y-59148443D01*
X109778412Y-59148443D01*
X109576243Y-59082754D01*
X109576241Y-59082753D01*
X109576240Y-59082753D01*
X109414957Y-59057208D01*
X109366287Y-59049500D01*
X109153713Y-59049500D01*
X109105042Y-59057208D01*
X108943760Y-59082753D01*
X108741585Y-59148444D01*
X108552179Y-59244951D01*
X108380213Y-59369890D01*
X108229890Y-59520213D01*
X108104951Y-59692179D01*
X108008444Y-59881585D01*
X107942753Y-60083760D01*
X107909500Y-60293713D01*
X107909500Y-60506286D01*
X107942753Y-60716239D01*
X108008444Y-60918414D01*
X108104951Y-61107820D01*
X108232759Y-61283734D01*
X108231888Y-61284366D01*
X108240413Y-61303380D01*
X108254477Y-61325264D01*
X108256484Y-61339223D01*
X108258357Y-61343401D01*
X108259500Y-61360199D01*
X108259500Y-61524217D01*
X108239815Y-61591256D01*
X108223181Y-61611898D01*
X107553250Y-62281829D01*
X107162221Y-62672858D01*
X107162218Y-62672861D01*
X107122959Y-62712120D01*
X107022859Y-62812219D01*
X106913371Y-62976080D01*
X106913366Y-62976089D01*
X106866774Y-63088572D01*
X106866770Y-63088583D01*
X106864074Y-63095094D01*
X106837949Y-63158164D01*
X106818724Y-63254812D01*
X106817725Y-63259831D01*
X106817724Y-63259837D01*
X106799500Y-63351455D01*
X106799500Y-67835500D01*
X106779815Y-67902539D01*
X106727011Y-67948294D01*
X106675500Y-67959500D01*
X105631970Y-67959500D01*
X105564931Y-67939815D01*
X105558031Y-67935044D01*
X105550726Y-67929618D01*
X105539563Y-67918455D01*
X105365678Y-67792120D01*
X105365468Y-67792013D01*
X105362144Y-67789544D01*
X105341474Y-67762146D01*
X105320532Y-67734988D01*
X105320473Y-67734310D01*
X105320064Y-67733767D01*
X105317486Y-67699534D01*
X105314553Y-67665375D01*
X105314870Y-67664774D01*
X105314819Y-67664095D01*
X105331161Y-67633898D01*
X105347159Y-67603580D01*
X105347933Y-67602909D01*
X105348075Y-67602647D01*
X105348516Y-67602403D01*
X105363198Y-67589682D01*
X105454241Y-67523535D01*
X105539563Y-67461545D01*
X105691545Y-67309563D01*
X105817880Y-67135678D01*
X105915458Y-66944170D01*
X105957081Y-66816068D01*
X105981875Y-66739759D01*
X105981875Y-66739758D01*
X105981876Y-66739755D01*
X106015500Y-66527467D01*
X106015500Y-66312533D01*
X105981876Y-66100245D01*
X105981875Y-66100241D01*
X105981875Y-66100240D01*
X105915459Y-65895832D01*
X105915458Y-65895829D01*
X105819277Y-65707064D01*
X105817880Y-65704322D01*
X105691545Y-65530437D01*
X105539563Y-65378455D01*
X105539559Y-65378452D01*
X105363198Y-65250318D01*
X105320532Y-65194988D01*
X105314553Y-65125375D01*
X105347159Y-65063580D01*
X105363198Y-65049682D01*
X105391381Y-65029205D01*
X105539563Y-64921545D01*
X105691545Y-64769563D01*
X105817880Y-64595678D01*
X105915458Y-64404170D01*
X105955450Y-64281087D01*
X105981875Y-64199759D01*
X105981875Y-64199758D01*
X105981876Y-64199755D01*
X106015500Y-63987467D01*
X106015500Y-63772533D01*
X105981876Y-63560245D01*
X105981875Y-63560241D01*
X105981875Y-63560240D01*
X105915459Y-63355832D01*
X105915458Y-63355829D01*
X105817879Y-63164321D01*
X105805814Y-63147715D01*
X105691545Y-62990437D01*
X105539563Y-62838455D01*
X105365678Y-62712120D01*
X105288630Y-62672862D01*
X105174170Y-62614541D01*
X105174167Y-62614540D01*
X104969757Y-62548124D01*
X104828229Y-62525708D01*
X104757467Y-62514500D01*
X104242533Y-62514500D01*
X104171770Y-62525708D01*
X104030243Y-62548124D01*
X104030240Y-62548124D01*
X103825832Y-62614540D01*
X103825829Y-62614541D01*
X103634321Y-62712120D01*
X103558595Y-62767139D01*
X103460437Y-62838455D01*
X103460435Y-62838457D01*
X103460434Y-62838457D01*
X103308457Y-62990434D01*
X103308457Y-62990435D01*
X103308455Y-62990437D01*
X103261707Y-63054780D01*
X103182120Y-63164321D01*
X103084541Y-63355829D01*
X103084540Y-63355832D01*
X103018124Y-63560240D01*
X103018124Y-63560243D01*
X103015250Y-63578390D01*
X102986362Y-63760781D01*
X102984500Y-63772534D01*
X102984500Y-63987465D01*
X103018124Y-64199756D01*
X103018124Y-64199759D01*
X103084540Y-64404167D01*
X103084541Y-64404170D01*
X103155713Y-64543851D01*
X103182120Y-64595678D01*
X103308455Y-64769563D01*
X103460437Y-64921545D01*
X103606181Y-65027434D01*
X103636802Y-65049682D01*
X103679467Y-65105012D01*
X103685446Y-65174626D01*
X103652840Y-65236421D01*
X103636802Y-65250318D01*
X103634322Y-65252120D01*
X103460437Y-65378455D01*
X103460435Y-65378457D01*
X103460434Y-65378457D01*
X103308457Y-65530434D01*
X103308457Y-65530435D01*
X103308455Y-65530437D01*
X103304914Y-65535311D01*
X103182120Y-65704321D01*
X103117815Y-65830527D01*
X103069840Y-65881323D01*
X103002019Y-65898118D01*
X102935884Y-65875580D01*
X102919649Y-65861913D01*
X102852842Y-65795106D01*
X102852838Y-65795103D01*
X102721080Y-65707064D01*
X102721071Y-65707059D01*
X102574664Y-65646416D01*
X102574656Y-65646414D01*
X102419240Y-65615500D01*
X102419236Y-65615500D01*
X102260764Y-65615500D01*
X102260759Y-65615500D01*
X102105343Y-65646414D01*
X102105335Y-65646416D01*
X101958928Y-65707059D01*
X101958919Y-65707064D01*
X101827161Y-65795103D01*
X101827157Y-65795106D01*
X101715106Y-65907157D01*
X101715103Y-65907161D01*
X101627064Y-66038919D01*
X101627059Y-66038928D01*
X101566416Y-66185335D01*
X101566414Y-66185343D01*
X101535500Y-66340759D01*
X100500500Y-66340759D01*
X100500500Y-54003051D01*
X100500649Y-53996967D01*
X100517052Y-53663072D01*
X100518245Y-53650962D01*
X100566849Y-53323296D01*
X100569218Y-53311385D01*
X100649710Y-52990043D01*
X100653240Y-52978411D01*
X100764835Y-52666525D01*
X100769476Y-52655318D01*
X100911124Y-52355828D01*
X100916840Y-52345136D01*
X101087145Y-52060998D01*
X101093888Y-52050905D01*
X101291232Y-51784818D01*
X101298935Y-51775433D01*
X101521405Y-51529975D01*
X101529975Y-51521405D01*
X101775433Y-51298935D01*
X101784818Y-51291232D01*
X102050905Y-51093888D01*
X102060998Y-51087145D01*
X102345136Y-50916840D01*
X102355828Y-50911124D01*
X102655318Y-50769476D01*
X102666525Y-50764835D01*
X102978412Y-50653239D01*
X102990043Y-50649710D01*
X103311385Y-50569218D01*
X103323296Y-50566849D01*
X103650962Y-50518244D01*
X103663068Y-50517052D01*
X103996967Y-50500648D01*
X104003051Y-50500500D01*
X104065892Y-50500500D01*
X137434108Y-50500500D01*
X137495933Y-50500500D01*
X137504043Y-50500765D01*
G37*
%TD.AperFunction*%
%TD*%
M02*
